%TF.GenerationSoftware,KiCad,Pcbnew,9.0.6*%
%TF.CreationDate,2026-03-13T15:36:19-07:00*%
%TF.ProjectId,20AL_Pendulum_Photogate,3230414c-5f50-4656-9e64-756c756d5f50,rev?*%
%TF.SameCoordinates,Original*%
%TF.FileFunction,Copper,L2,Bot*%
%TF.FilePolarity,Positive*%
%FSLAX46Y46*%
G04 Gerber Fmt 4.6, Leading zero omitted, Abs format (unit mm)*
G04 Created by KiCad (PCBNEW 9.0.6) date 2026-03-13 15:36:19*
%MOMM*%
%LPD*%
G01*
G04 APERTURE LIST*
G04 Aperture macros list*
%AMRoundRect*
0 Rectangle with rounded corners*
0 $1 Rounding radius*
0 $2 $3 $4 $5 $6 $7 $8 $9 X,Y pos of 4 corners*
0 Add a 4 corners polygon primitive as box body*
4,1,4,$2,$3,$4,$5,$6,$7,$8,$9,$2,$3,0*
0 Add four circle primitives for the rounded corners*
1,1,$1+$1,$2,$3*
1,1,$1+$1,$4,$5*
1,1,$1+$1,$6,$7*
1,1,$1+$1,$8,$9*
0 Add four rect primitives between the rounded corners*
20,1,$1+$1,$2,$3,$4,$5,0*
20,1,$1+$1,$4,$5,$6,$7,0*
20,1,$1+$1,$6,$7,$8,$9,0*
20,1,$1+$1,$8,$9,$2,$3,0*%
G04 Aperture macros list end*
%TA.AperFunction,ComponentPad*%
%ADD10C,1.727200*%
%TD*%
%TA.AperFunction,ComponentPad*%
%ADD11R,1.727200X1.727200*%
%TD*%
%TA.AperFunction,ComponentPad*%
%ADD12RoundRect,0.250000X-0.664400X-1.020000X0.664400X-1.020000X0.664400X1.020000X-0.664400X1.020000X0*%
%TD*%
%TA.AperFunction,ComponentPad*%
%ADD13RoundRect,0.294118X-0.721882X-0.975882X0.721882X-0.975882X0.721882X0.975882X-0.721882X0.975882X0*%
%TD*%
%TA.AperFunction,ComponentPad*%
%ADD14O,1.905000X2.540000*%
%TD*%
%TA.AperFunction,ComponentPad*%
%ADD15O,2.032000X2.540000*%
%TD*%
%TA.AperFunction,ComponentPad*%
%ADD16RoundRect,0.250000X1.020000X-0.613600X1.020000X0.613600X-1.020000X0.613600X-1.020000X-0.613600X0*%
%TD*%
%TA.AperFunction,ComponentPad*%
%ADD17O,2.540000X1.727200*%
%TD*%
%TA.AperFunction,ComponentPad*%
%ADD18RoundRect,0.250000X0.613600X-1.020000X0.613600X1.020000X-0.613600X1.020000X-0.613600X-1.020000X0*%
%TD*%
%TA.AperFunction,ComponentPad*%
%ADD19O,1.727200X2.540000*%
%TD*%
%TA.AperFunction,Conductor*%
%ADD20C,0.508000*%
%TD*%
G04 APERTURE END LIST*
D10*
%TO.P,C5,1*%
%TO.N,GND*%
X149098000Y-67310000D03*
%TO.P,C5,2*%
%TO.N,Net-(D2-K)*%
X149098000Y-72310000D03*
%TD*%
%TO.P,R9,1*%
%TO.N,VCC*%
X36830000Y-34798000D03*
%TO.P,R9,2*%
%TO.N,Net-(D1-A)*%
X26670000Y-34798000D03*
%TD*%
%TO.P,U1,1,RST*%
%TO.N,unconnected-(U1-RST-Pad1)*%
X52070000Y-88900000D03*
%TO.P,U1,2,3V*%
%TO.N,VCC*%
X54610000Y-88900000D03*
%TO.P,U1,3,AREF*%
%TO.N,unconnected-(U1-AREF-Pad3)*%
X57150000Y-88900000D03*
%TO.P,U1,4,VHI*%
%TO.N,unconnected-(U1-VHI-Pad4)*%
X59690000Y-88900000D03*
%TO.P,U1,5,A0*%
%TO.N,unconnected-(U1-A0-Pad5)*%
X62230000Y-88900000D03*
%TO.P,U1,6,A1*%
%TO.N,unconnected-(U1-A1-Pad6)*%
X64770000Y-88900000D03*
%TO.P,U1,7,A2*%
%TO.N,unconnected-(U1-A2-Pad7)*%
X67310000Y-88900000D03*
%TO.P,U1,8,A3*%
%TO.N,unconnected-(U1-A3-Pad8)*%
X69850000Y-88900000D03*
%TO.P,U1,9,A4*%
%TO.N,unconnected-(U1-A4-Pad9)*%
X72390000Y-88900000D03*
%TO.P,U1,10,A5*%
%TO.N,Net-(SW2-B)*%
X74930000Y-88900000D03*
%TO.P,U1,11,SCK*%
%TO.N,unconnected-(U1-SCK-Pad11)*%
X77470000Y-88900000D03*
%TO.P,U1,12,MOSI*%
%TO.N,unconnected-(U1-MOSI-Pad12)*%
X80010000Y-88900000D03*
%TO.P,U1,13,MISO*%
%TO.N,unconnected-(U1-MISO-Pad13)*%
X82550000Y-88900000D03*
%TO.P,U1,14,D2*%
%TO.N,unconnected-(U1-D2-Pad14)*%
X85090000Y-88900000D03*
%TO.P,U1,20,RX*%
%TO.N,unconnected-(U1-RX-Pad20)*%
X85090000Y-73660000D03*
%TO.P,U1,21,TX*%
%TO.N,unconnected-(U1-TX-Pad21)*%
X82550000Y-73660000D03*
%TO.P,U1,22,SDA*%
%TO.N,unconnected-(U1-SDA-Pad22)*%
X80010000Y-73660000D03*
%TO.P,U1,23,SCL*%
%TO.N,unconnected-(U1-SCL-Pad23)*%
X77470000Y-73660000D03*
%TO.P,U1,24,D5*%
%TO.N,unconnected-(U1-D5-Pad24)*%
X74930000Y-73660000D03*
%TO.P,U1,25,D7*%
%TO.N,unconnected-(U1-D7-Pad25)*%
X72390000Y-73660000D03*
%TO.P,U1,26,D9*%
%TO.N,unconnected-(U1-D9-Pad26)*%
X69850000Y-73660000D03*
%TO.P,U1,27,D10*%
%TO.N,INT*%
X67310000Y-73660000D03*
%TO.P,U1,28,D11*%
%TO.N,unconnected-(U1-D11-Pad28)*%
X64770000Y-73660000D03*
%TO.P,U1,29,D12*%
%TO.N,unconnected-(U1-D12-Pad29)*%
X62230000Y-73660000D03*
%TO.P,U1,30,D13*%
%TO.N,unconnected-(U1-D13-Pad30)*%
X59690000Y-73660000D03*
%TO.P,U1,31,VUSB*%
%TO.N,unconnected-(U1-VUSB-Pad31)*%
X57150000Y-73660000D03*
%TO.P,U1,32,GND*%
%TO.N,GND*%
X54610000Y-73660000D03*
%TO.P,U1,33,VBAT*%
%TO.N,unconnected-(U1-VBAT-Pad33)*%
X52070000Y-73660000D03*
%TD*%
D11*
%TO.P,D2,1,K*%
%TO.N,Net-(D2-K)*%
X143002000Y-74930000D03*
D10*
%TO.P,D2,2,A*%
%TO.N,Net-(D2-A)*%
X143002000Y-67310000D03*
%TD*%
%TO.P,C9,1*%
%TO.N,VCC*%
X123738000Y-71628000D03*
%TO.P,C9,2*%
%TO.N,GND*%
X128738000Y-71628000D03*
%TD*%
%TO.P,C6,1*%
%TO.N,Net-(Q5-C)*%
X148550000Y-52578000D03*
%TO.P,C6,2*%
%TO.N,Net-(Q8-B)*%
X143550000Y-52578000D03*
%TD*%
%TO.P,R19,1*%
%TO.N,Net-(R1-Pad1)*%
X107188000Y-71628000D03*
%TO.P,R19,2*%
%TO.N,Net-(Q1-B)*%
X107188000Y-84328000D03*
%TD*%
D11*
%TO.P,Q8,1,E*%
%TO.N,GND*%
X151130000Y-59690000D03*
D10*
%TO.P,Q8,2,B*%
%TO.N,Net-(Q8-B)*%
X148590000Y-59690000D03*
%TO.P,Q8,3,C*%
%TO.N,Net-(D2-A)*%
X146050000Y-59690000D03*
%TD*%
%TO.P,R26,1*%
%TO.N,VCC*%
X140970000Y-64262000D03*
%TO.P,R26,2*%
%TO.N,Net-(D2-A)*%
X148590000Y-64262000D03*
%TD*%
%TO.P,R7,1*%
%TO.N,Net-(D3-A)*%
X103886000Y-79756000D03*
%TO.P,R7,2*%
%TO.N,VCC*%
X103886000Y-69596000D03*
%TD*%
%TO.P,R11,1*%
%TO.N,VCC*%
X140970000Y-40894000D03*
%TO.P,R11,2*%
%TO.N,Net-(Q5-B)*%
X148590000Y-40894000D03*
%TD*%
%TO.P,R15,1*%
%TO.N,Net-(D2-K)*%
X146050000Y-74930000D03*
%TO.P,R15,2*%
%TO.N,GND*%
X146050000Y-67310000D03*
%TD*%
D12*
%TO.P,SW2,*%
%TO.N,*%
X88546000Y-90678000D03*
X101446000Y-90678000D03*
D13*
%TO.P,SW2,1,A*%
%TO.N,unconnected-(SW2-A-Pad1)*%
X91996000Y-90678000D03*
D14*
%TO.P,SW2,2,B*%
%TO.N,Net-(SW2-B)*%
X94996000Y-90678000D03*
D15*
%TO.P,SW2,3,C*%
%TO.N,GND*%
X97996000Y-90678000D03*
%TD*%
D11*
%TO.P,Q3,1,E*%
%TO.N,GND*%
X26670000Y-42778000D03*
D10*
%TO.P,Q3,2,B*%
%TO.N,Net-(Q2-C)*%
X29210000Y-42778000D03*
%TO.P,Q3,3,C*%
%TO.N,Net-(D1-K)*%
X31750000Y-42778000D03*
%TD*%
%TO.P,C3,1*%
%TO.N,Net-(C3-Pad1)*%
X40600000Y-71628000D03*
%TO.P,C3,2*%
%TO.N,Net-(Q2-B)*%
X35600000Y-71628000D03*
%TD*%
D16*
%TO.P,D1,1,K*%
%TO.N,Net-(D1-K)*%
X34885000Y-29215000D03*
D17*
%TO.P,D1,2,A*%
%TO.N,Net-(D1-A)*%
X34885000Y-26675000D03*
%TD*%
D10*
%TO.P,R18,1*%
%TO.N,Net-(U2B-+)*%
X135636000Y-81534000D03*
%TO.P,R18,2*%
%TO.N,Net-(R1-Pad1)*%
X135636000Y-73914000D03*
%TD*%
D11*
%TO.P,Q5,1,E*%
%TO.N,GND*%
X151130000Y-44704000D03*
D10*
%TO.P,Q5,2,B*%
%TO.N,Net-(Q5-B)*%
X148590000Y-44704000D03*
%TO.P,Q5,3,C*%
%TO.N,Net-(Q5-C)*%
X146050000Y-44704000D03*
%TD*%
D11*
%TO.P,Q1,1,E*%
%TO.N,GND*%
X106172000Y-92964000D03*
D10*
%TO.P,Q1,2,B*%
%TO.N,Net-(Q1-B)*%
X106172000Y-90424000D03*
%TO.P,Q1,3,C*%
%TO.N,Net-(D3-K)*%
X106172000Y-87884000D03*
%TD*%
%TO.P,R1,1*%
%TO.N,Net-(R1-Pad1)*%
X113792000Y-77724000D03*
%TO.P,R1,2*%
%TO.N,Net-(Q7-B)*%
X113792000Y-85344000D03*
%TD*%
%TO.P,R16,1*%
%TO.N,Net-(U2B-+)*%
X139044624Y-77216000D03*
%TO.P,R16,2*%
%TO.N,VCC*%
X139044624Y-69596000D03*
%TD*%
%TO.P,R6,1*%
%TO.N,VCC*%
X36830000Y-55372000D03*
%TO.P,R6,2*%
%TO.N,Net-(Q2-B)*%
X29210000Y-55372000D03*
%TD*%
%TO.P,R10,1*%
%TO.N,Net-(Q4-E)*%
X143510000Y-34544000D03*
%TO.P,R10,2*%
%TO.N,GND*%
X151130000Y-34544000D03*
%TD*%
%TO.P,R13,1*%
%TO.N,VCC*%
X140970000Y-49276000D03*
%TO.P,R13,2*%
%TO.N,Net-(Q5-C)*%
X148590000Y-49276000D03*
%TD*%
%TO.P,R4,1*%
%TO.N,Net-(U2A-+)*%
X116840000Y-82296000D03*
%TO.P,R4,2*%
%TO.N,Net-(C3-Pad1)*%
X116840000Y-89916000D03*
%TD*%
D11*
%TO.P,Q4,1,C*%
%TO.N,VCC*%
X142915000Y-26665000D03*
D10*
%TO.P,Q4,2,E*%
%TO.N,Net-(Q4-E)*%
X142915000Y-29205000D03*
%TD*%
%TO.P,R8,1*%
%TO.N,VCC*%
X36830000Y-46736000D03*
%TO.P,R8,2*%
%TO.N,Net-(Q2-C)*%
X29210000Y-46736000D03*
%TD*%
%TO.P,R5,1*%
%TO.N,Net-(U2A--)*%
X131318000Y-86868000D03*
%TO.P,R5,2*%
%TO.N,Net-(C3-Pad1)*%
X123698000Y-86868000D03*
%TD*%
%TO.P,C4,1*%
%TO.N,Net-(Q4-E)*%
X143550000Y-37592000D03*
%TO.P,C4,2*%
%TO.N,Net-(Q5-B)*%
X148550000Y-37592000D03*
%TD*%
%TO.P,R17,1*%
%TO.N,Net-(U2B-+)*%
X143510000Y-77724000D03*
%TO.P,R17,2*%
%TO.N,GND*%
X151130000Y-77724000D03*
%TD*%
D11*
%TO.P,Q7,1,E*%
%TO.N,GND*%
X112268000Y-92964000D03*
D10*
%TO.P,Q7,2,B*%
%TO.N,Net-(Q7-B)*%
X112268000Y-90424000D03*
%TO.P,Q7,3,C*%
%TO.N,INT*%
X112268000Y-87884000D03*
%TD*%
%TO.P,R3,1*%
%TO.N,Net-(U2A-+)*%
X120142000Y-85344000D03*
%TO.P,R3,2*%
%TO.N,GND*%
X120142000Y-92964000D03*
%TD*%
%TO.P,R24,1*%
%TO.N,VCC*%
X140970000Y-55880000D03*
%TO.P,R24,2*%
%TO.N,Net-(Q8-B)*%
X148590000Y-55880000D03*
%TD*%
D11*
%TO.P,D3,1,K*%
%TO.N,Net-(D3-K)*%
X99060000Y-82550000D03*
D10*
%TO.P,D3,2,A*%
%TO.N,Net-(D3-A)*%
X99060000Y-80010000D03*
%TD*%
D18*
%TO.P,U2,1*%
%TO.N,Net-(C3-Pad1)*%
X123698000Y-83566000D03*
D19*
%TO.P,U2,2,-*%
%TO.N,Net-(U2A--)*%
X126238000Y-83566000D03*
%TO.P,U2,3,+*%
%TO.N,Net-(U2A-+)*%
X128778000Y-83566000D03*
%TO.P,U2,4,V-*%
%TO.N,GND*%
X131318000Y-83566000D03*
%TO.P,U2,5,+*%
%TO.N,Net-(U2B-+)*%
X131318000Y-75946000D03*
%TO.P,U2,6,-*%
%TO.N,Net-(D2-K)*%
X128778000Y-75946000D03*
%TO.P,U2,7*%
%TO.N,Net-(R1-Pad1)*%
X126238000Y-75946000D03*
%TO.P,U2,8,V+*%
%TO.N,VCC*%
X123698000Y-75946000D03*
%TD*%
D10*
%TO.P,C2,1*%
%TO.N,Net-(U2A--)*%
X131318000Y-90170000D03*
%TO.P,C2,2*%
%TO.N,GND*%
X126318000Y-90170000D03*
%TD*%
D11*
%TO.P,Q2,1,E*%
%TO.N,GND*%
X26670000Y-51414000D03*
D10*
%TO.P,Q2,2,B*%
%TO.N,Net-(Q2-B)*%
X29210000Y-51414000D03*
%TO.P,Q2,3,C*%
%TO.N,Net-(Q2-C)*%
X31750000Y-51414000D03*
%TD*%
%TO.P,C1,1*%
%TO.N,GND*%
X29250000Y-38100000D03*
%TO.P,C1,2*%
%TO.N,VCC*%
X34250000Y-38100000D03*
%TD*%
%TO.P,R2,1*%
%TO.N,VCC*%
X120142000Y-69596000D03*
%TO.P,R2,2*%
%TO.N,Net-(U2A-+)*%
X120142000Y-82296000D03*
%TD*%
%TO.P,R20,1*%
%TO.N,VCC*%
X110490000Y-69596000D03*
%TO.P,R20,2*%
%TO.N,INT*%
X110490000Y-84836000D03*
%TD*%
D20*
%TO.N,GND*%
X136092200Y-93015800D02*
X138430000Y-90678000D01*
X97996000Y-90678000D02*
X97996000Y-90782978D01*
X26670000Y-58674000D02*
X26670000Y-40680000D01*
X29210000Y-61214000D02*
X26670000Y-58674000D01*
X92408000Y-84836000D02*
X97996000Y-90424000D01*
X126318000Y-90170000D02*
X126318000Y-92935800D01*
X149098000Y-67310000D02*
X151130000Y-67310000D01*
X141732000Y-71628000D02*
X146050000Y-67310000D01*
X100228822Y-93015800D02*
X126238000Y-93015800D01*
X97996000Y-90782978D02*
X100228822Y-93015800D01*
X145796000Y-67310000D02*
X149098000Y-67310000D01*
X151130000Y-77978000D02*
X151130000Y-67310000D01*
X33528000Y-62230000D02*
X32512000Y-61214000D01*
X33528000Y-80772000D02*
X33528000Y-62230000D01*
X126238000Y-93015800D02*
X136092200Y-93015800D01*
X26670000Y-40680000D02*
X29250000Y-38100000D01*
X151130000Y-67310000D02*
X151130000Y-34544000D01*
X97996000Y-90678000D02*
X97996000Y-90852636D01*
X32512000Y-61214000D02*
X29210000Y-61214000D01*
X54610000Y-74881314D02*
X64564686Y-84836000D01*
X97996000Y-90424000D02*
X97996000Y-90678000D01*
X97996000Y-90852636D02*
X95832836Y-93015800D01*
X131318000Y-83566000D02*
X138430000Y-90678000D01*
X64564686Y-84836000D02*
X92408000Y-84836000D01*
X128738000Y-71628000D02*
X141732000Y-71628000D01*
X54610000Y-73660000D02*
X54610000Y-74881314D01*
X138430000Y-90678000D02*
X151130000Y-77978000D01*
X126318000Y-92935800D02*
X126238000Y-93015800D01*
X45771800Y-93015800D02*
X33528000Y-80772000D01*
X95832836Y-93015800D02*
X45771800Y-93015800D01*
%TO.N,Net-(U2A--)*%
X126238000Y-83566000D02*
X126238000Y-84531200D01*
X128574800Y-86868000D02*
X131318000Y-86868000D01*
X131318000Y-86868000D02*
X131318000Y-90170000D01*
X126238000Y-84531200D02*
X128574800Y-86868000D01*
%TO.N,Net-(Q2-B)*%
X29210000Y-55372000D02*
X29210000Y-51414000D01*
X35052000Y-61214000D02*
X29210000Y-55372000D01*
X35052000Y-71080000D02*
X35052000Y-61214000D01*
X35600000Y-71628000D02*
X35052000Y-71080000D01*
%TO.N,Net-(C3-Pad1)*%
X120650000Y-89916000D02*
X123698000Y-86868000D01*
X102807413Y-71628000D02*
X40600000Y-71628000D01*
X116840000Y-85660587D02*
X102807413Y-71628000D01*
X123698000Y-83566000D02*
X123698000Y-86868000D01*
X116840000Y-89916000D02*
X120650000Y-89916000D01*
X116840000Y-89916000D02*
X116840000Y-85660587D01*
%TO.N,Net-(Q5-B)*%
X148590000Y-44704000D02*
X148590000Y-40894000D01*
X148550000Y-40854000D02*
X148590000Y-40894000D01*
X148550000Y-37592000D02*
X148550000Y-40854000D01*
%TO.N,Net-(Q4-E)*%
X143256000Y-29546000D02*
X143256000Y-34290000D01*
X142915000Y-29205000D02*
X143256000Y-29546000D01*
X143510000Y-34544000D02*
X143510000Y-37846000D01*
X143256000Y-34290000D02*
X143510000Y-34544000D01*
%TO.N,Net-(D2-K)*%
X140500013Y-83465400D02*
X146050000Y-77915413D01*
X146050000Y-74930000D02*
X146304000Y-74930000D01*
X148924000Y-72310000D02*
X149098000Y-72310000D01*
X128778000Y-77407413D02*
X134835987Y-83465400D01*
X146050000Y-74930000D02*
X143002000Y-74930000D01*
X146050000Y-77915413D02*
X146050000Y-74930000D01*
X146304000Y-74930000D02*
X148924000Y-72310000D01*
X134835987Y-83465400D02*
X140500013Y-83465400D01*
X128778000Y-75946000D02*
X128778000Y-77407413D01*
%TO.N,Net-(D1-K)*%
X31750000Y-42778000D02*
X31750000Y-34798000D01*
X31750000Y-34798000D02*
X34885000Y-31663000D01*
X34885000Y-31663000D02*
X34885000Y-29215000D01*
%TO.N,Net-(D1-A)*%
X28130578Y-34798000D02*
X32547200Y-30381378D01*
X33920822Y-26675000D02*
X34885000Y-26675000D01*
X26924000Y-34798000D02*
X28130578Y-34798000D01*
X32547200Y-30381378D02*
X32547200Y-28048622D01*
X32547200Y-28048622D02*
X33920822Y-26675000D01*
%TO.N,Net-(D2-A)*%
X142748000Y-67310000D02*
X147193000Y-62865000D01*
X147193000Y-62865000D02*
X148590000Y-64262000D01*
X146050000Y-61722000D02*
X147193000Y-62865000D01*
X146050000Y-59690000D02*
X146050000Y-61722000D01*
%TO.N,Net-(D3-K)*%
X100838000Y-82550000D02*
X106172000Y-87884000D01*
X99060000Y-82550000D02*
X100838000Y-82550000D01*
%TO.N,Net-(Q2-C)*%
X29210000Y-46736000D02*
X31750000Y-49276000D01*
X29210000Y-42778000D02*
X29210000Y-46736000D01*
X31750000Y-49276000D02*
X31750000Y-51414000D01*
%TO.N,VCC*%
X54610000Y-88900000D02*
X54610000Y-88392000D01*
X36830000Y-38100000D02*
X36830000Y-34798000D01*
X141543400Y-26665000D02*
X140970000Y-27238400D01*
X38608000Y-69596000D02*
X36830000Y-67818000D01*
X123738000Y-75906000D02*
X123698000Y-75946000D01*
X142915000Y-26665000D02*
X141543400Y-26665000D01*
X36830000Y-67818000D02*
X36830000Y-38100000D01*
X139044624Y-69596000D02*
X123698000Y-69596000D01*
X123738000Y-69636000D02*
X123698000Y-69596000D01*
X123738000Y-71628000D02*
X123738000Y-75906000D01*
X140970000Y-67670624D02*
X139044624Y-69596000D01*
X34250000Y-38100000D02*
X36830000Y-38100000D01*
X38608000Y-75184000D02*
X38608000Y-69596000D01*
X50038000Y-86614000D02*
X38608000Y-75184000D01*
X54610000Y-88392000D02*
X52832000Y-86614000D01*
X123738000Y-71628000D02*
X123738000Y-69636000D01*
X140970000Y-27238400D02*
X140970000Y-67670624D01*
X123698000Y-69596000D02*
X38608000Y-69596000D01*
X52832000Y-86614000D02*
X50038000Y-86614000D01*
%TO.N,Net-(Q5-C)*%
X146050000Y-44704000D02*
X146050000Y-46736000D01*
X148590000Y-52538000D02*
X148550000Y-52578000D01*
X146050000Y-46736000D02*
X148590000Y-49276000D01*
X148590000Y-49276000D02*
X148590000Y-52538000D01*
%TO.N,INT*%
X67310000Y-74422000D02*
X67310000Y-73660000D01*
X110490000Y-83614686D02*
X102567314Y-75692000D01*
X110490000Y-84836000D02*
X110490000Y-83614686D01*
X112268000Y-86614000D02*
X110490000Y-84836000D01*
X102567314Y-75692000D02*
X68580000Y-75692000D01*
X68580000Y-75692000D02*
X67310000Y-74422000D01*
X112268000Y-87884000D02*
X112268000Y-86614000D01*
%TO.N,Net-(Q7-B)*%
X114655599Y-86207599D02*
X113792000Y-85344000D01*
X114655599Y-88227814D02*
X114655599Y-86207599D01*
X112459413Y-90424000D02*
X114655599Y-88227814D01*
X112268000Y-90424000D02*
X112459413Y-90424000D01*
%TO.N,Net-(U2A-+)*%
X121209800Y-81228200D02*
X127202200Y-81228200D01*
X116840000Y-82296000D02*
X120142000Y-82296000D01*
X128778000Y-82804000D02*
X128778000Y-83566000D01*
X120142000Y-82296000D02*
X121209800Y-81228200D01*
X127202200Y-81228200D02*
X128778000Y-82804000D01*
X120142000Y-82296000D02*
X120142000Y-85344000D01*
%TO.N,Net-(U2B-+)*%
X139044624Y-77216000D02*
X143002000Y-77216000D01*
X131572000Y-75946000D02*
X132842000Y-77216000D01*
X135636000Y-81534000D02*
X135636000Y-77216000D01*
X132842000Y-77216000D02*
X135636000Y-77216000D01*
X143002000Y-77216000D02*
X143510000Y-77724000D01*
X131318000Y-75946000D02*
X131572000Y-75946000D01*
X135636000Y-77216000D02*
X139044624Y-77216000D01*
%TO.N,Net-(SW2-B)*%
X91910408Y-86968600D02*
X94996000Y-90054192D01*
X94996000Y-90054192D02*
X94996000Y-90678000D01*
X74930000Y-88900000D02*
X74930000Y-88594086D01*
X74930000Y-88594086D02*
X76555486Y-86968600D01*
X76555486Y-86968600D02*
X91910408Y-86968600D01*
%TO.N,Net-(Q1-B)*%
X106363413Y-90424000D02*
X106172000Y-90424000D01*
X107188000Y-84328000D02*
X108103400Y-85243400D01*
X108103400Y-85243400D02*
X108103400Y-88684013D01*
X108103400Y-88684013D02*
X106363413Y-90424000D01*
%TO.N,Net-(D3-A)*%
X103886000Y-79756000D02*
X99314000Y-79756000D01*
X99314000Y-79756000D02*
X99060000Y-80010000D01*
%TO.N,Net-(Q8-B)*%
X145288000Y-52578000D02*
X148590000Y-55880000D01*
X143550000Y-52578000D02*
X145288000Y-52578000D01*
X148590000Y-55880000D02*
X148590000Y-59690000D01*
%TO.N,Net-(R1-Pad1)*%
X120904000Y-77724000D02*
X113792000Y-77724000D01*
X127610600Y-73608200D02*
X135330200Y-73608200D01*
X113792000Y-77724000D02*
X113284000Y-77724000D01*
X121463800Y-78283800D02*
X120904000Y-77724000D01*
X126238000Y-76543812D02*
X124498012Y-78283800D01*
X113284000Y-77724000D02*
X107188000Y-71628000D01*
X124498012Y-78283800D02*
X121463800Y-78283800D01*
X126238000Y-75946000D02*
X126238000Y-76543812D01*
X126238000Y-74980800D02*
X127610600Y-73608200D01*
X126238000Y-75946000D02*
X126238000Y-74980800D01*
X135330200Y-73608200D02*
X135636000Y-73914000D01*
%TD*%
%TA.AperFunction,Conductor*%
%TO.N,GND*%
G36*
X26924000Y-53090400D02*
G01*
X27579245Y-53090400D01*
X27715609Y-53075034D01*
X27806138Y-53043357D01*
X27903885Y-53029557D01*
X27999472Y-53054213D01*
X28078347Y-53113573D01*
X28128502Y-53198597D01*
X28142700Y-53282159D01*
X28142700Y-53963010D01*
X28123442Y-54059829D01*
X28068598Y-54141908D01*
X27946534Y-54263971D01*
X27812720Y-54438361D01*
X27812711Y-54438374D01*
X27702812Y-54628723D01*
X27702810Y-54628727D01*
X27618686Y-54831821D01*
X27561793Y-55044146D01*
X27561791Y-55044154D01*
X27533100Y-55262077D01*
X27533100Y-55481922D01*
X27561791Y-55699845D01*
X27561792Y-55699849D01*
X27618686Y-55912178D01*
X27650888Y-55989922D01*
X27702810Y-56115272D01*
X27702812Y-56115276D01*
X27812711Y-56305625D01*
X27812717Y-56305635D01*
X27946535Y-56480029D01*
X28101971Y-56635465D01*
X28276365Y-56769283D01*
X28276374Y-56769288D01*
X28466723Y-56879187D01*
X28466727Y-56879189D01*
X28466730Y-56879190D01*
X28466735Y-56879193D01*
X28669822Y-56963314D01*
X28882151Y-57020208D01*
X28959944Y-57030449D01*
X29100077Y-57048899D01*
X29100087Y-57048899D01*
X29100090Y-57048900D01*
X29100092Y-57048900D01*
X29272714Y-57048900D01*
X29369533Y-57068158D01*
X29451612Y-57123002D01*
X33910598Y-61581988D01*
X33965442Y-61664067D01*
X33984700Y-61760886D01*
X33984700Y-71144029D01*
X33976079Y-71209511D01*
X33951793Y-71300142D01*
X33951791Y-71300154D01*
X33923100Y-71518077D01*
X33923100Y-71737922D01*
X33951791Y-71955845D01*
X33951792Y-71955849D01*
X34008686Y-72168178D01*
X34071671Y-72320239D01*
X34092810Y-72371272D01*
X34092812Y-72371276D01*
X34202711Y-72561625D01*
X34202717Y-72561635D01*
X34280015Y-72662371D01*
X34329119Y-72726365D01*
X34336535Y-72736029D01*
X34491971Y-72891465D01*
X34666365Y-73025283D01*
X34666374Y-73025288D01*
X34856723Y-73135187D01*
X34856727Y-73135189D01*
X34856730Y-73135190D01*
X34856735Y-73135193D01*
X35059822Y-73219314D01*
X35272151Y-73276208D01*
X35349944Y-73286449D01*
X35490077Y-73304899D01*
X35490087Y-73304899D01*
X35490090Y-73304900D01*
X35490092Y-73304900D01*
X35709908Y-73304900D01*
X35709910Y-73304900D01*
X35709912Y-73304899D01*
X35709922Y-73304899D01*
X35824123Y-73289863D01*
X35927849Y-73276208D01*
X36140178Y-73219314D01*
X36343265Y-73135193D01*
X36343272Y-73135189D01*
X36343276Y-73135187D01*
X36402673Y-73100893D01*
X36533635Y-73025283D01*
X36708029Y-72891465D01*
X36863465Y-72736029D01*
X36997283Y-72561635D01*
X37062040Y-72449473D01*
X37068596Y-72438118D01*
X37133683Y-72363900D01*
X37222219Y-72320239D01*
X37320723Y-72313782D01*
X37414200Y-72345514D01*
X37488418Y-72410601D01*
X37532079Y-72499137D01*
X37540700Y-72564618D01*
X37540700Y-75078880D01*
X37540700Y-75289120D01*
X37581716Y-75495320D01*
X37635301Y-75624686D01*
X37662172Y-75689558D01*
X37778972Y-75864362D01*
X49357637Y-87443027D01*
X49446961Y-87502711D01*
X49532444Y-87559829D01*
X49726680Y-87640284D01*
X49932880Y-87681300D01*
X50399091Y-87681300D01*
X50495910Y-87700558D01*
X50577989Y-87755402D01*
X50632833Y-87837481D01*
X50652091Y-87934300D01*
X50632833Y-88031119D01*
X50618198Y-88060794D01*
X50589788Y-88110002D01*
X50577397Y-88131465D01*
X50562807Y-88156735D01*
X50532107Y-88230852D01*
X50478686Y-88359821D01*
X50421793Y-88572146D01*
X50421791Y-88572154D01*
X50393100Y-88790077D01*
X50393100Y-89009922D01*
X50421791Y-89227845D01*
X50421793Y-89227853D01*
X50424148Y-89236643D01*
X50478686Y-89440178D01*
X50535703Y-89577831D01*
X50562810Y-89643272D01*
X50562812Y-89643276D01*
X50656814Y-89806090D01*
X50672717Y-89833635D01*
X50726080Y-89903178D01*
X50799999Y-89999512D01*
X50806535Y-90008029D01*
X50961971Y-90163465D01*
X51136365Y-90297283D01*
X51136374Y-90297288D01*
X51326723Y-90407187D01*
X51326727Y-90407189D01*
X51326730Y-90407190D01*
X51326735Y-90407193D01*
X51529822Y-90491314D01*
X51742151Y-90548208D01*
X51819944Y-90558449D01*
X51960077Y-90576899D01*
X51960087Y-90576899D01*
X51960090Y-90576900D01*
X51960092Y-90576900D01*
X52179908Y-90576900D01*
X52179910Y-90576900D01*
X52179912Y-90576899D01*
X52179922Y-90576899D01*
X52294123Y-90561863D01*
X52397849Y-90548208D01*
X52610178Y-90491314D01*
X52813265Y-90407193D01*
X52813272Y-90407189D01*
X52813276Y-90407187D01*
X52952397Y-90326865D01*
X53003635Y-90297283D01*
X53178029Y-90163465D01*
X53178028Y-90163465D01*
X53184600Y-90158423D01*
X53186036Y-90160295D01*
X53258662Y-90118359D01*
X53356532Y-90105469D01*
X53451886Y-90131013D01*
X53494555Y-90159523D01*
X53495400Y-90158423D01*
X53518312Y-90176004D01*
X53676365Y-90297283D01*
X53676374Y-90297288D01*
X53866723Y-90407187D01*
X53866727Y-90407189D01*
X53866730Y-90407190D01*
X53866735Y-90407193D01*
X54069822Y-90491314D01*
X54282151Y-90548208D01*
X54359944Y-90558449D01*
X54500077Y-90576899D01*
X54500087Y-90576899D01*
X54500090Y-90576900D01*
X54500092Y-90576900D01*
X54719908Y-90576900D01*
X54719910Y-90576900D01*
X54719912Y-90576899D01*
X54719922Y-90576899D01*
X54834123Y-90561863D01*
X54937849Y-90548208D01*
X55150178Y-90491314D01*
X55353265Y-90407193D01*
X55353272Y-90407189D01*
X55353276Y-90407187D01*
X55492397Y-90326865D01*
X55543635Y-90297283D01*
X55718029Y-90163465D01*
X55718028Y-90163465D01*
X55724600Y-90158423D01*
X55726036Y-90160295D01*
X55798662Y-90118359D01*
X55896532Y-90105469D01*
X55991886Y-90131013D01*
X56034555Y-90159523D01*
X56035400Y-90158423D01*
X56058312Y-90176004D01*
X56216365Y-90297283D01*
X56216374Y-90297288D01*
X56406723Y-90407187D01*
X56406727Y-90407189D01*
X56406730Y-90407190D01*
X56406735Y-90407193D01*
X56609822Y-90491314D01*
X56822151Y-90548208D01*
X56899944Y-90558449D01*
X57040077Y-90576899D01*
X57040087Y-90576899D01*
X57040090Y-90576900D01*
X57040092Y-90576900D01*
X57259908Y-90576900D01*
X57259910Y-90576900D01*
X57259912Y-90576899D01*
X57259922Y-90576899D01*
X57374123Y-90561863D01*
X57477849Y-90548208D01*
X57690178Y-90491314D01*
X57893265Y-90407193D01*
X57893272Y-90407189D01*
X57893276Y-90407187D01*
X58032397Y-90326865D01*
X58083635Y-90297283D01*
X58258029Y-90163465D01*
X58258028Y-90163465D01*
X58264600Y-90158423D01*
X58266036Y-90160295D01*
X58338662Y-90118359D01*
X58436532Y-90105469D01*
X58531886Y-90131013D01*
X58574555Y-90159523D01*
X58575400Y-90158423D01*
X58598312Y-90176004D01*
X58756365Y-90297283D01*
X58756374Y-90297288D01*
X58946723Y-90407187D01*
X58946727Y-90407189D01*
X58946730Y-90407190D01*
X58946735Y-90407193D01*
X59149822Y-90491314D01*
X59362151Y-90548208D01*
X59439944Y-90558449D01*
X59580077Y-90576899D01*
X59580087Y-90576899D01*
X59580090Y-90576900D01*
X59580092Y-90576900D01*
X59799908Y-90576900D01*
X59799910Y-90576900D01*
X59799912Y-90576899D01*
X59799922Y-90576899D01*
X59914123Y-90561863D01*
X60017849Y-90548208D01*
X60230178Y-90491314D01*
X60433265Y-90407193D01*
X60433272Y-90407189D01*
X60433276Y-90407187D01*
X60572397Y-90326865D01*
X60623635Y-90297283D01*
X60798029Y-90163465D01*
X60798028Y-90163465D01*
X60804600Y-90158423D01*
X60806036Y-90160295D01*
X60878662Y-90118359D01*
X60976532Y-90105469D01*
X61071886Y-90131013D01*
X61114555Y-90159523D01*
X61115400Y-90158423D01*
X61138312Y-90176004D01*
X61296365Y-90297283D01*
X61296374Y-90297288D01*
X61486723Y-90407187D01*
X61486727Y-90407189D01*
X61486730Y-90407190D01*
X61486735Y-90407193D01*
X61689822Y-90491314D01*
X61902151Y-90548208D01*
X61979944Y-90558449D01*
X62120077Y-90576899D01*
X62120087Y-90576899D01*
X62120090Y-90576900D01*
X62120092Y-90576900D01*
X62339908Y-90576900D01*
X62339910Y-90576900D01*
X62339912Y-90576899D01*
X62339922Y-90576899D01*
X62454123Y-90561863D01*
X62557849Y-90548208D01*
X62770178Y-90491314D01*
X62973265Y-90407193D01*
X62973272Y-90407189D01*
X62973276Y-90407187D01*
X63112397Y-90326865D01*
X63163635Y-90297283D01*
X63338029Y-90163465D01*
X63338028Y-90163465D01*
X63344600Y-90158423D01*
X63346036Y-90160295D01*
X63418662Y-90118359D01*
X63516532Y-90105469D01*
X63611886Y-90131013D01*
X63654555Y-90159523D01*
X63655400Y-90158423D01*
X63678312Y-90176004D01*
X63836365Y-90297283D01*
X63836374Y-90297288D01*
X64026723Y-90407187D01*
X64026727Y-90407189D01*
X64026730Y-90407190D01*
X64026735Y-90407193D01*
X64229822Y-90491314D01*
X64442151Y-90548208D01*
X64519944Y-90558449D01*
X64660077Y-90576899D01*
X64660087Y-90576899D01*
X64660090Y-90576900D01*
X64660092Y-90576900D01*
X64879908Y-90576900D01*
X64879910Y-90576900D01*
X64879912Y-90576899D01*
X64879922Y-90576899D01*
X64994123Y-90561863D01*
X65097849Y-90548208D01*
X65310178Y-90491314D01*
X65513265Y-90407193D01*
X65513272Y-90407189D01*
X65513276Y-90407187D01*
X65652397Y-90326865D01*
X65703635Y-90297283D01*
X65878029Y-90163465D01*
X65878028Y-90163465D01*
X65884600Y-90158423D01*
X65886036Y-90160295D01*
X65958662Y-90118359D01*
X66056532Y-90105469D01*
X66151886Y-90131013D01*
X66194555Y-90159523D01*
X66195400Y-90158423D01*
X66218312Y-90176004D01*
X66376365Y-90297283D01*
X66376374Y-90297288D01*
X66566723Y-90407187D01*
X66566727Y-90407189D01*
X66566730Y-90407190D01*
X66566735Y-90407193D01*
X66769822Y-90491314D01*
X66982151Y-90548208D01*
X67059944Y-90558449D01*
X67200077Y-90576899D01*
X67200087Y-90576899D01*
X67200090Y-90576900D01*
X67200092Y-90576900D01*
X67419908Y-90576900D01*
X67419910Y-90576900D01*
X67419912Y-90576899D01*
X67419922Y-90576899D01*
X67534123Y-90561863D01*
X67637849Y-90548208D01*
X67850178Y-90491314D01*
X68053265Y-90407193D01*
X68053272Y-90407189D01*
X68053276Y-90407187D01*
X68192397Y-90326865D01*
X68243635Y-90297283D01*
X68418029Y-90163465D01*
X68418028Y-90163465D01*
X68424600Y-90158423D01*
X68426036Y-90160295D01*
X68498662Y-90118359D01*
X68596532Y-90105469D01*
X68691886Y-90131013D01*
X68734555Y-90159523D01*
X68735400Y-90158423D01*
X68758312Y-90176004D01*
X68916365Y-90297283D01*
X68916374Y-90297288D01*
X69106723Y-90407187D01*
X69106727Y-90407189D01*
X69106730Y-90407190D01*
X69106735Y-90407193D01*
X69309822Y-90491314D01*
X69522151Y-90548208D01*
X69599944Y-90558449D01*
X69740077Y-90576899D01*
X69740087Y-90576899D01*
X69740090Y-90576900D01*
X69740092Y-90576900D01*
X69959908Y-90576900D01*
X69959910Y-90576900D01*
X69959912Y-90576899D01*
X69959922Y-90576899D01*
X70074123Y-90561863D01*
X70177849Y-90548208D01*
X70390178Y-90491314D01*
X70593265Y-90407193D01*
X70593272Y-90407189D01*
X70593276Y-90407187D01*
X70732397Y-90326865D01*
X70783635Y-90297283D01*
X70958029Y-90163465D01*
X70958028Y-90163465D01*
X70964600Y-90158423D01*
X70966036Y-90160295D01*
X71038662Y-90118359D01*
X71136532Y-90105469D01*
X71231886Y-90131013D01*
X71274555Y-90159523D01*
X71275400Y-90158423D01*
X71298312Y-90176004D01*
X71456365Y-90297283D01*
X71456374Y-90297288D01*
X71646723Y-90407187D01*
X71646727Y-90407189D01*
X71646730Y-90407190D01*
X71646735Y-90407193D01*
X71849822Y-90491314D01*
X72062151Y-90548208D01*
X72139944Y-90558449D01*
X72280077Y-90576899D01*
X72280087Y-90576899D01*
X72280090Y-90576900D01*
X72280092Y-90576900D01*
X72499908Y-90576900D01*
X72499910Y-90576900D01*
X72499912Y-90576899D01*
X72499922Y-90576899D01*
X72614123Y-90561863D01*
X72717849Y-90548208D01*
X72930178Y-90491314D01*
X73133265Y-90407193D01*
X73133272Y-90407189D01*
X73133276Y-90407187D01*
X73272397Y-90326865D01*
X73323635Y-90297283D01*
X73498029Y-90163465D01*
X73498028Y-90163465D01*
X73504600Y-90158423D01*
X73506036Y-90160295D01*
X73578662Y-90118359D01*
X73676532Y-90105469D01*
X73771886Y-90131013D01*
X73814555Y-90159523D01*
X73815400Y-90158423D01*
X73838312Y-90176004D01*
X73996365Y-90297283D01*
X73996374Y-90297288D01*
X74186723Y-90407187D01*
X74186727Y-90407189D01*
X74186730Y-90407190D01*
X74186735Y-90407193D01*
X74389822Y-90491314D01*
X74602151Y-90548208D01*
X74679944Y-90558449D01*
X74820077Y-90576899D01*
X74820087Y-90576899D01*
X74820090Y-90576900D01*
X74820092Y-90576900D01*
X75039908Y-90576900D01*
X75039910Y-90576900D01*
X75039912Y-90576899D01*
X75039922Y-90576899D01*
X75154123Y-90561863D01*
X75257849Y-90548208D01*
X75470178Y-90491314D01*
X75673265Y-90407193D01*
X75673272Y-90407189D01*
X75673276Y-90407187D01*
X75812397Y-90326865D01*
X75863635Y-90297283D01*
X76038029Y-90163465D01*
X76038028Y-90163465D01*
X76044600Y-90158423D01*
X76046036Y-90160295D01*
X76118662Y-90118359D01*
X76216532Y-90105469D01*
X76311886Y-90131013D01*
X76354555Y-90159523D01*
X76355400Y-90158423D01*
X76378312Y-90176004D01*
X76536365Y-90297283D01*
X76536374Y-90297288D01*
X76726723Y-90407187D01*
X76726727Y-90407189D01*
X76726730Y-90407190D01*
X76726735Y-90407193D01*
X76929822Y-90491314D01*
X77142151Y-90548208D01*
X77219944Y-90558449D01*
X77360077Y-90576899D01*
X77360087Y-90576899D01*
X77360090Y-90576900D01*
X77360092Y-90576900D01*
X77579908Y-90576900D01*
X77579910Y-90576900D01*
X77579912Y-90576899D01*
X77579922Y-90576899D01*
X77694123Y-90561863D01*
X77797849Y-90548208D01*
X78010178Y-90491314D01*
X78213265Y-90407193D01*
X78213272Y-90407189D01*
X78213276Y-90407187D01*
X78352397Y-90326865D01*
X78403635Y-90297283D01*
X78578029Y-90163465D01*
X78578028Y-90163465D01*
X78584600Y-90158423D01*
X78586036Y-90160295D01*
X78658662Y-90118359D01*
X78756532Y-90105469D01*
X78851886Y-90131013D01*
X78894555Y-90159523D01*
X78895400Y-90158423D01*
X78918312Y-90176004D01*
X79076365Y-90297283D01*
X79076374Y-90297288D01*
X79266723Y-90407187D01*
X79266727Y-90407189D01*
X79266730Y-90407190D01*
X79266735Y-90407193D01*
X79469822Y-90491314D01*
X79682151Y-90548208D01*
X79759944Y-90558449D01*
X79900077Y-90576899D01*
X79900087Y-90576899D01*
X79900090Y-90576900D01*
X79900092Y-90576900D01*
X80119908Y-90576900D01*
X80119910Y-90576900D01*
X80119912Y-90576899D01*
X80119922Y-90576899D01*
X80234123Y-90561863D01*
X80337849Y-90548208D01*
X80550178Y-90491314D01*
X80753265Y-90407193D01*
X80753272Y-90407189D01*
X80753276Y-90407187D01*
X80892397Y-90326865D01*
X80943635Y-90297283D01*
X81118029Y-90163465D01*
X81118028Y-90163465D01*
X81124600Y-90158423D01*
X81126036Y-90160295D01*
X81198662Y-90118359D01*
X81296532Y-90105469D01*
X81391886Y-90131013D01*
X81434555Y-90159523D01*
X81435400Y-90158423D01*
X81458312Y-90176004D01*
X81616365Y-90297283D01*
X81616374Y-90297288D01*
X81806723Y-90407187D01*
X81806727Y-90407189D01*
X81806730Y-90407190D01*
X81806735Y-90407193D01*
X82009822Y-90491314D01*
X82222151Y-90548208D01*
X82299944Y-90558449D01*
X82440077Y-90576899D01*
X82440087Y-90576899D01*
X82440090Y-90576900D01*
X82440092Y-90576900D01*
X82659908Y-90576900D01*
X82659910Y-90576900D01*
X82659912Y-90576899D01*
X82659922Y-90576899D01*
X82774123Y-90561863D01*
X82877849Y-90548208D01*
X83090178Y-90491314D01*
X83293265Y-90407193D01*
X83293272Y-90407189D01*
X83293276Y-90407187D01*
X83432397Y-90326865D01*
X83483635Y-90297283D01*
X83658029Y-90163465D01*
X83658028Y-90163465D01*
X83664600Y-90158423D01*
X83666036Y-90160295D01*
X83738662Y-90118359D01*
X83836532Y-90105469D01*
X83931886Y-90131013D01*
X83974555Y-90159523D01*
X83975400Y-90158423D01*
X83998312Y-90176004D01*
X84156365Y-90297283D01*
X84156374Y-90297288D01*
X84346723Y-90407187D01*
X84346727Y-90407189D01*
X84346730Y-90407190D01*
X84346735Y-90407193D01*
X84549822Y-90491314D01*
X84762151Y-90548208D01*
X84839944Y-90558449D01*
X84980077Y-90576899D01*
X84980087Y-90576899D01*
X84980090Y-90576900D01*
X84980092Y-90576900D01*
X85199908Y-90576900D01*
X85199910Y-90576900D01*
X85199912Y-90576899D01*
X85199922Y-90576899D01*
X85314123Y-90561863D01*
X85417849Y-90548208D01*
X85630178Y-90491314D01*
X85833265Y-90407193D01*
X85833272Y-90407189D01*
X85833276Y-90407187D01*
X85972397Y-90326865D01*
X86023635Y-90297283D01*
X86198029Y-90163465D01*
X86353465Y-90008029D01*
X86364582Y-89993541D01*
X86438799Y-89928454D01*
X86532276Y-89896723D01*
X86630780Y-89903178D01*
X86719316Y-89946839D01*
X86784404Y-90021057D01*
X86816135Y-90114534D01*
X86818300Y-90147558D01*
X86818300Y-91750238D01*
X86830266Y-91871730D01*
X86833685Y-91906445D01*
X86833686Y-91906447D01*
X86892673Y-92100900D01*
X86894486Y-92106876D01*
X86993220Y-92291596D01*
X86993222Y-92291599D01*
X86993223Y-92291600D01*
X87126094Y-92453504D01*
X87126095Y-92453505D01*
X87288004Y-92586380D01*
X87472724Y-92685114D01*
X87673157Y-92745915D01*
X87829362Y-92761300D01*
X87829371Y-92761300D01*
X89262629Y-92761300D01*
X89262638Y-92761300D01*
X89418843Y-92745915D01*
X89619276Y-92685114D01*
X89803996Y-92586380D01*
X89965905Y-92453505D01*
X90033025Y-92371718D01*
X90109328Y-92309097D01*
X90203793Y-92280441D01*
X90302034Y-92290115D01*
X90389094Y-92336649D01*
X90406947Y-92354461D01*
X90407760Y-92353649D01*
X90565830Y-92511719D01*
X90740971Y-92630258D01*
X90740973Y-92630259D01*
X90740975Y-92630260D01*
X90796456Y-92654018D01*
X90935386Y-92713513D01*
X90935389Y-92713513D01*
X90935390Y-92713514D01*
X91142048Y-92758470D01*
X91189558Y-92761300D01*
X91189562Y-92761300D01*
X92802438Y-92761300D01*
X92802442Y-92761300D01*
X92849952Y-92758470D01*
X93056610Y-92713514D01*
X93056611Y-92713513D01*
X93056613Y-92713513D01*
X93155475Y-92671177D01*
X93251025Y-92630260D01*
X93426171Y-92511718D01*
X93549394Y-92388494D01*
X93631470Y-92333653D01*
X93728289Y-92314394D01*
X93825108Y-92333652D01*
X93882306Y-92366675D01*
X94012866Y-92466857D01*
X94012878Y-92466864D01*
X94213323Y-92582592D01*
X94213328Y-92582594D01*
X94213331Y-92582596D01*
X94213336Y-92582598D01*
X94213338Y-92582599D01*
X94427186Y-92671178D01*
X94588732Y-92714464D01*
X94650770Y-92731087D01*
X94880263Y-92761300D01*
X94880265Y-92761300D01*
X95111735Y-92761300D01*
X95111737Y-92761300D01*
X95341230Y-92731087D01*
X95564812Y-92671178D01*
X95564813Y-92671178D01*
X95564814Y-92671177D01*
X95564816Y-92671177D01*
X95778669Y-92582596D01*
X95979131Y-92466859D01*
X96162771Y-92325947D01*
X96304303Y-92184415D01*
X96386382Y-92129571D01*
X96483201Y-92110312D01*
X96580020Y-92129570D01*
X96662099Y-92184413D01*
X96787602Y-92309916D01*
X96977780Y-92455845D01*
X96977800Y-92455858D01*
X97185399Y-92575716D01*
X97185414Y-92575723D01*
X97406881Y-92667459D01*
X97406900Y-92667465D01*
X97638448Y-92729508D01*
X97638452Y-92729509D01*
X97741999Y-92743140D01*
X97742000Y-92743140D01*
X97742000Y-91117941D01*
X97799919Y-91151381D01*
X97929120Y-91186000D01*
X98062880Y-91186000D01*
X98192081Y-91151381D01*
X98250000Y-91117941D01*
X98250000Y-92743140D01*
X98353547Y-92729509D01*
X98353551Y-92729508D01*
X98585099Y-92667465D01*
X98585118Y-92667459D01*
X98806585Y-92575723D01*
X98806600Y-92575716D01*
X99014199Y-92455858D01*
X99014219Y-92455845D01*
X99204397Y-92309916D01*
X99373912Y-92140401D01*
X99393493Y-92114883D01*
X99467711Y-92049794D01*
X99561187Y-92018062D01*
X99659692Y-92024517D01*
X99748228Y-92068176D01*
X99813317Y-92142394D01*
X99817340Y-92149634D01*
X99874433Y-92256448D01*
X99893220Y-92291596D01*
X100026095Y-92453505D01*
X100188004Y-92586380D01*
X100372724Y-92685114D01*
X100573157Y-92745915D01*
X100729362Y-92761300D01*
X100729371Y-92761300D01*
X102162629Y-92761300D01*
X102162638Y-92761300D01*
X102318843Y-92745915D01*
X102519276Y-92685114D01*
X102703996Y-92586380D01*
X102865905Y-92453505D01*
X102998780Y-92291596D01*
X103097514Y-92106876D01*
X103158315Y-91906443D01*
X103173700Y-91750238D01*
X103173700Y-89605762D01*
X103158315Y-89449557D01*
X103097514Y-89249124D01*
X102998780Y-89064404D01*
X102946582Y-89000801D01*
X102865905Y-88902495D01*
X102865904Y-88902494D01*
X102762506Y-88817638D01*
X102703996Y-88769620D01*
X102519276Y-88670886D01*
X102519270Y-88670884D01*
X102318847Y-88610086D01*
X102318845Y-88610085D01*
X102284130Y-88606666D01*
X102162638Y-88594700D01*
X100729362Y-88594700D01*
X100636675Y-88603829D01*
X100573154Y-88610085D01*
X100573152Y-88610086D01*
X100372729Y-88670884D01*
X100372726Y-88670885D01*
X100372724Y-88670886D01*
X100188004Y-88769620D01*
X100188002Y-88769620D01*
X100187999Y-88769623D01*
X100026095Y-88902494D01*
X100026094Y-88902495D01*
X99893223Y-89064400D01*
X99893220Y-89064403D01*
X99817340Y-89206366D01*
X99754715Y-89282674D01*
X99667655Y-89329208D01*
X99569415Y-89338884D01*
X99474950Y-89310228D01*
X99398642Y-89247603D01*
X99393496Y-89241119D01*
X99373916Y-89215602D01*
X99204397Y-89046083D01*
X99204398Y-89046083D01*
X99014219Y-88900154D01*
X99014199Y-88900141D01*
X98806600Y-88780283D01*
X98806585Y-88780276D01*
X98585118Y-88688540D01*
X98585099Y-88688534D01*
X98353558Y-88626493D01*
X98353539Y-88626489D01*
X98250000Y-88612857D01*
X98250000Y-90238058D01*
X98192081Y-90204619D01*
X98062880Y-90170000D01*
X97929120Y-90170000D01*
X97799919Y-90204619D01*
X97742000Y-90238058D01*
X97742000Y-88612858D01*
X97741999Y-88612857D01*
X97638460Y-88626489D01*
X97638441Y-88626493D01*
X97406900Y-88688534D01*
X97406881Y-88688540D01*
X97185414Y-88780276D01*
X97185399Y-88780283D01*
X96977800Y-88900141D01*
X96977780Y-88900154D01*
X96787602Y-89046083D01*
X96662099Y-89171586D01*
X96580020Y-89226429D01*
X96483201Y-89245687D01*
X96386382Y-89226428D01*
X96304304Y-89171585D01*
X96162774Y-89030055D01*
X95979135Y-88889144D01*
X95979134Y-88889143D01*
X95979131Y-88889141D01*
X95943841Y-88868766D01*
X95778676Y-88773407D01*
X95778661Y-88773400D01*
X95564813Y-88684821D01*
X95341232Y-88624913D01*
X95121062Y-88595927D01*
X95027585Y-88564195D01*
X94975187Y-88523989D01*
X92590770Y-86139572D01*
X92415966Y-86022772D01*
X92359471Y-85999371D01*
X92221728Y-85942316D01*
X92015528Y-85901300D01*
X76660606Y-85901300D01*
X76450366Y-85901300D01*
X76244166Y-85942316D01*
X76049927Y-86022772D01*
X75875123Y-86139572D01*
X74848002Y-87166692D01*
X74765923Y-87221536D01*
X74702129Y-87238629D01*
X74602153Y-87251791D01*
X74602146Y-87251793D01*
X74389821Y-87308686D01*
X74186727Y-87392810D01*
X74186723Y-87392812D01*
X73996374Y-87502711D01*
X73996361Y-87502720D01*
X73815400Y-87641577D01*
X73813971Y-87639715D01*
X73741240Y-87681673D01*
X73643364Y-87694523D01*
X73548021Y-87668941D01*
X73505436Y-87640486D01*
X73504600Y-87641577D01*
X73398064Y-87559829D01*
X73323635Y-87502717D01*
X73323625Y-87502711D01*
X73133276Y-87392812D01*
X73133272Y-87392810D01*
X73050821Y-87358658D01*
X72930178Y-87308686D01*
X72717849Y-87251792D01*
X72717845Y-87251791D01*
X72499922Y-87223100D01*
X72499910Y-87223100D01*
X72280090Y-87223100D01*
X72280077Y-87223100D01*
X72062154Y-87251791D01*
X72062146Y-87251793D01*
X71849821Y-87308686D01*
X71646727Y-87392810D01*
X71646723Y-87392812D01*
X71456374Y-87502711D01*
X71456361Y-87502720D01*
X71275400Y-87641577D01*
X71273971Y-87639715D01*
X71201240Y-87681673D01*
X71103364Y-87694523D01*
X71008021Y-87668941D01*
X70965436Y-87640486D01*
X70964600Y-87641577D01*
X70858064Y-87559829D01*
X70783635Y-87502717D01*
X70783625Y-87502711D01*
X70593276Y-87392812D01*
X70593272Y-87392810D01*
X70510821Y-87358658D01*
X70390178Y-87308686D01*
X70177849Y-87251792D01*
X70177845Y-87251791D01*
X69959922Y-87223100D01*
X69959910Y-87223100D01*
X69740090Y-87223100D01*
X69740077Y-87223100D01*
X69522154Y-87251791D01*
X69522146Y-87251793D01*
X69309821Y-87308686D01*
X69106727Y-87392810D01*
X69106723Y-87392812D01*
X68916374Y-87502711D01*
X68916361Y-87502720D01*
X68735400Y-87641577D01*
X68733971Y-87639715D01*
X68661240Y-87681673D01*
X68563364Y-87694523D01*
X68468021Y-87668941D01*
X68425436Y-87640486D01*
X68424600Y-87641577D01*
X68318064Y-87559829D01*
X68243635Y-87502717D01*
X68243625Y-87502711D01*
X68053276Y-87392812D01*
X68053272Y-87392810D01*
X67970821Y-87358658D01*
X67850178Y-87308686D01*
X67637849Y-87251792D01*
X67637845Y-87251791D01*
X67419922Y-87223100D01*
X67419910Y-87223100D01*
X67200090Y-87223100D01*
X67200077Y-87223100D01*
X66982154Y-87251791D01*
X66982146Y-87251793D01*
X66769821Y-87308686D01*
X66566727Y-87392810D01*
X66566723Y-87392812D01*
X66376374Y-87502711D01*
X66376361Y-87502720D01*
X66195400Y-87641577D01*
X66193971Y-87639715D01*
X66121240Y-87681673D01*
X66023364Y-87694523D01*
X65928021Y-87668941D01*
X65885436Y-87640486D01*
X65884600Y-87641577D01*
X65778064Y-87559829D01*
X65703635Y-87502717D01*
X65703625Y-87502711D01*
X65513276Y-87392812D01*
X65513272Y-87392810D01*
X65430821Y-87358658D01*
X65310178Y-87308686D01*
X65097849Y-87251792D01*
X65097845Y-87251791D01*
X64879922Y-87223100D01*
X64879910Y-87223100D01*
X64660090Y-87223100D01*
X64660077Y-87223100D01*
X64442154Y-87251791D01*
X64442146Y-87251793D01*
X64229821Y-87308686D01*
X64026727Y-87392810D01*
X64026723Y-87392812D01*
X63836374Y-87502711D01*
X63836361Y-87502720D01*
X63655400Y-87641577D01*
X63653971Y-87639715D01*
X63581240Y-87681673D01*
X63483364Y-87694523D01*
X63388021Y-87668941D01*
X63345436Y-87640486D01*
X63344600Y-87641577D01*
X63238064Y-87559829D01*
X63163635Y-87502717D01*
X63163625Y-87502711D01*
X62973276Y-87392812D01*
X62973272Y-87392810D01*
X62890821Y-87358658D01*
X62770178Y-87308686D01*
X62557849Y-87251792D01*
X62557845Y-87251791D01*
X62339922Y-87223100D01*
X62339910Y-87223100D01*
X62120090Y-87223100D01*
X62120077Y-87223100D01*
X61902154Y-87251791D01*
X61902146Y-87251793D01*
X61689821Y-87308686D01*
X61486727Y-87392810D01*
X61486723Y-87392812D01*
X61296374Y-87502711D01*
X61296361Y-87502720D01*
X61115400Y-87641577D01*
X61113971Y-87639715D01*
X61041240Y-87681673D01*
X60943364Y-87694523D01*
X60848021Y-87668941D01*
X60805436Y-87640486D01*
X60804600Y-87641577D01*
X60698064Y-87559829D01*
X60623635Y-87502717D01*
X60623625Y-87502711D01*
X60433276Y-87392812D01*
X60433272Y-87392810D01*
X60350821Y-87358658D01*
X60230178Y-87308686D01*
X60017849Y-87251792D01*
X60017845Y-87251791D01*
X59799922Y-87223100D01*
X59799910Y-87223100D01*
X59580090Y-87223100D01*
X59580077Y-87223100D01*
X59362154Y-87251791D01*
X59362146Y-87251793D01*
X59149821Y-87308686D01*
X58946727Y-87392810D01*
X58946723Y-87392812D01*
X58756374Y-87502711D01*
X58756361Y-87502720D01*
X58575400Y-87641577D01*
X58573971Y-87639715D01*
X58501240Y-87681673D01*
X58403364Y-87694523D01*
X58308021Y-87668941D01*
X58265436Y-87640486D01*
X58264600Y-87641577D01*
X58158064Y-87559829D01*
X58083635Y-87502717D01*
X58083625Y-87502711D01*
X57893276Y-87392812D01*
X57893272Y-87392810D01*
X57810821Y-87358658D01*
X57690178Y-87308686D01*
X57477849Y-87251792D01*
X57477845Y-87251791D01*
X57259922Y-87223100D01*
X57259910Y-87223100D01*
X57040090Y-87223100D01*
X57040077Y-87223100D01*
X56822154Y-87251791D01*
X56822146Y-87251793D01*
X56609821Y-87308686D01*
X56406727Y-87392810D01*
X56406723Y-87392812D01*
X56216374Y-87502711D01*
X56216361Y-87502720D01*
X56035400Y-87641577D01*
X56033971Y-87639715D01*
X55961240Y-87681673D01*
X55863364Y-87694523D01*
X55768021Y-87668941D01*
X55725436Y-87640486D01*
X55724600Y-87641577D01*
X55618064Y-87559829D01*
X55543635Y-87502717D01*
X55543625Y-87502711D01*
X55353276Y-87392812D01*
X55353272Y-87392810D01*
X55353265Y-87392807D01*
X55150178Y-87308686D01*
X55150172Y-87308684D01*
X55150169Y-87308683D01*
X55059789Y-87284465D01*
X54971254Y-87240804D01*
X54946375Y-87218985D01*
X53512362Y-85784972D01*
X53337558Y-85668172D01*
X53291997Y-85649300D01*
X53143320Y-85587716D01*
X52937120Y-85546700D01*
X52937116Y-85546700D01*
X50584886Y-85546700D01*
X50488067Y-85527442D01*
X50405988Y-85472598D01*
X46077858Y-81144468D01*
X88518700Y-81144468D01*
X88518700Y-81415531D01*
X88545439Y-81652855D01*
X88549048Y-81684880D01*
X88565240Y-81755822D01*
X88609365Y-81949147D01*
X88698885Y-82204980D01*
X88816495Y-82449198D01*
X88905535Y-82590906D01*
X88960705Y-82678708D01*
X89129706Y-82890628D01*
X89321372Y-83082294D01*
X89533292Y-83251295D01*
X89762802Y-83395505D01*
X89913715Y-83468181D01*
X90007019Y-83513114D01*
X90262852Y-83602634D01*
X90262858Y-83602635D01*
X90262860Y-83602636D01*
X90527120Y-83662952D01*
X90796470Y-83693299D01*
X90796471Y-83693300D01*
X90796472Y-83693300D01*
X91067529Y-83693300D01*
X91067529Y-83693299D01*
X91336880Y-83662952D01*
X91601140Y-83602636D01*
X91601143Y-83602634D01*
X91601147Y-83602634D01*
X91856980Y-83513114D01*
X91856981Y-83513113D01*
X91856985Y-83513112D01*
X92101198Y-83395505D01*
X92330708Y-83251295D01*
X92542628Y-83082294D01*
X92734294Y-82890628D01*
X92903295Y-82678708D01*
X93047505Y-82449198D01*
X93165112Y-82204985D01*
X93183638Y-82152041D01*
X93254634Y-81949147D01*
X93256356Y-81941604D01*
X93314952Y-81684880D01*
X93345300Y-81415528D01*
X93345300Y-81144472D01*
X93314952Y-80875120D01*
X93254636Y-80610860D01*
X93254635Y-80610858D01*
X93254634Y-80610852D01*
X93165114Y-80355019D01*
X93140500Y-80303908D01*
X93047505Y-80110802D01*
X92903295Y-79881292D01*
X92734294Y-79669372D01*
X92542628Y-79477706D01*
X92330708Y-79308705D01*
X92315415Y-79299096D01*
X92101198Y-79164495D01*
X91856980Y-79046885D01*
X91601147Y-78957365D01*
X91451311Y-78923166D01*
X91336880Y-78897048D01*
X91336876Y-78897047D01*
X91336875Y-78897047D01*
X91067531Y-78866700D01*
X91067528Y-78866700D01*
X90796472Y-78866700D01*
X90796468Y-78866700D01*
X90527124Y-78897047D01*
X90527121Y-78897047D01*
X90527120Y-78897048D01*
X90469904Y-78910107D01*
X90262852Y-78957365D01*
X90007019Y-79046885D01*
X89762801Y-79164495D01*
X89533297Y-79308701D01*
X89533286Y-79308709D01*
X89321371Y-79477706D01*
X89129706Y-79669371D01*
X88960709Y-79881286D01*
X88960701Y-79881297D01*
X88816495Y-80110801D01*
X88698885Y-80355019D01*
X88609365Y-80610852D01*
X88568748Y-80788810D01*
X88551580Y-80864029D01*
X88549048Y-80875121D01*
X88549047Y-80875124D01*
X88518700Y-81144468D01*
X46077858Y-81144468D01*
X39749402Y-74816012D01*
X39694558Y-74733933D01*
X39675300Y-74637114D01*
X39675300Y-73438681D01*
X39694558Y-73341862D01*
X39749402Y-73259783D01*
X39831481Y-73204939D01*
X39928300Y-73185681D01*
X40025116Y-73204938D01*
X40059822Y-73219314D01*
X40272151Y-73276208D01*
X40349944Y-73286449D01*
X40490077Y-73304899D01*
X40490087Y-73304899D01*
X40490090Y-73304900D01*
X40490092Y-73304900D01*
X40709908Y-73304900D01*
X40709910Y-73304900D01*
X40709912Y-73304899D01*
X40709922Y-73304899D01*
X40824123Y-73289863D01*
X40927849Y-73276208D01*
X41140178Y-73219314D01*
X41343265Y-73135193D01*
X41343272Y-73135189D01*
X41343276Y-73135187D01*
X41402673Y-73100893D01*
X41533635Y-73025283D01*
X41708029Y-72891465D01*
X41830092Y-72769402D01*
X41912171Y-72714558D01*
X42008990Y-72695300D01*
X50275888Y-72695300D01*
X50372707Y-72714558D01*
X50454786Y-72769402D01*
X50509630Y-72851481D01*
X50528888Y-72948300D01*
X50509631Y-73045113D01*
X50497733Y-73073837D01*
X50478688Y-73119815D01*
X50478687Y-73119819D01*
X50478686Y-73119822D01*
X50465047Y-73170723D01*
X50421793Y-73332146D01*
X50421791Y-73332154D01*
X50393100Y-73550077D01*
X50393100Y-73769922D01*
X50421791Y-73987845D01*
X50421793Y-73987853D01*
X50478686Y-74200178D01*
X50562810Y-74403272D01*
X50562812Y-74403276D01*
X50672711Y-74593625D01*
X50672717Y-74593635D01*
X50721548Y-74657272D01*
X50799999Y-74759512D01*
X50806535Y-74768029D01*
X50961971Y-74923465D01*
X51136365Y-75057283D01*
X51136374Y-75057288D01*
X51326723Y-75167187D01*
X51326727Y-75167189D01*
X51326730Y-75167190D01*
X51326735Y-75167193D01*
X51529822Y-75251314D01*
X51742151Y-75308208D01*
X51812162Y-75317425D01*
X51960077Y-75336899D01*
X51960087Y-75336899D01*
X51960090Y-75336900D01*
X51960092Y-75336900D01*
X52179908Y-75336900D01*
X52179910Y-75336900D01*
X52179912Y-75336899D01*
X52179922Y-75336899D01*
X52294123Y-75321863D01*
X52397849Y-75308208D01*
X52610178Y-75251314D01*
X52813265Y-75167193D01*
X52813272Y-75167189D01*
X52813276Y-75167187D01*
X52872673Y-75132893D01*
X53003635Y-75057283D01*
X53178029Y-74923465D01*
X53178028Y-74923465D01*
X53184600Y-74918423D01*
X53185980Y-74920221D01*
X53258996Y-74878042D01*
X53356864Y-74865133D01*
X53452222Y-74890659D01*
X53494878Y-74919156D01*
X53495730Y-74918047D01*
X53676641Y-75056863D01*
X53676645Y-75056866D01*
X53866957Y-75166744D01*
X54069992Y-75250843D01*
X54282241Y-75307714D01*
X54282249Y-75307716D01*
X54355999Y-75317425D01*
X54356000Y-75317425D01*
X54356000Y-74099941D01*
X54413919Y-74133381D01*
X54543120Y-74168000D01*
X54676880Y-74168000D01*
X54806081Y-74133381D01*
X54864000Y-74099941D01*
X54864000Y-75317425D01*
X54937750Y-75307716D01*
X54937758Y-75307714D01*
X55150007Y-75250843D01*
X55353041Y-75166744D01*
X55353042Y-75166744D01*
X55543354Y-75056866D01*
X55543358Y-75056863D01*
X55724270Y-74918047D01*
X55725722Y-74919940D01*
X55798183Y-74878060D01*
X55896048Y-74865129D01*
X55991412Y-74890633D01*
X56034595Y-74919471D01*
X56035400Y-74918423D01*
X56041971Y-74923465D01*
X56216365Y-75057283D01*
X56216374Y-75057288D01*
X56406723Y-75167187D01*
X56406727Y-75167189D01*
X56406730Y-75167190D01*
X56406735Y-75167193D01*
X56609822Y-75251314D01*
X56822151Y-75308208D01*
X56892162Y-75317425D01*
X57040077Y-75336899D01*
X57040087Y-75336899D01*
X57040090Y-75336900D01*
X57040092Y-75336900D01*
X57259908Y-75336900D01*
X57259910Y-75336900D01*
X57259912Y-75336899D01*
X57259922Y-75336899D01*
X57374123Y-75321863D01*
X57477849Y-75308208D01*
X57690178Y-75251314D01*
X57893265Y-75167193D01*
X57893272Y-75167189D01*
X57893276Y-75167187D01*
X57952673Y-75132893D01*
X58083635Y-75057283D01*
X58258029Y-74923465D01*
X58258028Y-74923465D01*
X58264600Y-74918423D01*
X58266036Y-74920295D01*
X58338662Y-74878359D01*
X58436532Y-74865469D01*
X58531886Y-74891013D01*
X58574555Y-74919523D01*
X58575400Y-74918423D01*
X58581971Y-74923465D01*
X58756365Y-75057283D01*
X58756374Y-75057288D01*
X58946723Y-75167187D01*
X58946727Y-75167189D01*
X58946730Y-75167190D01*
X58946735Y-75167193D01*
X59149822Y-75251314D01*
X59362151Y-75308208D01*
X59432162Y-75317425D01*
X59580077Y-75336899D01*
X59580087Y-75336899D01*
X59580090Y-75336900D01*
X59580092Y-75336900D01*
X59799908Y-75336900D01*
X59799910Y-75336900D01*
X59799912Y-75336899D01*
X59799922Y-75336899D01*
X59914123Y-75321863D01*
X60017849Y-75308208D01*
X60230178Y-75251314D01*
X60433265Y-75167193D01*
X60433272Y-75167189D01*
X60433276Y-75167187D01*
X60492673Y-75132893D01*
X60623635Y-75057283D01*
X60798029Y-74923465D01*
X60798028Y-74923465D01*
X60804600Y-74918423D01*
X60806036Y-74920295D01*
X60878662Y-74878359D01*
X60976532Y-74865469D01*
X61071886Y-74891013D01*
X61114555Y-74919523D01*
X61115400Y-74918423D01*
X61121971Y-74923465D01*
X61296365Y-75057283D01*
X61296374Y-75057288D01*
X61486723Y-75167187D01*
X61486727Y-75167189D01*
X61486730Y-75167190D01*
X61486735Y-75167193D01*
X61689822Y-75251314D01*
X61902151Y-75308208D01*
X61972162Y-75317425D01*
X62120077Y-75336899D01*
X62120087Y-75336899D01*
X62120090Y-75336900D01*
X62120092Y-75336900D01*
X62339908Y-75336900D01*
X62339910Y-75336900D01*
X62339912Y-75336899D01*
X62339922Y-75336899D01*
X62454123Y-75321863D01*
X62557849Y-75308208D01*
X62770178Y-75251314D01*
X62973265Y-75167193D01*
X62973272Y-75167189D01*
X62973276Y-75167187D01*
X63032673Y-75132893D01*
X63163635Y-75057283D01*
X63338029Y-74923465D01*
X63338028Y-74923465D01*
X63344600Y-74918423D01*
X63346036Y-74920295D01*
X63418662Y-74878359D01*
X63516532Y-74865469D01*
X63611886Y-74891013D01*
X63654555Y-74919523D01*
X63655400Y-74918423D01*
X63661971Y-74923465D01*
X63836365Y-75057283D01*
X63836374Y-75057288D01*
X64026723Y-75167187D01*
X64026727Y-75167189D01*
X64026730Y-75167190D01*
X64026735Y-75167193D01*
X64229822Y-75251314D01*
X64442151Y-75308208D01*
X64512162Y-75317425D01*
X64660077Y-75336899D01*
X64660087Y-75336899D01*
X64660090Y-75336900D01*
X64660092Y-75336900D01*
X64879908Y-75336900D01*
X64879910Y-75336900D01*
X64879912Y-75336899D01*
X64879922Y-75336899D01*
X64994123Y-75321863D01*
X65097849Y-75308208D01*
X65310178Y-75251314D01*
X65513265Y-75167193D01*
X65513272Y-75167189D01*
X65513276Y-75167187D01*
X65572673Y-75132893D01*
X65703635Y-75057283D01*
X65878029Y-74923465D01*
X65878028Y-74923465D01*
X65884600Y-74918423D01*
X65886036Y-74920295D01*
X65889503Y-74918293D01*
X65903061Y-74905192D01*
X65931854Y-74893838D01*
X65958662Y-74878359D01*
X65977355Y-74875896D01*
X65994895Y-74868981D01*
X66025845Y-74869510D01*
X66056532Y-74865469D01*
X66074742Y-74870347D01*
X66093596Y-74870670D01*
X66113631Y-74880765D01*
X66151886Y-74891013D01*
X66184138Y-74910002D01*
X66198382Y-74919876D01*
X66201971Y-74923465D01*
X66376365Y-75057283D01*
X66497411Y-75127169D01*
X66506002Y-75133124D01*
X66514809Y-75142237D01*
X66540762Y-75162152D01*
X67899636Y-76521026D01*
X68074444Y-76637829D01*
X68268680Y-76718284D01*
X68474880Y-76759300D01*
X68685120Y-76759300D01*
X102020428Y-76759300D01*
X102117247Y-76778558D01*
X102199326Y-76833402D01*
X103209191Y-77843267D01*
X103264035Y-77925346D01*
X103283293Y-78022165D01*
X103264035Y-78118984D01*
X103209191Y-78201063D01*
X103149451Y-78243875D01*
X103149908Y-78244665D01*
X102952374Y-78358711D01*
X102952361Y-78358720D01*
X102777971Y-78492534D01*
X102655908Y-78614598D01*
X102573829Y-78669442D01*
X102477010Y-78688700D01*
X100178540Y-78688700D01*
X100081721Y-78669442D01*
X100024522Y-78636417D01*
X99993638Y-78612718D01*
X99993636Y-78612717D01*
X99803276Y-78502812D01*
X99803272Y-78502810D01*
X99778463Y-78492534D01*
X99600178Y-78418686D01*
X99387849Y-78361792D01*
X99387845Y-78361791D01*
X99169922Y-78333100D01*
X99169910Y-78333100D01*
X98950090Y-78333100D01*
X98950077Y-78333100D01*
X98732154Y-78361791D01*
X98732146Y-78361793D01*
X98519821Y-78418686D01*
X98316727Y-78502810D01*
X98316723Y-78502812D01*
X98126374Y-78612711D01*
X98126361Y-78612720D01*
X97951971Y-78746534D01*
X97796534Y-78901971D01*
X97662720Y-79076361D01*
X97662711Y-79076374D01*
X97552812Y-79266723D01*
X97552810Y-79266727D01*
X97468686Y-79469821D01*
X97411793Y-79682146D01*
X97411791Y-79682154D01*
X97383100Y-79900077D01*
X97383100Y-80119922D01*
X97411791Y-80337845D01*
X97411792Y-80337849D01*
X97468686Y-80550178D01*
X97552807Y-80753265D01*
X97611867Y-80855561D01*
X97643598Y-80949036D01*
X97637143Y-81047540D01*
X97593482Y-81136076D01*
X97571665Y-81160954D01*
X97556511Y-81176108D01*
X97459004Y-81331292D01*
X97398474Y-81504276D01*
X97398474Y-81504278D01*
X97383100Y-81640725D01*
X97383100Y-83459274D01*
X97398474Y-83595721D01*
X97398474Y-83595723D01*
X97459004Y-83768707D01*
X97556511Y-83923891D01*
X97686108Y-84053488D01*
X97748570Y-84092735D01*
X97832966Y-84145764D01*
X97841292Y-84150995D01*
X97927784Y-84181260D01*
X98014279Y-84211526D01*
X98150726Y-84226899D01*
X98150727Y-84226900D01*
X98150728Y-84226900D01*
X99969273Y-84226900D01*
X99969273Y-84226899D01*
X100105721Y-84211526D01*
X100278710Y-84150994D01*
X100433893Y-84053487D01*
X100454097Y-84033283D01*
X100536176Y-83978439D01*
X100632995Y-83959181D01*
X100729814Y-83978439D01*
X100811893Y-84033283D01*
X104420998Y-87642388D01*
X104475842Y-87724467D01*
X104495100Y-87821286D01*
X104495100Y-87993922D01*
X104522062Y-88198709D01*
X104523792Y-88211849D01*
X104580686Y-88424178D01*
X104658839Y-88612858D01*
X104664810Y-88627272D01*
X104664812Y-88627276D01*
X104758259Y-88789129D01*
X104774717Y-88817635D01*
X104868541Y-88939908D01*
X104913577Y-88998600D01*
X104911715Y-89000028D01*
X104953673Y-89072760D01*
X104966523Y-89170636D01*
X104940941Y-89265979D01*
X104912486Y-89308563D01*
X104913577Y-89309400D01*
X104774720Y-89490361D01*
X104774711Y-89490374D01*
X104664812Y-89680723D01*
X104664810Y-89680727D01*
X104580686Y-89883821D01*
X104523793Y-90096146D01*
X104523791Y-90096154D01*
X104495100Y-90314077D01*
X104495100Y-90533922D01*
X104523791Y-90751845D01*
X104523792Y-90751849D01*
X104580686Y-90964178D01*
X104664807Y-91167265D01*
X104664808Y-91167268D01*
X104664810Y-91167271D01*
X104724126Y-91270010D01*
X104755857Y-91363487D01*
X104749400Y-91461991D01*
X104705739Y-91550526D01*
X104683923Y-91575403D01*
X104668906Y-91590419D01*
X104571460Y-91745504D01*
X104571460Y-91745505D01*
X104510965Y-91918391D01*
X104495600Y-92054754D01*
X104495600Y-92710000D01*
X105851263Y-92710000D01*
X105846799Y-92714464D01*
X105793295Y-92807135D01*
X105765600Y-92910496D01*
X105765600Y-93017504D01*
X105793295Y-93120865D01*
X105846799Y-93213536D01*
X105851263Y-93218000D01*
X104495600Y-93218000D01*
X104495600Y-93726500D01*
X104476342Y-93823319D01*
X104421498Y-93905398D01*
X104339419Y-93960242D01*
X104242600Y-93979500D01*
X33024306Y-93979500D01*
X33015668Y-93979352D01*
X32555484Y-93963631D01*
X32546071Y-93963134D01*
X32443359Y-93955787D01*
X32435537Y-93955106D01*
X32031470Y-93913567D01*
X32021340Y-93912318D01*
X31923134Y-93898199D01*
X31916149Y-93897095D01*
X31511412Y-93827311D01*
X31500618Y-93825208D01*
X31410367Y-93805574D01*
X31404248Y-93804162D01*
X30997962Y-93705153D01*
X30986583Y-93702098D01*
X30908162Y-93679071D01*
X30902906Y-93677466D01*
X30493753Y-93547607D01*
X30481879Y-93543511D01*
X30420130Y-93520481D01*
X30415813Y-93518825D01*
X30001269Y-93355351D01*
X29989033Y-93350148D01*
X29950845Y-93332709D01*
X29947353Y-93331081D01*
X29522981Y-93129257D01*
X29510389Y-93122831D01*
X29506904Y-93120928D01*
X29504159Y-93119406D01*
X29068561Y-92874483D01*
X29053800Y-92865507D01*
X29036444Y-92854123D01*
X28633213Y-92589643D01*
X28619104Y-92579684D01*
X28218308Y-92275750D01*
X28204908Y-92264849D01*
X27825799Y-91934284D01*
X27813173Y-91922492D01*
X27457507Y-91566826D01*
X27445715Y-91554200D01*
X27442511Y-91550526D01*
X27248401Y-91327910D01*
X27115150Y-91175091D01*
X27104249Y-91161691D01*
X26800315Y-90760895D01*
X26790359Y-90746792D01*
X26514485Y-90326188D01*
X26505523Y-90311450D01*
X26384468Y-90096154D01*
X26349784Y-90034468D01*
X30606700Y-90034468D01*
X30606700Y-90305531D01*
X30634098Y-90548705D01*
X30637048Y-90574880D01*
X30656310Y-90659272D01*
X30697365Y-90839147D01*
X30786885Y-91094980D01*
X30904495Y-91339198D01*
X31047809Y-91567283D01*
X31048705Y-91568708D01*
X31217706Y-91780628D01*
X31409372Y-91972294D01*
X31621292Y-92141295D01*
X31850802Y-92285505D01*
X32019353Y-92366675D01*
X32095019Y-92403114D01*
X32350852Y-92492634D01*
X32350858Y-92492635D01*
X32350860Y-92492636D01*
X32615120Y-92552952D01*
X32884470Y-92583299D01*
X32884471Y-92583300D01*
X32884472Y-92583300D01*
X33155529Y-92583300D01*
X33155529Y-92583299D01*
X33424880Y-92552952D01*
X33689140Y-92492636D01*
X33689143Y-92492634D01*
X33689147Y-92492634D01*
X33944980Y-92403114D01*
X33944981Y-92403113D01*
X33944985Y-92403112D01*
X34189198Y-92285505D01*
X34418708Y-92141295D01*
X34630628Y-91972294D01*
X34822294Y-91780628D01*
X34991295Y-91568708D01*
X35135505Y-91339198D01*
X35253112Y-91094985D01*
X35256780Y-91084502D01*
X35342634Y-90839147D01*
X35342636Y-90839140D01*
X35402952Y-90574880D01*
X35433300Y-90305528D01*
X35433300Y-90034472D01*
X35402952Y-89765120D01*
X35342636Y-89500860D01*
X35342635Y-89500858D01*
X35342634Y-89500852D01*
X35253114Y-89245019D01*
X35228414Y-89193729D01*
X35135505Y-89000802D01*
X34991295Y-88771292D01*
X34822294Y-88559372D01*
X34630628Y-88367706D01*
X34418708Y-88198705D01*
X34365569Y-88165316D01*
X34189198Y-88054495D01*
X33944980Y-87936885D01*
X33689147Y-87847365D01*
X33539311Y-87813166D01*
X33424880Y-87787048D01*
X33424876Y-87787047D01*
X33424875Y-87787047D01*
X33155531Y-87756700D01*
X33155528Y-87756700D01*
X32884472Y-87756700D01*
X32884468Y-87756700D01*
X32615124Y-87787047D01*
X32615121Y-87787047D01*
X32615120Y-87787048D01*
X32557904Y-87800107D01*
X32350852Y-87847365D01*
X32095019Y-87936885D01*
X31850801Y-88054495D01*
X31621297Y-88198701D01*
X31621286Y-88198709D01*
X31409371Y-88367706D01*
X31217706Y-88559371D01*
X31048709Y-88771286D01*
X31048701Y-88771297D01*
X30904495Y-89000801D01*
X30786885Y-89245019D01*
X30697365Y-89500852D01*
X30637048Y-89765121D01*
X30637047Y-89765124D01*
X30606700Y-90034468D01*
X26349784Y-90034468D01*
X26260592Y-89875839D01*
X26259087Y-89873124D01*
X26257153Y-89869583D01*
X26250741Y-89857017D01*
X26207036Y-89765120D01*
X26048877Y-89432561D01*
X26047342Y-89429266D01*
X26029834Y-89390930D01*
X26024663Y-89378768D01*
X25861129Y-88964072D01*
X25859568Y-88960001D01*
X25836484Y-88898111D01*
X25832391Y-88886245D01*
X25702532Y-88477092D01*
X25700927Y-88471836D01*
X25677900Y-88393415D01*
X25674845Y-88382036D01*
X25575836Y-87975750D01*
X25574433Y-87969671D01*
X25554776Y-87879309D01*
X25552698Y-87868642D01*
X25482891Y-87463777D01*
X25481805Y-87456907D01*
X25467680Y-87358658D01*
X25466431Y-87348528D01*
X25424889Y-86944430D01*
X25424214Y-86936674D01*
X25416861Y-86833875D01*
X25416371Y-86824611D01*
X25400647Y-86364302D01*
X25400500Y-86355665D01*
X25400500Y-75183500D01*
X25419758Y-75086681D01*
X25474602Y-75004602D01*
X25556681Y-74949758D01*
X25653500Y-74930500D01*
X32385207Y-74930500D01*
X32385500Y-74930207D01*
X32385500Y-62229793D01*
X32385207Y-62229500D01*
X25653500Y-62229500D01*
X25556681Y-62210242D01*
X25474602Y-62155398D01*
X25419758Y-62073319D01*
X25400500Y-61976500D01*
X25400500Y-53332915D01*
X25419758Y-53236096D01*
X25474602Y-53154017D01*
X25556681Y-53099173D01*
X25653500Y-53079915D01*
X25681830Y-53081506D01*
X25760757Y-53090400D01*
X26416000Y-53090400D01*
X26416000Y-51734737D01*
X26420464Y-51739201D01*
X26513135Y-51792705D01*
X26616496Y-51820400D01*
X26723504Y-51820400D01*
X26826865Y-51792705D01*
X26919536Y-51739201D01*
X26924000Y-51734737D01*
X26924000Y-53090400D01*
G37*
%TD.AperFunction*%
%TA.AperFunction,Conductor*%
G36*
X109520519Y-86215085D02*
G01*
X109550201Y-86229723D01*
X109556358Y-86233278D01*
X109556365Y-86233283D01*
X109746735Y-86343193D01*
X109949822Y-86427314D01*
X110162151Y-86484208D01*
X110239944Y-86494449D01*
X110380077Y-86512899D01*
X110380087Y-86512899D01*
X110380090Y-86512900D01*
X110380092Y-86512900D01*
X110552714Y-86512900D01*
X110649533Y-86532158D01*
X110731612Y-86587002D01*
X110815527Y-86670917D01*
X110870371Y-86752996D01*
X110889629Y-86849815D01*
X110870371Y-86946634D01*
X110855734Y-86976314D01*
X110760810Y-87140727D01*
X110676686Y-87343821D01*
X110619793Y-87556146D01*
X110619791Y-87556154D01*
X110591100Y-87774077D01*
X110591100Y-87993922D01*
X110618062Y-88198709D01*
X110619792Y-88211849D01*
X110676686Y-88424178D01*
X110754839Y-88612858D01*
X110760810Y-88627272D01*
X110760812Y-88627276D01*
X110854259Y-88789129D01*
X110870717Y-88817635D01*
X110964541Y-88939908D01*
X111009577Y-88998600D01*
X111007715Y-89000028D01*
X111049673Y-89072760D01*
X111062523Y-89170636D01*
X111036941Y-89265979D01*
X111008486Y-89308563D01*
X111009577Y-89309400D01*
X110870720Y-89490361D01*
X110870711Y-89490374D01*
X110760812Y-89680723D01*
X110760810Y-89680727D01*
X110676686Y-89883821D01*
X110619793Y-90096146D01*
X110619791Y-90096154D01*
X110591100Y-90314077D01*
X110591100Y-90533922D01*
X110619791Y-90751845D01*
X110619792Y-90751849D01*
X110676686Y-90964178D01*
X110760807Y-91167265D01*
X110760808Y-91167268D01*
X110760810Y-91167271D01*
X110820126Y-91270010D01*
X110851857Y-91363487D01*
X110845400Y-91461991D01*
X110801739Y-91550526D01*
X110779923Y-91575403D01*
X110764906Y-91590419D01*
X110667460Y-91745504D01*
X110667460Y-91745505D01*
X110606965Y-91918391D01*
X110591600Y-92054754D01*
X110591600Y-92710000D01*
X111947263Y-92710000D01*
X111942799Y-92714464D01*
X111889295Y-92807135D01*
X111861600Y-92910496D01*
X111861600Y-93017504D01*
X111889295Y-93120865D01*
X111942799Y-93213536D01*
X111947263Y-93218000D01*
X110591600Y-93218000D01*
X110591600Y-93726500D01*
X110572342Y-93823319D01*
X110517498Y-93905398D01*
X110435419Y-93960242D01*
X110338600Y-93979500D01*
X108101400Y-93979500D01*
X108004581Y-93960242D01*
X107922502Y-93905398D01*
X107867658Y-93823319D01*
X107848400Y-93726500D01*
X107848400Y-93218000D01*
X106492737Y-93218000D01*
X106497201Y-93213536D01*
X106550705Y-93120865D01*
X106578400Y-93017504D01*
X106578400Y-92910496D01*
X106550705Y-92807135D01*
X106497201Y-92714464D01*
X106492737Y-92710000D01*
X107848400Y-92710000D01*
X107848400Y-92054754D01*
X107833034Y-91918391D01*
X107772539Y-91745505D01*
X107772539Y-91745504D01*
X107675093Y-91590420D01*
X107660080Y-91575407D01*
X107605236Y-91493328D01*
X107585978Y-91396509D01*
X107605236Y-91299690D01*
X107619874Y-91270008D01*
X107621565Y-91267079D01*
X107679193Y-91167265D01*
X107763314Y-90964178D01*
X107820208Y-90751849D01*
X107838735Y-90611120D01*
X107849982Y-90525697D01*
X107851647Y-90525916D01*
X107874244Y-90441556D01*
X107922262Y-90374540D01*
X108932426Y-89364377D01*
X109049229Y-89189569D01*
X109129684Y-88995333D01*
X109170700Y-88789133D01*
X109170700Y-88578893D01*
X109170700Y-86448827D01*
X109189958Y-86352008D01*
X109244802Y-86269929D01*
X109326881Y-86215085D01*
X109423700Y-86195827D01*
X109520519Y-86215085D01*
G37*
%TD.AperFunction*%
%TA.AperFunction,Conductor*%
G36*
X115006919Y-89606758D02*
G01*
X115088998Y-89661601D01*
X115143842Y-89743680D01*
X115163100Y-89840499D01*
X115163100Y-90025922D01*
X115191791Y-90243845D01*
X115191793Y-90243853D01*
X115201449Y-90279890D01*
X115248686Y-90456178D01*
X115298690Y-90576900D01*
X115332810Y-90659272D01*
X115332812Y-90659276D01*
X115442711Y-90849625D01*
X115442717Y-90849635D01*
X115576535Y-91024029D01*
X115731971Y-91179465D01*
X115906365Y-91313283D01*
X115931700Y-91327910D01*
X116096723Y-91423187D01*
X116096727Y-91423189D01*
X116096730Y-91423190D01*
X116096735Y-91423193D01*
X116299822Y-91507314D01*
X116512151Y-91564208D01*
X116589944Y-91574449D01*
X116730077Y-91592899D01*
X116730087Y-91592899D01*
X116730090Y-91592900D01*
X116730092Y-91592900D01*
X116949908Y-91592900D01*
X116949910Y-91592900D01*
X116949912Y-91592899D01*
X116949922Y-91592899D01*
X117064123Y-91577863D01*
X117167849Y-91564208D01*
X117380178Y-91507314D01*
X117583265Y-91423193D01*
X117583272Y-91423189D01*
X117583276Y-91423187D01*
X117686679Y-91363487D01*
X117773635Y-91313283D01*
X117948029Y-91179465D01*
X118070092Y-91057402D01*
X118152171Y-91002558D01*
X118248990Y-90983300D01*
X119275663Y-90983300D01*
X119372482Y-91002558D01*
X119454561Y-91057402D01*
X119509405Y-91139481D01*
X119528663Y-91236300D01*
X119509405Y-91333119D01*
X119454561Y-91415198D01*
X119402164Y-91455404D01*
X119208647Y-91567132D01*
X119208640Y-91567137D01*
X119149627Y-91612416D01*
X120094811Y-92557600D01*
X120088496Y-92557600D01*
X119985135Y-92585295D01*
X119892464Y-92638799D01*
X119816799Y-92714464D01*
X119763295Y-92807135D01*
X119735600Y-92910496D01*
X119735600Y-92916811D01*
X118790416Y-91971627D01*
X118745137Y-92030640D01*
X118745132Y-92030647D01*
X118635255Y-92220957D01*
X118635255Y-92220958D01*
X118551157Y-92423990D01*
X118494284Y-92636244D01*
X118494284Y-92636248D01*
X118465600Y-92854109D01*
X118465600Y-93073890D01*
X118494284Y-93291751D01*
X118494284Y-93291755D01*
X118551157Y-93504009D01*
X118603212Y-93629682D01*
X118622470Y-93726501D01*
X118603211Y-93823320D01*
X118548367Y-93905399D01*
X118466288Y-93960242D01*
X118369470Y-93979500D01*
X114197400Y-93979500D01*
X114100581Y-93960242D01*
X114018502Y-93905398D01*
X113963658Y-93823319D01*
X113944400Y-93726500D01*
X113944400Y-93218000D01*
X112588737Y-93218000D01*
X112593201Y-93213536D01*
X112646705Y-93120865D01*
X112674400Y-93017504D01*
X112674400Y-92910496D01*
X112646705Y-92807135D01*
X112593201Y-92714464D01*
X112588737Y-92710000D01*
X113944400Y-92710000D01*
X113944400Y-92054754D01*
X113929034Y-91918391D01*
X113868539Y-91745505D01*
X113868539Y-91745504D01*
X113771093Y-91590420D01*
X113756080Y-91575407D01*
X113701236Y-91493328D01*
X113681978Y-91396509D01*
X113701236Y-91299690D01*
X113715874Y-91270008D01*
X113717565Y-91267079D01*
X113775193Y-91167265D01*
X113859314Y-90964178D01*
X113916208Y-90751849D01*
X113934735Y-90611120D01*
X113945982Y-90525697D01*
X113947647Y-90525916D01*
X113970244Y-90441556D01*
X114018262Y-90374540D01*
X114731202Y-89661601D01*
X114813281Y-89606757D01*
X114910100Y-89587499D01*
X115006919Y-89606758D01*
G37*
%TD.AperFunction*%
%TA.AperFunction,Conductor*%
G36*
X151384000Y-61366400D02*
G01*
X152039243Y-61366400D01*
X152118170Y-61357506D01*
X152216536Y-61365802D01*
X152304240Y-61411110D01*
X152367930Y-61486531D01*
X152397909Y-61580585D01*
X152399500Y-61608915D01*
X152399500Y-76082997D01*
X152380242Y-76179816D01*
X152325398Y-76261895D01*
X152243319Y-76316739D01*
X152146500Y-76335997D01*
X152049681Y-76316739D01*
X152020000Y-76302101D01*
X151873049Y-76217258D01*
X151873041Y-76217255D01*
X151670009Y-76133157D01*
X151457753Y-76076284D01*
X151239890Y-76047600D01*
X151020109Y-76047600D01*
X150802248Y-76076284D01*
X150802244Y-76076284D01*
X150589990Y-76133157D01*
X150386958Y-76217255D01*
X150386957Y-76217255D01*
X150196647Y-76327132D01*
X150196640Y-76327137D01*
X150137627Y-76372416D01*
X151082811Y-77317600D01*
X151076496Y-77317600D01*
X150973135Y-77345295D01*
X150880464Y-77398799D01*
X150804799Y-77474464D01*
X150751295Y-77567135D01*
X150723600Y-77670496D01*
X150723600Y-77676811D01*
X149778416Y-76731627D01*
X149733137Y-76790640D01*
X149733132Y-76790647D01*
X149623255Y-76980957D01*
X149623255Y-76980958D01*
X149539157Y-77183990D01*
X149482284Y-77396244D01*
X149482284Y-77396248D01*
X149453600Y-77614109D01*
X149453600Y-77833890D01*
X149482284Y-78051751D01*
X149482284Y-78051755D01*
X149539157Y-78264009D01*
X149623255Y-78467041D01*
X149623255Y-78467042D01*
X149733133Y-78657354D01*
X149733141Y-78657366D01*
X149778416Y-78716370D01*
X149778417Y-78716371D01*
X150723600Y-77771187D01*
X150723600Y-77777504D01*
X150751295Y-77880865D01*
X150804799Y-77973536D01*
X150880464Y-78049201D01*
X150973135Y-78102705D01*
X151076496Y-78130400D01*
X151082810Y-78130400D01*
X150137627Y-79075582D01*
X150196643Y-79120865D01*
X150196645Y-79120866D01*
X150386957Y-79230744D01*
X150589990Y-79314842D01*
X150802246Y-79371715D01*
X151020109Y-79400399D01*
X151020124Y-79400400D01*
X151239876Y-79400400D01*
X151239890Y-79400399D01*
X151457751Y-79371715D01*
X151457755Y-79371715D01*
X151670009Y-79314842D01*
X151873041Y-79230744D01*
X151873042Y-79230744D01*
X152019999Y-79145898D01*
X152113475Y-79114167D01*
X152211980Y-79120622D01*
X152300516Y-79164283D01*
X152365604Y-79238501D01*
X152397335Y-79331977D01*
X152399500Y-79365002D01*
X152399500Y-86355694D01*
X152399352Y-86364332D01*
X152383631Y-86824514D01*
X152383134Y-86833927D01*
X152375787Y-86936639D01*
X152375106Y-86944461D01*
X152333567Y-87348528D01*
X152332318Y-87358658D01*
X152318199Y-87456864D01*
X152317095Y-87463849D01*
X152247311Y-87868586D01*
X152245208Y-87879380D01*
X152225574Y-87969631D01*
X152224162Y-87975750D01*
X152125153Y-88382036D01*
X152122098Y-88393415D01*
X152099071Y-88471836D01*
X152097466Y-88477092D01*
X151967607Y-88886245D01*
X151963511Y-88898119D01*
X151940481Y-88959868D01*
X151938797Y-88964257D01*
X151834851Y-89227849D01*
X151775362Y-89378703D01*
X151770138Y-89390990D01*
X151752740Y-89429086D01*
X151751081Y-89432645D01*
X151549257Y-89857017D01*
X151542834Y-89869604D01*
X151540912Y-89873124D01*
X151539388Y-89875874D01*
X151415532Y-90096154D01*
X151294479Y-90311445D01*
X151285511Y-90326193D01*
X151009647Y-90746781D01*
X150999684Y-90760895D01*
X150695750Y-91161691D01*
X150684849Y-91175091D01*
X150354284Y-91554200D01*
X150342492Y-91566826D01*
X149986826Y-91922492D01*
X149974200Y-91934284D01*
X149595091Y-92264849D01*
X149581691Y-92275750D01*
X149180895Y-92579684D01*
X149166781Y-92589647D01*
X148746193Y-92865511D01*
X148731445Y-92874479D01*
X148667391Y-92910496D01*
X148295874Y-93119388D01*
X148293124Y-93120912D01*
X148289604Y-93122834D01*
X148277017Y-93129257D01*
X147852645Y-93331081D01*
X147849086Y-93332740D01*
X147810990Y-93350138D01*
X147798703Y-93355362D01*
X147384272Y-93518792D01*
X147379868Y-93520481D01*
X147318119Y-93543511D01*
X147306245Y-93547607D01*
X146897092Y-93677466D01*
X146891836Y-93679071D01*
X146813415Y-93702098D01*
X146802036Y-93705153D01*
X146395750Y-93804162D01*
X146389631Y-93805574D01*
X146299380Y-93825208D01*
X146288586Y-93827311D01*
X145883849Y-93897095D01*
X145876864Y-93898199D01*
X145778658Y-93912318D01*
X145768528Y-93913567D01*
X145364461Y-93955106D01*
X145356639Y-93955787D01*
X145253927Y-93963134D01*
X145244514Y-93963631D01*
X144784332Y-93979352D01*
X144775694Y-93979500D01*
X121914530Y-93979500D01*
X121817711Y-93960242D01*
X121735632Y-93905398D01*
X121680788Y-93823319D01*
X121661530Y-93726500D01*
X121680788Y-93629682D01*
X121732842Y-93504009D01*
X121789715Y-93291755D01*
X121789715Y-93291751D01*
X121818399Y-93073890D01*
X121818400Y-93073876D01*
X121818400Y-92854123D01*
X121818399Y-92854109D01*
X121789715Y-92636248D01*
X121789715Y-92636244D01*
X121732842Y-92423990D01*
X121648744Y-92220958D01*
X121648744Y-92220957D01*
X121538866Y-92030645D01*
X121538865Y-92030643D01*
X121493581Y-91971627D01*
X120548400Y-92916809D01*
X120548400Y-92910496D01*
X120520705Y-92807135D01*
X120467201Y-92714464D01*
X120391536Y-92638799D01*
X120298865Y-92585295D01*
X120195504Y-92557600D01*
X120189187Y-92557600D01*
X121131429Y-91615358D01*
X120807679Y-91422339D01*
X120784404Y-91401344D01*
X120758340Y-91383928D01*
X120748086Y-91368581D01*
X120734380Y-91356218D01*
X120720910Y-91327910D01*
X120703496Y-91301848D01*
X120699895Y-91283745D01*
X120691965Y-91267079D01*
X120690353Y-91235774D01*
X120684238Y-91205029D01*
X120687838Y-91186926D01*
X120686890Y-91168494D01*
X120697381Y-91138955D01*
X120703497Y-91108210D01*
X120713752Y-91092862D01*
X120719929Y-91075471D01*
X120740923Y-91052196D01*
X120758340Y-91026132D01*
X120773686Y-91015878D01*
X120786050Y-91002172D01*
X120814357Y-90988702D01*
X120840420Y-90971288D01*
X120869481Y-90962472D01*
X120875189Y-90959757D01*
X120879097Y-90959555D01*
X120887877Y-90956892D01*
X120961320Y-90942284D01*
X121155556Y-90861829D01*
X121330364Y-90745026D01*
X122015281Y-90060109D01*
X124641600Y-90060109D01*
X124641600Y-90279890D01*
X124670284Y-90497751D01*
X124670284Y-90497755D01*
X124727157Y-90710009D01*
X124811255Y-90913041D01*
X124811255Y-90913042D01*
X124921133Y-91103354D01*
X124921141Y-91103366D01*
X124966416Y-91162370D01*
X124966417Y-91162371D01*
X125911600Y-90217187D01*
X125911600Y-90223504D01*
X125939295Y-90326865D01*
X125992799Y-90419536D01*
X126068464Y-90495201D01*
X126161135Y-90548705D01*
X126264496Y-90576400D01*
X126270810Y-90576400D01*
X125325627Y-91521582D01*
X125384643Y-91566865D01*
X125384645Y-91566866D01*
X125574957Y-91676744D01*
X125777990Y-91760842D01*
X125990246Y-91817715D01*
X126208109Y-91846399D01*
X126208124Y-91846400D01*
X126427876Y-91846400D01*
X126427890Y-91846399D01*
X126645751Y-91817715D01*
X126645755Y-91817715D01*
X126858009Y-91760842D01*
X127061041Y-91676744D01*
X127061042Y-91676744D01*
X127251353Y-91566867D01*
X127310371Y-91521581D01*
X126365190Y-90576400D01*
X126371504Y-90576400D01*
X126474865Y-90548705D01*
X126567536Y-90495201D01*
X126643201Y-90419536D01*
X126696705Y-90326865D01*
X126724400Y-90223504D01*
X126724400Y-90217189D01*
X127669581Y-91162370D01*
X127714867Y-91103353D01*
X127824744Y-90913042D01*
X127824744Y-90913041D01*
X127908842Y-90710009D01*
X127965715Y-90497755D01*
X127965715Y-90497751D01*
X127994399Y-90279890D01*
X127994400Y-90279876D01*
X127994400Y-90060123D01*
X127994399Y-90060109D01*
X127965715Y-89842248D01*
X127965715Y-89842244D01*
X127908842Y-89629990D01*
X127824744Y-89426958D01*
X127824744Y-89426957D01*
X127714866Y-89236645D01*
X127714865Y-89236643D01*
X127669581Y-89177627D01*
X126724400Y-90122808D01*
X126724400Y-90116496D01*
X126696705Y-90013135D01*
X126643201Y-89920464D01*
X126567536Y-89844799D01*
X126474865Y-89791295D01*
X126371504Y-89763600D01*
X126365187Y-89763600D01*
X127310371Y-88818417D01*
X127310370Y-88818416D01*
X127251366Y-88773141D01*
X127251354Y-88773133D01*
X127061042Y-88663255D01*
X126858009Y-88579157D01*
X126645753Y-88522284D01*
X126427890Y-88493600D01*
X126208109Y-88493600D01*
X125990248Y-88522284D01*
X125990244Y-88522284D01*
X125777990Y-88579157D01*
X125574958Y-88663255D01*
X125574957Y-88663255D01*
X125384647Y-88773132D01*
X125384640Y-88773137D01*
X125325627Y-88818416D01*
X126270811Y-89763600D01*
X126264496Y-89763600D01*
X126161135Y-89791295D01*
X126068464Y-89844799D01*
X125992799Y-89920464D01*
X125939295Y-90013135D01*
X125911600Y-90116496D01*
X125911600Y-90122811D01*
X124966416Y-89177627D01*
X124921137Y-89236640D01*
X124921132Y-89236647D01*
X124811255Y-89426957D01*
X124811255Y-89426958D01*
X124727157Y-89629990D01*
X124670284Y-89842244D01*
X124670284Y-89842248D01*
X124641600Y-90060109D01*
X122015281Y-90060109D01*
X122440602Y-89634788D01*
X123338031Y-88737358D01*
X123456387Y-88619002D01*
X123538466Y-88564158D01*
X123635285Y-88544900D01*
X123807908Y-88544900D01*
X123807910Y-88544900D01*
X123807912Y-88544899D01*
X123807922Y-88544899D01*
X123922123Y-88529863D01*
X124025849Y-88516208D01*
X124238178Y-88459314D01*
X124441265Y-88375193D01*
X124441272Y-88375189D01*
X124441276Y-88375187D01*
X124514460Y-88332934D01*
X124631635Y-88265283D01*
X124806029Y-88131465D01*
X124961465Y-87976029D01*
X125095283Y-87801635D01*
X125187224Y-87642388D01*
X125205187Y-87611276D01*
X125205189Y-87611272D01*
X125205189Y-87611271D01*
X125205193Y-87611265D01*
X125289314Y-87408178D01*
X125346208Y-87195849D01*
X125368199Y-87028809D01*
X125374899Y-86977922D01*
X125374900Y-86977907D01*
X125374900Y-86758092D01*
X125374899Y-86758077D01*
X125346208Y-86540154D01*
X125346208Y-86540151D01*
X125289314Y-86327822D01*
X125205193Y-86124735D01*
X125205190Y-86124730D01*
X125205189Y-86124727D01*
X125205187Y-86124723D01*
X125114460Y-85967581D01*
X125095283Y-85934365D01*
X124961465Y-85759971D01*
X124961462Y-85759968D01*
X124959593Y-85757532D01*
X124959284Y-85757278D01*
X124959020Y-85756785D01*
X124956423Y-85753400D01*
X124956981Y-85752971D01*
X124937942Y-85717350D01*
X124915290Y-85678122D01*
X124914738Y-85673939D01*
X124912750Y-85670218D01*
X124908312Y-85625157D01*
X124902397Y-85580251D01*
X124903489Y-85576173D01*
X124903076Y-85571978D01*
X124916220Y-85528647D01*
X124927940Y-85484897D01*
X124930507Y-85481550D01*
X124931732Y-85477513D01*
X124960459Y-85442509D01*
X124988028Y-85406576D01*
X124994329Y-85401230D01*
X125009615Y-85388684D01*
X125096674Y-85342152D01*
X125194914Y-85332478D01*
X125289379Y-85361134D01*
X125297073Y-85365746D01*
X125297192Y-85365542D01*
X125494723Y-85479587D01*
X125494727Y-85479589D01*
X125494730Y-85479590D01*
X125494735Y-85479593D01*
X125697822Y-85563714D01*
X125718808Y-85569337D01*
X125807342Y-85612994D01*
X125832229Y-85634819D01*
X127894437Y-87697027D01*
X127944985Y-87730802D01*
X128069244Y-87813829D01*
X128263480Y-87894284D01*
X128469680Y-87935300D01*
X128679920Y-87935300D01*
X129909010Y-87935300D01*
X130005829Y-87954558D01*
X130087908Y-88009402D01*
X130176598Y-88098092D01*
X130231442Y-88180171D01*
X130250700Y-88276990D01*
X130250700Y-88761010D01*
X130231442Y-88857829D01*
X130176598Y-88939908D01*
X130054534Y-89061971D01*
X129920720Y-89236361D01*
X129920711Y-89236374D01*
X129810812Y-89426723D01*
X129810810Y-89426727D01*
X129726686Y-89629821D01*
X129669793Y-89842146D01*
X129669791Y-89842154D01*
X129641100Y-90060077D01*
X129641100Y-90279922D01*
X129669791Y-90497845D01*
X129669792Y-90497849D01*
X129726686Y-90710178D01*
X129793420Y-90871290D01*
X129810810Y-90913272D01*
X129810812Y-90913276D01*
X129920711Y-91103625D01*
X129920717Y-91103635D01*
X130054535Y-91278029D01*
X130209971Y-91433465D01*
X130384365Y-91567283D01*
X130384374Y-91567288D01*
X130574723Y-91677187D01*
X130574727Y-91677189D01*
X130574730Y-91677190D01*
X130574735Y-91677193D01*
X130777822Y-91761314D01*
X130990151Y-91818208D01*
X131067944Y-91828449D01*
X131208077Y-91846899D01*
X131208087Y-91846899D01*
X131208090Y-91846900D01*
X131208092Y-91846900D01*
X131427908Y-91846900D01*
X131427910Y-91846900D01*
X131427912Y-91846899D01*
X131427922Y-91846899D01*
X131542123Y-91831863D01*
X131645849Y-91818208D01*
X131858178Y-91761314D01*
X132061265Y-91677193D01*
X132061272Y-91677189D01*
X132061276Y-91677187D01*
X132120673Y-91642893D01*
X132251635Y-91567283D01*
X132426029Y-91433465D01*
X132581465Y-91278029D01*
X132715283Y-91103635D01*
X132798351Y-90959757D01*
X132825187Y-90913276D01*
X132825189Y-90913272D01*
X132825189Y-90913271D01*
X132825193Y-90913265D01*
X132909314Y-90710178D01*
X132966208Y-90497849D01*
X132983556Y-90366080D01*
X132994899Y-90279922D01*
X132994900Y-90279907D01*
X132994900Y-90060092D01*
X132994899Y-90060077D01*
X132971694Y-89883821D01*
X132966208Y-89842151D01*
X132909314Y-89629822D01*
X132825193Y-89426735D01*
X132825190Y-89426730D01*
X132825189Y-89426727D01*
X132825187Y-89426723D01*
X132715446Y-89236647D01*
X132715283Y-89236365D01*
X132581465Y-89061971D01*
X132459402Y-88939908D01*
X132404558Y-88857829D01*
X132385988Y-88764468D01*
X144906700Y-88764468D01*
X144906700Y-89035531D01*
X144930766Y-89249129D01*
X144937048Y-89304880D01*
X144956702Y-89390990D01*
X144997365Y-89569147D01*
X145086885Y-89824980D01*
X145204495Y-90069198D01*
X145347809Y-90297283D01*
X145348705Y-90298708D01*
X145517706Y-90510628D01*
X145709372Y-90702294D01*
X145921292Y-90871295D01*
X146150802Y-91015505D01*
X146333812Y-91103638D01*
X146395019Y-91133114D01*
X146650852Y-91222634D01*
X146650858Y-91222635D01*
X146650860Y-91222636D01*
X146915120Y-91282952D01*
X147184470Y-91313299D01*
X147184471Y-91313300D01*
X147184472Y-91313300D01*
X147455529Y-91313300D01*
X147455529Y-91313299D01*
X147724880Y-91282952D01*
X147989140Y-91222636D01*
X147989143Y-91222634D01*
X147989147Y-91222634D01*
X148244980Y-91133114D01*
X148244981Y-91133113D01*
X148244985Y-91133112D01*
X148489198Y-91015505D01*
X148718708Y-90871295D01*
X148930628Y-90702294D01*
X149122294Y-90510628D01*
X149291295Y-90298708D01*
X149435505Y-90069198D01*
X149553112Y-89824985D01*
X149564901Y-89791295D01*
X149642634Y-89569147D01*
X149642636Y-89569140D01*
X149702952Y-89304880D01*
X149733300Y-89035528D01*
X149733300Y-88764472D01*
X149702952Y-88495120D01*
X149642636Y-88230860D01*
X149642635Y-88230858D01*
X149642634Y-88230852D01*
X149553114Y-87975019D01*
X149533505Y-87934300D01*
X149435505Y-87730802D01*
X149291295Y-87501292D01*
X149122294Y-87289372D01*
X148930628Y-87097706D01*
X148718708Y-86928705D01*
X148595341Y-86851189D01*
X148489198Y-86784495D01*
X148244980Y-86666885D01*
X147989147Y-86577365D01*
X147826078Y-86540146D01*
X147724880Y-86517048D01*
X147724876Y-86517047D01*
X147724875Y-86517047D01*
X147455531Y-86486700D01*
X147455528Y-86486700D01*
X147184472Y-86486700D01*
X147184468Y-86486700D01*
X146915124Y-86517047D01*
X146915121Y-86517047D01*
X146915120Y-86517048D01*
X146857904Y-86530107D01*
X146650852Y-86577365D01*
X146395019Y-86666885D01*
X146150801Y-86784495D01*
X145921297Y-86928701D01*
X145921286Y-86928709D01*
X145709371Y-87097706D01*
X145517706Y-87289371D01*
X145348709Y-87501286D01*
X145348701Y-87501297D01*
X145204495Y-87730801D01*
X145086885Y-87975019D01*
X144997365Y-88230852D01*
X144953240Y-88424178D01*
X144942363Y-88471836D01*
X144937048Y-88495121D01*
X144937047Y-88495124D01*
X144906700Y-88764468D01*
X132385988Y-88764468D01*
X132385300Y-88761010D01*
X132385300Y-88276990D01*
X132404558Y-88180171D01*
X132459402Y-88098092D01*
X132512973Y-88044521D01*
X132581465Y-87976029D01*
X132715283Y-87801635D01*
X132807224Y-87642388D01*
X132825187Y-87611276D01*
X132825189Y-87611272D01*
X132825189Y-87611271D01*
X132825193Y-87611265D01*
X132909314Y-87408178D01*
X132966208Y-87195849D01*
X132988199Y-87028809D01*
X132994899Y-86977922D01*
X132994900Y-86977907D01*
X132994900Y-86758092D01*
X132994899Y-86758077D01*
X132966208Y-86540154D01*
X132966208Y-86540151D01*
X132909314Y-86327822D01*
X132825193Y-86124735D01*
X132825190Y-86124730D01*
X132825189Y-86124727D01*
X132825187Y-86124723D01*
X132734460Y-85967581D01*
X132715283Y-85934365D01*
X132581465Y-85759971D01*
X132426029Y-85604535D01*
X132420239Y-85598745D01*
X132365395Y-85516666D01*
X132346137Y-85419847D01*
X132365395Y-85323028D01*
X132420239Y-85240949D01*
X132581089Y-85080098D01*
X132714863Y-84905758D01*
X132714866Y-84905754D01*
X132824744Y-84715442D01*
X132824744Y-84715441D01*
X132908842Y-84512409D01*
X132965715Y-84300155D01*
X132965715Y-84300151D01*
X132994399Y-84082290D01*
X132994400Y-84082276D01*
X132994400Y-83848795D01*
X132965605Y-83820000D01*
X131638737Y-83820000D01*
X131643201Y-83815536D01*
X131696705Y-83722865D01*
X131724400Y-83619504D01*
X131724400Y-83512496D01*
X131696705Y-83409135D01*
X131643201Y-83316464D01*
X131638737Y-83312000D01*
X133068401Y-83312000D01*
X133165220Y-83331258D01*
X133247299Y-83386102D01*
X134155624Y-84294427D01*
X134264377Y-84367093D01*
X134330431Y-84411229D01*
X134524667Y-84491684D01*
X134730867Y-84532700D01*
X134730871Y-84532700D01*
X140605129Y-84532700D01*
X140605133Y-84532700D01*
X140811333Y-84491684D01*
X141005569Y-84411229D01*
X141180377Y-84294426D01*
X146879026Y-78595777D01*
X146995829Y-78420969D01*
X147076284Y-78226733D01*
X147117300Y-78020533D01*
X147117300Y-77810293D01*
X147117300Y-76338990D01*
X147136558Y-76242171D01*
X147191402Y-76160092D01*
X147246102Y-76105392D01*
X147313465Y-76038029D01*
X147447283Y-75863635D01*
X147536673Y-75708807D01*
X147557187Y-75673276D01*
X147557189Y-75673272D01*
X147557189Y-75673271D01*
X147557193Y-75673265D01*
X147641314Y-75470178D01*
X147698208Y-75257849D01*
X147719241Y-75098080D01*
X147750971Y-75004609D01*
X147791174Y-74952215D01*
X148695210Y-74048178D01*
X148777289Y-73993335D01*
X148874108Y-73974077D01*
X148907133Y-73976242D01*
X148988078Y-73986899D01*
X148988088Y-73986899D01*
X148988090Y-73986900D01*
X148988091Y-73986900D01*
X149207908Y-73986900D01*
X149207910Y-73986900D01*
X149207912Y-73986899D01*
X149207922Y-73986899D01*
X149322123Y-73971863D01*
X149425849Y-73958208D01*
X149638178Y-73901314D01*
X149841265Y-73817193D01*
X149841272Y-73817189D01*
X149841276Y-73817187D01*
X149923141Y-73769922D01*
X150031635Y-73707283D01*
X150206029Y-73573465D01*
X150361465Y-73418029D01*
X150495283Y-73243635D01*
X150605193Y-73053265D01*
X150689314Y-72850178D01*
X150746208Y-72637849D01*
X150772503Y-72438118D01*
X150774899Y-72419922D01*
X150774900Y-72419907D01*
X150774900Y-72200092D01*
X150774899Y-72200077D01*
X150753087Y-72034400D01*
X150746208Y-71982151D01*
X150689314Y-71769822D01*
X150605193Y-71566735D01*
X150605190Y-71566730D01*
X150605189Y-71566727D01*
X150605187Y-71566723D01*
X150495288Y-71376374D01*
X150495283Y-71376365D01*
X150361465Y-71201971D01*
X150206029Y-71046535D01*
X150031635Y-70912717D01*
X150031625Y-70912711D01*
X149841276Y-70802812D01*
X149841272Y-70802810D01*
X149638178Y-70718686D01*
X149425853Y-70661793D01*
X149425845Y-70661791D01*
X149207922Y-70633100D01*
X149207910Y-70633100D01*
X148988090Y-70633100D01*
X148988077Y-70633100D01*
X148770154Y-70661791D01*
X148770146Y-70661793D01*
X148557821Y-70718686D01*
X148354727Y-70802810D01*
X148354723Y-70802812D01*
X148164374Y-70912711D01*
X148164361Y-70912720D01*
X147989971Y-71046534D01*
X147834534Y-71201971D01*
X147700720Y-71376361D01*
X147700711Y-71376374D01*
X147590812Y-71566723D01*
X147590810Y-71566727D01*
X147506686Y-71769821D01*
X147449793Y-71982146D01*
X147449791Y-71982154D01*
X147421100Y-72200077D01*
X147420559Y-72208349D01*
X147419201Y-72208260D01*
X147401842Y-72295532D01*
X147346998Y-72377611D01*
X146523481Y-73201127D01*
X146441402Y-73255971D01*
X146344583Y-73275229D01*
X146311560Y-73273065D01*
X146159910Y-73253100D01*
X145940090Y-73253100D01*
X145940077Y-73253100D01*
X145722154Y-73281791D01*
X145722146Y-73281793D01*
X145509821Y-73338686D01*
X145306727Y-73422810D01*
X145306723Y-73422812D01*
X145116374Y-73532711D01*
X145116361Y-73532720D01*
X144941971Y-73666534D01*
X144941965Y-73666539D01*
X144940846Y-73667659D01*
X144940187Y-73668098D01*
X144935745Y-73671995D01*
X144935231Y-73671409D01*
X144858763Y-73722496D01*
X144761943Y-73741748D01*
X144665125Y-73722483D01*
X144583050Y-73667633D01*
X144547739Y-73623351D01*
X144505488Y-73556108D01*
X144375891Y-73426511D01*
X144220707Y-73329004D01*
X144047722Y-73268474D01*
X143911274Y-73253100D01*
X143911272Y-73253100D01*
X142092728Y-73253100D01*
X142092725Y-73253100D01*
X141956278Y-73268474D01*
X141956276Y-73268474D01*
X141783292Y-73329004D01*
X141628108Y-73426511D01*
X141498511Y-73556108D01*
X141401004Y-73711292D01*
X141340474Y-73884276D01*
X141340474Y-73884278D01*
X141325100Y-74020725D01*
X141325100Y-75839275D01*
X141328266Y-75867373D01*
X141319969Y-75965740D01*
X141274660Y-76053443D01*
X141199238Y-76117132D01*
X141105184Y-76147109D01*
X141076857Y-76148700D01*
X140453614Y-76148700D01*
X140356795Y-76129442D01*
X140274716Y-76074598D01*
X140152652Y-75952534D01*
X140041668Y-75867373D01*
X139978259Y-75818717D01*
X139978249Y-75818711D01*
X139787900Y-75708812D01*
X139787896Y-75708810D01*
X139741417Y-75689558D01*
X139584802Y-75624686D01*
X139372473Y-75567792D01*
X139372469Y-75567791D01*
X139154546Y-75539100D01*
X139154534Y-75539100D01*
X138934714Y-75539100D01*
X138934701Y-75539100D01*
X138716778Y-75567791D01*
X138716770Y-75567793D01*
X138504445Y-75624686D01*
X138301351Y-75708810D01*
X138301347Y-75708812D01*
X138110998Y-75818711D01*
X138110985Y-75818720D01*
X137936595Y-75952534D01*
X137814532Y-76074598D01*
X137732453Y-76129442D01*
X137635634Y-76148700D01*
X133388886Y-76148700D01*
X133292067Y-76129442D01*
X133209988Y-76074598D01*
X133069002Y-75933612D01*
X133014158Y-75851533D01*
X132994900Y-75754714D01*
X132994900Y-75429692D01*
X132994899Y-75429677D01*
X132972277Y-75257849D01*
X132966208Y-75211751D01*
X132909314Y-74999422D01*
X132909312Y-74999417D01*
X132907856Y-74993983D01*
X132901399Y-74895478D01*
X132933130Y-74802001D01*
X132998217Y-74727782D01*
X133086752Y-74684121D01*
X133152235Y-74675500D01*
X133993265Y-74675500D01*
X134090084Y-74694758D01*
X134172163Y-74749602D01*
X134212369Y-74801999D01*
X134238717Y-74847635D01*
X134372535Y-75022029D01*
X134527971Y-75177465D01*
X134702365Y-75311283D01*
X134735581Y-75330460D01*
X134892723Y-75421187D01*
X134892727Y-75421189D01*
X134892730Y-75421190D01*
X134892735Y-75421193D01*
X135095822Y-75505314D01*
X135308151Y-75562208D01*
X135385944Y-75572449D01*
X135526077Y-75590899D01*
X135526087Y-75590899D01*
X135526090Y-75590900D01*
X135526092Y-75590900D01*
X135745908Y-75590900D01*
X135745910Y-75590900D01*
X135745912Y-75590899D01*
X135745922Y-75590899D01*
X135860123Y-75575863D01*
X135963849Y-75562208D01*
X136176178Y-75505314D01*
X136379265Y-75421193D01*
X136379272Y-75421189D01*
X136379276Y-75421187D01*
X136438673Y-75386893D01*
X136569635Y-75311283D01*
X136744029Y-75177465D01*
X136899465Y-75022029D01*
X137033283Y-74847635D01*
X137108893Y-74716673D01*
X137143187Y-74657276D01*
X137143189Y-74657272D01*
X137143189Y-74657271D01*
X137143193Y-74657265D01*
X137227314Y-74454178D01*
X137284208Y-74241849D01*
X137298488Y-74133381D01*
X137312899Y-74023922D01*
X137312900Y-74023907D01*
X137312900Y-73804092D01*
X137312899Y-73804077D01*
X137289105Y-73623351D01*
X137284208Y-73586151D01*
X137227314Y-73373822D01*
X137143193Y-73170735D01*
X137143190Y-73170730D01*
X137143189Y-73170727D01*
X137143187Y-73170723D01*
X137033288Y-72980374D01*
X137033283Y-72980365D01*
X136899465Y-72805971D01*
X136744029Y-72650535D01*
X136727496Y-72637849D01*
X136660442Y-72586396D01*
X136569635Y-72516717D01*
X136552812Y-72507004D01*
X136379276Y-72406812D01*
X136379272Y-72406810D01*
X136325939Y-72384719D01*
X136176178Y-72322686D01*
X135963849Y-72265792D01*
X135963845Y-72265791D01*
X135745922Y-72237100D01*
X135745910Y-72237100D01*
X135526090Y-72237100D01*
X135526077Y-72237100D01*
X135308154Y-72265791D01*
X135308146Y-72265793D01*
X135095821Y-72322686D01*
X134892727Y-72406810D01*
X134892723Y-72406812D01*
X134719188Y-72507004D01*
X134625711Y-72538736D01*
X134592688Y-72540900D01*
X130553028Y-72540900D01*
X130456209Y-72521642D01*
X130374130Y-72466798D01*
X130319286Y-72384719D01*
X130300028Y-72287900D01*
X130319285Y-72191084D01*
X130328842Y-72168008D01*
X130385715Y-71955755D01*
X130385715Y-71955751D01*
X130414399Y-71737890D01*
X130414400Y-71737876D01*
X130414400Y-71518123D01*
X130414399Y-71518109D01*
X130385715Y-71300248D01*
X130385715Y-71300244D01*
X130328841Y-71087987D01*
X130297830Y-71013117D01*
X130278572Y-70916298D01*
X130297831Y-70819479D01*
X130352675Y-70737401D01*
X130434755Y-70682558D01*
X130531572Y-70663300D01*
X137635634Y-70663300D01*
X137732453Y-70682558D01*
X137814531Y-70737401D01*
X137936595Y-70859465D01*
X138110989Y-70993283D01*
X138110998Y-70993288D01*
X138301347Y-71103187D01*
X138301351Y-71103189D01*
X138301354Y-71103190D01*
X138301359Y-71103193D01*
X138504446Y-71187314D01*
X138716775Y-71244208D01*
X138794568Y-71254449D01*
X138934701Y-71272899D01*
X138934711Y-71272899D01*
X138934714Y-71272900D01*
X138934716Y-71272900D01*
X139154532Y-71272900D01*
X139154534Y-71272900D01*
X139154536Y-71272899D01*
X139154546Y-71272899D01*
X139285797Y-71255619D01*
X139372473Y-71244208D01*
X139584802Y-71187314D01*
X139787889Y-71103193D01*
X139787896Y-71103189D01*
X139787900Y-71103187D01*
X139847297Y-71068893D01*
X139978259Y-70993283D01*
X140152653Y-70859465D01*
X140308089Y-70704029D01*
X140441907Y-70529635D01*
X140517517Y-70398673D01*
X140551811Y-70339276D01*
X140551813Y-70339272D01*
X140551813Y-70339271D01*
X140551817Y-70339265D01*
X140635938Y-70136178D01*
X140692832Y-69923849D01*
X140706487Y-69820123D01*
X140721523Y-69705922D01*
X140721524Y-69705907D01*
X140721524Y-69533285D01*
X140740782Y-69436466D01*
X140795626Y-69354387D01*
X141175527Y-68974486D01*
X141557478Y-68592534D01*
X141639554Y-68537694D01*
X141736373Y-68518435D01*
X141833192Y-68537693D01*
X141890390Y-68570717D01*
X142067821Y-68706866D01*
X142068365Y-68707283D01*
X142068374Y-68707288D01*
X142258723Y-68817187D01*
X142258727Y-68817189D01*
X142258730Y-68817190D01*
X142258735Y-68817193D01*
X142461822Y-68901314D01*
X142674151Y-68958208D01*
X142751944Y-68968449D01*
X142892077Y-68986899D01*
X142892087Y-68986899D01*
X142892090Y-68986900D01*
X142892092Y-68986900D01*
X143111908Y-68986900D01*
X143111910Y-68986900D01*
X143111912Y-68986899D01*
X143111922Y-68986899D01*
X143226123Y-68971863D01*
X143329849Y-68958208D01*
X143542178Y-68901314D01*
X143745265Y-68817193D01*
X143745272Y-68817189D01*
X143745276Y-68817187D01*
X143804673Y-68782893D01*
X143935635Y-68707283D01*
X144110029Y-68573465D01*
X144265465Y-68418029D01*
X144325596Y-68339664D01*
X144399813Y-68274577D01*
X144493289Y-68242846D01*
X144591794Y-68249301D01*
X144680329Y-68292962D01*
X144689129Y-68301762D01*
X144698417Y-68302371D01*
X145643600Y-67357189D01*
X145643600Y-67363504D01*
X145671295Y-67466865D01*
X145724799Y-67559536D01*
X145800464Y-67635201D01*
X145893135Y-67688705D01*
X145996496Y-67716400D01*
X146002810Y-67716400D01*
X145057627Y-68661582D01*
X145116643Y-68706865D01*
X145116645Y-68706866D01*
X145306957Y-68816744D01*
X145509990Y-68900842D01*
X145722246Y-68957715D01*
X145940109Y-68986399D01*
X145940124Y-68986400D01*
X146159876Y-68986400D01*
X146159890Y-68986399D01*
X146377751Y-68957715D01*
X146377755Y-68957715D01*
X146590009Y-68900842D01*
X146793041Y-68816744D01*
X146793042Y-68816744D01*
X146983353Y-68706867D01*
X147042371Y-68661581D01*
X146097190Y-67716400D01*
X146103504Y-67716400D01*
X146206865Y-67688705D01*
X146299536Y-67635201D01*
X146375201Y-67559536D01*
X146428705Y-67466865D01*
X146456400Y-67363504D01*
X146456400Y-67357189D01*
X147381136Y-68281925D01*
X147510473Y-68248375D01*
X147526129Y-68247474D01*
X147540975Y-68242435D01*
X147574985Y-68244664D01*
X147609026Y-68242706D01*
X147623835Y-68247865D01*
X147639480Y-68248891D01*
X147670054Y-68263968D01*
X147702246Y-68275184D01*
X147713950Y-68285615D01*
X147728015Y-68292551D01*
X147737232Y-68301768D01*
X147746417Y-68302371D01*
X148691600Y-67357187D01*
X148691600Y-67363504D01*
X148719295Y-67466865D01*
X148772799Y-67559536D01*
X148848464Y-67635201D01*
X148941135Y-67688705D01*
X149044496Y-67716400D01*
X149050810Y-67716400D01*
X148105627Y-68661582D01*
X148164643Y-68706865D01*
X148164645Y-68706866D01*
X148354957Y-68816744D01*
X148557990Y-68900842D01*
X148770246Y-68957715D01*
X148988109Y-68986399D01*
X148988124Y-68986400D01*
X149207876Y-68986400D01*
X149207890Y-68986399D01*
X149425751Y-68957715D01*
X149425755Y-68957715D01*
X149638009Y-68900842D01*
X149841041Y-68816744D01*
X149841042Y-68816744D01*
X150031353Y-68706867D01*
X150090371Y-68661581D01*
X149145190Y-67716400D01*
X149151504Y-67716400D01*
X149254865Y-67688705D01*
X149347536Y-67635201D01*
X149423201Y-67559536D01*
X149476705Y-67466865D01*
X149504400Y-67363504D01*
X149504400Y-67357189D01*
X150449581Y-68302370D01*
X150494867Y-68243353D01*
X150604744Y-68053042D01*
X150604744Y-68053041D01*
X150688842Y-67850009D01*
X150745715Y-67637755D01*
X150745715Y-67637751D01*
X150774399Y-67419890D01*
X150774400Y-67419876D01*
X150774400Y-67200123D01*
X150774399Y-67200109D01*
X150745715Y-66982248D01*
X150745715Y-66982244D01*
X150688842Y-66769990D01*
X150604744Y-66566958D01*
X150604744Y-66566957D01*
X150494866Y-66376645D01*
X150494865Y-66376643D01*
X150449581Y-66317627D01*
X149504400Y-67262808D01*
X149504400Y-67256496D01*
X149476705Y-67153135D01*
X149423201Y-67060464D01*
X149347536Y-66984799D01*
X149254865Y-66931295D01*
X149151504Y-66903600D01*
X149145187Y-66903600D01*
X150090371Y-65958417D01*
X150090370Y-65958416D01*
X150031366Y-65913141D01*
X150031354Y-65913133D01*
X149859804Y-65814088D01*
X149785586Y-65749000D01*
X149741926Y-65660465D01*
X149735470Y-65561960D01*
X149767201Y-65468483D01*
X149807405Y-65416088D01*
X149853465Y-65370029D01*
X149987283Y-65195635D01*
X150097193Y-65005265D01*
X150181314Y-64802178D01*
X150238208Y-64589849D01*
X150251863Y-64486123D01*
X150266899Y-64371922D01*
X150266900Y-64371907D01*
X150266900Y-64152092D01*
X150266899Y-64152077D01*
X150238208Y-63934154D01*
X150238208Y-63934151D01*
X150181314Y-63721822D01*
X150097193Y-63518735D01*
X150097190Y-63518730D01*
X150097189Y-63518727D01*
X150097187Y-63518723D01*
X149987288Y-63328374D01*
X149987283Y-63328365D01*
X149853465Y-63153971D01*
X149698029Y-62998535D01*
X149523635Y-62864717D01*
X149503358Y-62853010D01*
X149333276Y-62754812D01*
X149333272Y-62754810D01*
X149130178Y-62670686D01*
X148917853Y-62613793D01*
X148917845Y-62613791D01*
X148699922Y-62585100D01*
X148699910Y-62585100D01*
X148527286Y-62585100D01*
X148430467Y-62565842D01*
X148348388Y-62510998D01*
X147241096Y-61403706D01*
X147186252Y-61321627D01*
X147166994Y-61224808D01*
X147186252Y-61127989D01*
X147241096Y-61045910D01*
X147323175Y-60991066D01*
X147419994Y-60971808D01*
X147516813Y-60991066D01*
X147574010Y-61024089D01*
X147656365Y-61087283D01*
X147656374Y-61087288D01*
X147846723Y-61197187D01*
X147846727Y-61197189D01*
X147846730Y-61197190D01*
X147846735Y-61197193D01*
X148049822Y-61281314D01*
X148262151Y-61338208D01*
X148339944Y-61348449D01*
X148480077Y-61366899D01*
X148480087Y-61366899D01*
X148480090Y-61366900D01*
X148480092Y-61366900D01*
X148699908Y-61366900D01*
X148699910Y-61366900D01*
X148699912Y-61366899D01*
X148699922Y-61366899D01*
X148820425Y-61351034D01*
X148917849Y-61338208D01*
X149130178Y-61281314D01*
X149333265Y-61197193D01*
X149436009Y-61137873D01*
X149529485Y-61106143D01*
X149627990Y-61112599D01*
X149716525Y-61156259D01*
X149741407Y-61178080D01*
X149756420Y-61193093D01*
X149911505Y-61290539D01*
X150084391Y-61351034D01*
X150220755Y-61366400D01*
X150876000Y-61366400D01*
X150876000Y-60010737D01*
X150880464Y-60015201D01*
X150973135Y-60068705D01*
X151076496Y-60096400D01*
X151183504Y-60096400D01*
X151286865Y-60068705D01*
X151379536Y-60015201D01*
X151384000Y-60010737D01*
X151384000Y-61366400D01*
G37*
%TD.AperFunction*%
%TA.AperFunction,Conductor*%
G36*
X146938279Y-64849981D02*
G01*
X147020358Y-64904825D01*
X147075200Y-64986900D01*
X147082807Y-65005265D01*
X147082812Y-65005276D01*
X147192711Y-65195625D01*
X147192717Y-65195635D01*
X147236383Y-65252541D01*
X147311926Y-65350991D01*
X147326535Y-65370029D01*
X147481971Y-65525465D01*
X147656365Y-65659283D01*
X147672220Y-65668437D01*
X147846723Y-65769187D01*
X147846731Y-65769191D01*
X147846735Y-65769193D01*
X147846740Y-65769195D01*
X147943361Y-65809217D01*
X147953408Y-65815930D01*
X147964985Y-65819396D01*
X147994153Y-65843155D01*
X148025440Y-65864060D01*
X148032154Y-65874108D01*
X148041523Y-65881740D01*
X148056236Y-65909025D01*
X149050811Y-66903600D01*
X149044496Y-66903600D01*
X148941135Y-66931295D01*
X148848464Y-66984799D01*
X148772799Y-67060464D01*
X148719295Y-67153135D01*
X148691600Y-67256496D01*
X148691600Y-67262811D01*
X147762315Y-66333526D01*
X147648329Y-66368562D01*
X147550125Y-66378598D01*
X147455556Y-66350289D01*
X147416672Y-66318616D01*
X147401582Y-66317627D01*
X146456400Y-67262809D01*
X146456400Y-67256496D01*
X146428705Y-67153135D01*
X146375201Y-67060464D01*
X146299536Y-66984799D01*
X146206865Y-66931295D01*
X146103504Y-66903600D01*
X146097190Y-66903600D01*
X147042371Y-65958417D01*
X147042370Y-65958416D01*
X146983366Y-65913141D01*
X146983354Y-65913133D01*
X146793042Y-65803255D01*
X146590009Y-65719157D01*
X146428264Y-65675818D01*
X146413297Y-65668437D01*
X146396926Y-65665181D01*
X146369407Y-65646793D01*
X146339729Y-65632158D01*
X146328724Y-65619609D01*
X146314847Y-65610337D01*
X146296460Y-65582819D01*
X146274641Y-65557939D01*
X146269276Y-65542134D01*
X146260004Y-65528258D01*
X146253548Y-65495803D01*
X146242909Y-65464462D01*
X146244000Y-65447806D01*
X146240745Y-65431439D01*
X146247201Y-65398979D01*
X146249366Y-65365958D01*
X146256746Y-65350991D01*
X146260003Y-65334620D01*
X146278390Y-65307101D01*
X146293026Y-65277423D01*
X146314839Y-65252549D01*
X146662568Y-64904820D01*
X146744641Y-64849982D01*
X146841460Y-64830723D01*
X146938279Y-64849981D01*
G37*
%TD.AperFunction*%
%TA.AperFunction,Conductor*%
G36*
X151384000Y-46380400D02*
G01*
X152039243Y-46380400D01*
X152118170Y-46371506D01*
X152216536Y-46379802D01*
X152304240Y-46425110D01*
X152367930Y-46500531D01*
X152397909Y-46594585D01*
X152399500Y-46622915D01*
X152399500Y-57771084D01*
X152380242Y-57867903D01*
X152325398Y-57949982D01*
X152243319Y-58004826D01*
X152146500Y-58024084D01*
X152118173Y-58022493D01*
X152039247Y-58013600D01*
X151384000Y-58013600D01*
X151384000Y-59369263D01*
X151379536Y-59364799D01*
X151286865Y-59311295D01*
X151183504Y-59283600D01*
X151076496Y-59283600D01*
X150973135Y-59311295D01*
X150880464Y-59364799D01*
X150876000Y-59369263D01*
X150876000Y-58013600D01*
X150220755Y-58013600D01*
X150084391Y-58028965D01*
X149993860Y-58060643D01*
X149896113Y-58074442D01*
X149800526Y-58049785D01*
X149721652Y-57990425D01*
X149671497Y-57905400D01*
X149657300Y-57821840D01*
X149657300Y-57288990D01*
X149676558Y-57192171D01*
X149731402Y-57110092D01*
X149773336Y-57068158D01*
X149853465Y-56988029D01*
X149987283Y-56813635D01*
X150072106Y-56666717D01*
X150097187Y-56623276D01*
X150097189Y-56623272D01*
X150097189Y-56623271D01*
X150097193Y-56623265D01*
X150181314Y-56420178D01*
X150238208Y-56207849D01*
X150251863Y-56104123D01*
X150266899Y-55989922D01*
X150266900Y-55989907D01*
X150266900Y-55770092D01*
X150266899Y-55770077D01*
X150238208Y-55552154D01*
X150238208Y-55552151D01*
X150181314Y-55339822D01*
X150097193Y-55136735D01*
X150097190Y-55136730D01*
X150097189Y-55136727D01*
X150097187Y-55136723D01*
X149987288Y-54946374D01*
X149987283Y-54946365D01*
X149853465Y-54771971D01*
X149698029Y-54616535D01*
X149523635Y-54482717D01*
X149523630Y-54482714D01*
X149523626Y-54482711D01*
X149443682Y-54436555D01*
X149369464Y-54371467D01*
X149325804Y-54282931D01*
X149319349Y-54184427D01*
X149351081Y-54090950D01*
X149416169Y-54016732D01*
X149443672Y-53998355D01*
X149483635Y-53975283D01*
X149658029Y-53841465D01*
X149813465Y-53686029D01*
X149947283Y-53511635D01*
X150057193Y-53321265D01*
X150141314Y-53118178D01*
X150198208Y-52905849D01*
X150221125Y-52731778D01*
X150226899Y-52687922D01*
X150226900Y-52687907D01*
X150226900Y-52468092D01*
X150226899Y-52468077D01*
X150207589Y-52321404D01*
X150198208Y-52250151D01*
X150141314Y-52037822D01*
X150057193Y-51834735D01*
X150057190Y-51834730D01*
X150057189Y-51834727D01*
X150057187Y-51834723D01*
X149947288Y-51644374D01*
X149947283Y-51644365D01*
X149813465Y-51469971D01*
X149731402Y-51387908D01*
X149676558Y-51305829D01*
X149657300Y-51209010D01*
X149657300Y-50684990D01*
X149676558Y-50588171D01*
X149731402Y-50506092D01*
X149757133Y-50480361D01*
X149853465Y-50384029D01*
X149987283Y-50209635D01*
X150097193Y-50019265D01*
X150181314Y-49816178D01*
X150238208Y-49603849D01*
X150252527Y-49495084D01*
X150266899Y-49385922D01*
X150266900Y-49385907D01*
X150266900Y-49166092D01*
X150266899Y-49166077D01*
X150238208Y-48948154D01*
X150238208Y-48948151D01*
X150181314Y-48735822D01*
X150097193Y-48532735D01*
X150097190Y-48532730D01*
X150097189Y-48532727D01*
X150097187Y-48532723D01*
X149987288Y-48342374D01*
X149987283Y-48342365D01*
X149853465Y-48167971D01*
X149698029Y-48012535D01*
X149523635Y-47878717D01*
X149503358Y-47867010D01*
X149333276Y-47768812D01*
X149333272Y-47768810D01*
X149130178Y-47684686D01*
X148917853Y-47627793D01*
X148917845Y-47627791D01*
X148699922Y-47599100D01*
X148699910Y-47599100D01*
X148527286Y-47599100D01*
X148430467Y-47579842D01*
X148348388Y-47524998D01*
X147241096Y-46417706D01*
X147186252Y-46335627D01*
X147166994Y-46238808D01*
X147186252Y-46141989D01*
X147241096Y-46059910D01*
X147323175Y-46005066D01*
X147419994Y-45985808D01*
X147516813Y-46005066D01*
X147574010Y-46038089D01*
X147656365Y-46101283D01*
X147656374Y-46101288D01*
X147846723Y-46211187D01*
X147846727Y-46211189D01*
X147846730Y-46211190D01*
X147846735Y-46211193D01*
X148049822Y-46295314D01*
X148262151Y-46352208D01*
X148339944Y-46362449D01*
X148480077Y-46380899D01*
X148480087Y-46380899D01*
X148480090Y-46380900D01*
X148480092Y-46380900D01*
X148699908Y-46380900D01*
X148699910Y-46380900D01*
X148699912Y-46380899D01*
X148699922Y-46380899D01*
X148820425Y-46365034D01*
X148917849Y-46352208D01*
X149130178Y-46295314D01*
X149333265Y-46211193D01*
X149436009Y-46151873D01*
X149529485Y-46120143D01*
X149627990Y-46126599D01*
X149716525Y-46170259D01*
X149741407Y-46192080D01*
X149756420Y-46207093D01*
X149911505Y-46304539D01*
X150084391Y-46365034D01*
X150220755Y-46380400D01*
X150876000Y-46380400D01*
X150876000Y-45024737D01*
X150880464Y-45029201D01*
X150973135Y-45082705D01*
X151076496Y-45110400D01*
X151183504Y-45110400D01*
X151286865Y-45082705D01*
X151379536Y-45029201D01*
X151384000Y-45024737D01*
X151384000Y-46380400D01*
G37*
%TD.AperFunction*%
%TA.AperFunction,Conductor*%
G36*
X149867086Y-25400897D02*
G01*
X150109587Y-25414516D01*
X150125862Y-25415959D01*
X150174215Y-25421831D01*
X150185986Y-25423545D01*
X150396623Y-25459334D01*
X150414710Y-25463093D01*
X150456018Y-25473275D01*
X150465322Y-25475761D01*
X150677458Y-25536875D01*
X150697093Y-25543415D01*
X150724733Y-25553897D01*
X150731800Y-25556701D01*
X150948156Y-25646319D01*
X150968859Y-25656012D01*
X150971724Y-25657516D01*
X150976486Y-25660080D01*
X151015838Y-25681829D01*
X151198662Y-25782873D01*
X151222683Y-25797967D01*
X151431765Y-25946318D01*
X151453944Y-25964005D01*
X151645110Y-26134840D01*
X151665159Y-26154889D01*
X151768586Y-26270624D01*
X151835992Y-26346052D01*
X151853680Y-26368232D01*
X151994438Y-26566612D01*
X152002032Y-26577314D01*
X152017127Y-26601337D01*
X152139907Y-26823491D01*
X152142521Y-26828346D01*
X152143984Y-26831135D01*
X152153679Y-26851842D01*
X152243297Y-27068198D01*
X152246115Y-27075302D01*
X152256577Y-27102888D01*
X152263130Y-27122563D01*
X152324213Y-27334586D01*
X152326742Y-27344052D01*
X152332709Y-27368259D01*
X152336895Y-27385242D01*
X152340671Y-27403408D01*
X152376446Y-27613964D01*
X152378177Y-27625852D01*
X152384036Y-27674113D01*
X152385482Y-27690416D01*
X152399102Y-27932912D01*
X152399500Y-27947100D01*
X152399500Y-32902997D01*
X152380242Y-32999816D01*
X152325398Y-33081895D01*
X152243319Y-33136739D01*
X152146500Y-33155997D01*
X152049681Y-33136739D01*
X152020000Y-33122101D01*
X151873049Y-33037258D01*
X151873041Y-33037255D01*
X151670009Y-32953157D01*
X151457753Y-32896284D01*
X151239890Y-32867600D01*
X151020109Y-32867600D01*
X150802248Y-32896284D01*
X150802244Y-32896284D01*
X150589990Y-32953157D01*
X150386958Y-33037255D01*
X150386957Y-33037255D01*
X150196647Y-33147132D01*
X150196640Y-33147137D01*
X150137627Y-33192416D01*
X151082811Y-34137600D01*
X151076496Y-34137600D01*
X150973135Y-34165295D01*
X150880464Y-34218799D01*
X150804799Y-34294464D01*
X150751295Y-34387135D01*
X150723600Y-34490496D01*
X150723600Y-34496811D01*
X149778416Y-33551627D01*
X149733137Y-33610640D01*
X149733132Y-33610647D01*
X149623255Y-33800957D01*
X149623255Y-33800958D01*
X149539157Y-34003990D01*
X149482284Y-34216244D01*
X149482284Y-34216248D01*
X149453600Y-34434109D01*
X149453600Y-34653890D01*
X149482284Y-34871751D01*
X149482284Y-34871755D01*
X149539157Y-35084009D01*
X149623255Y-35287041D01*
X149623255Y-35287042D01*
X149733133Y-35477354D01*
X149733141Y-35477366D01*
X149778416Y-35536370D01*
X149778417Y-35536371D01*
X150723600Y-34591187D01*
X150723600Y-34597504D01*
X150751295Y-34700865D01*
X150804799Y-34793536D01*
X150880464Y-34869201D01*
X150973135Y-34922705D01*
X151076496Y-34950400D01*
X151082810Y-34950400D01*
X150137627Y-35895582D01*
X150196643Y-35940865D01*
X150196645Y-35940866D01*
X150386957Y-36050744D01*
X150589990Y-36134842D01*
X150802246Y-36191715D01*
X151020109Y-36220399D01*
X151020124Y-36220400D01*
X151239876Y-36220400D01*
X151239890Y-36220399D01*
X151457751Y-36191715D01*
X151457755Y-36191715D01*
X151670009Y-36134842D01*
X151873041Y-36050744D01*
X151873042Y-36050744D01*
X152019999Y-35965898D01*
X152113475Y-35934167D01*
X152211980Y-35940622D01*
X152300516Y-35984283D01*
X152365604Y-36058501D01*
X152397335Y-36151977D01*
X152399500Y-36185002D01*
X152399500Y-42785084D01*
X152380242Y-42881903D01*
X152325398Y-42963982D01*
X152243319Y-43018826D01*
X152146500Y-43038084D01*
X152118173Y-43036493D01*
X152039247Y-43027600D01*
X151384000Y-43027600D01*
X151384000Y-44383263D01*
X151379536Y-44378799D01*
X151286865Y-44325295D01*
X151183504Y-44297600D01*
X151076496Y-44297600D01*
X150973135Y-44325295D01*
X150880464Y-44378799D01*
X150876000Y-44383263D01*
X150876000Y-43027600D01*
X150220755Y-43027600D01*
X150084391Y-43042965D01*
X149993860Y-43074643D01*
X149896113Y-43088442D01*
X149800526Y-43063785D01*
X149721652Y-43004425D01*
X149671497Y-42919400D01*
X149657300Y-42835840D01*
X149657300Y-42302990D01*
X149676558Y-42206171D01*
X149731402Y-42124092D01*
X149853465Y-42002029D01*
X149987283Y-41827635D01*
X150097193Y-41637265D01*
X150181314Y-41434178D01*
X150238208Y-41221849D01*
X150252868Y-41110493D01*
X150266899Y-41003922D01*
X150266900Y-41003907D01*
X150266900Y-40784092D01*
X150266899Y-40784077D01*
X150238208Y-40566154D01*
X150238208Y-40566151D01*
X150181314Y-40353822D01*
X150097193Y-40150735D01*
X150097190Y-40150730D01*
X150097189Y-40150727D01*
X150097187Y-40150723D01*
X149987288Y-39960374D01*
X149987283Y-39960365D01*
X149853465Y-39785971D01*
X149698029Y-39630535D01*
X149692173Y-39624679D01*
X149692270Y-39624581D01*
X149691402Y-39624002D01*
X149668447Y-39589648D01*
X149643321Y-39556861D01*
X149641175Y-39548833D01*
X149636558Y-39541923D01*
X149628499Y-39501406D01*
X149617831Y-39461494D01*
X149617300Y-39445104D01*
X149617300Y-39000990D01*
X149636558Y-38904171D01*
X149691402Y-38822092D01*
X149708511Y-38804983D01*
X149813465Y-38700029D01*
X149947283Y-38525635D01*
X150057193Y-38335265D01*
X150141314Y-38132178D01*
X150198208Y-37919849D01*
X150217640Y-37772248D01*
X150226899Y-37701922D01*
X150226900Y-37701907D01*
X150226900Y-37482092D01*
X150226899Y-37482077D01*
X150198208Y-37264154D01*
X150198208Y-37264151D01*
X150141314Y-37051822D01*
X150057193Y-36848735D01*
X150057190Y-36848730D01*
X150057189Y-36848727D01*
X150057187Y-36848723D01*
X149947288Y-36658374D01*
X149947283Y-36658365D01*
X149813465Y-36483971D01*
X149658029Y-36328535D01*
X149650397Y-36322679D01*
X149577300Y-36266589D01*
X149483635Y-36194717D01*
X149483625Y-36194711D01*
X149293276Y-36084812D01*
X149293272Y-36084810D01*
X149090178Y-36000686D01*
X148877853Y-35943793D01*
X148877845Y-35943791D01*
X148659922Y-35915100D01*
X148659910Y-35915100D01*
X148440090Y-35915100D01*
X148440077Y-35915100D01*
X148222154Y-35943791D01*
X148222146Y-35943793D01*
X148009821Y-36000686D01*
X147806727Y-36084810D01*
X147806723Y-36084812D01*
X147616374Y-36194711D01*
X147616361Y-36194720D01*
X147441971Y-36328534D01*
X147286534Y-36483971D01*
X147152720Y-36658361D01*
X147152711Y-36658374D01*
X147042812Y-36848723D01*
X147042810Y-36848727D01*
X146958686Y-37051821D01*
X146901793Y-37264146D01*
X146901791Y-37264154D01*
X146873100Y-37482077D01*
X146873100Y-37701922D01*
X146901791Y-37919845D01*
X146901793Y-37919853D01*
X146958686Y-38132178D01*
X147042810Y-38335272D01*
X147042812Y-38335276D01*
X147152711Y-38525625D01*
X147152717Y-38525635D01*
X147240480Y-38640009D01*
X147286534Y-38700028D01*
X147408598Y-38822092D01*
X147463442Y-38904171D01*
X147482700Y-39000990D01*
X147482700Y-39525010D01*
X147463442Y-39621829D01*
X147408598Y-39703908D01*
X147326534Y-39785971D01*
X147192720Y-39960361D01*
X147192711Y-39960374D01*
X147082812Y-40150723D01*
X147082810Y-40150727D01*
X146998686Y-40353821D01*
X146941793Y-40566146D01*
X146941791Y-40566154D01*
X146913100Y-40784077D01*
X146913100Y-41003922D01*
X146941791Y-41221845D01*
X146941793Y-41221853D01*
X146998686Y-41434178D01*
X147082810Y-41637272D01*
X147082812Y-41637276D01*
X147192711Y-41827625D01*
X147192717Y-41827635D01*
X147293080Y-41958430D01*
X147326534Y-42002028D01*
X147448598Y-42124092D01*
X147503442Y-42206171D01*
X147522700Y-42302990D01*
X147522700Y-43207323D01*
X147503442Y-43304142D01*
X147448598Y-43386221D01*
X147366519Y-43441065D01*
X147269700Y-43460323D01*
X147172881Y-43441065D01*
X147115683Y-43408041D01*
X146983639Y-43306720D01*
X146983638Y-43306719D01*
X146983635Y-43306717D01*
X146979175Y-43304142D01*
X146793276Y-43196812D01*
X146793272Y-43196810D01*
X146590178Y-43112686D01*
X146377853Y-43055793D01*
X146377845Y-43055791D01*
X146159922Y-43027100D01*
X146159910Y-43027100D01*
X145940090Y-43027100D01*
X145940077Y-43027100D01*
X145722154Y-43055791D01*
X145722146Y-43055793D01*
X145509821Y-43112686D01*
X145306727Y-43196810D01*
X145306723Y-43196812D01*
X145116374Y-43306711D01*
X145116361Y-43306720D01*
X144941971Y-43440534D01*
X144786534Y-43595971D01*
X144652720Y-43770361D01*
X144652711Y-43770374D01*
X144542812Y-43960723D01*
X144542810Y-43960727D01*
X144458686Y-44163821D01*
X144401793Y-44376146D01*
X144401791Y-44376154D01*
X144373100Y-44594077D01*
X144373100Y-44813922D01*
X144401791Y-45031845D01*
X144401793Y-45031853D01*
X144458686Y-45244178D01*
X144542810Y-45447272D01*
X144542812Y-45447276D01*
X144652711Y-45637625D01*
X144652717Y-45637635D01*
X144753080Y-45768430D01*
X144786534Y-45812028D01*
X144908598Y-45934092D01*
X144963442Y-46016171D01*
X144982700Y-46112990D01*
X144982700Y-46630880D01*
X144982700Y-46841120D01*
X145023716Y-47047320D01*
X145104171Y-47241556D01*
X145104172Y-47241558D01*
X145220972Y-47416362D01*
X146838998Y-49034388D01*
X146893842Y-49116467D01*
X146913100Y-49213286D01*
X146913100Y-49385922D01*
X146941791Y-49603845D01*
X146941792Y-49603849D01*
X146998686Y-49816178D01*
X147076902Y-50005010D01*
X147082810Y-50019272D01*
X147082812Y-50019276D01*
X147192711Y-50209625D01*
X147192717Y-50209635D01*
X147266639Y-50305971D01*
X147326534Y-50384028D01*
X147448598Y-50506092D01*
X147503442Y-50588171D01*
X147522700Y-50684990D01*
X147522700Y-51129104D01*
X147503442Y-51225923D01*
X147448598Y-51308002D01*
X147447102Y-51309403D01*
X147286534Y-51469971D01*
X147152720Y-51644361D01*
X147152711Y-51644374D01*
X147042812Y-51834723D01*
X147042810Y-51834727D01*
X146958686Y-52037821D01*
X146923863Y-52167781D01*
X146880201Y-52256316D01*
X146805982Y-52321404D01*
X146712505Y-52353134D01*
X146614001Y-52346677D01*
X146525466Y-52303015D01*
X146500586Y-52281196D01*
X145968362Y-51748972D01*
X145793558Y-51632172D01*
X145793556Y-51632171D01*
X145599320Y-51551716D01*
X145393120Y-51510700D01*
X145393116Y-51510700D01*
X144958990Y-51510700D01*
X144862171Y-51491442D01*
X144780092Y-51436598D01*
X144658028Y-51314534D01*
X144542548Y-51225923D01*
X144483635Y-51180717D01*
X144478058Y-51177497D01*
X144293276Y-51070812D01*
X144293272Y-51070810D01*
X144090178Y-50986686D01*
X143877853Y-50929793D01*
X143877845Y-50929791D01*
X143659922Y-50901100D01*
X143659910Y-50901100D01*
X143440090Y-50901100D01*
X143440077Y-50901100D01*
X143222154Y-50929791D01*
X143222146Y-50929793D01*
X143009821Y-50986686D01*
X142806727Y-51070810D01*
X142806723Y-51070812D01*
X142616374Y-51180711D01*
X142616360Y-51180720D01*
X142444317Y-51312734D01*
X142414639Y-51327369D01*
X142387119Y-51345758D01*
X142370747Y-51349014D01*
X142355781Y-51356395D01*
X142322759Y-51358559D01*
X142290300Y-51365016D01*
X142273931Y-51361760D01*
X142257277Y-51362852D01*
X142225940Y-51352214D01*
X142193481Y-51345758D01*
X142179601Y-51336484D01*
X142163800Y-51331120D01*
X142138920Y-51309301D01*
X142111402Y-51290914D01*
X142102129Y-51277036D01*
X142089582Y-51266033D01*
X142074946Y-51236355D01*
X142056558Y-51208835D01*
X142053301Y-51192463D01*
X142045921Y-51177497D01*
X142037300Y-51112016D01*
X142037300Y-50684990D01*
X142056558Y-50588171D01*
X142111402Y-50506092D01*
X142137133Y-50480361D01*
X142233465Y-50384029D01*
X142367283Y-50209635D01*
X142477193Y-50019265D01*
X142561314Y-49816178D01*
X142618208Y-49603849D01*
X142632527Y-49495084D01*
X142646899Y-49385922D01*
X142646900Y-49385907D01*
X142646900Y-49166092D01*
X142646899Y-49166077D01*
X142618208Y-48948154D01*
X142618208Y-48948151D01*
X142561314Y-48735822D01*
X142477193Y-48532735D01*
X142477190Y-48532730D01*
X142477189Y-48532727D01*
X142477187Y-48532723D01*
X142367288Y-48342374D01*
X142367283Y-48342365D01*
X142233465Y-48167971D01*
X142111402Y-48045908D01*
X142056558Y-47963829D01*
X142037300Y-47867010D01*
X142037300Y-42302990D01*
X142056558Y-42206171D01*
X142111402Y-42124092D01*
X142233465Y-42002029D01*
X142367283Y-41827635D01*
X142477193Y-41637265D01*
X142561314Y-41434178D01*
X142618208Y-41221849D01*
X142632868Y-41110493D01*
X142646899Y-41003922D01*
X142646900Y-41003907D01*
X142646900Y-40784092D01*
X142646899Y-40784077D01*
X142618208Y-40566154D01*
X142618208Y-40566151D01*
X142561314Y-40353822D01*
X142477193Y-40150735D01*
X142477190Y-40150730D01*
X142477189Y-40150727D01*
X142477187Y-40150723D01*
X142367288Y-39960374D01*
X142367283Y-39960365D01*
X142233465Y-39785971D01*
X142111402Y-39663908D01*
X142056558Y-39581829D01*
X142037300Y-39485010D01*
X142037300Y-39057983D01*
X142056558Y-38961164D01*
X142111402Y-38879085D01*
X142193481Y-38824241D01*
X142290300Y-38804983D01*
X142387119Y-38824241D01*
X142444316Y-38857264D01*
X142616365Y-38989283D01*
X142616374Y-38989288D01*
X142806723Y-39099187D01*
X142806727Y-39099189D01*
X142806730Y-39099190D01*
X142806735Y-39099193D01*
X143009822Y-39183314D01*
X143222151Y-39240208D01*
X143299944Y-39250449D01*
X143440077Y-39268899D01*
X143440087Y-39268899D01*
X143440090Y-39268900D01*
X143440092Y-39268900D01*
X143659908Y-39268900D01*
X143659910Y-39268900D01*
X143659912Y-39268899D01*
X143659922Y-39268899D01*
X143774123Y-39253863D01*
X143877849Y-39240208D01*
X144090178Y-39183314D01*
X144293265Y-39099193D01*
X144293272Y-39099189D01*
X144293276Y-39099187D01*
X144364643Y-39057983D01*
X144483635Y-38989283D01*
X144658029Y-38855465D01*
X144813465Y-38700029D01*
X144947283Y-38525635D01*
X145057193Y-38335265D01*
X145141314Y-38132178D01*
X145198208Y-37919849D01*
X145217640Y-37772248D01*
X145226899Y-37701922D01*
X145226900Y-37701907D01*
X145226900Y-37482092D01*
X145226899Y-37482077D01*
X145198208Y-37264154D01*
X145198208Y-37264151D01*
X145141314Y-37051822D01*
X145057193Y-36848735D01*
X145057190Y-36848730D01*
X145057189Y-36848727D01*
X145057187Y-36848723D01*
X144947288Y-36658374D01*
X144947283Y-36658365D01*
X144813465Y-36483971D01*
X144658029Y-36328535D01*
X144658028Y-36328534D01*
X144652173Y-36322679D01*
X144652270Y-36322581D01*
X144651402Y-36322002D01*
X144628447Y-36287648D01*
X144603321Y-36254861D01*
X144601175Y-36246833D01*
X144596558Y-36239923D01*
X144588499Y-36199406D01*
X144577831Y-36159494D01*
X144577300Y-36143104D01*
X144577300Y-35952990D01*
X144596558Y-35856171D01*
X144651402Y-35774092D01*
X144693869Y-35731625D01*
X144773465Y-35652029D01*
X144907283Y-35477635D01*
X145017193Y-35287265D01*
X145101314Y-35084178D01*
X145158208Y-34871849D01*
X145177725Y-34723605D01*
X145186899Y-34653922D01*
X145186900Y-34653907D01*
X145186900Y-34434092D01*
X145186899Y-34434077D01*
X145163694Y-34257821D01*
X145158208Y-34216151D01*
X145101314Y-34003822D01*
X145017193Y-33800735D01*
X145017190Y-33800730D01*
X145017189Y-33800727D01*
X145017187Y-33800723D01*
X144907288Y-33610374D01*
X144907283Y-33610365D01*
X144773465Y-33435971D01*
X144618029Y-33280535D01*
X144443635Y-33146717D01*
X144443624Y-33146710D01*
X144436747Y-33142115D01*
X144438130Y-33140044D01*
X144375578Y-33085184D01*
X144331919Y-32996648D01*
X144323300Y-32931172D01*
X144323300Y-30187343D01*
X144342558Y-30090524D01*
X144357196Y-30060842D01*
X144370934Y-30037047D01*
X144422193Y-29948265D01*
X144506314Y-29745178D01*
X144563208Y-29532849D01*
X144587869Y-29345531D01*
X144591899Y-29314922D01*
X144591900Y-29314907D01*
X144591900Y-29095092D01*
X144591898Y-29095070D01*
X144589186Y-29074468D01*
X146176700Y-29074468D01*
X146176700Y-29345531D01*
X146207047Y-29614875D01*
X146207048Y-29614878D01*
X146267365Y-29879147D01*
X146356885Y-30134980D01*
X146382102Y-30187343D01*
X146474495Y-30379198D01*
X146618705Y-30608708D01*
X146787706Y-30820628D01*
X146979372Y-31012294D01*
X147191292Y-31181295D01*
X147420802Y-31325505D01*
X147634622Y-31428475D01*
X147665019Y-31443114D01*
X147920852Y-31532634D01*
X147920858Y-31532635D01*
X147920860Y-31532636D01*
X148185120Y-31592952D01*
X148454470Y-31623299D01*
X148454471Y-31623300D01*
X148454472Y-31623300D01*
X148725529Y-31623300D01*
X148725529Y-31623299D01*
X148994880Y-31592952D01*
X149259140Y-31532636D01*
X149259143Y-31532634D01*
X149259147Y-31532634D01*
X149514980Y-31443114D01*
X149514981Y-31443113D01*
X149514985Y-31443112D01*
X149759198Y-31325505D01*
X149988708Y-31181295D01*
X150200628Y-31012294D01*
X150392294Y-30820628D01*
X150561295Y-30608708D01*
X150705505Y-30379198D01*
X150823112Y-30134985D01*
X150823114Y-30134980D01*
X150912634Y-29879147D01*
X150912636Y-29879140D01*
X150972952Y-29614880D01*
X151003300Y-29345528D01*
X151003300Y-29074472D01*
X150972952Y-28805120D01*
X150912636Y-28540860D01*
X150912635Y-28540858D01*
X150912634Y-28540852D01*
X150823114Y-28285019D01*
X150778573Y-28192529D01*
X150705505Y-28040802D01*
X150561295Y-27811292D01*
X150392294Y-27599372D01*
X150200628Y-27407706D01*
X149988708Y-27238705D01*
X149759198Y-27094495D01*
X149514980Y-26976885D01*
X149259147Y-26887365D01*
X149103509Y-26851842D01*
X148994880Y-26827048D01*
X148994876Y-26827047D01*
X148994875Y-26827047D01*
X148725531Y-26796700D01*
X148725528Y-26796700D01*
X148454472Y-26796700D01*
X148454468Y-26796700D01*
X148185124Y-26827047D01*
X148185121Y-26827047D01*
X148185120Y-26827048D01*
X148167293Y-26831117D01*
X147920852Y-26887365D01*
X147665019Y-26976885D01*
X147420801Y-27094495D01*
X147191297Y-27238701D01*
X147191286Y-27238709D01*
X146979371Y-27407706D01*
X146787706Y-27599371D01*
X146618709Y-27811286D01*
X146618701Y-27811297D01*
X146474495Y-28040801D01*
X146356885Y-28285019D01*
X146267365Y-28540852D01*
X146207048Y-28805121D01*
X146207047Y-28805124D01*
X146176700Y-29074468D01*
X144589186Y-29074468D01*
X144563208Y-28877154D01*
X144563208Y-28877151D01*
X144506314Y-28664822D01*
X144422193Y-28461735D01*
X144363129Y-28359434D01*
X144331401Y-28265964D01*
X144337856Y-28167460D01*
X144381517Y-28078924D01*
X144403334Y-28054045D01*
X144418487Y-28038893D01*
X144515994Y-27883710D01*
X144576526Y-27710721D01*
X144591900Y-27574272D01*
X144591900Y-25755728D01*
X144583573Y-25681825D01*
X144591869Y-25583462D01*
X144637178Y-25495758D01*
X144712600Y-25432069D01*
X144806653Y-25402091D01*
X144834982Y-25400500D01*
X149852901Y-25400500D01*
X149867086Y-25400897D01*
G37*
%TD.AperFunction*%
%TA.AperFunction,Conductor*%
G36*
X26924000Y-44454400D02*
G01*
X27579245Y-44454400D01*
X27715609Y-44439034D01*
X27806138Y-44407357D01*
X27903885Y-44393557D01*
X27999472Y-44418213D01*
X28078347Y-44477573D01*
X28128502Y-44562597D01*
X28142700Y-44646159D01*
X28142700Y-45327010D01*
X28123442Y-45423829D01*
X28068598Y-45505908D01*
X27946534Y-45627971D01*
X27812720Y-45802361D01*
X27812711Y-45802374D01*
X27702812Y-45992723D01*
X27702810Y-45992727D01*
X27618686Y-46195821D01*
X27561793Y-46408146D01*
X27561791Y-46408154D01*
X27533100Y-46626077D01*
X27533100Y-46845922D01*
X27561791Y-47063845D01*
X27561793Y-47063853D01*
X27618686Y-47276178D01*
X27702810Y-47479272D01*
X27702812Y-47479276D01*
X27812711Y-47669625D01*
X27812717Y-47669635D01*
X27946535Y-47844029D01*
X28101971Y-47999465D01*
X28276365Y-48133283D01*
X28276374Y-48133288D01*
X28466723Y-48243187D01*
X28466727Y-48243189D01*
X28466730Y-48243190D01*
X28466735Y-48243193D01*
X28669822Y-48327314D01*
X28882151Y-48384208D01*
X28959944Y-48394449D01*
X29100077Y-48412899D01*
X29100087Y-48412899D01*
X29100090Y-48412900D01*
X29100092Y-48412900D01*
X29272714Y-48412900D01*
X29369533Y-48432158D01*
X29451612Y-48487002D01*
X30608598Y-49643988D01*
X30663442Y-49726067D01*
X30682700Y-49822886D01*
X30682700Y-49917323D01*
X30663442Y-50014142D01*
X30608598Y-50096221D01*
X30526519Y-50151065D01*
X30429700Y-50170323D01*
X30332881Y-50151065D01*
X30275683Y-50118041D01*
X30143639Y-50016720D01*
X30143638Y-50016719D01*
X30143635Y-50016717D01*
X30123358Y-50005010D01*
X29953276Y-49906812D01*
X29953272Y-49906810D01*
X29750178Y-49822686D01*
X29537853Y-49765793D01*
X29537845Y-49765791D01*
X29319922Y-49737100D01*
X29319910Y-49737100D01*
X29100090Y-49737100D01*
X29100077Y-49737100D01*
X28882154Y-49765791D01*
X28882146Y-49765793D01*
X28669821Y-49822686D01*
X28466727Y-49906810D01*
X28466720Y-49906814D01*
X28363988Y-49966126D01*
X28270511Y-49997857D01*
X28172007Y-49991400D01*
X28083472Y-49947738D01*
X28058592Y-49925919D01*
X28043579Y-49910906D01*
X27888494Y-49813460D01*
X27715608Y-49752965D01*
X27579245Y-49737600D01*
X26924000Y-49737600D01*
X26924000Y-51093263D01*
X26919536Y-51088799D01*
X26826865Y-51035295D01*
X26723504Y-51007600D01*
X26616496Y-51007600D01*
X26513135Y-51035295D01*
X26420464Y-51088799D01*
X26416000Y-51093263D01*
X26416000Y-49737600D01*
X25760752Y-49737600D01*
X25681827Y-49746493D01*
X25583461Y-49738196D01*
X25495757Y-49692888D01*
X25432069Y-49617465D01*
X25402091Y-49523411D01*
X25400500Y-49495084D01*
X25400500Y-44696915D01*
X25419758Y-44600096D01*
X25474602Y-44518017D01*
X25556681Y-44463173D01*
X25653500Y-44443915D01*
X25681830Y-44445506D01*
X25760757Y-44454400D01*
X26416000Y-44454400D01*
X26416000Y-43098737D01*
X26420464Y-43103201D01*
X26513135Y-43156705D01*
X26616496Y-43184400D01*
X26723504Y-43184400D01*
X26826865Y-43156705D01*
X26919536Y-43103201D01*
X26924000Y-43098737D01*
X26924000Y-44454400D01*
G37*
%TD.AperFunction*%
%TA.AperFunction,Conductor*%
G36*
X30646240Y-34012600D02*
G01*
X30728319Y-34067444D01*
X30783162Y-34149523D01*
X30802421Y-34246342D01*
X30783163Y-34343160D01*
X30723716Y-34486678D01*
X30723716Y-34486680D01*
X30682700Y-34692880D01*
X30682700Y-34692883D01*
X30682700Y-36921714D01*
X30663442Y-37018533D01*
X30608598Y-37100612D01*
X29656400Y-38052809D01*
X29656400Y-38046496D01*
X29628705Y-37943135D01*
X29575201Y-37850464D01*
X29499536Y-37774799D01*
X29406865Y-37721295D01*
X29303504Y-37693600D01*
X29297187Y-37693600D01*
X30176700Y-36814088D01*
X30176700Y-36699291D01*
X29993042Y-36593255D01*
X29790009Y-36509157D01*
X29577753Y-36452284D01*
X29359890Y-36423600D01*
X29140109Y-36423600D01*
X28922248Y-36452284D01*
X28922244Y-36452284D01*
X28709990Y-36509157D01*
X28506958Y-36593255D01*
X28506957Y-36593255D01*
X28316647Y-36703132D01*
X28316640Y-36703137D01*
X28257627Y-36748416D01*
X29202811Y-37693600D01*
X29196496Y-37693600D01*
X29093135Y-37721295D01*
X29000464Y-37774799D01*
X28924799Y-37850464D01*
X28871295Y-37943135D01*
X28843600Y-38046496D01*
X28843600Y-38052811D01*
X27898416Y-37107627D01*
X27853137Y-37166640D01*
X27853132Y-37166647D01*
X27743255Y-37356957D01*
X27743255Y-37356958D01*
X27659157Y-37559990D01*
X27602284Y-37772244D01*
X27602284Y-37772248D01*
X27573600Y-37990109D01*
X27573600Y-38209890D01*
X27602284Y-38427751D01*
X27602284Y-38427755D01*
X27659157Y-38640009D01*
X27743255Y-38843041D01*
X27743255Y-38843042D01*
X27853133Y-39033354D01*
X27853141Y-39033366D01*
X27898416Y-39092370D01*
X27898417Y-39092371D01*
X28843600Y-38147187D01*
X28843600Y-38153504D01*
X28871295Y-38256865D01*
X28924799Y-38349536D01*
X29000464Y-38425201D01*
X29093135Y-38478705D01*
X29196496Y-38506400D01*
X29202810Y-38506400D01*
X28257627Y-39451582D01*
X28316643Y-39496865D01*
X28316645Y-39496866D01*
X28506957Y-39606744D01*
X28709990Y-39690842D01*
X28922246Y-39747715D01*
X29140109Y-39776399D01*
X29140124Y-39776400D01*
X29359876Y-39776400D01*
X29359890Y-39776399D01*
X29577751Y-39747715D01*
X29577755Y-39747715D01*
X29790009Y-39690842D01*
X29993041Y-39606744D01*
X29993042Y-39606744D01*
X30183349Y-39496870D01*
X30242370Y-39451580D01*
X29297190Y-38506400D01*
X29303504Y-38506400D01*
X29406865Y-38478705D01*
X29499536Y-38425201D01*
X29575201Y-38349536D01*
X29628705Y-38256865D01*
X29656400Y-38153504D01*
X29656400Y-38147189D01*
X30608598Y-39099387D01*
X30663442Y-39181466D01*
X30682700Y-39278285D01*
X30682700Y-39281114D01*
X30663442Y-39377933D01*
X30611305Y-39455959D01*
X30630418Y-39472720D01*
X30674079Y-39561255D01*
X30682700Y-39626738D01*
X30682700Y-41281323D01*
X30663442Y-41378142D01*
X30608598Y-41460221D01*
X30526519Y-41515065D01*
X30429700Y-41534323D01*
X30332881Y-41515065D01*
X30275683Y-41482041D01*
X30143639Y-41380720D01*
X30143638Y-41380719D01*
X30143635Y-41380717D01*
X30123358Y-41369010D01*
X29953276Y-41270812D01*
X29953272Y-41270810D01*
X29750178Y-41186686D01*
X29537853Y-41129793D01*
X29537845Y-41129791D01*
X29319922Y-41101100D01*
X29319910Y-41101100D01*
X29100090Y-41101100D01*
X29100077Y-41101100D01*
X28882154Y-41129791D01*
X28882146Y-41129793D01*
X28669821Y-41186686D01*
X28466727Y-41270810D01*
X28466720Y-41270814D01*
X28363988Y-41330126D01*
X28270511Y-41361857D01*
X28172007Y-41355400D01*
X28083472Y-41311738D01*
X28058592Y-41289919D01*
X28043579Y-41274906D01*
X27888494Y-41177460D01*
X27715608Y-41116965D01*
X27579245Y-41101600D01*
X26924000Y-41101600D01*
X26924000Y-42457263D01*
X26919536Y-42452799D01*
X26826865Y-42399295D01*
X26723504Y-42371600D01*
X26616496Y-42371600D01*
X26513135Y-42399295D01*
X26420464Y-42452799D01*
X26416000Y-42457263D01*
X26416000Y-41101600D01*
X25760752Y-41101600D01*
X25681827Y-41110493D01*
X25583461Y-41102196D01*
X25495757Y-41056888D01*
X25432069Y-40981465D01*
X25402091Y-40887411D01*
X25400500Y-40859084D01*
X25400500Y-36439580D01*
X25419758Y-36342761D01*
X25474602Y-36260682D01*
X25556681Y-36205838D01*
X25653500Y-36186580D01*
X25750319Y-36205838D01*
X25780000Y-36220476D01*
X25926723Y-36305187D01*
X25926727Y-36305189D01*
X25926730Y-36305190D01*
X25926735Y-36305193D01*
X26129822Y-36389314D01*
X26342151Y-36446208D01*
X26419944Y-36456449D01*
X26560077Y-36474899D01*
X26560087Y-36474899D01*
X26560090Y-36474900D01*
X26560092Y-36474900D01*
X26779908Y-36474900D01*
X26779910Y-36474900D01*
X26779912Y-36474899D01*
X26779922Y-36474899D01*
X26894123Y-36459863D01*
X26997849Y-36446208D01*
X27210178Y-36389314D01*
X27413265Y-36305193D01*
X27413272Y-36305189D01*
X27413276Y-36305187D01*
X27490360Y-36260682D01*
X27603635Y-36195283D01*
X27778029Y-36061465D01*
X27900092Y-35939402D01*
X27982171Y-35884558D01*
X28078990Y-35865300D01*
X28235694Y-35865300D01*
X28235698Y-35865300D01*
X28441898Y-35824284D01*
X28636134Y-35743829D01*
X28810942Y-35627026D01*
X30370526Y-34067441D01*
X30452602Y-34012601D01*
X30549421Y-33993342D01*
X30646240Y-34012600D01*
G37*
%TD.AperFunction*%
%TD*%
M02*
