M48
; DRILL file {KiCad 9.0.6} date 2026-03-05T13:16:13-0800
; FORMAT={-:-/ absolute / metric / decimal}
; #@! TF.CreationDate,2026-03-05T13:16:13-08:00
; #@! TF.GenerationSoftware,Kicad,Pcbnew,9.0.6
; #@! TF.FileFunction,Plated,1,2,PTH
FMAT,2
METRIC
; #@! TA.AperFunction,Plated,PTH,ComponentDrill
T1C0.813
; #@! TA.AperFunction,Plated,PTH,ComponentDrill
T2C0.965
; #@! TA.AperFunction,Plated,PTH,ComponentDrill
T3C1.016
%
G90
G05
T1
X26.67Y-34.798
X26.67Y-42.778
X26.67Y-51.414
X29.21Y-42.778
X29.21Y-46.736
X29.21Y-51.414
X29.21Y-55.372
X29.25Y-38.1
X31.75Y-42.778
X31.75Y-51.414
X34.25Y-38.1
X34.885Y-26.675
X34.885Y-29.215
X35.6Y-71.628
X36.83Y-34.798
X36.83Y-46.736
X36.83Y-55.372
X40.6Y-71.628
X99.06Y-80.01
X99.06Y-82.55
X103.886Y-69.596
X103.886Y-79.756
X106.172Y-87.884
X106.172Y-90.424
X106.172Y-92.964
X107.188Y-71.628
X107.188Y-84.328
X110.49Y-69.596
X110.49Y-84.836
X112.268Y-87.884
X112.268Y-90.424
X112.268Y-92.964
X113.792Y-77.724
X113.792Y-85.344
X116.84Y-82.296
X116.84Y-89.916
X120.142Y-69.596
X120.142Y-82.296
X120.142Y-85.344
X120.142Y-92.964
X123.698Y-75.946
X123.698Y-83.566
X123.698Y-86.868
X123.738Y-71.628
X126.238Y-75.946
X126.238Y-83.566
X126.318Y-90.17
X128.738Y-71.628
X128.778Y-75.946
X128.778Y-83.566
X131.318Y-75.946
X131.318Y-83.566
X131.318Y-86.868
X131.318Y-90.17
X135.636Y-73.914
X135.636Y-81.534
X139.045Y-69.596
X139.045Y-77.216
X140.97Y-40.894
X140.97Y-49.276
X140.97Y-55.88
X140.97Y-64.262
X143.002Y-67.31
X143.002Y-74.93
X143.51Y-34.544
X143.51Y-77.724
X143.55Y-37.592
X143.55Y-52.578
X146.05Y-44.704
X146.05Y-59.69
X146.05Y-67.31
X146.05Y-74.93
X148.55Y-37.592
X148.55Y-52.578
X148.59Y-40.894
X148.59Y-44.704
X148.59Y-49.276
X148.59Y-55.88
X148.59Y-59.69
X148.59Y-64.262
X149.098Y-67.31
X149.098Y-72.31
X151.13Y-34.544
X151.13Y-44.704
X151.13Y-59.69
X151.13Y-77.724
T2
X142.915Y-26.665
X142.915Y-29.205
T3
X52.07Y-73.66
X52.07Y-88.9
X54.61Y-73.66
X54.61Y-88.9
X57.15Y-73.66
X57.15Y-88.9
X59.69Y-73.66
X59.69Y-88.9
X62.23Y-73.66
X62.23Y-88.9
X64.77Y-73.66
X64.77Y-88.9
X67.31Y-73.66
X67.31Y-88.9
X69.85Y-73.66
X69.85Y-88.9
X72.39Y-73.66
X72.39Y-88.9
X74.93Y-73.66
X74.93Y-88.9
X77.47Y-73.66
X77.47Y-88.9
X80.01Y-73.66
X80.01Y-88.9
X82.55Y-73.66
X82.55Y-88.9
X85.09Y-73.66
X85.09Y-88.9
X91.996Y-90.678
X94.996Y-90.678
X97.996Y-90.678
T1
G00X88.546Y-89.814
M15
G01X88.546Y-91.542
M16
G05
G00X101.446Y-89.814
M15
G01X101.446Y-91.542
M16
G05
M30
