%TF.GenerationSoftware,KiCad,Pcbnew,9.0.6*%
%TF.CreationDate,2026-03-05T13:16:13-08:00*%
%TF.ProjectId,20AL_Pendulum_Photogate,3230414c-5f50-4656-9e64-756c756d5f50,rev?*%
%TF.SameCoordinates,Original*%
%TF.FileFunction,Drillmap*%
%TF.FilePolarity,Positive*%
%FSLAX45Y45*%
G04 Gerber Fmt 4.5, Leading zero omitted, Abs format (unit mm)*
G04 Created by KiCad (PCBNEW 9.0.6) date 2026-03-05 13:16:13*
%MOMM*%
%LPD*%
G01*
G04 APERTURE LIST*
%ADD10C,0.050000*%
%ADD11C,0.200000*%
%ADD12C,0.320000*%
G04 APERTURE END LIST*
D10*
X13970000Y-6604000D02*
G75*
G02*
X13716000Y-6858000I-254000J0D01*
G01*
X4064000Y-6858000D02*
G75*
G02*
X3810000Y-6604000I0J254000D01*
G01*
X3810000Y-6604000D02*
X3810000Y-2540000D01*
X13716000Y-6858000D02*
X4064000Y-6858000D01*
X13970000Y-2540000D02*
X13970000Y-6604000D01*
X3302000Y-9398000D02*
X14478000Y-9398000D01*
X2540000Y-7493000D02*
X3238500Y-7493000D01*
X15240000Y-8636000D02*
G75*
G02*
X14478000Y-9398000I-762000J0D01*
G01*
X14986000Y-2540000D02*
X13970000Y-2540000D01*
X3810000Y-2540000D02*
X2794000Y-2540000D01*
X3238500Y-7493000D02*
X3238500Y-6223000D01*
X2540000Y-6223000D02*
X2540000Y-2794000D01*
X14986000Y-2540000D02*
G75*
G02*
X15240000Y-2794000I0J-254000D01*
G01*
X15240000Y-8636000D02*
X15240000Y-2794000D01*
X2540000Y-2794000D02*
G75*
G02*
X2794000Y-2540000I254000J0D01*
G01*
X3302000Y-9398000D02*
G75*
G02*
X2540000Y-8636000I0J762000D01*
G01*
X2540000Y-8636000D02*
X2540000Y-7493000D01*
X3238500Y-6223000D02*
X2540000Y-6223000D01*
D11*
D12*
X2761000Y-2761000D02*
X3081000Y-3081000D01*
X3081000Y-2761000D02*
X2761000Y-3081000D01*
X3142000Y-8857000D02*
X3462000Y-9177000D01*
X3462000Y-8857000D02*
X3142000Y-9177000D01*
X8933200Y-7968000D02*
X9253200Y-8288000D01*
X9253200Y-7968000D02*
X8933200Y-8288000D01*
X14572000Y-8730000D02*
X14892000Y-9050000D01*
X14892000Y-8730000D02*
X14572000Y-9050000D01*
X14699000Y-2761000D02*
X15019000Y-3081000D01*
X15019000Y-2761000D02*
X14699000Y-3081000D01*
D11*
X2798277Y-9711984D02*
X2798277Y-9511984D01*
X2798277Y-9511984D02*
X2845896Y-9511984D01*
X2845896Y-9511984D02*
X2874467Y-9521508D01*
X2874467Y-9521508D02*
X2893515Y-9540555D01*
X2893515Y-9540555D02*
X2903039Y-9559603D01*
X2903039Y-9559603D02*
X2912562Y-9597698D01*
X2912562Y-9597698D02*
X2912562Y-9626270D01*
X2912562Y-9626270D02*
X2903039Y-9664365D01*
X2903039Y-9664365D02*
X2893515Y-9683412D01*
X2893515Y-9683412D02*
X2874467Y-9702460D01*
X2874467Y-9702460D02*
X2845896Y-9711984D01*
X2845896Y-9711984D02*
X2798277Y-9711984D01*
X2998277Y-9711984D02*
X2998277Y-9578650D01*
X2998277Y-9616746D02*
X3007801Y-9597698D01*
X3007801Y-9597698D02*
X3017324Y-9588174D01*
X3017324Y-9588174D02*
X3036372Y-9578650D01*
X3036372Y-9578650D02*
X3055420Y-9578650D01*
X3122086Y-9711984D02*
X3122086Y-9578650D01*
X3122086Y-9511984D02*
X3112562Y-9521508D01*
X3112562Y-9521508D02*
X3122086Y-9531031D01*
X3122086Y-9531031D02*
X3131610Y-9521508D01*
X3131610Y-9521508D02*
X3122086Y-9511984D01*
X3122086Y-9511984D02*
X3122086Y-9531031D01*
X3245896Y-9711984D02*
X3226848Y-9702460D01*
X3226848Y-9702460D02*
X3217324Y-9683412D01*
X3217324Y-9683412D02*
X3217324Y-9511984D01*
X3350658Y-9711984D02*
X3331610Y-9702460D01*
X3331610Y-9702460D02*
X3322086Y-9683412D01*
X3322086Y-9683412D02*
X3322086Y-9511984D01*
X3579229Y-9711984D02*
X3579229Y-9511984D01*
X3579229Y-9511984D02*
X3645896Y-9654841D01*
X3645896Y-9654841D02*
X3712562Y-9511984D01*
X3712562Y-9511984D02*
X3712562Y-9711984D01*
X3893515Y-9711984D02*
X3893515Y-9607222D01*
X3893515Y-9607222D02*
X3883991Y-9588174D01*
X3883991Y-9588174D02*
X3864943Y-9578650D01*
X3864943Y-9578650D02*
X3826848Y-9578650D01*
X3826848Y-9578650D02*
X3807801Y-9588174D01*
X3893515Y-9702460D02*
X3874467Y-9711984D01*
X3874467Y-9711984D02*
X3826848Y-9711984D01*
X3826848Y-9711984D02*
X3807801Y-9702460D01*
X3807801Y-9702460D02*
X3798277Y-9683412D01*
X3798277Y-9683412D02*
X3798277Y-9664365D01*
X3798277Y-9664365D02*
X3807801Y-9645317D01*
X3807801Y-9645317D02*
X3826848Y-9635793D01*
X3826848Y-9635793D02*
X3874467Y-9635793D01*
X3874467Y-9635793D02*
X3893515Y-9626270D01*
X3988753Y-9578650D02*
X3988753Y-9778650D01*
X3988753Y-9588174D02*
X4007801Y-9578650D01*
X4007801Y-9578650D02*
X4045896Y-9578650D01*
X4045896Y-9578650D02*
X4064943Y-9588174D01*
X4064943Y-9588174D02*
X4074467Y-9597698D01*
X4074467Y-9597698D02*
X4083991Y-9616746D01*
X4083991Y-9616746D02*
X4083991Y-9673889D01*
X4083991Y-9673889D02*
X4074467Y-9692936D01*
X4074467Y-9692936D02*
X4064943Y-9702460D01*
X4064943Y-9702460D02*
X4045896Y-9711984D01*
X4045896Y-9711984D02*
X4007801Y-9711984D01*
X4007801Y-9711984D02*
X3988753Y-9702460D01*
X4169705Y-9692936D02*
X4179229Y-9702460D01*
X4179229Y-9702460D02*
X4169705Y-9711984D01*
X4169705Y-9711984D02*
X4160182Y-9702460D01*
X4160182Y-9702460D02*
X4169705Y-9692936D01*
X4169705Y-9692936D02*
X4169705Y-9711984D01*
X4169705Y-9588174D02*
X4179229Y-9597698D01*
X4179229Y-9597698D02*
X4169705Y-9607222D01*
X4169705Y-9607222D02*
X4160182Y-9597698D01*
X4160182Y-9597698D02*
X4169705Y-9588174D01*
X4169705Y-9588174D02*
X4169705Y-9607222D01*
X2337500Y-9940500D02*
X2537500Y-10140500D01*
X2537500Y-9940500D02*
X2337500Y-10140500D01*
X2779229Y-9931984D02*
X2903039Y-9931984D01*
X2903039Y-9931984D02*
X2836372Y-10008174D01*
X2836372Y-10008174D02*
X2864943Y-10008174D01*
X2864943Y-10008174D02*
X2883991Y-10017698D01*
X2883991Y-10017698D02*
X2893515Y-10027222D01*
X2893515Y-10027222D02*
X2903039Y-10046270D01*
X2903039Y-10046270D02*
X2903039Y-10093889D01*
X2903039Y-10093889D02*
X2893515Y-10112936D01*
X2893515Y-10112936D02*
X2883991Y-10122460D01*
X2883991Y-10122460D02*
X2864943Y-10131984D01*
X2864943Y-10131984D02*
X2807801Y-10131984D01*
X2807801Y-10131984D02*
X2788753Y-10122460D01*
X2788753Y-10122460D02*
X2779229Y-10112936D01*
X2988753Y-10112936D02*
X2998277Y-10122460D01*
X2998277Y-10122460D02*
X2988753Y-10131984D01*
X2988753Y-10131984D02*
X2979229Y-10122460D01*
X2979229Y-10122460D02*
X2988753Y-10112936D01*
X2988753Y-10112936D02*
X2988753Y-10131984D01*
X3074467Y-9951031D02*
X3083991Y-9941508D01*
X3083991Y-9941508D02*
X3103039Y-9931984D01*
X3103039Y-9931984D02*
X3150658Y-9931984D01*
X3150658Y-9931984D02*
X3169705Y-9941508D01*
X3169705Y-9941508D02*
X3179229Y-9951031D01*
X3179229Y-9951031D02*
X3188753Y-9970079D01*
X3188753Y-9970079D02*
X3188753Y-9989127D01*
X3188753Y-9989127D02*
X3179229Y-10017698D01*
X3179229Y-10017698D02*
X3064943Y-10131984D01*
X3064943Y-10131984D02*
X3188753Y-10131984D01*
X3312562Y-9931984D02*
X3331610Y-9931984D01*
X3331610Y-9931984D02*
X3350658Y-9941508D01*
X3350658Y-9941508D02*
X3360182Y-9951031D01*
X3360182Y-9951031D02*
X3369705Y-9970079D01*
X3369705Y-9970079D02*
X3379229Y-10008174D01*
X3379229Y-10008174D02*
X3379229Y-10055793D01*
X3379229Y-10055793D02*
X3369705Y-10093889D01*
X3369705Y-10093889D02*
X3360182Y-10112936D01*
X3360182Y-10112936D02*
X3350658Y-10122460D01*
X3350658Y-10122460D02*
X3331610Y-10131984D01*
X3331610Y-10131984D02*
X3312562Y-10131984D01*
X3312562Y-10131984D02*
X3293515Y-10122460D01*
X3293515Y-10122460D02*
X3283991Y-10112936D01*
X3283991Y-10112936D02*
X3274467Y-10093889D01*
X3274467Y-10093889D02*
X3264943Y-10055793D01*
X3264943Y-10055793D02*
X3264943Y-10008174D01*
X3264943Y-10008174D02*
X3274467Y-9970079D01*
X3274467Y-9970079D02*
X3283991Y-9951031D01*
X3283991Y-9951031D02*
X3293515Y-9941508D01*
X3293515Y-9941508D02*
X3312562Y-9931984D01*
X3503039Y-9931984D02*
X3522086Y-9931984D01*
X3522086Y-9931984D02*
X3541134Y-9941508D01*
X3541134Y-9941508D02*
X3550658Y-9951031D01*
X3550658Y-9951031D02*
X3560182Y-9970079D01*
X3560182Y-9970079D02*
X3569705Y-10008174D01*
X3569705Y-10008174D02*
X3569705Y-10055793D01*
X3569705Y-10055793D02*
X3560182Y-10093889D01*
X3560182Y-10093889D02*
X3550658Y-10112936D01*
X3550658Y-10112936D02*
X3541134Y-10122460D01*
X3541134Y-10122460D02*
X3522086Y-10131984D01*
X3522086Y-10131984D02*
X3503039Y-10131984D01*
X3503039Y-10131984D02*
X3483991Y-10122460D01*
X3483991Y-10122460D02*
X3474467Y-10112936D01*
X3474467Y-10112936D02*
X3464943Y-10093889D01*
X3464943Y-10093889D02*
X3455420Y-10055793D01*
X3455420Y-10055793D02*
X3455420Y-10008174D01*
X3455420Y-10008174D02*
X3464943Y-9970079D01*
X3464943Y-9970079D02*
X3474467Y-9951031D01*
X3474467Y-9951031D02*
X3483991Y-9941508D01*
X3483991Y-9941508D02*
X3503039Y-9931984D01*
X3655420Y-10131984D02*
X3655420Y-9998650D01*
X3655420Y-10017698D02*
X3664943Y-10008174D01*
X3664943Y-10008174D02*
X3683991Y-9998650D01*
X3683991Y-9998650D02*
X3712563Y-9998650D01*
X3712563Y-9998650D02*
X3731610Y-10008174D01*
X3731610Y-10008174D02*
X3741134Y-10027222D01*
X3741134Y-10027222D02*
X3741134Y-10131984D01*
X3741134Y-10027222D02*
X3750658Y-10008174D01*
X3750658Y-10008174D02*
X3769705Y-9998650D01*
X3769705Y-9998650D02*
X3798277Y-9998650D01*
X3798277Y-9998650D02*
X3817324Y-10008174D01*
X3817324Y-10008174D02*
X3826848Y-10027222D01*
X3826848Y-10027222D02*
X3826848Y-10131984D01*
X3922086Y-10131984D02*
X3922086Y-9998650D01*
X3922086Y-10017698D02*
X3931610Y-10008174D01*
X3931610Y-10008174D02*
X3950658Y-9998650D01*
X3950658Y-9998650D02*
X3979229Y-9998650D01*
X3979229Y-9998650D02*
X3998277Y-10008174D01*
X3998277Y-10008174D02*
X4007801Y-10027222D01*
X4007801Y-10027222D02*
X4007801Y-10131984D01*
X4007801Y-10027222D02*
X4017324Y-10008174D01*
X4017324Y-10008174D02*
X4036372Y-9998650D01*
X4036372Y-9998650D02*
X4064943Y-9998650D01*
X4064943Y-9998650D02*
X4083991Y-10008174D01*
X4083991Y-10008174D02*
X4093515Y-10027222D01*
X4093515Y-10027222D02*
X4093515Y-10131984D01*
X4483991Y-9922460D02*
X4312563Y-10179603D01*
X4741134Y-9931984D02*
X4760182Y-9931984D01*
X4760182Y-9931984D02*
X4779229Y-9941508D01*
X4779229Y-9941508D02*
X4788753Y-9951031D01*
X4788753Y-9951031D02*
X4798277Y-9970079D01*
X4798277Y-9970079D02*
X4807801Y-10008174D01*
X4807801Y-10008174D02*
X4807801Y-10055793D01*
X4807801Y-10055793D02*
X4798277Y-10093889D01*
X4798277Y-10093889D02*
X4788753Y-10112936D01*
X4788753Y-10112936D02*
X4779229Y-10122460D01*
X4779229Y-10122460D02*
X4760182Y-10131984D01*
X4760182Y-10131984D02*
X4741134Y-10131984D01*
X4741134Y-10131984D02*
X4722087Y-10122460D01*
X4722087Y-10122460D02*
X4712563Y-10112936D01*
X4712563Y-10112936D02*
X4703039Y-10093889D01*
X4703039Y-10093889D02*
X4693515Y-10055793D01*
X4693515Y-10055793D02*
X4693515Y-10008174D01*
X4693515Y-10008174D02*
X4703039Y-9970079D01*
X4703039Y-9970079D02*
X4712563Y-9951031D01*
X4712563Y-9951031D02*
X4722087Y-9941508D01*
X4722087Y-9941508D02*
X4741134Y-9931984D01*
X4893515Y-10112936D02*
X4903039Y-10122460D01*
X4903039Y-10122460D02*
X4893515Y-10131984D01*
X4893515Y-10131984D02*
X4883991Y-10122460D01*
X4883991Y-10122460D02*
X4893515Y-10112936D01*
X4893515Y-10112936D02*
X4893515Y-10131984D01*
X5093515Y-10131984D02*
X4979229Y-10131984D01*
X5036372Y-10131984D02*
X5036372Y-9931984D01*
X5036372Y-9931984D02*
X5017325Y-9960555D01*
X5017325Y-9960555D02*
X4998277Y-9979603D01*
X4998277Y-9979603D02*
X4979229Y-9989127D01*
X5169706Y-9951031D02*
X5179229Y-9941508D01*
X5179229Y-9941508D02*
X5198277Y-9931984D01*
X5198277Y-9931984D02*
X5245896Y-9931984D01*
X5245896Y-9931984D02*
X5264944Y-9941508D01*
X5264944Y-9941508D02*
X5274468Y-9951031D01*
X5274468Y-9951031D02*
X5283991Y-9970079D01*
X5283991Y-9970079D02*
X5283991Y-9989127D01*
X5283991Y-9989127D02*
X5274468Y-10017698D01*
X5274468Y-10017698D02*
X5160182Y-10131984D01*
X5160182Y-10131984D02*
X5283991Y-10131984D01*
X5455420Y-9931984D02*
X5417325Y-9931984D01*
X5417325Y-9931984D02*
X5398277Y-9941508D01*
X5398277Y-9941508D02*
X5388753Y-9951031D01*
X5388753Y-9951031D02*
X5369706Y-9979603D01*
X5369706Y-9979603D02*
X5360182Y-10017698D01*
X5360182Y-10017698D02*
X5360182Y-10093889D01*
X5360182Y-10093889D02*
X5369706Y-10112936D01*
X5369706Y-10112936D02*
X5379229Y-10122460D01*
X5379229Y-10122460D02*
X5398277Y-10131984D01*
X5398277Y-10131984D02*
X5436372Y-10131984D01*
X5436372Y-10131984D02*
X5455420Y-10122460D01*
X5455420Y-10122460D02*
X5464944Y-10112936D01*
X5464944Y-10112936D02*
X5474468Y-10093889D01*
X5474468Y-10093889D02*
X5474468Y-10046270D01*
X5474468Y-10046270D02*
X5464944Y-10027222D01*
X5464944Y-10027222D02*
X5455420Y-10017698D01*
X5455420Y-10017698D02*
X5436372Y-10008174D01*
X5436372Y-10008174D02*
X5398277Y-10008174D01*
X5398277Y-10008174D02*
X5379229Y-10017698D01*
X5379229Y-10017698D02*
X5369706Y-10027222D01*
X5369706Y-10027222D02*
X5360182Y-10046270D01*
X5598277Y-9931984D02*
X5617325Y-9931984D01*
X5617325Y-9931984D02*
X5636372Y-9941508D01*
X5636372Y-9941508D02*
X5645896Y-9951031D01*
X5645896Y-9951031D02*
X5655420Y-9970079D01*
X5655420Y-9970079D02*
X5664944Y-10008174D01*
X5664944Y-10008174D02*
X5664944Y-10055793D01*
X5664944Y-10055793D02*
X5655420Y-10093889D01*
X5655420Y-10093889D02*
X5645896Y-10112936D01*
X5645896Y-10112936D02*
X5636372Y-10122460D01*
X5636372Y-10122460D02*
X5617325Y-10131984D01*
X5617325Y-10131984D02*
X5598277Y-10131984D01*
X5598277Y-10131984D02*
X5579229Y-10122460D01*
X5579229Y-10122460D02*
X5569706Y-10112936D01*
X5569706Y-10112936D02*
X5560182Y-10093889D01*
X5560182Y-10093889D02*
X5550658Y-10055793D01*
X5550658Y-10055793D02*
X5550658Y-10008174D01*
X5550658Y-10008174D02*
X5560182Y-9970079D01*
X5560182Y-9970079D02*
X5569706Y-9951031D01*
X5569706Y-9951031D02*
X5579229Y-9941508D01*
X5579229Y-9941508D02*
X5598277Y-9931984D01*
X5741134Y-9931984D02*
X5741134Y-9970079D01*
X5817325Y-9931984D02*
X5817325Y-9970079D01*
X6112563Y-10208174D02*
X6103039Y-10198650D01*
X6103039Y-10198650D02*
X6083991Y-10170079D01*
X6083991Y-10170079D02*
X6074468Y-10151031D01*
X6074468Y-10151031D02*
X6064944Y-10122460D01*
X6064944Y-10122460D02*
X6055420Y-10074841D01*
X6055420Y-10074841D02*
X6055420Y-10036746D01*
X6055420Y-10036746D02*
X6064944Y-9989127D01*
X6064944Y-9989127D02*
X6074468Y-9960555D01*
X6074468Y-9960555D02*
X6083991Y-9941508D01*
X6083991Y-9941508D02*
X6103039Y-9912936D01*
X6103039Y-9912936D02*
X6112563Y-9903412D01*
X6283991Y-9931984D02*
X6188753Y-9931984D01*
X6188753Y-9931984D02*
X6179229Y-10027222D01*
X6179229Y-10027222D02*
X6188753Y-10017698D01*
X6188753Y-10017698D02*
X6207801Y-10008174D01*
X6207801Y-10008174D02*
X6255420Y-10008174D01*
X6255420Y-10008174D02*
X6274468Y-10017698D01*
X6274468Y-10017698D02*
X6283991Y-10027222D01*
X6283991Y-10027222D02*
X6293515Y-10046270D01*
X6293515Y-10046270D02*
X6293515Y-10093889D01*
X6293515Y-10093889D02*
X6283991Y-10112936D01*
X6283991Y-10112936D02*
X6274468Y-10122460D01*
X6274468Y-10122460D02*
X6255420Y-10131984D01*
X6255420Y-10131984D02*
X6207801Y-10131984D01*
X6207801Y-10131984D02*
X6188753Y-10122460D01*
X6188753Y-10122460D02*
X6179229Y-10112936D01*
X6531610Y-10131984D02*
X6531610Y-9931984D01*
X6617325Y-10131984D02*
X6617325Y-10027222D01*
X6617325Y-10027222D02*
X6607801Y-10008174D01*
X6607801Y-10008174D02*
X6588753Y-9998650D01*
X6588753Y-9998650D02*
X6560182Y-9998650D01*
X6560182Y-9998650D02*
X6541134Y-10008174D01*
X6541134Y-10008174D02*
X6531610Y-10017698D01*
X6741134Y-10131984D02*
X6722087Y-10122460D01*
X6722087Y-10122460D02*
X6712563Y-10112936D01*
X6712563Y-10112936D02*
X6703039Y-10093889D01*
X6703039Y-10093889D02*
X6703039Y-10036746D01*
X6703039Y-10036746D02*
X6712563Y-10017698D01*
X6712563Y-10017698D02*
X6722087Y-10008174D01*
X6722087Y-10008174D02*
X6741134Y-9998650D01*
X6741134Y-9998650D02*
X6769706Y-9998650D01*
X6769706Y-9998650D02*
X6788753Y-10008174D01*
X6788753Y-10008174D02*
X6798277Y-10017698D01*
X6798277Y-10017698D02*
X6807801Y-10036746D01*
X6807801Y-10036746D02*
X6807801Y-10093889D01*
X6807801Y-10093889D02*
X6798277Y-10112936D01*
X6798277Y-10112936D02*
X6788753Y-10122460D01*
X6788753Y-10122460D02*
X6769706Y-10131984D01*
X6769706Y-10131984D02*
X6741134Y-10131984D01*
X6922087Y-10131984D02*
X6903039Y-10122460D01*
X6903039Y-10122460D02*
X6893515Y-10103412D01*
X6893515Y-10103412D02*
X6893515Y-9931984D01*
X7074468Y-10122460D02*
X7055420Y-10131984D01*
X7055420Y-10131984D02*
X7017325Y-10131984D01*
X7017325Y-10131984D02*
X6998277Y-10122460D01*
X6998277Y-10122460D02*
X6988753Y-10103412D01*
X6988753Y-10103412D02*
X6988753Y-10027222D01*
X6988753Y-10027222D02*
X6998277Y-10008174D01*
X6998277Y-10008174D02*
X7017325Y-9998650D01*
X7017325Y-9998650D02*
X7055420Y-9998650D01*
X7055420Y-9998650D02*
X7074468Y-10008174D01*
X7074468Y-10008174D02*
X7083991Y-10027222D01*
X7083991Y-10027222D02*
X7083991Y-10046270D01*
X7083991Y-10046270D02*
X6988753Y-10065317D01*
X7160182Y-10122460D02*
X7179230Y-10131984D01*
X7179230Y-10131984D02*
X7217325Y-10131984D01*
X7217325Y-10131984D02*
X7236372Y-10122460D01*
X7236372Y-10122460D02*
X7245896Y-10103412D01*
X7245896Y-10103412D02*
X7245896Y-10093889D01*
X7245896Y-10093889D02*
X7236372Y-10074841D01*
X7236372Y-10074841D02*
X7217325Y-10065317D01*
X7217325Y-10065317D02*
X7188753Y-10065317D01*
X7188753Y-10065317D02*
X7169706Y-10055793D01*
X7169706Y-10055793D02*
X7160182Y-10036746D01*
X7160182Y-10036746D02*
X7160182Y-10027222D01*
X7160182Y-10027222D02*
X7169706Y-10008174D01*
X7169706Y-10008174D02*
X7188753Y-9998650D01*
X7188753Y-9998650D02*
X7217325Y-9998650D01*
X7217325Y-9998650D02*
X7236372Y-10008174D01*
X7312563Y-10208174D02*
X7322087Y-10198650D01*
X7322087Y-10198650D02*
X7341134Y-10170079D01*
X7341134Y-10170079D02*
X7350658Y-10151031D01*
X7350658Y-10151031D02*
X7360182Y-10122460D01*
X7360182Y-10122460D02*
X7369706Y-10074841D01*
X7369706Y-10074841D02*
X7369706Y-10036746D01*
X7369706Y-10036746D02*
X7360182Y-9989127D01*
X7360182Y-9989127D02*
X7350658Y-9960555D01*
X7350658Y-9960555D02*
X7341134Y-9941508D01*
X7341134Y-9941508D02*
X7322087Y-9912936D01*
X7322087Y-9912936D02*
X7312563Y-9903412D01*
X7674468Y-10208174D02*
X7664944Y-10198650D01*
X7664944Y-10198650D02*
X7645896Y-10170079D01*
X7645896Y-10170079D02*
X7636372Y-10151031D01*
X7636372Y-10151031D02*
X7626849Y-10122460D01*
X7626849Y-10122460D02*
X7617325Y-10074841D01*
X7617325Y-10074841D02*
X7617325Y-10036746D01*
X7617325Y-10036746D02*
X7626849Y-9989127D01*
X7626849Y-9989127D02*
X7636372Y-9960555D01*
X7636372Y-9960555D02*
X7645896Y-9941508D01*
X7645896Y-9941508D02*
X7664944Y-9912936D01*
X7664944Y-9912936D02*
X7674468Y-9903412D01*
X7750658Y-9998650D02*
X7750658Y-10131984D01*
X7750658Y-10017698D02*
X7760182Y-10008174D01*
X7760182Y-10008174D02*
X7779230Y-9998650D01*
X7779230Y-9998650D02*
X7807801Y-9998650D01*
X7807801Y-9998650D02*
X7826849Y-10008174D01*
X7826849Y-10008174D02*
X7836372Y-10027222D01*
X7836372Y-10027222D02*
X7836372Y-10131984D01*
X7960182Y-10131984D02*
X7941134Y-10122460D01*
X7941134Y-10122460D02*
X7931611Y-10112936D01*
X7931611Y-10112936D02*
X7922087Y-10093889D01*
X7922087Y-10093889D02*
X7922087Y-10036746D01*
X7922087Y-10036746D02*
X7931611Y-10017698D01*
X7931611Y-10017698D02*
X7941134Y-10008174D01*
X7941134Y-10008174D02*
X7960182Y-9998650D01*
X7960182Y-9998650D02*
X7988753Y-9998650D01*
X7988753Y-9998650D02*
X8007801Y-10008174D01*
X8007801Y-10008174D02*
X8017325Y-10017698D01*
X8017325Y-10017698D02*
X8026849Y-10036746D01*
X8026849Y-10036746D02*
X8026849Y-10093889D01*
X8026849Y-10093889D02*
X8017325Y-10112936D01*
X8017325Y-10112936D02*
X8007801Y-10122460D01*
X8007801Y-10122460D02*
X7988753Y-10131984D01*
X7988753Y-10131984D02*
X7960182Y-10131984D01*
X8083992Y-9998650D02*
X8160182Y-9998650D01*
X8112563Y-9931984D02*
X8112563Y-10103412D01*
X8112563Y-10103412D02*
X8122087Y-10122460D01*
X8122087Y-10122460D02*
X8141134Y-10131984D01*
X8141134Y-10131984D02*
X8160182Y-10131984D01*
X8379230Y-9998650D02*
X8379230Y-10198650D01*
X8379230Y-10008174D02*
X8398277Y-9998650D01*
X8398277Y-9998650D02*
X8436373Y-9998650D01*
X8436373Y-9998650D02*
X8455420Y-10008174D01*
X8455420Y-10008174D02*
X8464944Y-10017698D01*
X8464944Y-10017698D02*
X8474468Y-10036746D01*
X8474468Y-10036746D02*
X8474468Y-10093889D01*
X8474468Y-10093889D02*
X8464944Y-10112936D01*
X8464944Y-10112936D02*
X8455420Y-10122460D01*
X8455420Y-10122460D02*
X8436373Y-10131984D01*
X8436373Y-10131984D02*
X8398277Y-10131984D01*
X8398277Y-10131984D02*
X8379230Y-10122460D01*
X8588754Y-10131984D02*
X8569706Y-10122460D01*
X8569706Y-10122460D02*
X8560182Y-10103412D01*
X8560182Y-10103412D02*
X8560182Y-9931984D01*
X8750658Y-10131984D02*
X8750658Y-10027222D01*
X8750658Y-10027222D02*
X8741135Y-10008174D01*
X8741135Y-10008174D02*
X8722087Y-9998650D01*
X8722087Y-9998650D02*
X8683992Y-9998650D01*
X8683992Y-9998650D02*
X8664944Y-10008174D01*
X8750658Y-10122460D02*
X8731611Y-10131984D01*
X8731611Y-10131984D02*
X8683992Y-10131984D01*
X8683992Y-10131984D02*
X8664944Y-10122460D01*
X8664944Y-10122460D02*
X8655420Y-10103412D01*
X8655420Y-10103412D02*
X8655420Y-10084365D01*
X8655420Y-10084365D02*
X8664944Y-10065317D01*
X8664944Y-10065317D02*
X8683992Y-10055793D01*
X8683992Y-10055793D02*
X8731611Y-10055793D01*
X8731611Y-10055793D02*
X8750658Y-10046270D01*
X8817325Y-9998650D02*
X8893515Y-9998650D01*
X8845896Y-9931984D02*
X8845896Y-10103412D01*
X8845896Y-10103412D02*
X8855420Y-10122460D01*
X8855420Y-10122460D02*
X8874468Y-10131984D01*
X8874468Y-10131984D02*
X8893515Y-10131984D01*
X9036373Y-10122460D02*
X9017325Y-10131984D01*
X9017325Y-10131984D02*
X8979230Y-10131984D01*
X8979230Y-10131984D02*
X8960182Y-10122460D01*
X8960182Y-10122460D02*
X8950658Y-10103412D01*
X8950658Y-10103412D02*
X8950658Y-10027222D01*
X8950658Y-10027222D02*
X8960182Y-10008174D01*
X8960182Y-10008174D02*
X8979230Y-9998650D01*
X8979230Y-9998650D02*
X9017325Y-9998650D01*
X9017325Y-9998650D02*
X9036373Y-10008174D01*
X9036373Y-10008174D02*
X9045896Y-10027222D01*
X9045896Y-10027222D02*
X9045896Y-10046270D01*
X9045896Y-10046270D02*
X8950658Y-10065317D01*
X9217325Y-10131984D02*
X9217325Y-9931984D01*
X9217325Y-10122460D02*
X9198277Y-10131984D01*
X9198277Y-10131984D02*
X9160182Y-10131984D01*
X9160182Y-10131984D02*
X9141135Y-10122460D01*
X9141135Y-10122460D02*
X9131611Y-10112936D01*
X9131611Y-10112936D02*
X9122087Y-10093889D01*
X9122087Y-10093889D02*
X9122087Y-10036746D01*
X9122087Y-10036746D02*
X9131611Y-10017698D01*
X9131611Y-10017698D02*
X9141135Y-10008174D01*
X9141135Y-10008174D02*
X9160182Y-9998650D01*
X9160182Y-9998650D02*
X9198277Y-9998650D01*
X9198277Y-9998650D02*
X9217325Y-10008174D01*
X9293516Y-10208174D02*
X9303039Y-10198650D01*
X9303039Y-10198650D02*
X9322087Y-10170079D01*
X9322087Y-10170079D02*
X9331611Y-10151031D01*
X9331611Y-10151031D02*
X9341135Y-10122460D01*
X9341135Y-10122460D02*
X9350658Y-10074841D01*
X9350658Y-10074841D02*
X9350658Y-10036746D01*
X9350658Y-10036746D02*
X9341135Y-9989127D01*
X9341135Y-9989127D02*
X9331611Y-9960555D01*
X9331611Y-9960555D02*
X9322087Y-9941508D01*
X9322087Y-9941508D02*
X9303039Y-9912936D01*
X9303039Y-9912936D02*
X9293516Y-9903412D01*
M02*
