M48
; DRILL file {KiCad 9.0.4} date 2025-11-19T10:52:51-0800
; FORMAT={-:-/ absolute / metric / decimal}
; #@! TF.CreationDate,2025-11-19T10:52:51-08:00
; #@! TF.GenerationSoftware,Kicad,Pcbnew,9.0.4
; #@! TF.FileFunction,MixedPlating,1,2
FMAT,2
METRIC
; #@! TA.AperFunction,Plated,PTH,ComponentDrill
T1C0.813
; #@! TA.AperFunction,Plated,PTH,ComponentDrill
T2C0.965
; #@! TA.AperFunction,Plated,PTH,ComponentDrill
T3C1.016
; #@! TA.AperFunction,NonPlated,NPTH,ComponentDrill
T4C3.200
%
G90
G05
T1
X26.67Y-46.482
X26.67Y-54.356
X26.71Y-42.926
X27.94Y-37.74
X29.21Y-50.292
X29.21Y-54.356
X30.48Y-37.74
X31.71Y-42.926
X31.75Y-54.356
X32.229Y-58.928
X33.02Y-37.74
X34.769Y-58.928
X34.885Y-26.675
X34.885Y-29.215
X36.322Y-33.274
X36.322Y-43.434
X36.83Y-46.482
X36.83Y-50.292
X44.45Y-77.47
X54.61Y-77.47
X92.964Y-73.406
X92.964Y-76.454
X99.06Y-80.01
X99.06Y-82.55
X103.124Y-73.406
X103.124Y-76.454
X105.41Y-82.55
X105.41Y-90.17
X106.68Y-69.85
X106.68Y-80.01
X110.49Y-69.85
X110.49Y-80.01
X110.49Y-87.63
X110.49Y-90.17
X110.49Y-92.71
X114.3Y-74.97
X114.3Y-79.97
X116.84Y-87.63
X116.84Y-90.17
X116.84Y-92.71
X117.856Y-69.85
X117.856Y-80.01
X121.412Y-73.66
X121.412Y-78.74
X121.92Y-82.55
X121.92Y-92.71
X124.968Y-73.66
X124.968Y-76.2
X125.222Y-82.55
X125.222Y-92.71
X128.524Y-73.66
X128.524Y-76.2
X128.524Y-78.74
X128.524Y-81.28
X129.286Y-87.67
X129.286Y-92.67
X136.144Y-73.66
X136.144Y-76.2
X136.144Y-78.74
X136.144Y-81.28
X139.446Y-76.229
X139.446Y-81.309
X140.941Y-50.292
X140.941Y-63.5
X140.941Y-67.564
X140.97Y-38.1
X140.97Y-41.91
X140.97Y-55.118
X141.224Y-84.553
X141.224Y-89.633
X142.748Y-76.229
X142.748Y-81.309
X143.481Y-50.292
X143.481Y-63.5
X143.481Y-67.564
X143.51Y-38.1
X143.51Y-41.91
X143.51Y-45.72
X143.51Y-55.118
X143.51Y-58.928
X143.51Y-71.882
X146.021Y-82.804
X146.05Y-38.1
X146.05Y-45.72
X146.05Y-50.332
X146.05Y-55.332
X146.05Y-58.928
X146.05Y-63.286
X146.05Y-68.286
X146.05Y-71.882
X146.09Y-34.29
X146.09Y-79.756
X146.402Y-76.2
X148.59Y-45.72
X148.59Y-58.928
X148.59Y-71.882
X148.619Y-41.91
X148.619Y-50.292
X148.619Y-55.118
X148.619Y-63.5
X148.942Y-76.2
X151.09Y-34.29
X151.09Y-79.756
X151.101Y-82.804
X151.13Y-38.1
X151.159Y-41.91
X151.159Y-50.292
X151.159Y-55.118
X151.159Y-63.5
T2
X142.915Y-26.665
X142.915Y-29.205
T3
X52.07Y-73.66
X52.07Y-88.9
X54.61Y-73.66
X54.61Y-88.9
X57.15Y-73.66
X57.15Y-88.9
X59.69Y-73.66
X59.69Y-88.9
X62.23Y-73.66
X62.23Y-88.9
X64.77Y-73.66
X64.77Y-88.9
X67.31Y-73.66
X67.31Y-88.9
X69.85Y-73.66
X69.85Y-88.9
X72.39Y-73.66
X72.39Y-88.9
X74.93Y-73.66
X74.93Y-88.9
X77.47Y-73.66
X77.47Y-88.9
X80.01Y-73.66
X80.01Y-88.9
X82.55Y-73.66
X82.55Y-88.9
X85.09Y-73.66
X85.09Y-88.9
X91.996Y-90.678
X94.996Y-90.678
X97.996Y-90.678
T4
X29.21Y-29.21
X33.02Y-90.17
X90.932Y-81.28
X147.32Y-88.9
X148.59Y-29.21
T1
G00X88.546Y-89.814
M15
G01X88.546Y-91.542
M16
G05
G00X101.446Y-89.814
M15
G01X101.446Y-91.542
M16
G05
M30
