%TF.GenerationSoftware,KiCad,Pcbnew,9.0.6*%
%TF.CreationDate,2026-03-05T13:16:13-08:00*%
%TF.ProjectId,20AL_Pendulum_Photogate,3230414c-5f50-4656-9e64-756c756d5f50,rev?*%
%TF.SameCoordinates,Original*%
%TF.FileFunction,Drillmap*%
%TF.FilePolarity,Positive*%
%FSLAX45Y45*%
G04 Gerber Fmt 4.5, Leading zero omitted, Abs format (unit mm)*
G04 Created by KiCad (PCBNEW 9.0.6) date 2026-03-05 13:16:13*
%MOMM*%
%LPD*%
G01*
G04 APERTURE LIST*
%ADD10C,0.050000*%
%ADD11C,0.200000*%
%ADD12C,0.100000*%
%ADD13C,0.101600*%
G04 APERTURE END LIST*
D10*
X13970000Y-6604000D02*
G75*
G02*
X13716000Y-6858000I-254000J0D01*
G01*
X4064000Y-6858000D02*
G75*
G02*
X3810000Y-6604000I0J254000D01*
G01*
X3810000Y-6604000D02*
X3810000Y-2540000D01*
X13716000Y-6858000D02*
X4064000Y-6858000D01*
X13970000Y-2540000D02*
X13970000Y-6604000D01*
X3302000Y-9398000D02*
X14478000Y-9398000D01*
X2540000Y-7493000D02*
X3238500Y-7493000D01*
X15240000Y-8636000D02*
G75*
G02*
X14478000Y-9398000I-762000J0D01*
G01*
X14986000Y-2540000D02*
X13970000Y-2540000D01*
X3810000Y-2540000D02*
X2794000Y-2540000D01*
X3238500Y-7493000D02*
X3238500Y-6223000D01*
X2540000Y-6223000D02*
X2540000Y-2794000D01*
X14986000Y-2540000D02*
G75*
G02*
X15240000Y-2794000I0J-254000D01*
G01*
X15240000Y-8636000D02*
X15240000Y-2794000D01*
X2540000Y-2794000D02*
G75*
G02*
X2794000Y-2540000I254000J0D01*
G01*
X3302000Y-9398000D02*
G75*
G02*
X2540000Y-8636000I0J762000D01*
G01*
X2540000Y-8636000D02*
X2540000Y-7493000D01*
X3238500Y-6223000D02*
X2540000Y-6223000D01*
D11*
D12*
X2626360Y-3439160D02*
X2707640Y-3520440D01*
X2707640Y-3439160D02*
X2626360Y-3520440D01*
X2626360Y-4237160D02*
X2707640Y-4318440D01*
X2707640Y-4237160D02*
X2626360Y-4318440D01*
X2626360Y-5100760D02*
X2707640Y-5182040D01*
X2707640Y-5100760D02*
X2626360Y-5182040D01*
X2880360Y-4237160D02*
X2961640Y-4318440D01*
X2961640Y-4237160D02*
X2880360Y-4318440D01*
X2880360Y-4632960D02*
X2961640Y-4714240D01*
X2961640Y-4632960D02*
X2880360Y-4714240D01*
X2880360Y-5100760D02*
X2961640Y-5182040D01*
X2961640Y-5100760D02*
X2880360Y-5182040D01*
X2880360Y-5496560D02*
X2961640Y-5577840D01*
X2961640Y-5496560D02*
X2880360Y-5577840D01*
X2884360Y-3769360D02*
X2965640Y-3850640D01*
X2965640Y-3769360D02*
X2884360Y-3850640D01*
X3134360Y-4237160D02*
X3215640Y-4318440D01*
X3215640Y-4237160D02*
X3134360Y-4318440D01*
X3134360Y-5100760D02*
X3215640Y-5182040D01*
X3215640Y-5100760D02*
X3134360Y-5182040D01*
X3384360Y-3769360D02*
X3465640Y-3850640D01*
X3465640Y-3769360D02*
X3384360Y-3850640D01*
X3447860Y-2626860D02*
X3529140Y-2708140D01*
X3529140Y-2626860D02*
X3447860Y-2708140D01*
X3447860Y-2880860D02*
X3529140Y-2962140D01*
X3529140Y-2880860D02*
X3447860Y-2962140D01*
X3519360Y-7122160D02*
X3600640Y-7203440D01*
X3600640Y-7122160D02*
X3519360Y-7203440D01*
X3642360Y-3439160D02*
X3723640Y-3520440D01*
X3723640Y-3439160D02*
X3642360Y-3520440D01*
X3642360Y-4632960D02*
X3723640Y-4714240D01*
X3723640Y-4632960D02*
X3642360Y-4714240D01*
X3642360Y-5496560D02*
X3723640Y-5577840D01*
X3723640Y-5496560D02*
X3642360Y-5577840D01*
X4019360Y-7122160D02*
X4100640Y-7203440D01*
X4100640Y-7122160D02*
X4019360Y-7203440D01*
X8813960Y-9027160D02*
X8895240Y-9108440D01*
X8895240Y-9027160D02*
X8813960Y-9108440D01*
X8813960Y-8981440D02*
X8813960Y-9154160D01*
X8895240Y-9154160D02*
G75*
G02*
X8813960Y-9154160I-40640J0D01*
G01*
X8895240Y-9154160D02*
X8895240Y-8981440D01*
X8895240Y-8981440D02*
G75*
G03*
X8813960Y-8981440I-40640J0D01*
G01*
X9865360Y-7960360D02*
X9946640Y-8041640D01*
X9946640Y-7960360D02*
X9865360Y-8041640D01*
X9865360Y-8214360D02*
X9946640Y-8295640D01*
X9946640Y-8214360D02*
X9865360Y-8295640D01*
X10103960Y-9027160D02*
X10185240Y-9108440D01*
X10185240Y-9027160D02*
X10103960Y-9108440D01*
X10103960Y-8981440D02*
X10103960Y-9154160D01*
X10185240Y-9154160D02*
G75*
G02*
X10103960Y-9154160I-40640J0D01*
G01*
X10185240Y-9154160D02*
X10185240Y-8981440D01*
X10185240Y-8981440D02*
G75*
G03*
X10103960Y-8981440I-40640J0D01*
G01*
X10347960Y-6918960D02*
X10429240Y-7000240D01*
X10429240Y-6918960D02*
X10347960Y-7000240D01*
X10347960Y-7934960D02*
X10429240Y-8016240D01*
X10429240Y-7934960D02*
X10347960Y-8016240D01*
X10576560Y-8747760D02*
X10657840Y-8829040D01*
X10657840Y-8747760D02*
X10576560Y-8829040D01*
X10576560Y-9001760D02*
X10657840Y-9083040D01*
X10657840Y-9001760D02*
X10576560Y-9083040D01*
X10576560Y-9255760D02*
X10657840Y-9337040D01*
X10657840Y-9255760D02*
X10576560Y-9337040D01*
X10678160Y-7122160D02*
X10759440Y-7203440D01*
X10759440Y-7122160D02*
X10678160Y-7203440D01*
X10678160Y-8392160D02*
X10759440Y-8473440D01*
X10759440Y-8392160D02*
X10678160Y-8473440D01*
X11008360Y-6918960D02*
X11089640Y-7000240D01*
X11089640Y-6918960D02*
X11008360Y-7000240D01*
X11008360Y-8442960D02*
X11089640Y-8524240D01*
X11089640Y-8442960D02*
X11008360Y-8524240D01*
X11186160Y-8747760D02*
X11267440Y-8829040D01*
X11267440Y-8747760D02*
X11186160Y-8829040D01*
X11186160Y-9001760D02*
X11267440Y-9083040D01*
X11267440Y-9001760D02*
X11186160Y-9083040D01*
X11186160Y-9255760D02*
X11267440Y-9337040D01*
X11267440Y-9255760D02*
X11186160Y-9337040D01*
X11338560Y-7731760D02*
X11419840Y-7813040D01*
X11419840Y-7731760D02*
X11338560Y-7813040D01*
X11338560Y-8493760D02*
X11419840Y-8575040D01*
X11419840Y-8493760D02*
X11338560Y-8575040D01*
X11643360Y-8188960D02*
X11724640Y-8270240D01*
X11724640Y-8188960D02*
X11643360Y-8270240D01*
X11643360Y-8950960D02*
X11724640Y-9032240D01*
X11724640Y-8950960D02*
X11643360Y-9032240D01*
X11973560Y-6918960D02*
X12054840Y-7000240D01*
X12054840Y-6918960D02*
X11973560Y-7000240D01*
X11973560Y-8188960D02*
X12054840Y-8270240D01*
X12054840Y-8188960D02*
X11973560Y-8270240D01*
X11973560Y-8493760D02*
X12054840Y-8575040D01*
X12054840Y-8493760D02*
X11973560Y-8575040D01*
X11973560Y-9255760D02*
X12054840Y-9337040D01*
X12054840Y-9255760D02*
X11973560Y-9337040D01*
X12329160Y-7553960D02*
X12410440Y-7635240D01*
X12410440Y-7553960D02*
X12329160Y-7635240D01*
X12329160Y-8315960D02*
X12410440Y-8397240D01*
X12410440Y-8315960D02*
X12329160Y-8397240D01*
X12329160Y-8646160D02*
X12410440Y-8727440D01*
X12410440Y-8646160D02*
X12329160Y-8727440D01*
X12333160Y-7122160D02*
X12414440Y-7203440D01*
X12414440Y-7122160D02*
X12333160Y-7203440D01*
X12583160Y-7553960D02*
X12664440Y-7635240D01*
X12664440Y-7553960D02*
X12583160Y-7635240D01*
X12583160Y-8315960D02*
X12664440Y-8397240D01*
X12664440Y-8315960D02*
X12583160Y-8397240D01*
X12591160Y-8976360D02*
X12672440Y-9057640D01*
X12672440Y-8976360D02*
X12591160Y-9057640D01*
X12833160Y-7122160D02*
X12914440Y-7203440D01*
X12914440Y-7122160D02*
X12833160Y-7203440D01*
X12837160Y-7553960D02*
X12918440Y-7635240D01*
X12918440Y-7553960D02*
X12837160Y-7635240D01*
X12837160Y-8315960D02*
X12918440Y-8397240D01*
X12918440Y-8315960D02*
X12837160Y-8397240D01*
X13091160Y-7553960D02*
X13172440Y-7635240D01*
X13172440Y-7553960D02*
X13091160Y-7635240D01*
X13091160Y-8315960D02*
X13172440Y-8397240D01*
X13172440Y-8315960D02*
X13091160Y-8397240D01*
X13091160Y-8646160D02*
X13172440Y-8727440D01*
X13172440Y-8646160D02*
X13091160Y-8727440D01*
X13091160Y-8976360D02*
X13172440Y-9057640D01*
X13172440Y-8976360D02*
X13091160Y-9057640D01*
X13522960Y-7350760D02*
X13604240Y-7432040D01*
X13604240Y-7350760D02*
X13522960Y-7432040D01*
X13522960Y-8112760D02*
X13604240Y-8194040D01*
X13604240Y-8112760D02*
X13522960Y-8194040D01*
X13863822Y-6918960D02*
X13945102Y-7000240D01*
X13945102Y-6918960D02*
X13863822Y-7000240D01*
X13863822Y-7680960D02*
X13945102Y-7762240D01*
X13945102Y-7680960D02*
X13863822Y-7762240D01*
X14056360Y-4048760D02*
X14137640Y-4130040D01*
X14137640Y-4048760D02*
X14056360Y-4130040D01*
X14056360Y-4886960D02*
X14137640Y-4968240D01*
X14137640Y-4886960D02*
X14056360Y-4968240D01*
X14056360Y-5547360D02*
X14137640Y-5628640D01*
X14137640Y-5547360D02*
X14056360Y-5628640D01*
X14056360Y-6385560D02*
X14137640Y-6466840D01*
X14137640Y-6385560D02*
X14056360Y-6466840D01*
X14259560Y-6690360D02*
X14340840Y-6771640D01*
X14340840Y-6690360D02*
X14259560Y-6771640D01*
X14259560Y-7452360D02*
X14340840Y-7533640D01*
X14340840Y-7452360D02*
X14259560Y-7533640D01*
X14310360Y-3413760D02*
X14391640Y-3495040D01*
X14391640Y-3413760D02*
X14310360Y-3495040D01*
X14310360Y-7731760D02*
X14391640Y-7813040D01*
X14391640Y-7731760D02*
X14310360Y-7813040D01*
X14314360Y-3718560D02*
X14395640Y-3799840D01*
X14395640Y-3718560D02*
X14314360Y-3799840D01*
X14314360Y-5217160D02*
X14395640Y-5298440D01*
X14395640Y-5217160D02*
X14314360Y-5298440D01*
X14564360Y-4429760D02*
X14645640Y-4511040D01*
X14645640Y-4429760D02*
X14564360Y-4511040D01*
X14564360Y-5928360D02*
X14645640Y-6009640D01*
X14645640Y-5928360D02*
X14564360Y-6009640D01*
X14564360Y-6690360D02*
X14645640Y-6771640D01*
X14645640Y-6690360D02*
X14564360Y-6771640D01*
X14564360Y-7452360D02*
X14645640Y-7533640D01*
X14645640Y-7452360D02*
X14564360Y-7533640D01*
X14814360Y-3718560D02*
X14895640Y-3799840D01*
X14895640Y-3718560D02*
X14814360Y-3799840D01*
X14814360Y-5217160D02*
X14895640Y-5298440D01*
X14895640Y-5217160D02*
X14814360Y-5298440D01*
X14818360Y-4048760D02*
X14899640Y-4130040D01*
X14899640Y-4048760D02*
X14818360Y-4130040D01*
X14818360Y-4429760D02*
X14899640Y-4511040D01*
X14899640Y-4429760D02*
X14818360Y-4511040D01*
X14818360Y-4886960D02*
X14899640Y-4968240D01*
X14899640Y-4886960D02*
X14818360Y-4968240D01*
X14818360Y-5547360D02*
X14899640Y-5628640D01*
X14899640Y-5547360D02*
X14818360Y-5628640D01*
X14818360Y-5928360D02*
X14899640Y-6009640D01*
X14899640Y-5928360D02*
X14818360Y-6009640D01*
X14818360Y-6385560D02*
X14899640Y-6466840D01*
X14899640Y-6385560D02*
X14818360Y-6466840D01*
X14869160Y-6690360D02*
X14950440Y-6771640D01*
X14950440Y-6690360D02*
X14869160Y-6771640D01*
X14869160Y-7190360D02*
X14950440Y-7271640D01*
X14950440Y-7190360D02*
X14869160Y-7271640D01*
X15072360Y-3413760D02*
X15153640Y-3495040D01*
X15153640Y-3413760D02*
X15072360Y-3495040D01*
X15072360Y-4429760D02*
X15153640Y-4511040D01*
X15153640Y-4429760D02*
X15072360Y-4511040D01*
X15072360Y-5928360D02*
X15153640Y-6009640D01*
X15153640Y-5928360D02*
X15072360Y-6009640D01*
X15072360Y-7731760D02*
X15153640Y-7813040D01*
X15153640Y-7731760D02*
X15072360Y-7813040D01*
X14339760Y-2666500D02*
G75*
G02*
X14243240Y-2666500I-48260J0D01*
G01*
X14243240Y-2666500D02*
G75*
G02*
X14339760Y-2666500I48260J0D01*
G01*
X14339760Y-2920500D02*
G75*
G02*
X14243240Y-2920500I-48260J0D01*
G01*
X14243240Y-2920500D02*
G75*
G02*
X14339760Y-2920500I48260J0D01*
G01*
D13*
X5207000Y-7315200D02*
X5207000Y-7416800D01*
X5156200Y-7366000D02*
X5257800Y-7366000D01*
X5207000Y-8839200D02*
X5207000Y-8940800D01*
X5156200Y-8890000D02*
X5257800Y-8890000D01*
X5461000Y-7315200D02*
X5461000Y-7416800D01*
X5410200Y-7366000D02*
X5511800Y-7366000D01*
X5461000Y-8839200D02*
X5461000Y-8940800D01*
X5410200Y-8890000D02*
X5511800Y-8890000D01*
X5715000Y-7315200D02*
X5715000Y-7416800D01*
X5664200Y-7366000D02*
X5765800Y-7366000D01*
X5715000Y-8839200D02*
X5715000Y-8940800D01*
X5664200Y-8890000D02*
X5765800Y-8890000D01*
X5969000Y-7315200D02*
X5969000Y-7416800D01*
X5918200Y-7366000D02*
X6019800Y-7366000D01*
X5969000Y-8839200D02*
X5969000Y-8940800D01*
X5918200Y-8890000D02*
X6019800Y-8890000D01*
X6223000Y-7315200D02*
X6223000Y-7416800D01*
X6172200Y-7366000D02*
X6273800Y-7366000D01*
X6223000Y-8839200D02*
X6223000Y-8940800D01*
X6172200Y-8890000D02*
X6273800Y-8890000D01*
X6477000Y-7315200D02*
X6477000Y-7416800D01*
X6426200Y-7366000D02*
X6527800Y-7366000D01*
X6477000Y-8839200D02*
X6477000Y-8940800D01*
X6426200Y-8890000D02*
X6527800Y-8890000D01*
X6731000Y-7315200D02*
X6731000Y-7416800D01*
X6680200Y-7366000D02*
X6781800Y-7366000D01*
X6731000Y-8839200D02*
X6731000Y-8940800D01*
X6680200Y-8890000D02*
X6781800Y-8890000D01*
X6985000Y-7315200D02*
X6985000Y-7416800D01*
X6934200Y-7366000D02*
X7035800Y-7366000D01*
X6985000Y-8839200D02*
X6985000Y-8940800D01*
X6934200Y-8890000D02*
X7035800Y-8890000D01*
X7239000Y-7315200D02*
X7239000Y-7416800D01*
X7188200Y-7366000D02*
X7289800Y-7366000D01*
X7239000Y-8839200D02*
X7239000Y-8940800D01*
X7188200Y-8890000D02*
X7289800Y-8890000D01*
X7493000Y-7315200D02*
X7493000Y-7416800D01*
X7442200Y-7366000D02*
X7543800Y-7366000D01*
X7493000Y-8839200D02*
X7493000Y-8940800D01*
X7442200Y-8890000D02*
X7543800Y-8890000D01*
X7747000Y-7315200D02*
X7747000Y-7416800D01*
X7696200Y-7366000D02*
X7797800Y-7366000D01*
X7747000Y-8839200D02*
X7747000Y-8940800D01*
X7696200Y-8890000D02*
X7797800Y-8890000D01*
X8001000Y-7315200D02*
X8001000Y-7416800D01*
X7950200Y-7366000D02*
X8051800Y-7366000D01*
X8001000Y-8839200D02*
X8001000Y-8940800D01*
X7950200Y-8890000D02*
X8051800Y-8890000D01*
X8255000Y-7315200D02*
X8255000Y-7416800D01*
X8204200Y-7366000D02*
X8305800Y-7366000D01*
X8255000Y-8839200D02*
X8255000Y-8940800D01*
X8204200Y-8890000D02*
X8305800Y-8890000D01*
X8509000Y-7315200D02*
X8509000Y-7416800D01*
X8458200Y-7366000D02*
X8559800Y-7366000D01*
X8509000Y-8839200D02*
X8509000Y-8940800D01*
X8458200Y-8890000D02*
X8559800Y-8890000D01*
X9199600Y-9017000D02*
X9199600Y-9118600D01*
X9148800Y-9067800D02*
X9250400Y-9067800D01*
X9499600Y-9017000D02*
X9499600Y-9118600D01*
X9448800Y-9067800D02*
X9550400Y-9067800D01*
X9799600Y-9017000D02*
X9799600Y-9118600D01*
X9748800Y-9067800D02*
X9850400Y-9067800D01*
D11*
X2798277Y-9711984D02*
X2798277Y-9511984D01*
X2798277Y-9511984D02*
X2845896Y-9511984D01*
X2845896Y-9511984D02*
X2874467Y-9521508D01*
X2874467Y-9521508D02*
X2893515Y-9540555D01*
X2893515Y-9540555D02*
X2903039Y-9559603D01*
X2903039Y-9559603D02*
X2912562Y-9597698D01*
X2912562Y-9597698D02*
X2912562Y-9626270D01*
X2912562Y-9626270D02*
X2903039Y-9664365D01*
X2903039Y-9664365D02*
X2893515Y-9683412D01*
X2893515Y-9683412D02*
X2874467Y-9702460D01*
X2874467Y-9702460D02*
X2845896Y-9711984D01*
X2845896Y-9711984D02*
X2798277Y-9711984D01*
X2998277Y-9711984D02*
X2998277Y-9578650D01*
X2998277Y-9616746D02*
X3007801Y-9597698D01*
X3007801Y-9597698D02*
X3017324Y-9588174D01*
X3017324Y-9588174D02*
X3036372Y-9578650D01*
X3036372Y-9578650D02*
X3055420Y-9578650D01*
X3122086Y-9711984D02*
X3122086Y-9578650D01*
X3122086Y-9511984D02*
X3112562Y-9521508D01*
X3112562Y-9521508D02*
X3122086Y-9531031D01*
X3122086Y-9531031D02*
X3131610Y-9521508D01*
X3131610Y-9521508D02*
X3122086Y-9511984D01*
X3122086Y-9511984D02*
X3122086Y-9531031D01*
X3245896Y-9711984D02*
X3226848Y-9702460D01*
X3226848Y-9702460D02*
X3217324Y-9683412D01*
X3217324Y-9683412D02*
X3217324Y-9511984D01*
X3350658Y-9711984D02*
X3331610Y-9702460D01*
X3331610Y-9702460D02*
X3322086Y-9683412D01*
X3322086Y-9683412D02*
X3322086Y-9511984D01*
X3579229Y-9711984D02*
X3579229Y-9511984D01*
X3579229Y-9511984D02*
X3645896Y-9654841D01*
X3645896Y-9654841D02*
X3712562Y-9511984D01*
X3712562Y-9511984D02*
X3712562Y-9711984D01*
X3893515Y-9711984D02*
X3893515Y-9607222D01*
X3893515Y-9607222D02*
X3883991Y-9588174D01*
X3883991Y-9588174D02*
X3864943Y-9578650D01*
X3864943Y-9578650D02*
X3826848Y-9578650D01*
X3826848Y-9578650D02*
X3807801Y-9588174D01*
X3893515Y-9702460D02*
X3874467Y-9711984D01*
X3874467Y-9711984D02*
X3826848Y-9711984D01*
X3826848Y-9711984D02*
X3807801Y-9702460D01*
X3807801Y-9702460D02*
X3798277Y-9683412D01*
X3798277Y-9683412D02*
X3798277Y-9664365D01*
X3798277Y-9664365D02*
X3807801Y-9645317D01*
X3807801Y-9645317D02*
X3826848Y-9635793D01*
X3826848Y-9635793D02*
X3874467Y-9635793D01*
X3874467Y-9635793D02*
X3893515Y-9626270D01*
X3988753Y-9578650D02*
X3988753Y-9778650D01*
X3988753Y-9588174D02*
X4007801Y-9578650D01*
X4007801Y-9578650D02*
X4045896Y-9578650D01*
X4045896Y-9578650D02*
X4064943Y-9588174D01*
X4064943Y-9588174D02*
X4074467Y-9597698D01*
X4074467Y-9597698D02*
X4083991Y-9616746D01*
X4083991Y-9616746D02*
X4083991Y-9673889D01*
X4083991Y-9673889D02*
X4074467Y-9692936D01*
X4074467Y-9692936D02*
X4064943Y-9702460D01*
X4064943Y-9702460D02*
X4045896Y-9711984D01*
X4045896Y-9711984D02*
X4007801Y-9711984D01*
X4007801Y-9711984D02*
X3988753Y-9702460D01*
X4169705Y-9692936D02*
X4179229Y-9702460D01*
X4179229Y-9702460D02*
X4169705Y-9711984D01*
X4169705Y-9711984D02*
X4160182Y-9702460D01*
X4160182Y-9702460D02*
X4169705Y-9692936D01*
X4169705Y-9692936D02*
X4169705Y-9711984D01*
X4169705Y-9588174D02*
X4179229Y-9597698D01*
X4179229Y-9597698D02*
X4169705Y-9607222D01*
X4169705Y-9607222D02*
X4160182Y-9597698D01*
X4160182Y-9597698D02*
X4169705Y-9588174D01*
X4169705Y-9588174D02*
X4169705Y-9607222D01*
D12*
X2456220Y-9999860D02*
X2537500Y-10081140D01*
X2537500Y-9999860D02*
X2456220Y-10081140D01*
D11*
X2836372Y-9931984D02*
X2855420Y-9931984D01*
X2855420Y-9931984D02*
X2874467Y-9941508D01*
X2874467Y-9941508D02*
X2883991Y-9951031D01*
X2883991Y-9951031D02*
X2893515Y-9970079D01*
X2893515Y-9970079D02*
X2903039Y-10008174D01*
X2903039Y-10008174D02*
X2903039Y-10055793D01*
X2903039Y-10055793D02*
X2893515Y-10093889D01*
X2893515Y-10093889D02*
X2883991Y-10112936D01*
X2883991Y-10112936D02*
X2874467Y-10122460D01*
X2874467Y-10122460D02*
X2855420Y-10131984D01*
X2855420Y-10131984D02*
X2836372Y-10131984D01*
X2836372Y-10131984D02*
X2817324Y-10122460D01*
X2817324Y-10122460D02*
X2807801Y-10112936D01*
X2807801Y-10112936D02*
X2798277Y-10093889D01*
X2798277Y-10093889D02*
X2788753Y-10055793D01*
X2788753Y-10055793D02*
X2788753Y-10008174D01*
X2788753Y-10008174D02*
X2798277Y-9970079D01*
X2798277Y-9970079D02*
X2807801Y-9951031D01*
X2807801Y-9951031D02*
X2817324Y-9941508D01*
X2817324Y-9941508D02*
X2836372Y-9931984D01*
X2988753Y-10112936D02*
X2998277Y-10122460D01*
X2998277Y-10122460D02*
X2988753Y-10131984D01*
X2988753Y-10131984D02*
X2979229Y-10122460D01*
X2979229Y-10122460D02*
X2988753Y-10112936D01*
X2988753Y-10112936D02*
X2988753Y-10131984D01*
X3112562Y-10017698D02*
X3093515Y-10008174D01*
X3093515Y-10008174D02*
X3083991Y-9998650D01*
X3083991Y-9998650D02*
X3074467Y-9979603D01*
X3074467Y-9979603D02*
X3074467Y-9970079D01*
X3074467Y-9970079D02*
X3083991Y-9951031D01*
X3083991Y-9951031D02*
X3093515Y-9941508D01*
X3093515Y-9941508D02*
X3112562Y-9931984D01*
X3112562Y-9931984D02*
X3150658Y-9931984D01*
X3150658Y-9931984D02*
X3169705Y-9941508D01*
X3169705Y-9941508D02*
X3179229Y-9951031D01*
X3179229Y-9951031D02*
X3188753Y-9970079D01*
X3188753Y-9970079D02*
X3188753Y-9979603D01*
X3188753Y-9979603D02*
X3179229Y-9998650D01*
X3179229Y-9998650D02*
X3169705Y-10008174D01*
X3169705Y-10008174D02*
X3150658Y-10017698D01*
X3150658Y-10017698D02*
X3112562Y-10017698D01*
X3112562Y-10017698D02*
X3093515Y-10027222D01*
X3093515Y-10027222D02*
X3083991Y-10036746D01*
X3083991Y-10036746D02*
X3074467Y-10055793D01*
X3074467Y-10055793D02*
X3074467Y-10093889D01*
X3074467Y-10093889D02*
X3083991Y-10112936D01*
X3083991Y-10112936D02*
X3093515Y-10122460D01*
X3093515Y-10122460D02*
X3112562Y-10131984D01*
X3112562Y-10131984D02*
X3150658Y-10131984D01*
X3150658Y-10131984D02*
X3169705Y-10122460D01*
X3169705Y-10122460D02*
X3179229Y-10112936D01*
X3179229Y-10112936D02*
X3188753Y-10093889D01*
X3188753Y-10093889D02*
X3188753Y-10055793D01*
X3188753Y-10055793D02*
X3179229Y-10036746D01*
X3179229Y-10036746D02*
X3169705Y-10027222D01*
X3169705Y-10027222D02*
X3150658Y-10017698D01*
X3379229Y-10131984D02*
X3264943Y-10131984D01*
X3322086Y-10131984D02*
X3322086Y-9931984D01*
X3322086Y-9931984D02*
X3303039Y-9960555D01*
X3303039Y-9960555D02*
X3283991Y-9979603D01*
X3283991Y-9979603D02*
X3264943Y-9989127D01*
X3445896Y-9931984D02*
X3569705Y-9931984D01*
X3569705Y-9931984D02*
X3503039Y-10008174D01*
X3503039Y-10008174D02*
X3531610Y-10008174D01*
X3531610Y-10008174D02*
X3550658Y-10017698D01*
X3550658Y-10017698D02*
X3560182Y-10027222D01*
X3560182Y-10027222D02*
X3569705Y-10046270D01*
X3569705Y-10046270D02*
X3569705Y-10093889D01*
X3569705Y-10093889D02*
X3560182Y-10112936D01*
X3560182Y-10112936D02*
X3550658Y-10122460D01*
X3550658Y-10122460D02*
X3531610Y-10131984D01*
X3531610Y-10131984D02*
X3474467Y-10131984D01*
X3474467Y-10131984D02*
X3455420Y-10122460D01*
X3455420Y-10122460D02*
X3445896Y-10112936D01*
X3655420Y-10131984D02*
X3655420Y-9998650D01*
X3655420Y-10017698D02*
X3664943Y-10008174D01*
X3664943Y-10008174D02*
X3683991Y-9998650D01*
X3683991Y-9998650D02*
X3712563Y-9998650D01*
X3712563Y-9998650D02*
X3731610Y-10008174D01*
X3731610Y-10008174D02*
X3741134Y-10027222D01*
X3741134Y-10027222D02*
X3741134Y-10131984D01*
X3741134Y-10027222D02*
X3750658Y-10008174D01*
X3750658Y-10008174D02*
X3769705Y-9998650D01*
X3769705Y-9998650D02*
X3798277Y-9998650D01*
X3798277Y-9998650D02*
X3817324Y-10008174D01*
X3817324Y-10008174D02*
X3826848Y-10027222D01*
X3826848Y-10027222D02*
X3826848Y-10131984D01*
X3922086Y-10131984D02*
X3922086Y-9998650D01*
X3922086Y-10017698D02*
X3931610Y-10008174D01*
X3931610Y-10008174D02*
X3950658Y-9998650D01*
X3950658Y-9998650D02*
X3979229Y-9998650D01*
X3979229Y-9998650D02*
X3998277Y-10008174D01*
X3998277Y-10008174D02*
X4007801Y-10027222D01*
X4007801Y-10027222D02*
X4007801Y-10131984D01*
X4007801Y-10027222D02*
X4017324Y-10008174D01*
X4017324Y-10008174D02*
X4036372Y-9998650D01*
X4036372Y-9998650D02*
X4064943Y-9998650D01*
X4064943Y-9998650D02*
X4083991Y-10008174D01*
X4083991Y-10008174D02*
X4093515Y-10027222D01*
X4093515Y-10027222D02*
X4093515Y-10131984D01*
X4483991Y-9922460D02*
X4312563Y-10179603D01*
X4741134Y-9931984D02*
X4760182Y-9931984D01*
X4760182Y-9931984D02*
X4779229Y-9941508D01*
X4779229Y-9941508D02*
X4788753Y-9951031D01*
X4788753Y-9951031D02*
X4798277Y-9970079D01*
X4798277Y-9970079D02*
X4807801Y-10008174D01*
X4807801Y-10008174D02*
X4807801Y-10055793D01*
X4807801Y-10055793D02*
X4798277Y-10093889D01*
X4798277Y-10093889D02*
X4788753Y-10112936D01*
X4788753Y-10112936D02*
X4779229Y-10122460D01*
X4779229Y-10122460D02*
X4760182Y-10131984D01*
X4760182Y-10131984D02*
X4741134Y-10131984D01*
X4741134Y-10131984D02*
X4722087Y-10122460D01*
X4722087Y-10122460D02*
X4712563Y-10112936D01*
X4712563Y-10112936D02*
X4703039Y-10093889D01*
X4703039Y-10093889D02*
X4693515Y-10055793D01*
X4693515Y-10055793D02*
X4693515Y-10008174D01*
X4693515Y-10008174D02*
X4703039Y-9970079D01*
X4703039Y-9970079D02*
X4712563Y-9951031D01*
X4712563Y-9951031D02*
X4722087Y-9941508D01*
X4722087Y-9941508D02*
X4741134Y-9931984D01*
X4893515Y-10112936D02*
X4903039Y-10122460D01*
X4903039Y-10122460D02*
X4893515Y-10131984D01*
X4893515Y-10131984D02*
X4883991Y-10122460D01*
X4883991Y-10122460D02*
X4893515Y-10112936D01*
X4893515Y-10112936D02*
X4893515Y-10131984D01*
X5026848Y-9931984D02*
X5045896Y-9931984D01*
X5045896Y-9931984D02*
X5064944Y-9941508D01*
X5064944Y-9941508D02*
X5074468Y-9951031D01*
X5074468Y-9951031D02*
X5083991Y-9970079D01*
X5083991Y-9970079D02*
X5093515Y-10008174D01*
X5093515Y-10008174D02*
X5093515Y-10055793D01*
X5093515Y-10055793D02*
X5083991Y-10093889D01*
X5083991Y-10093889D02*
X5074468Y-10112936D01*
X5074468Y-10112936D02*
X5064944Y-10122460D01*
X5064944Y-10122460D02*
X5045896Y-10131984D01*
X5045896Y-10131984D02*
X5026848Y-10131984D01*
X5026848Y-10131984D02*
X5007801Y-10122460D01*
X5007801Y-10122460D02*
X4998277Y-10112936D01*
X4998277Y-10112936D02*
X4988753Y-10093889D01*
X4988753Y-10093889D02*
X4979229Y-10055793D01*
X4979229Y-10055793D02*
X4979229Y-10008174D01*
X4979229Y-10008174D02*
X4988753Y-9970079D01*
X4988753Y-9970079D02*
X4998277Y-9951031D01*
X4998277Y-9951031D02*
X5007801Y-9941508D01*
X5007801Y-9941508D02*
X5026848Y-9931984D01*
X5160182Y-9931984D02*
X5283991Y-9931984D01*
X5283991Y-9931984D02*
X5217325Y-10008174D01*
X5217325Y-10008174D02*
X5245896Y-10008174D01*
X5245896Y-10008174D02*
X5264944Y-10017698D01*
X5264944Y-10017698D02*
X5274468Y-10027222D01*
X5274468Y-10027222D02*
X5283991Y-10046270D01*
X5283991Y-10046270D02*
X5283991Y-10093889D01*
X5283991Y-10093889D02*
X5274468Y-10112936D01*
X5274468Y-10112936D02*
X5264944Y-10122460D01*
X5264944Y-10122460D02*
X5245896Y-10131984D01*
X5245896Y-10131984D02*
X5188753Y-10131984D01*
X5188753Y-10131984D02*
X5169706Y-10122460D01*
X5169706Y-10122460D02*
X5160182Y-10112936D01*
X5360182Y-9951031D02*
X5369706Y-9941508D01*
X5369706Y-9941508D02*
X5388753Y-9931984D01*
X5388753Y-9931984D02*
X5436372Y-9931984D01*
X5436372Y-9931984D02*
X5455420Y-9941508D01*
X5455420Y-9941508D02*
X5464944Y-9951031D01*
X5464944Y-9951031D02*
X5474468Y-9970079D01*
X5474468Y-9970079D02*
X5474468Y-9989127D01*
X5474468Y-9989127D02*
X5464944Y-10017698D01*
X5464944Y-10017698D02*
X5350658Y-10131984D01*
X5350658Y-10131984D02*
X5474468Y-10131984D01*
X5598277Y-9931984D02*
X5617325Y-9931984D01*
X5617325Y-9931984D02*
X5636372Y-9941508D01*
X5636372Y-9941508D02*
X5645896Y-9951031D01*
X5645896Y-9951031D02*
X5655420Y-9970079D01*
X5655420Y-9970079D02*
X5664944Y-10008174D01*
X5664944Y-10008174D02*
X5664944Y-10055793D01*
X5664944Y-10055793D02*
X5655420Y-10093889D01*
X5655420Y-10093889D02*
X5645896Y-10112936D01*
X5645896Y-10112936D02*
X5636372Y-10122460D01*
X5636372Y-10122460D02*
X5617325Y-10131984D01*
X5617325Y-10131984D02*
X5598277Y-10131984D01*
X5598277Y-10131984D02*
X5579229Y-10122460D01*
X5579229Y-10122460D02*
X5569706Y-10112936D01*
X5569706Y-10112936D02*
X5560182Y-10093889D01*
X5560182Y-10093889D02*
X5550658Y-10055793D01*
X5550658Y-10055793D02*
X5550658Y-10008174D01*
X5550658Y-10008174D02*
X5560182Y-9970079D01*
X5560182Y-9970079D02*
X5569706Y-9951031D01*
X5569706Y-9951031D02*
X5579229Y-9941508D01*
X5579229Y-9941508D02*
X5598277Y-9931984D01*
X5741134Y-9931984D02*
X5741134Y-9970079D01*
X5817325Y-9931984D02*
X5817325Y-9970079D01*
X6112563Y-10208174D02*
X6103039Y-10198650D01*
X6103039Y-10198650D02*
X6083991Y-10170079D01*
X6083991Y-10170079D02*
X6074468Y-10151031D01*
X6074468Y-10151031D02*
X6064944Y-10122460D01*
X6064944Y-10122460D02*
X6055420Y-10074841D01*
X6055420Y-10074841D02*
X6055420Y-10036746D01*
X6055420Y-10036746D02*
X6064944Y-9989127D01*
X6064944Y-9989127D02*
X6074468Y-9960555D01*
X6074468Y-9960555D02*
X6083991Y-9941508D01*
X6083991Y-9941508D02*
X6103039Y-9912936D01*
X6103039Y-9912936D02*
X6112563Y-9903412D01*
X6217325Y-10017698D02*
X6198277Y-10008174D01*
X6198277Y-10008174D02*
X6188753Y-9998650D01*
X6188753Y-9998650D02*
X6179229Y-9979603D01*
X6179229Y-9979603D02*
X6179229Y-9970079D01*
X6179229Y-9970079D02*
X6188753Y-9951031D01*
X6188753Y-9951031D02*
X6198277Y-9941508D01*
X6198277Y-9941508D02*
X6217325Y-9931984D01*
X6217325Y-9931984D02*
X6255420Y-9931984D01*
X6255420Y-9931984D02*
X6274468Y-9941508D01*
X6274468Y-9941508D02*
X6283991Y-9951031D01*
X6283991Y-9951031D02*
X6293515Y-9970079D01*
X6293515Y-9970079D02*
X6293515Y-9979603D01*
X6293515Y-9979603D02*
X6283991Y-9998650D01*
X6283991Y-9998650D02*
X6274468Y-10008174D01*
X6274468Y-10008174D02*
X6255420Y-10017698D01*
X6255420Y-10017698D02*
X6217325Y-10017698D01*
X6217325Y-10017698D02*
X6198277Y-10027222D01*
X6198277Y-10027222D02*
X6188753Y-10036746D01*
X6188753Y-10036746D02*
X6179229Y-10055793D01*
X6179229Y-10055793D02*
X6179229Y-10093889D01*
X6179229Y-10093889D02*
X6188753Y-10112936D01*
X6188753Y-10112936D02*
X6198277Y-10122460D01*
X6198277Y-10122460D02*
X6217325Y-10131984D01*
X6217325Y-10131984D02*
X6255420Y-10131984D01*
X6255420Y-10131984D02*
X6274468Y-10122460D01*
X6274468Y-10122460D02*
X6283991Y-10112936D01*
X6283991Y-10112936D02*
X6293515Y-10093889D01*
X6293515Y-10093889D02*
X6293515Y-10055793D01*
X6293515Y-10055793D02*
X6283991Y-10036746D01*
X6283991Y-10036746D02*
X6274468Y-10027222D01*
X6274468Y-10027222D02*
X6255420Y-10017698D01*
X6464944Y-9931984D02*
X6426848Y-9931984D01*
X6426848Y-9931984D02*
X6407801Y-9941508D01*
X6407801Y-9941508D02*
X6398277Y-9951031D01*
X6398277Y-9951031D02*
X6379229Y-9979603D01*
X6379229Y-9979603D02*
X6369706Y-10017698D01*
X6369706Y-10017698D02*
X6369706Y-10093889D01*
X6369706Y-10093889D02*
X6379229Y-10112936D01*
X6379229Y-10112936D02*
X6388753Y-10122460D01*
X6388753Y-10122460D02*
X6407801Y-10131984D01*
X6407801Y-10131984D02*
X6445896Y-10131984D01*
X6445896Y-10131984D02*
X6464944Y-10122460D01*
X6464944Y-10122460D02*
X6474468Y-10112936D01*
X6474468Y-10112936D02*
X6483991Y-10093889D01*
X6483991Y-10093889D02*
X6483991Y-10046270D01*
X6483991Y-10046270D02*
X6474468Y-10027222D01*
X6474468Y-10027222D02*
X6464944Y-10017698D01*
X6464944Y-10017698D02*
X6445896Y-10008174D01*
X6445896Y-10008174D02*
X6407801Y-10008174D01*
X6407801Y-10008174D02*
X6388753Y-10017698D01*
X6388753Y-10017698D02*
X6379229Y-10027222D01*
X6379229Y-10027222D02*
X6369706Y-10046270D01*
X6722087Y-10131984D02*
X6722087Y-9931984D01*
X6807801Y-10131984D02*
X6807801Y-10027222D01*
X6807801Y-10027222D02*
X6798277Y-10008174D01*
X6798277Y-10008174D02*
X6779230Y-9998650D01*
X6779230Y-9998650D02*
X6750658Y-9998650D01*
X6750658Y-9998650D02*
X6731610Y-10008174D01*
X6731610Y-10008174D02*
X6722087Y-10017698D01*
X6931610Y-10131984D02*
X6912563Y-10122460D01*
X6912563Y-10122460D02*
X6903039Y-10112936D01*
X6903039Y-10112936D02*
X6893515Y-10093889D01*
X6893515Y-10093889D02*
X6893515Y-10036746D01*
X6893515Y-10036746D02*
X6903039Y-10017698D01*
X6903039Y-10017698D02*
X6912563Y-10008174D01*
X6912563Y-10008174D02*
X6931610Y-9998650D01*
X6931610Y-9998650D02*
X6960182Y-9998650D01*
X6960182Y-9998650D02*
X6979230Y-10008174D01*
X6979230Y-10008174D02*
X6988753Y-10017698D01*
X6988753Y-10017698D02*
X6998277Y-10036746D01*
X6998277Y-10036746D02*
X6998277Y-10093889D01*
X6998277Y-10093889D02*
X6988753Y-10112936D01*
X6988753Y-10112936D02*
X6979230Y-10122460D01*
X6979230Y-10122460D02*
X6960182Y-10131984D01*
X6960182Y-10131984D02*
X6931610Y-10131984D01*
X7112563Y-10131984D02*
X7093515Y-10122460D01*
X7093515Y-10122460D02*
X7083991Y-10103412D01*
X7083991Y-10103412D02*
X7083991Y-9931984D01*
X7264944Y-10122460D02*
X7245896Y-10131984D01*
X7245896Y-10131984D02*
X7207801Y-10131984D01*
X7207801Y-10131984D02*
X7188753Y-10122460D01*
X7188753Y-10122460D02*
X7179230Y-10103412D01*
X7179230Y-10103412D02*
X7179230Y-10027222D01*
X7179230Y-10027222D02*
X7188753Y-10008174D01*
X7188753Y-10008174D02*
X7207801Y-9998650D01*
X7207801Y-9998650D02*
X7245896Y-9998650D01*
X7245896Y-9998650D02*
X7264944Y-10008174D01*
X7264944Y-10008174D02*
X7274468Y-10027222D01*
X7274468Y-10027222D02*
X7274468Y-10046270D01*
X7274468Y-10046270D02*
X7179230Y-10065317D01*
X7350658Y-10122460D02*
X7369706Y-10131984D01*
X7369706Y-10131984D02*
X7407801Y-10131984D01*
X7407801Y-10131984D02*
X7426849Y-10122460D01*
X7426849Y-10122460D02*
X7436372Y-10103412D01*
X7436372Y-10103412D02*
X7436372Y-10093889D01*
X7436372Y-10093889D02*
X7426849Y-10074841D01*
X7426849Y-10074841D02*
X7407801Y-10065317D01*
X7407801Y-10065317D02*
X7379230Y-10065317D01*
X7379230Y-10065317D02*
X7360182Y-10055793D01*
X7360182Y-10055793D02*
X7350658Y-10036746D01*
X7350658Y-10036746D02*
X7350658Y-10027222D01*
X7350658Y-10027222D02*
X7360182Y-10008174D01*
X7360182Y-10008174D02*
X7379230Y-9998650D01*
X7379230Y-9998650D02*
X7407801Y-9998650D01*
X7407801Y-9998650D02*
X7426849Y-10008174D01*
X7674468Y-10055793D02*
X7826849Y-10055793D01*
X7750658Y-10131984D02*
X7750658Y-9979603D01*
X8064944Y-9951031D02*
X8074468Y-9941508D01*
X8074468Y-9941508D02*
X8093515Y-9931984D01*
X8093515Y-9931984D02*
X8141134Y-9931984D01*
X8141134Y-9931984D02*
X8160182Y-9941508D01*
X8160182Y-9941508D02*
X8169706Y-9951031D01*
X8169706Y-9951031D02*
X8179230Y-9970079D01*
X8179230Y-9970079D02*
X8179230Y-9989127D01*
X8179230Y-9989127D02*
X8169706Y-10017698D01*
X8169706Y-10017698D02*
X8055420Y-10131984D01*
X8055420Y-10131984D02*
X8179230Y-10131984D01*
X8407801Y-10122460D02*
X8426849Y-10131984D01*
X8426849Y-10131984D02*
X8464944Y-10131984D01*
X8464944Y-10131984D02*
X8483992Y-10122460D01*
X8483992Y-10122460D02*
X8493516Y-10103412D01*
X8493516Y-10103412D02*
X8493516Y-10093889D01*
X8493516Y-10093889D02*
X8483992Y-10074841D01*
X8483992Y-10074841D02*
X8464944Y-10065317D01*
X8464944Y-10065317D02*
X8436373Y-10065317D01*
X8436373Y-10065317D02*
X8417325Y-10055793D01*
X8417325Y-10055793D02*
X8407801Y-10036746D01*
X8407801Y-10036746D02*
X8407801Y-10027222D01*
X8407801Y-10027222D02*
X8417325Y-10008174D01*
X8417325Y-10008174D02*
X8436373Y-9998650D01*
X8436373Y-9998650D02*
X8464944Y-9998650D01*
X8464944Y-9998650D02*
X8483992Y-10008174D01*
X8607801Y-10131984D02*
X8588754Y-10122460D01*
X8588754Y-10122460D02*
X8579230Y-10103412D01*
X8579230Y-10103412D02*
X8579230Y-9931984D01*
X8712563Y-10131984D02*
X8693516Y-10122460D01*
X8693516Y-10122460D02*
X8683992Y-10112936D01*
X8683992Y-10112936D02*
X8674468Y-10093889D01*
X8674468Y-10093889D02*
X8674468Y-10036746D01*
X8674468Y-10036746D02*
X8683992Y-10017698D01*
X8683992Y-10017698D02*
X8693516Y-10008174D01*
X8693516Y-10008174D02*
X8712563Y-9998650D01*
X8712563Y-9998650D02*
X8741135Y-9998650D01*
X8741135Y-9998650D02*
X8760182Y-10008174D01*
X8760182Y-10008174D02*
X8769706Y-10017698D01*
X8769706Y-10017698D02*
X8779230Y-10036746D01*
X8779230Y-10036746D02*
X8779230Y-10093889D01*
X8779230Y-10093889D02*
X8769706Y-10112936D01*
X8769706Y-10112936D02*
X8760182Y-10122460D01*
X8760182Y-10122460D02*
X8741135Y-10131984D01*
X8741135Y-10131984D02*
X8712563Y-10131984D01*
X8836373Y-9998650D02*
X8912563Y-9998650D01*
X8864944Y-9931984D02*
X8864944Y-10103412D01*
X8864944Y-10103412D02*
X8874468Y-10122460D01*
X8874468Y-10122460D02*
X8893516Y-10131984D01*
X8893516Y-10131984D02*
X8912563Y-10131984D01*
X8969706Y-10122460D02*
X8988754Y-10131984D01*
X8988754Y-10131984D02*
X9026849Y-10131984D01*
X9026849Y-10131984D02*
X9045897Y-10122460D01*
X9045897Y-10122460D02*
X9055420Y-10103412D01*
X9055420Y-10103412D02*
X9055420Y-10093889D01*
X9055420Y-10093889D02*
X9045897Y-10074841D01*
X9045897Y-10074841D02*
X9026849Y-10065317D01*
X9026849Y-10065317D02*
X8998277Y-10065317D01*
X8998277Y-10065317D02*
X8979230Y-10055793D01*
X8979230Y-10055793D02*
X8969706Y-10036746D01*
X8969706Y-10036746D02*
X8969706Y-10027222D01*
X8969706Y-10027222D02*
X8979230Y-10008174D01*
X8979230Y-10008174D02*
X8998277Y-9998650D01*
X8998277Y-9998650D02*
X9026849Y-9998650D01*
X9026849Y-9998650D02*
X9045897Y-10008174D01*
X9122087Y-10208174D02*
X9131611Y-10198650D01*
X9131611Y-10198650D02*
X9150658Y-10170079D01*
X9150658Y-10170079D02*
X9160182Y-10151031D01*
X9160182Y-10151031D02*
X9169706Y-10122460D01*
X9169706Y-10122460D02*
X9179230Y-10074841D01*
X9179230Y-10074841D02*
X9179230Y-10036746D01*
X9179230Y-10036746D02*
X9169706Y-9989127D01*
X9169706Y-9989127D02*
X9160182Y-9960555D01*
X9160182Y-9960555D02*
X9150658Y-9941508D01*
X9150658Y-9941508D02*
X9131611Y-9912936D01*
X9131611Y-9912936D02*
X9122087Y-9903412D01*
D12*
X2537500Y-10304500D02*
G75*
G02*
X2440980Y-10304500I-48260J0D01*
G01*
X2440980Y-10304500D02*
G75*
G02*
X2537500Y-10304500I48260J0D01*
G01*
D11*
X2836372Y-10195984D02*
X2855420Y-10195984D01*
X2855420Y-10195984D02*
X2874467Y-10205508D01*
X2874467Y-10205508D02*
X2883991Y-10215031D01*
X2883991Y-10215031D02*
X2893515Y-10234079D01*
X2893515Y-10234079D02*
X2903039Y-10272174D01*
X2903039Y-10272174D02*
X2903039Y-10319793D01*
X2903039Y-10319793D02*
X2893515Y-10357889D01*
X2893515Y-10357889D02*
X2883991Y-10376936D01*
X2883991Y-10376936D02*
X2874467Y-10386460D01*
X2874467Y-10386460D02*
X2855420Y-10395984D01*
X2855420Y-10395984D02*
X2836372Y-10395984D01*
X2836372Y-10395984D02*
X2817324Y-10386460D01*
X2817324Y-10386460D02*
X2807801Y-10376936D01*
X2807801Y-10376936D02*
X2798277Y-10357889D01*
X2798277Y-10357889D02*
X2788753Y-10319793D01*
X2788753Y-10319793D02*
X2788753Y-10272174D01*
X2788753Y-10272174D02*
X2798277Y-10234079D01*
X2798277Y-10234079D02*
X2807801Y-10215031D01*
X2807801Y-10215031D02*
X2817324Y-10205508D01*
X2817324Y-10205508D02*
X2836372Y-10195984D01*
X2988753Y-10376936D02*
X2998277Y-10386460D01*
X2998277Y-10386460D02*
X2988753Y-10395984D01*
X2988753Y-10395984D02*
X2979229Y-10386460D01*
X2979229Y-10386460D02*
X2988753Y-10376936D01*
X2988753Y-10376936D02*
X2988753Y-10395984D01*
X3093515Y-10395984D02*
X3131610Y-10395984D01*
X3131610Y-10395984D02*
X3150658Y-10386460D01*
X3150658Y-10386460D02*
X3160182Y-10376936D01*
X3160182Y-10376936D02*
X3179229Y-10348365D01*
X3179229Y-10348365D02*
X3188753Y-10310270D01*
X3188753Y-10310270D02*
X3188753Y-10234079D01*
X3188753Y-10234079D02*
X3179229Y-10215031D01*
X3179229Y-10215031D02*
X3169705Y-10205508D01*
X3169705Y-10205508D02*
X3150658Y-10195984D01*
X3150658Y-10195984D02*
X3112562Y-10195984D01*
X3112562Y-10195984D02*
X3093515Y-10205508D01*
X3093515Y-10205508D02*
X3083991Y-10215031D01*
X3083991Y-10215031D02*
X3074467Y-10234079D01*
X3074467Y-10234079D02*
X3074467Y-10281698D01*
X3074467Y-10281698D02*
X3083991Y-10300746D01*
X3083991Y-10300746D02*
X3093515Y-10310270D01*
X3093515Y-10310270D02*
X3112562Y-10319793D01*
X3112562Y-10319793D02*
X3150658Y-10319793D01*
X3150658Y-10319793D02*
X3169705Y-10310270D01*
X3169705Y-10310270D02*
X3179229Y-10300746D01*
X3179229Y-10300746D02*
X3188753Y-10281698D01*
X3360182Y-10195984D02*
X3322086Y-10195984D01*
X3322086Y-10195984D02*
X3303039Y-10205508D01*
X3303039Y-10205508D02*
X3293515Y-10215031D01*
X3293515Y-10215031D02*
X3274467Y-10243603D01*
X3274467Y-10243603D02*
X3264943Y-10281698D01*
X3264943Y-10281698D02*
X3264943Y-10357889D01*
X3264943Y-10357889D02*
X3274467Y-10376936D01*
X3274467Y-10376936D02*
X3283991Y-10386460D01*
X3283991Y-10386460D02*
X3303039Y-10395984D01*
X3303039Y-10395984D02*
X3341134Y-10395984D01*
X3341134Y-10395984D02*
X3360182Y-10386460D01*
X3360182Y-10386460D02*
X3369705Y-10376936D01*
X3369705Y-10376936D02*
X3379229Y-10357889D01*
X3379229Y-10357889D02*
X3379229Y-10310270D01*
X3379229Y-10310270D02*
X3369705Y-10291222D01*
X3369705Y-10291222D02*
X3360182Y-10281698D01*
X3360182Y-10281698D02*
X3341134Y-10272174D01*
X3341134Y-10272174D02*
X3303039Y-10272174D01*
X3303039Y-10272174D02*
X3283991Y-10281698D01*
X3283991Y-10281698D02*
X3274467Y-10291222D01*
X3274467Y-10291222D02*
X3264943Y-10310270D01*
X3560182Y-10195984D02*
X3464943Y-10195984D01*
X3464943Y-10195984D02*
X3455420Y-10291222D01*
X3455420Y-10291222D02*
X3464943Y-10281698D01*
X3464943Y-10281698D02*
X3483991Y-10272174D01*
X3483991Y-10272174D02*
X3531610Y-10272174D01*
X3531610Y-10272174D02*
X3550658Y-10281698D01*
X3550658Y-10281698D02*
X3560182Y-10291222D01*
X3560182Y-10291222D02*
X3569705Y-10310270D01*
X3569705Y-10310270D02*
X3569705Y-10357889D01*
X3569705Y-10357889D02*
X3560182Y-10376936D01*
X3560182Y-10376936D02*
X3550658Y-10386460D01*
X3550658Y-10386460D02*
X3531610Y-10395984D01*
X3531610Y-10395984D02*
X3483991Y-10395984D01*
X3483991Y-10395984D02*
X3464943Y-10386460D01*
X3464943Y-10386460D02*
X3455420Y-10376936D01*
X3655420Y-10395984D02*
X3655420Y-10262650D01*
X3655420Y-10281698D02*
X3664943Y-10272174D01*
X3664943Y-10272174D02*
X3683991Y-10262650D01*
X3683991Y-10262650D02*
X3712563Y-10262650D01*
X3712563Y-10262650D02*
X3731610Y-10272174D01*
X3731610Y-10272174D02*
X3741134Y-10291222D01*
X3741134Y-10291222D02*
X3741134Y-10395984D01*
X3741134Y-10291222D02*
X3750658Y-10272174D01*
X3750658Y-10272174D02*
X3769705Y-10262650D01*
X3769705Y-10262650D02*
X3798277Y-10262650D01*
X3798277Y-10262650D02*
X3817324Y-10272174D01*
X3817324Y-10272174D02*
X3826848Y-10291222D01*
X3826848Y-10291222D02*
X3826848Y-10395984D01*
X3922086Y-10395984D02*
X3922086Y-10262650D01*
X3922086Y-10281698D02*
X3931610Y-10272174D01*
X3931610Y-10272174D02*
X3950658Y-10262650D01*
X3950658Y-10262650D02*
X3979229Y-10262650D01*
X3979229Y-10262650D02*
X3998277Y-10272174D01*
X3998277Y-10272174D02*
X4007801Y-10291222D01*
X4007801Y-10291222D02*
X4007801Y-10395984D01*
X4007801Y-10291222D02*
X4017324Y-10272174D01*
X4017324Y-10272174D02*
X4036372Y-10262650D01*
X4036372Y-10262650D02*
X4064943Y-10262650D01*
X4064943Y-10262650D02*
X4083991Y-10272174D01*
X4083991Y-10272174D02*
X4093515Y-10291222D01*
X4093515Y-10291222D02*
X4093515Y-10395984D01*
X4483991Y-10186460D02*
X4312563Y-10443603D01*
X4741134Y-10195984D02*
X4760182Y-10195984D01*
X4760182Y-10195984D02*
X4779229Y-10205508D01*
X4779229Y-10205508D02*
X4788753Y-10215031D01*
X4788753Y-10215031D02*
X4798277Y-10234079D01*
X4798277Y-10234079D02*
X4807801Y-10272174D01*
X4807801Y-10272174D02*
X4807801Y-10319793D01*
X4807801Y-10319793D02*
X4798277Y-10357889D01*
X4798277Y-10357889D02*
X4788753Y-10376936D01*
X4788753Y-10376936D02*
X4779229Y-10386460D01*
X4779229Y-10386460D02*
X4760182Y-10395984D01*
X4760182Y-10395984D02*
X4741134Y-10395984D01*
X4741134Y-10395984D02*
X4722087Y-10386460D01*
X4722087Y-10386460D02*
X4712563Y-10376936D01*
X4712563Y-10376936D02*
X4703039Y-10357889D01*
X4703039Y-10357889D02*
X4693515Y-10319793D01*
X4693515Y-10319793D02*
X4693515Y-10272174D01*
X4693515Y-10272174D02*
X4703039Y-10234079D01*
X4703039Y-10234079D02*
X4712563Y-10215031D01*
X4712563Y-10215031D02*
X4722087Y-10205508D01*
X4722087Y-10205508D02*
X4741134Y-10195984D01*
X4893515Y-10376936D02*
X4903039Y-10386460D01*
X4903039Y-10386460D02*
X4893515Y-10395984D01*
X4893515Y-10395984D02*
X4883991Y-10386460D01*
X4883991Y-10386460D02*
X4893515Y-10376936D01*
X4893515Y-10376936D02*
X4893515Y-10395984D01*
X5026848Y-10195984D02*
X5045896Y-10195984D01*
X5045896Y-10195984D02*
X5064944Y-10205508D01*
X5064944Y-10205508D02*
X5074468Y-10215031D01*
X5074468Y-10215031D02*
X5083991Y-10234079D01*
X5083991Y-10234079D02*
X5093515Y-10272174D01*
X5093515Y-10272174D02*
X5093515Y-10319793D01*
X5093515Y-10319793D02*
X5083991Y-10357889D01*
X5083991Y-10357889D02*
X5074468Y-10376936D01*
X5074468Y-10376936D02*
X5064944Y-10386460D01*
X5064944Y-10386460D02*
X5045896Y-10395984D01*
X5045896Y-10395984D02*
X5026848Y-10395984D01*
X5026848Y-10395984D02*
X5007801Y-10386460D01*
X5007801Y-10386460D02*
X4998277Y-10376936D01*
X4998277Y-10376936D02*
X4988753Y-10357889D01*
X4988753Y-10357889D02*
X4979229Y-10319793D01*
X4979229Y-10319793D02*
X4979229Y-10272174D01*
X4979229Y-10272174D02*
X4988753Y-10234079D01*
X4988753Y-10234079D02*
X4998277Y-10215031D01*
X4998277Y-10215031D02*
X5007801Y-10205508D01*
X5007801Y-10205508D02*
X5026848Y-10195984D01*
X5160182Y-10195984D02*
X5283991Y-10195984D01*
X5283991Y-10195984D02*
X5217325Y-10272174D01*
X5217325Y-10272174D02*
X5245896Y-10272174D01*
X5245896Y-10272174D02*
X5264944Y-10281698D01*
X5264944Y-10281698D02*
X5274468Y-10291222D01*
X5274468Y-10291222D02*
X5283991Y-10310270D01*
X5283991Y-10310270D02*
X5283991Y-10357889D01*
X5283991Y-10357889D02*
X5274468Y-10376936D01*
X5274468Y-10376936D02*
X5264944Y-10386460D01*
X5264944Y-10386460D02*
X5245896Y-10395984D01*
X5245896Y-10395984D02*
X5188753Y-10395984D01*
X5188753Y-10395984D02*
X5169706Y-10386460D01*
X5169706Y-10386460D02*
X5160182Y-10376936D01*
X5398277Y-10281698D02*
X5379229Y-10272174D01*
X5379229Y-10272174D02*
X5369706Y-10262650D01*
X5369706Y-10262650D02*
X5360182Y-10243603D01*
X5360182Y-10243603D02*
X5360182Y-10234079D01*
X5360182Y-10234079D02*
X5369706Y-10215031D01*
X5369706Y-10215031D02*
X5379229Y-10205508D01*
X5379229Y-10205508D02*
X5398277Y-10195984D01*
X5398277Y-10195984D02*
X5436372Y-10195984D01*
X5436372Y-10195984D02*
X5455420Y-10205508D01*
X5455420Y-10205508D02*
X5464944Y-10215031D01*
X5464944Y-10215031D02*
X5474468Y-10234079D01*
X5474468Y-10234079D02*
X5474468Y-10243603D01*
X5474468Y-10243603D02*
X5464944Y-10262650D01*
X5464944Y-10262650D02*
X5455420Y-10272174D01*
X5455420Y-10272174D02*
X5436372Y-10281698D01*
X5436372Y-10281698D02*
X5398277Y-10281698D01*
X5398277Y-10281698D02*
X5379229Y-10291222D01*
X5379229Y-10291222D02*
X5369706Y-10300746D01*
X5369706Y-10300746D02*
X5360182Y-10319793D01*
X5360182Y-10319793D02*
X5360182Y-10357889D01*
X5360182Y-10357889D02*
X5369706Y-10376936D01*
X5369706Y-10376936D02*
X5379229Y-10386460D01*
X5379229Y-10386460D02*
X5398277Y-10395984D01*
X5398277Y-10395984D02*
X5436372Y-10395984D01*
X5436372Y-10395984D02*
X5455420Y-10386460D01*
X5455420Y-10386460D02*
X5464944Y-10376936D01*
X5464944Y-10376936D02*
X5474468Y-10357889D01*
X5474468Y-10357889D02*
X5474468Y-10319793D01*
X5474468Y-10319793D02*
X5464944Y-10300746D01*
X5464944Y-10300746D02*
X5455420Y-10291222D01*
X5455420Y-10291222D02*
X5436372Y-10281698D01*
X5598277Y-10195984D02*
X5617325Y-10195984D01*
X5617325Y-10195984D02*
X5636372Y-10205508D01*
X5636372Y-10205508D02*
X5645896Y-10215031D01*
X5645896Y-10215031D02*
X5655420Y-10234079D01*
X5655420Y-10234079D02*
X5664944Y-10272174D01*
X5664944Y-10272174D02*
X5664944Y-10319793D01*
X5664944Y-10319793D02*
X5655420Y-10357889D01*
X5655420Y-10357889D02*
X5645896Y-10376936D01*
X5645896Y-10376936D02*
X5636372Y-10386460D01*
X5636372Y-10386460D02*
X5617325Y-10395984D01*
X5617325Y-10395984D02*
X5598277Y-10395984D01*
X5598277Y-10395984D02*
X5579229Y-10386460D01*
X5579229Y-10386460D02*
X5569706Y-10376936D01*
X5569706Y-10376936D02*
X5560182Y-10357889D01*
X5560182Y-10357889D02*
X5550658Y-10319793D01*
X5550658Y-10319793D02*
X5550658Y-10272174D01*
X5550658Y-10272174D02*
X5560182Y-10234079D01*
X5560182Y-10234079D02*
X5569706Y-10215031D01*
X5569706Y-10215031D02*
X5579229Y-10205508D01*
X5579229Y-10205508D02*
X5598277Y-10195984D01*
X5741134Y-10195984D02*
X5741134Y-10234079D01*
X5817325Y-10195984D02*
X5817325Y-10234079D01*
X6112563Y-10472174D02*
X6103039Y-10462650D01*
X6103039Y-10462650D02*
X6083991Y-10434079D01*
X6083991Y-10434079D02*
X6074468Y-10415031D01*
X6074468Y-10415031D02*
X6064944Y-10386460D01*
X6064944Y-10386460D02*
X6055420Y-10338841D01*
X6055420Y-10338841D02*
X6055420Y-10300746D01*
X6055420Y-10300746D02*
X6064944Y-10253127D01*
X6064944Y-10253127D02*
X6074468Y-10224555D01*
X6074468Y-10224555D02*
X6083991Y-10205508D01*
X6083991Y-10205508D02*
X6103039Y-10176936D01*
X6103039Y-10176936D02*
X6112563Y-10167412D01*
X6179229Y-10215031D02*
X6188753Y-10205508D01*
X6188753Y-10205508D02*
X6207801Y-10195984D01*
X6207801Y-10195984D02*
X6255420Y-10195984D01*
X6255420Y-10195984D02*
X6274468Y-10205508D01*
X6274468Y-10205508D02*
X6283991Y-10215031D01*
X6283991Y-10215031D02*
X6293515Y-10234079D01*
X6293515Y-10234079D02*
X6293515Y-10253127D01*
X6293515Y-10253127D02*
X6283991Y-10281698D01*
X6283991Y-10281698D02*
X6169706Y-10395984D01*
X6169706Y-10395984D02*
X6293515Y-10395984D01*
X6531610Y-10395984D02*
X6531610Y-10195984D01*
X6617325Y-10395984D02*
X6617325Y-10291222D01*
X6617325Y-10291222D02*
X6607801Y-10272174D01*
X6607801Y-10272174D02*
X6588753Y-10262650D01*
X6588753Y-10262650D02*
X6560182Y-10262650D01*
X6560182Y-10262650D02*
X6541134Y-10272174D01*
X6541134Y-10272174D02*
X6531610Y-10281698D01*
X6741134Y-10395984D02*
X6722087Y-10386460D01*
X6722087Y-10386460D02*
X6712563Y-10376936D01*
X6712563Y-10376936D02*
X6703039Y-10357889D01*
X6703039Y-10357889D02*
X6703039Y-10300746D01*
X6703039Y-10300746D02*
X6712563Y-10281698D01*
X6712563Y-10281698D02*
X6722087Y-10272174D01*
X6722087Y-10272174D02*
X6741134Y-10262650D01*
X6741134Y-10262650D02*
X6769706Y-10262650D01*
X6769706Y-10262650D02*
X6788753Y-10272174D01*
X6788753Y-10272174D02*
X6798277Y-10281698D01*
X6798277Y-10281698D02*
X6807801Y-10300746D01*
X6807801Y-10300746D02*
X6807801Y-10357889D01*
X6807801Y-10357889D02*
X6798277Y-10376936D01*
X6798277Y-10376936D02*
X6788753Y-10386460D01*
X6788753Y-10386460D02*
X6769706Y-10395984D01*
X6769706Y-10395984D02*
X6741134Y-10395984D01*
X6922087Y-10395984D02*
X6903039Y-10386460D01*
X6903039Y-10386460D02*
X6893515Y-10367412D01*
X6893515Y-10367412D02*
X6893515Y-10195984D01*
X7074468Y-10386460D02*
X7055420Y-10395984D01*
X7055420Y-10395984D02*
X7017325Y-10395984D01*
X7017325Y-10395984D02*
X6998277Y-10386460D01*
X6998277Y-10386460D02*
X6988753Y-10367412D01*
X6988753Y-10367412D02*
X6988753Y-10291222D01*
X6988753Y-10291222D02*
X6998277Y-10272174D01*
X6998277Y-10272174D02*
X7017325Y-10262650D01*
X7017325Y-10262650D02*
X7055420Y-10262650D01*
X7055420Y-10262650D02*
X7074468Y-10272174D01*
X7074468Y-10272174D02*
X7083991Y-10291222D01*
X7083991Y-10291222D02*
X7083991Y-10310270D01*
X7083991Y-10310270D02*
X6988753Y-10329317D01*
X7160182Y-10386460D02*
X7179230Y-10395984D01*
X7179230Y-10395984D02*
X7217325Y-10395984D01*
X7217325Y-10395984D02*
X7236372Y-10386460D01*
X7236372Y-10386460D02*
X7245896Y-10367412D01*
X7245896Y-10367412D02*
X7245896Y-10357889D01*
X7245896Y-10357889D02*
X7236372Y-10338841D01*
X7236372Y-10338841D02*
X7217325Y-10329317D01*
X7217325Y-10329317D02*
X7188753Y-10329317D01*
X7188753Y-10329317D02*
X7169706Y-10319793D01*
X7169706Y-10319793D02*
X7160182Y-10300746D01*
X7160182Y-10300746D02*
X7160182Y-10291222D01*
X7160182Y-10291222D02*
X7169706Y-10272174D01*
X7169706Y-10272174D02*
X7188753Y-10262650D01*
X7188753Y-10262650D02*
X7217325Y-10262650D01*
X7217325Y-10262650D02*
X7236372Y-10272174D01*
X7312563Y-10472174D02*
X7322087Y-10462650D01*
X7322087Y-10462650D02*
X7341134Y-10434079D01*
X7341134Y-10434079D02*
X7350658Y-10415031D01*
X7350658Y-10415031D02*
X7360182Y-10386460D01*
X7360182Y-10386460D02*
X7369706Y-10338841D01*
X7369706Y-10338841D02*
X7369706Y-10300746D01*
X7369706Y-10300746D02*
X7360182Y-10253127D01*
X7360182Y-10253127D02*
X7350658Y-10224555D01*
X7350658Y-10224555D02*
X7341134Y-10205508D01*
X7341134Y-10205508D02*
X7322087Y-10176936D01*
X7322087Y-10176936D02*
X7312563Y-10167412D01*
D13*
X2486700Y-10517700D02*
X2486700Y-10619300D01*
X2435900Y-10568500D02*
X2537500Y-10568500D01*
D11*
X2903039Y-10659984D02*
X2788753Y-10659984D01*
X2845896Y-10659984D02*
X2845896Y-10459984D01*
X2845896Y-10459984D02*
X2826848Y-10488555D01*
X2826848Y-10488555D02*
X2807801Y-10507603D01*
X2807801Y-10507603D02*
X2788753Y-10517127D01*
X2988753Y-10640936D02*
X2998277Y-10650460D01*
X2998277Y-10650460D02*
X2988753Y-10659984D01*
X2988753Y-10659984D02*
X2979229Y-10650460D01*
X2979229Y-10650460D02*
X2988753Y-10640936D01*
X2988753Y-10640936D02*
X2988753Y-10659984D01*
X3122086Y-10459984D02*
X3141134Y-10459984D01*
X3141134Y-10459984D02*
X3160182Y-10469508D01*
X3160182Y-10469508D02*
X3169705Y-10479031D01*
X3169705Y-10479031D02*
X3179229Y-10498079D01*
X3179229Y-10498079D02*
X3188753Y-10536174D01*
X3188753Y-10536174D02*
X3188753Y-10583793D01*
X3188753Y-10583793D02*
X3179229Y-10621889D01*
X3179229Y-10621889D02*
X3169705Y-10640936D01*
X3169705Y-10640936D02*
X3160182Y-10650460D01*
X3160182Y-10650460D02*
X3141134Y-10659984D01*
X3141134Y-10659984D02*
X3122086Y-10659984D01*
X3122086Y-10659984D02*
X3103039Y-10650460D01*
X3103039Y-10650460D02*
X3093515Y-10640936D01*
X3093515Y-10640936D02*
X3083991Y-10621889D01*
X3083991Y-10621889D02*
X3074467Y-10583793D01*
X3074467Y-10583793D02*
X3074467Y-10536174D01*
X3074467Y-10536174D02*
X3083991Y-10498079D01*
X3083991Y-10498079D02*
X3093515Y-10479031D01*
X3093515Y-10479031D02*
X3103039Y-10469508D01*
X3103039Y-10469508D02*
X3122086Y-10459984D01*
X3379229Y-10659984D02*
X3264943Y-10659984D01*
X3322086Y-10659984D02*
X3322086Y-10459984D01*
X3322086Y-10459984D02*
X3303039Y-10488555D01*
X3303039Y-10488555D02*
X3283991Y-10507603D01*
X3283991Y-10507603D02*
X3264943Y-10517127D01*
X3550658Y-10459984D02*
X3512562Y-10459984D01*
X3512562Y-10459984D02*
X3493515Y-10469508D01*
X3493515Y-10469508D02*
X3483991Y-10479031D01*
X3483991Y-10479031D02*
X3464943Y-10507603D01*
X3464943Y-10507603D02*
X3455420Y-10545698D01*
X3455420Y-10545698D02*
X3455420Y-10621889D01*
X3455420Y-10621889D02*
X3464943Y-10640936D01*
X3464943Y-10640936D02*
X3474467Y-10650460D01*
X3474467Y-10650460D02*
X3493515Y-10659984D01*
X3493515Y-10659984D02*
X3531610Y-10659984D01*
X3531610Y-10659984D02*
X3550658Y-10650460D01*
X3550658Y-10650460D02*
X3560182Y-10640936D01*
X3560182Y-10640936D02*
X3569705Y-10621889D01*
X3569705Y-10621889D02*
X3569705Y-10574270D01*
X3569705Y-10574270D02*
X3560182Y-10555222D01*
X3560182Y-10555222D02*
X3550658Y-10545698D01*
X3550658Y-10545698D02*
X3531610Y-10536174D01*
X3531610Y-10536174D02*
X3493515Y-10536174D01*
X3493515Y-10536174D02*
X3474467Y-10545698D01*
X3474467Y-10545698D02*
X3464943Y-10555222D01*
X3464943Y-10555222D02*
X3455420Y-10574270D01*
X3655420Y-10659984D02*
X3655420Y-10526650D01*
X3655420Y-10545698D02*
X3664943Y-10536174D01*
X3664943Y-10536174D02*
X3683991Y-10526650D01*
X3683991Y-10526650D02*
X3712563Y-10526650D01*
X3712563Y-10526650D02*
X3731610Y-10536174D01*
X3731610Y-10536174D02*
X3741134Y-10555222D01*
X3741134Y-10555222D02*
X3741134Y-10659984D01*
X3741134Y-10555222D02*
X3750658Y-10536174D01*
X3750658Y-10536174D02*
X3769705Y-10526650D01*
X3769705Y-10526650D02*
X3798277Y-10526650D01*
X3798277Y-10526650D02*
X3817324Y-10536174D01*
X3817324Y-10536174D02*
X3826848Y-10555222D01*
X3826848Y-10555222D02*
X3826848Y-10659984D01*
X3922086Y-10659984D02*
X3922086Y-10526650D01*
X3922086Y-10545698D02*
X3931610Y-10536174D01*
X3931610Y-10536174D02*
X3950658Y-10526650D01*
X3950658Y-10526650D02*
X3979229Y-10526650D01*
X3979229Y-10526650D02*
X3998277Y-10536174D01*
X3998277Y-10536174D02*
X4007801Y-10555222D01*
X4007801Y-10555222D02*
X4007801Y-10659984D01*
X4007801Y-10555222D02*
X4017324Y-10536174D01*
X4017324Y-10536174D02*
X4036372Y-10526650D01*
X4036372Y-10526650D02*
X4064943Y-10526650D01*
X4064943Y-10526650D02*
X4083991Y-10536174D01*
X4083991Y-10536174D02*
X4093515Y-10555222D01*
X4093515Y-10555222D02*
X4093515Y-10659984D01*
X4483991Y-10450460D02*
X4312563Y-10707603D01*
X4741134Y-10459984D02*
X4760182Y-10459984D01*
X4760182Y-10459984D02*
X4779229Y-10469508D01*
X4779229Y-10469508D02*
X4788753Y-10479031D01*
X4788753Y-10479031D02*
X4798277Y-10498079D01*
X4798277Y-10498079D02*
X4807801Y-10536174D01*
X4807801Y-10536174D02*
X4807801Y-10583793D01*
X4807801Y-10583793D02*
X4798277Y-10621889D01*
X4798277Y-10621889D02*
X4788753Y-10640936D01*
X4788753Y-10640936D02*
X4779229Y-10650460D01*
X4779229Y-10650460D02*
X4760182Y-10659984D01*
X4760182Y-10659984D02*
X4741134Y-10659984D01*
X4741134Y-10659984D02*
X4722087Y-10650460D01*
X4722087Y-10650460D02*
X4712563Y-10640936D01*
X4712563Y-10640936D02*
X4703039Y-10621889D01*
X4703039Y-10621889D02*
X4693515Y-10583793D01*
X4693515Y-10583793D02*
X4693515Y-10536174D01*
X4693515Y-10536174D02*
X4703039Y-10498079D01*
X4703039Y-10498079D02*
X4712563Y-10479031D01*
X4712563Y-10479031D02*
X4722087Y-10469508D01*
X4722087Y-10469508D02*
X4741134Y-10459984D01*
X4893515Y-10640936D02*
X4903039Y-10650460D01*
X4903039Y-10650460D02*
X4893515Y-10659984D01*
X4893515Y-10659984D02*
X4883991Y-10650460D01*
X4883991Y-10650460D02*
X4893515Y-10640936D01*
X4893515Y-10640936D02*
X4893515Y-10659984D01*
X5026848Y-10459984D02*
X5045896Y-10459984D01*
X5045896Y-10459984D02*
X5064944Y-10469508D01*
X5064944Y-10469508D02*
X5074468Y-10479031D01*
X5074468Y-10479031D02*
X5083991Y-10498079D01*
X5083991Y-10498079D02*
X5093515Y-10536174D01*
X5093515Y-10536174D02*
X5093515Y-10583793D01*
X5093515Y-10583793D02*
X5083991Y-10621889D01*
X5083991Y-10621889D02*
X5074468Y-10640936D01*
X5074468Y-10640936D02*
X5064944Y-10650460D01*
X5064944Y-10650460D02*
X5045896Y-10659984D01*
X5045896Y-10659984D02*
X5026848Y-10659984D01*
X5026848Y-10659984D02*
X5007801Y-10650460D01*
X5007801Y-10650460D02*
X4998277Y-10640936D01*
X4998277Y-10640936D02*
X4988753Y-10621889D01*
X4988753Y-10621889D02*
X4979229Y-10583793D01*
X4979229Y-10583793D02*
X4979229Y-10536174D01*
X4979229Y-10536174D02*
X4988753Y-10498079D01*
X4988753Y-10498079D02*
X4998277Y-10479031D01*
X4998277Y-10479031D02*
X5007801Y-10469508D01*
X5007801Y-10469508D02*
X5026848Y-10459984D01*
X5264944Y-10526650D02*
X5264944Y-10659984D01*
X5217325Y-10450460D02*
X5169706Y-10593317D01*
X5169706Y-10593317D02*
X5293515Y-10593317D01*
X5407801Y-10459984D02*
X5426849Y-10459984D01*
X5426849Y-10459984D02*
X5445896Y-10469508D01*
X5445896Y-10469508D02*
X5455420Y-10479031D01*
X5455420Y-10479031D02*
X5464944Y-10498079D01*
X5464944Y-10498079D02*
X5474468Y-10536174D01*
X5474468Y-10536174D02*
X5474468Y-10583793D01*
X5474468Y-10583793D02*
X5464944Y-10621889D01*
X5464944Y-10621889D02*
X5455420Y-10640936D01*
X5455420Y-10640936D02*
X5445896Y-10650460D01*
X5445896Y-10650460D02*
X5426849Y-10659984D01*
X5426849Y-10659984D02*
X5407801Y-10659984D01*
X5407801Y-10659984D02*
X5388753Y-10650460D01*
X5388753Y-10650460D02*
X5379229Y-10640936D01*
X5379229Y-10640936D02*
X5369706Y-10621889D01*
X5369706Y-10621889D02*
X5360182Y-10583793D01*
X5360182Y-10583793D02*
X5360182Y-10536174D01*
X5360182Y-10536174D02*
X5369706Y-10498079D01*
X5369706Y-10498079D02*
X5379229Y-10479031D01*
X5379229Y-10479031D02*
X5388753Y-10469508D01*
X5388753Y-10469508D02*
X5407801Y-10459984D01*
X5598277Y-10459984D02*
X5617325Y-10459984D01*
X5617325Y-10459984D02*
X5636372Y-10469508D01*
X5636372Y-10469508D02*
X5645896Y-10479031D01*
X5645896Y-10479031D02*
X5655420Y-10498079D01*
X5655420Y-10498079D02*
X5664944Y-10536174D01*
X5664944Y-10536174D02*
X5664944Y-10583793D01*
X5664944Y-10583793D02*
X5655420Y-10621889D01*
X5655420Y-10621889D02*
X5645896Y-10640936D01*
X5645896Y-10640936D02*
X5636372Y-10650460D01*
X5636372Y-10650460D02*
X5617325Y-10659984D01*
X5617325Y-10659984D02*
X5598277Y-10659984D01*
X5598277Y-10659984D02*
X5579229Y-10650460D01*
X5579229Y-10650460D02*
X5569706Y-10640936D01*
X5569706Y-10640936D02*
X5560182Y-10621889D01*
X5560182Y-10621889D02*
X5550658Y-10583793D01*
X5550658Y-10583793D02*
X5550658Y-10536174D01*
X5550658Y-10536174D02*
X5560182Y-10498079D01*
X5560182Y-10498079D02*
X5569706Y-10479031D01*
X5569706Y-10479031D02*
X5579229Y-10469508D01*
X5579229Y-10469508D02*
X5598277Y-10459984D01*
X5741134Y-10459984D02*
X5741134Y-10498079D01*
X5817325Y-10459984D02*
X5817325Y-10498079D01*
X6112563Y-10736174D02*
X6103039Y-10726650D01*
X6103039Y-10726650D02*
X6083991Y-10698079D01*
X6083991Y-10698079D02*
X6074468Y-10679031D01*
X6074468Y-10679031D02*
X6064944Y-10650460D01*
X6064944Y-10650460D02*
X6055420Y-10602841D01*
X6055420Y-10602841D02*
X6055420Y-10564746D01*
X6055420Y-10564746D02*
X6064944Y-10517127D01*
X6064944Y-10517127D02*
X6074468Y-10488555D01*
X6074468Y-10488555D02*
X6083991Y-10469508D01*
X6083991Y-10469508D02*
X6103039Y-10440936D01*
X6103039Y-10440936D02*
X6112563Y-10431412D01*
X6169706Y-10459984D02*
X6293515Y-10459984D01*
X6293515Y-10459984D02*
X6226848Y-10536174D01*
X6226848Y-10536174D02*
X6255420Y-10536174D01*
X6255420Y-10536174D02*
X6274468Y-10545698D01*
X6274468Y-10545698D02*
X6283991Y-10555222D01*
X6283991Y-10555222D02*
X6293515Y-10574270D01*
X6293515Y-10574270D02*
X6293515Y-10621889D01*
X6293515Y-10621889D02*
X6283991Y-10640936D01*
X6283991Y-10640936D02*
X6274468Y-10650460D01*
X6274468Y-10650460D02*
X6255420Y-10659984D01*
X6255420Y-10659984D02*
X6198277Y-10659984D01*
X6198277Y-10659984D02*
X6179229Y-10650460D01*
X6179229Y-10650460D02*
X6169706Y-10640936D01*
X6483991Y-10659984D02*
X6369706Y-10659984D01*
X6426848Y-10659984D02*
X6426848Y-10459984D01*
X6426848Y-10459984D02*
X6407801Y-10488555D01*
X6407801Y-10488555D02*
X6388753Y-10507603D01*
X6388753Y-10507603D02*
X6369706Y-10517127D01*
X6722087Y-10659984D02*
X6722087Y-10459984D01*
X6807801Y-10659984D02*
X6807801Y-10555222D01*
X6807801Y-10555222D02*
X6798277Y-10536174D01*
X6798277Y-10536174D02*
X6779230Y-10526650D01*
X6779230Y-10526650D02*
X6750658Y-10526650D01*
X6750658Y-10526650D02*
X6731610Y-10536174D01*
X6731610Y-10536174D02*
X6722087Y-10545698D01*
X6931610Y-10659984D02*
X6912563Y-10650460D01*
X6912563Y-10650460D02*
X6903039Y-10640936D01*
X6903039Y-10640936D02*
X6893515Y-10621889D01*
X6893515Y-10621889D02*
X6893515Y-10564746D01*
X6893515Y-10564746D02*
X6903039Y-10545698D01*
X6903039Y-10545698D02*
X6912563Y-10536174D01*
X6912563Y-10536174D02*
X6931610Y-10526650D01*
X6931610Y-10526650D02*
X6960182Y-10526650D01*
X6960182Y-10526650D02*
X6979230Y-10536174D01*
X6979230Y-10536174D02*
X6988753Y-10545698D01*
X6988753Y-10545698D02*
X6998277Y-10564746D01*
X6998277Y-10564746D02*
X6998277Y-10621889D01*
X6998277Y-10621889D02*
X6988753Y-10640936D01*
X6988753Y-10640936D02*
X6979230Y-10650460D01*
X6979230Y-10650460D02*
X6960182Y-10659984D01*
X6960182Y-10659984D02*
X6931610Y-10659984D01*
X7112563Y-10659984D02*
X7093515Y-10650460D01*
X7093515Y-10650460D02*
X7083991Y-10631412D01*
X7083991Y-10631412D02*
X7083991Y-10459984D01*
X7264944Y-10650460D02*
X7245896Y-10659984D01*
X7245896Y-10659984D02*
X7207801Y-10659984D01*
X7207801Y-10659984D02*
X7188753Y-10650460D01*
X7188753Y-10650460D02*
X7179230Y-10631412D01*
X7179230Y-10631412D02*
X7179230Y-10555222D01*
X7179230Y-10555222D02*
X7188753Y-10536174D01*
X7188753Y-10536174D02*
X7207801Y-10526650D01*
X7207801Y-10526650D02*
X7245896Y-10526650D01*
X7245896Y-10526650D02*
X7264944Y-10536174D01*
X7264944Y-10536174D02*
X7274468Y-10555222D01*
X7274468Y-10555222D02*
X7274468Y-10574270D01*
X7274468Y-10574270D02*
X7179230Y-10593317D01*
X7350658Y-10650460D02*
X7369706Y-10659984D01*
X7369706Y-10659984D02*
X7407801Y-10659984D01*
X7407801Y-10659984D02*
X7426849Y-10650460D01*
X7426849Y-10650460D02*
X7436372Y-10631412D01*
X7436372Y-10631412D02*
X7436372Y-10621889D01*
X7436372Y-10621889D02*
X7426849Y-10602841D01*
X7426849Y-10602841D02*
X7407801Y-10593317D01*
X7407801Y-10593317D02*
X7379230Y-10593317D01*
X7379230Y-10593317D02*
X7360182Y-10583793D01*
X7360182Y-10583793D02*
X7350658Y-10564746D01*
X7350658Y-10564746D02*
X7350658Y-10555222D01*
X7350658Y-10555222D02*
X7360182Y-10536174D01*
X7360182Y-10536174D02*
X7379230Y-10526650D01*
X7379230Y-10526650D02*
X7407801Y-10526650D01*
X7407801Y-10526650D02*
X7426849Y-10536174D01*
X7503039Y-10736174D02*
X7512563Y-10726650D01*
X7512563Y-10726650D02*
X7531611Y-10698079D01*
X7531611Y-10698079D02*
X7541134Y-10679031D01*
X7541134Y-10679031D02*
X7550658Y-10650460D01*
X7550658Y-10650460D02*
X7560182Y-10602841D01*
X7560182Y-10602841D02*
X7560182Y-10564746D01*
X7560182Y-10564746D02*
X7550658Y-10517127D01*
X7550658Y-10517127D02*
X7541134Y-10488555D01*
X7541134Y-10488555D02*
X7531611Y-10469508D01*
X7531611Y-10469508D02*
X7512563Y-10440936D01*
X7512563Y-10440936D02*
X7503039Y-10431412D01*
M02*
