%TF.GenerationSoftware,KiCad,Pcbnew,9.0.6*%
%TF.CreationDate,2026-03-13T15:36:19-07:00*%
%TF.ProjectId,20AL_Pendulum_Photogate,3230414c-5f50-4656-9e64-756c756d5f50,rev?*%
%TF.SameCoordinates,Original*%
%TF.FileFunction,Soldermask,Top*%
%TF.FilePolarity,Negative*%
%FSLAX46Y46*%
G04 Gerber Fmt 4.6, Leading zero omitted, Abs format (unit mm)*
G04 Created by KiCad (PCBNEW 9.0.6) date 2026-03-13 15:36:19*
%MOMM*%
%LPD*%
G01*
G04 APERTURE LIST*
G04 Aperture macros list*
%AMRoundRect*
0 Rectangle with rounded corners*
0 $1 Rounding radius*
0 $2 $3 $4 $5 $6 $7 $8 $9 X,Y pos of 4 corners*
0 Add a 4 corners polygon primitive as box body*
4,1,4,$2,$3,$4,$5,$6,$7,$8,$9,$2,$3,0*
0 Add four circle primitives for the rounded corners*
1,1,$1+$1,$2,$3*
1,1,$1+$1,$4,$5*
1,1,$1+$1,$6,$7*
1,1,$1+$1,$8,$9*
0 Add four rect primitives between the rounded corners*
20,1,$1+$1,$2,$3,$4,$5,0*
20,1,$1+$1,$4,$5,$6,$7,0*
20,1,$1+$1,$6,$7,$8,$9,0*
20,1,$1+$1,$8,$9,$2,$3,0*%
G04 Aperture macros list end*
%ADD10C,1.727200*%
%ADD11C,1.828800*%
%ADD12R,1.727200X1.727200*%
%ADD13RoundRect,0.250000X-0.664400X-1.020000X0.664400X-1.020000X0.664400X1.020000X-0.664400X1.020000X0*%
%ADD14RoundRect,0.294118X-0.721882X-0.975882X0.721882X-0.975882X0.721882X0.975882X-0.721882X0.975882X0*%
%ADD15O,1.905000X2.540000*%
%ADD16O,2.032000X2.540000*%
%ADD17RoundRect,0.250000X1.020000X-0.613600X1.020000X0.613600X-1.020000X0.613600X-1.020000X-0.613600X0*%
%ADD18O,2.540000X1.727200*%
%ADD19C,3.200000*%
%ADD20RoundRect,0.250000X0.613600X-1.020000X0.613600X1.020000X-0.613600X1.020000X-0.613600X-1.020000X0*%
%ADD21O,1.727200X2.540000*%
G04 APERTURE END LIST*
D10*
%TO.C,C5*%
X149098000Y-67310000D03*
X149098000Y-72310000D03*
%TD*%
%TO.C,R9*%
X36830000Y-34798000D03*
X26670000Y-34798000D03*
%TD*%
D11*
%TO.C,U1*%
X52070000Y-88900000D03*
X54610000Y-88900000D03*
X57150000Y-88900000D03*
X59690000Y-88900000D03*
X62230000Y-88900000D03*
X64770000Y-88900000D03*
X67310000Y-88900000D03*
X69850000Y-88900000D03*
X72390000Y-88900000D03*
X74930000Y-88900000D03*
X77470000Y-88900000D03*
X80010000Y-88900000D03*
X82550000Y-88900000D03*
X85090000Y-88900000D03*
X85090000Y-73660000D03*
X82550000Y-73660000D03*
X80010000Y-73660000D03*
X77470000Y-73660000D03*
X74930000Y-73660000D03*
X72390000Y-73660000D03*
X69850000Y-73660000D03*
X67310000Y-73660000D03*
X64770000Y-73660000D03*
X62230000Y-73660000D03*
X59690000Y-73660000D03*
X57150000Y-73660000D03*
X54610000Y-73660000D03*
X52070000Y-73660000D03*
%TD*%
D12*
%TO.C,D2*%
X143002000Y-74930000D03*
D10*
X143002000Y-67310000D03*
%TD*%
%TO.C,C9*%
X123738000Y-71628000D03*
X128738000Y-71628000D03*
%TD*%
%TO.C,C6*%
X148550000Y-52578000D03*
X143550000Y-52578000D03*
%TD*%
%TO.C,R19*%
X107188000Y-71628000D03*
X107188000Y-84328000D03*
%TD*%
D12*
%TO.C,Q8*%
X151130000Y-59690000D03*
D10*
X148590000Y-59690000D03*
X146050000Y-59690000D03*
%TD*%
%TO.C,R26*%
X140970000Y-64262000D03*
X148590000Y-64262000D03*
%TD*%
%TO.C,R7*%
X103886000Y-79756000D03*
X103886000Y-69596000D03*
%TD*%
%TO.C,R11*%
X140970000Y-40894000D03*
X148590000Y-40894000D03*
%TD*%
%TO.C,R15*%
X146050000Y-74930000D03*
X146050000Y-67310000D03*
%TD*%
D13*
%TO.C,SW2*%
X88546000Y-90678000D03*
X101446000Y-90678000D03*
D14*
X91996000Y-90678000D03*
D15*
X94996000Y-90678000D03*
D16*
X97996000Y-90678000D03*
%TD*%
D12*
%TO.C,Q3*%
X26670000Y-42778000D03*
D10*
X29210000Y-42778000D03*
X31750000Y-42778000D03*
%TD*%
%TO.C,C3*%
X40600000Y-71628000D03*
X35600000Y-71628000D03*
%TD*%
D17*
%TO.C,D1*%
X34885000Y-29215000D03*
D18*
X34885000Y-26675000D03*
%TD*%
D19*
%TO.C,REF\u002A\u002A*%
X148590000Y-29210000D03*
%TD*%
D10*
%TO.C,R18*%
X135636000Y-81534000D03*
X135636000Y-73914000D03*
%TD*%
D12*
%TO.C,Q5*%
X151130000Y-44704000D03*
D10*
X148590000Y-44704000D03*
X146050000Y-44704000D03*
%TD*%
D12*
%TO.C,Q1*%
X106172000Y-92964000D03*
D10*
X106172000Y-90424000D03*
X106172000Y-87884000D03*
%TD*%
%TO.C,R1*%
X113792000Y-77724000D03*
X113792000Y-85344000D03*
%TD*%
%TO.C,R16*%
X139044624Y-77216000D03*
X139044624Y-69596000D03*
%TD*%
%TO.C,R6*%
X36830000Y-55372000D03*
X29210000Y-55372000D03*
%TD*%
%TO.C,R10*%
X143510000Y-34544000D03*
X151130000Y-34544000D03*
%TD*%
%TO.C,R13*%
X140970000Y-49276000D03*
X148590000Y-49276000D03*
%TD*%
%TO.C,R4*%
X116840000Y-82296000D03*
X116840000Y-89916000D03*
%TD*%
D12*
%TO.C,Q4*%
X142915000Y-26665000D03*
D10*
X142915000Y-29205000D03*
%TD*%
%TO.C,R8*%
X36830000Y-46736000D03*
X29210000Y-46736000D03*
%TD*%
%TO.C,R5*%
X131318000Y-86868000D03*
X123698000Y-86868000D03*
%TD*%
%TO.C,C4*%
X143550000Y-37592000D03*
X148550000Y-37592000D03*
%TD*%
D19*
%TO.C,REF\u002A\u002A*%
X29210000Y-29210000D03*
%TD*%
D10*
%TO.C,R17*%
X143510000Y-77724000D03*
X151130000Y-77724000D03*
%TD*%
D19*
%TO.C,REF\u002A\u002A*%
X90932000Y-81280000D03*
%TD*%
D12*
%TO.C,Q7*%
X112268000Y-92964000D03*
D10*
X112268000Y-90424000D03*
X112268000Y-87884000D03*
%TD*%
%TO.C,R3*%
X120142000Y-85344000D03*
X120142000Y-92964000D03*
%TD*%
%TO.C,R24*%
X140970000Y-55880000D03*
X148590000Y-55880000D03*
%TD*%
D12*
%TO.C,D3*%
X99060000Y-82550000D03*
D10*
X99060000Y-80010000D03*
%TD*%
D20*
%TO.C,U2*%
X123698000Y-83566000D03*
D21*
X126238000Y-83566000D03*
X128778000Y-83566000D03*
X131318000Y-83566000D03*
X131318000Y-75946000D03*
X128778000Y-75946000D03*
X126238000Y-75946000D03*
X123698000Y-75946000D03*
%TD*%
D19*
%TO.C,REF\u002A\u002A*%
X147320000Y-88900000D03*
%TD*%
D10*
%TO.C,C2*%
X131318000Y-90170000D03*
X126318000Y-90170000D03*
%TD*%
D12*
%TO.C,Q2*%
X26670000Y-51414000D03*
D10*
X29210000Y-51414000D03*
X31750000Y-51414000D03*
%TD*%
%TO.C,C1*%
X29250000Y-38100000D03*
X34250000Y-38100000D03*
%TD*%
%TO.C,R2*%
X120142000Y-69596000D03*
X120142000Y-82296000D03*
%TD*%
D19*
%TO.C,REF\u002A\u002A*%
X33020000Y-90170000D03*
%TD*%
D10*
%TO.C,R20*%
X110490000Y-69596000D03*
X110490000Y-84836000D03*
%TD*%
M02*
