%TF.GenerationSoftware,KiCad,Pcbnew,9.0.6*%
%TF.CreationDate,2026-03-13T15:36:19-07:00*%
%TF.ProjectId,20AL_Pendulum_Photogate,3230414c-5f50-4656-9e64-756c756d5f50,rev?*%
%TF.SameCoordinates,Original*%
%TF.FileFunction,Copper,L1,Top*%
%TF.FilePolarity,Positive*%
%FSLAX46Y46*%
G04 Gerber Fmt 4.6, Leading zero omitted, Abs format (unit mm)*
G04 Created by KiCad (PCBNEW 9.0.6) date 2026-03-13 15:36:19*
%MOMM*%
%LPD*%
G01*
G04 APERTURE LIST*
G04 Aperture macros list*
%AMRoundRect*
0 Rectangle with rounded corners*
0 $1 Rounding radius*
0 $2 $3 $4 $5 $6 $7 $8 $9 X,Y pos of 4 corners*
0 Add a 4 corners polygon primitive as box body*
4,1,4,$2,$3,$4,$5,$6,$7,$8,$9,$2,$3,0*
0 Add four circle primitives for the rounded corners*
1,1,$1+$1,$2,$3*
1,1,$1+$1,$4,$5*
1,1,$1+$1,$6,$7*
1,1,$1+$1,$8,$9*
0 Add four rect primitives between the rounded corners*
20,1,$1+$1,$2,$3,$4,$5,0*
20,1,$1+$1,$4,$5,$6,$7,0*
20,1,$1+$1,$6,$7,$8,$9,0*
20,1,$1+$1,$8,$9,$2,$3,0*%
G04 Aperture macros list end*
%TA.AperFunction,ComponentPad*%
%ADD10C,1.727200*%
%TD*%
%TA.AperFunction,ComponentPad*%
%ADD11R,1.727200X1.727200*%
%TD*%
%TA.AperFunction,ComponentPad*%
%ADD12RoundRect,0.250000X-0.664400X-1.020000X0.664400X-1.020000X0.664400X1.020000X-0.664400X1.020000X0*%
%TD*%
%TA.AperFunction,ComponentPad*%
%ADD13RoundRect,0.294118X-0.721882X-0.975882X0.721882X-0.975882X0.721882X0.975882X-0.721882X0.975882X0*%
%TD*%
%TA.AperFunction,ComponentPad*%
%ADD14O,1.905000X2.540000*%
%TD*%
%TA.AperFunction,ComponentPad*%
%ADD15O,2.032000X2.540000*%
%TD*%
%TA.AperFunction,ComponentPad*%
%ADD16RoundRect,0.250000X1.020000X-0.613600X1.020000X0.613600X-1.020000X0.613600X-1.020000X-0.613600X0*%
%TD*%
%TA.AperFunction,ComponentPad*%
%ADD17O,2.540000X1.727200*%
%TD*%
%TA.AperFunction,ComponentPad*%
%ADD18RoundRect,0.250000X0.613600X-1.020000X0.613600X1.020000X-0.613600X1.020000X-0.613600X-1.020000X0*%
%TD*%
%TA.AperFunction,ComponentPad*%
%ADD19O,1.727200X2.540000*%
%TD*%
G04 APERTURE END LIST*
D10*
%TO.P,C5,1*%
%TO.N,GND*%
X149098000Y-67310000D03*
%TO.P,C5,2*%
%TO.N,Net-(D2-K)*%
X149098000Y-72310000D03*
%TD*%
%TO.P,R9,1*%
%TO.N,VCC*%
X36830000Y-34798000D03*
%TO.P,R9,2*%
%TO.N,Net-(D1-A)*%
X26670000Y-34798000D03*
%TD*%
%TO.P,U1,1,RST*%
%TO.N,unconnected-(U1-RST-Pad1)*%
X52070000Y-88900000D03*
%TO.P,U1,2,3V*%
%TO.N,VCC*%
X54610000Y-88900000D03*
%TO.P,U1,3,AREF*%
%TO.N,unconnected-(U1-AREF-Pad3)*%
X57150000Y-88900000D03*
%TO.P,U1,4,VHI*%
%TO.N,unconnected-(U1-VHI-Pad4)*%
X59690000Y-88900000D03*
%TO.P,U1,5,A0*%
%TO.N,unconnected-(U1-A0-Pad5)*%
X62230000Y-88900000D03*
%TO.P,U1,6,A1*%
%TO.N,unconnected-(U1-A1-Pad6)*%
X64770000Y-88900000D03*
%TO.P,U1,7,A2*%
%TO.N,unconnected-(U1-A2-Pad7)*%
X67310000Y-88900000D03*
%TO.P,U1,8,A3*%
%TO.N,unconnected-(U1-A3-Pad8)*%
X69850000Y-88900000D03*
%TO.P,U1,9,A4*%
%TO.N,unconnected-(U1-A4-Pad9)*%
X72390000Y-88900000D03*
%TO.P,U1,10,A5*%
%TO.N,Net-(SW2-B)*%
X74930000Y-88900000D03*
%TO.P,U1,11,SCK*%
%TO.N,unconnected-(U1-SCK-Pad11)*%
X77470000Y-88900000D03*
%TO.P,U1,12,MOSI*%
%TO.N,unconnected-(U1-MOSI-Pad12)*%
X80010000Y-88900000D03*
%TO.P,U1,13,MISO*%
%TO.N,unconnected-(U1-MISO-Pad13)*%
X82550000Y-88900000D03*
%TO.P,U1,14,D2*%
%TO.N,unconnected-(U1-D2-Pad14)*%
X85090000Y-88900000D03*
%TO.P,U1,20,RX*%
%TO.N,unconnected-(U1-RX-Pad20)*%
X85090000Y-73660000D03*
%TO.P,U1,21,TX*%
%TO.N,unconnected-(U1-TX-Pad21)*%
X82550000Y-73660000D03*
%TO.P,U1,22,SDA*%
%TO.N,unconnected-(U1-SDA-Pad22)*%
X80010000Y-73660000D03*
%TO.P,U1,23,SCL*%
%TO.N,unconnected-(U1-SCL-Pad23)*%
X77470000Y-73660000D03*
%TO.P,U1,24,D5*%
%TO.N,unconnected-(U1-D5-Pad24)*%
X74930000Y-73660000D03*
%TO.P,U1,25,D7*%
%TO.N,unconnected-(U1-D7-Pad25)*%
X72390000Y-73660000D03*
%TO.P,U1,26,D9*%
%TO.N,unconnected-(U1-D9-Pad26)*%
X69850000Y-73660000D03*
%TO.P,U1,27,D10*%
%TO.N,INT*%
X67310000Y-73660000D03*
%TO.P,U1,28,D11*%
%TO.N,unconnected-(U1-D11-Pad28)*%
X64770000Y-73660000D03*
%TO.P,U1,29,D12*%
%TO.N,unconnected-(U1-D12-Pad29)*%
X62230000Y-73660000D03*
%TO.P,U1,30,D13*%
%TO.N,unconnected-(U1-D13-Pad30)*%
X59690000Y-73660000D03*
%TO.P,U1,31,VUSB*%
%TO.N,unconnected-(U1-VUSB-Pad31)*%
X57150000Y-73660000D03*
%TO.P,U1,32,GND*%
%TO.N,GND*%
X54610000Y-73660000D03*
%TO.P,U1,33,VBAT*%
%TO.N,unconnected-(U1-VBAT-Pad33)*%
X52070000Y-73660000D03*
%TD*%
D11*
%TO.P,D2,1,K*%
%TO.N,Net-(D2-K)*%
X143002000Y-74930000D03*
D10*
%TO.P,D2,2,A*%
%TO.N,Net-(D2-A)*%
X143002000Y-67310000D03*
%TD*%
%TO.P,C9,1*%
%TO.N,VCC*%
X123738000Y-71628000D03*
%TO.P,C9,2*%
%TO.N,GND*%
X128738000Y-71628000D03*
%TD*%
%TO.P,C6,1*%
%TO.N,Net-(Q5-C)*%
X148550000Y-52578000D03*
%TO.P,C6,2*%
%TO.N,Net-(Q8-B)*%
X143550000Y-52578000D03*
%TD*%
%TO.P,R19,1*%
%TO.N,Net-(R1-Pad1)*%
X107188000Y-71628000D03*
%TO.P,R19,2*%
%TO.N,Net-(Q1-B)*%
X107188000Y-84328000D03*
%TD*%
D11*
%TO.P,Q8,1,E*%
%TO.N,GND*%
X151130000Y-59690000D03*
D10*
%TO.P,Q8,2,B*%
%TO.N,Net-(Q8-B)*%
X148590000Y-59690000D03*
%TO.P,Q8,3,C*%
%TO.N,Net-(D2-A)*%
X146050000Y-59690000D03*
%TD*%
%TO.P,R26,1*%
%TO.N,VCC*%
X140970000Y-64262000D03*
%TO.P,R26,2*%
%TO.N,Net-(D2-A)*%
X148590000Y-64262000D03*
%TD*%
%TO.P,R7,1*%
%TO.N,Net-(D3-A)*%
X103886000Y-79756000D03*
%TO.P,R7,2*%
%TO.N,VCC*%
X103886000Y-69596000D03*
%TD*%
%TO.P,R11,1*%
%TO.N,VCC*%
X140970000Y-40894000D03*
%TO.P,R11,2*%
%TO.N,Net-(Q5-B)*%
X148590000Y-40894000D03*
%TD*%
%TO.P,R15,1*%
%TO.N,Net-(D2-K)*%
X146050000Y-74930000D03*
%TO.P,R15,2*%
%TO.N,GND*%
X146050000Y-67310000D03*
%TD*%
D12*
%TO.P,SW2,*%
%TO.N,*%
X88546000Y-90678000D03*
X101446000Y-90678000D03*
D13*
%TO.P,SW2,1,A*%
%TO.N,unconnected-(SW2-A-Pad1)*%
X91996000Y-90678000D03*
D14*
%TO.P,SW2,2,B*%
%TO.N,Net-(SW2-B)*%
X94996000Y-90678000D03*
D15*
%TO.P,SW2,3,C*%
%TO.N,GND*%
X97996000Y-90678000D03*
%TD*%
D11*
%TO.P,Q3,1,E*%
%TO.N,GND*%
X26670000Y-42778000D03*
D10*
%TO.P,Q3,2,B*%
%TO.N,Net-(Q2-C)*%
X29210000Y-42778000D03*
%TO.P,Q3,3,C*%
%TO.N,Net-(D1-K)*%
X31750000Y-42778000D03*
%TD*%
%TO.P,C3,1*%
%TO.N,Net-(C3-Pad1)*%
X40600000Y-71628000D03*
%TO.P,C3,2*%
%TO.N,Net-(Q2-B)*%
X35600000Y-71628000D03*
%TD*%
D16*
%TO.P,D1,1,K*%
%TO.N,Net-(D1-K)*%
X34885000Y-29215000D03*
D17*
%TO.P,D1,2,A*%
%TO.N,Net-(D1-A)*%
X34885000Y-26675000D03*
%TD*%
D10*
%TO.P,R18,1*%
%TO.N,Net-(U2B-+)*%
X135636000Y-81534000D03*
%TO.P,R18,2*%
%TO.N,Net-(R1-Pad1)*%
X135636000Y-73914000D03*
%TD*%
D11*
%TO.P,Q5,1,E*%
%TO.N,GND*%
X151130000Y-44704000D03*
D10*
%TO.P,Q5,2,B*%
%TO.N,Net-(Q5-B)*%
X148590000Y-44704000D03*
%TO.P,Q5,3,C*%
%TO.N,Net-(Q5-C)*%
X146050000Y-44704000D03*
%TD*%
D11*
%TO.P,Q1,1,E*%
%TO.N,GND*%
X106172000Y-92964000D03*
D10*
%TO.P,Q1,2,B*%
%TO.N,Net-(Q1-B)*%
X106172000Y-90424000D03*
%TO.P,Q1,3,C*%
%TO.N,Net-(D3-K)*%
X106172000Y-87884000D03*
%TD*%
%TO.P,R1,1*%
%TO.N,Net-(R1-Pad1)*%
X113792000Y-77724000D03*
%TO.P,R1,2*%
%TO.N,Net-(Q7-B)*%
X113792000Y-85344000D03*
%TD*%
%TO.P,R16,1*%
%TO.N,Net-(U2B-+)*%
X139044624Y-77216000D03*
%TO.P,R16,2*%
%TO.N,VCC*%
X139044624Y-69596000D03*
%TD*%
%TO.P,R6,1*%
%TO.N,VCC*%
X36830000Y-55372000D03*
%TO.P,R6,2*%
%TO.N,Net-(Q2-B)*%
X29210000Y-55372000D03*
%TD*%
%TO.P,R10,1*%
%TO.N,Net-(Q4-E)*%
X143510000Y-34544000D03*
%TO.P,R10,2*%
%TO.N,GND*%
X151130000Y-34544000D03*
%TD*%
%TO.P,R13,1*%
%TO.N,VCC*%
X140970000Y-49276000D03*
%TO.P,R13,2*%
%TO.N,Net-(Q5-C)*%
X148590000Y-49276000D03*
%TD*%
%TO.P,R4,1*%
%TO.N,Net-(U2A-+)*%
X116840000Y-82296000D03*
%TO.P,R4,2*%
%TO.N,Net-(C3-Pad1)*%
X116840000Y-89916000D03*
%TD*%
D11*
%TO.P,Q4,1,C*%
%TO.N,VCC*%
X142915000Y-26665000D03*
D10*
%TO.P,Q4,2,E*%
%TO.N,Net-(Q4-E)*%
X142915000Y-29205000D03*
%TD*%
%TO.P,R8,1*%
%TO.N,VCC*%
X36830000Y-46736000D03*
%TO.P,R8,2*%
%TO.N,Net-(Q2-C)*%
X29210000Y-46736000D03*
%TD*%
%TO.P,R5,1*%
%TO.N,Net-(U2A--)*%
X131318000Y-86868000D03*
%TO.P,R5,2*%
%TO.N,Net-(C3-Pad1)*%
X123698000Y-86868000D03*
%TD*%
%TO.P,C4,1*%
%TO.N,Net-(Q4-E)*%
X143550000Y-37592000D03*
%TO.P,C4,2*%
%TO.N,Net-(Q5-B)*%
X148550000Y-37592000D03*
%TD*%
%TO.P,R17,1*%
%TO.N,Net-(U2B-+)*%
X143510000Y-77724000D03*
%TO.P,R17,2*%
%TO.N,GND*%
X151130000Y-77724000D03*
%TD*%
D11*
%TO.P,Q7,1,E*%
%TO.N,GND*%
X112268000Y-92964000D03*
D10*
%TO.P,Q7,2,B*%
%TO.N,Net-(Q7-B)*%
X112268000Y-90424000D03*
%TO.P,Q7,3,C*%
%TO.N,INT*%
X112268000Y-87884000D03*
%TD*%
%TO.P,R3,1*%
%TO.N,Net-(U2A-+)*%
X120142000Y-85344000D03*
%TO.P,R3,2*%
%TO.N,GND*%
X120142000Y-92964000D03*
%TD*%
%TO.P,R24,1*%
%TO.N,VCC*%
X140970000Y-55880000D03*
%TO.P,R24,2*%
%TO.N,Net-(Q8-B)*%
X148590000Y-55880000D03*
%TD*%
D11*
%TO.P,D3,1,K*%
%TO.N,Net-(D3-K)*%
X99060000Y-82550000D03*
D10*
%TO.P,D3,2,A*%
%TO.N,Net-(D3-A)*%
X99060000Y-80010000D03*
%TD*%
D18*
%TO.P,U2,1*%
%TO.N,Net-(C3-Pad1)*%
X123698000Y-83566000D03*
D19*
%TO.P,U2,2,-*%
%TO.N,Net-(U2A--)*%
X126238000Y-83566000D03*
%TO.P,U2,3,+*%
%TO.N,Net-(U2A-+)*%
X128778000Y-83566000D03*
%TO.P,U2,4,V-*%
%TO.N,GND*%
X131318000Y-83566000D03*
%TO.P,U2,5,+*%
%TO.N,Net-(U2B-+)*%
X131318000Y-75946000D03*
%TO.P,U2,6,-*%
%TO.N,Net-(D2-K)*%
X128778000Y-75946000D03*
%TO.P,U2,7*%
%TO.N,Net-(R1-Pad1)*%
X126238000Y-75946000D03*
%TO.P,U2,8,V+*%
%TO.N,VCC*%
X123698000Y-75946000D03*
%TD*%
D10*
%TO.P,C2,1*%
%TO.N,Net-(U2A--)*%
X131318000Y-90170000D03*
%TO.P,C2,2*%
%TO.N,GND*%
X126318000Y-90170000D03*
%TD*%
D11*
%TO.P,Q2,1,E*%
%TO.N,GND*%
X26670000Y-51414000D03*
D10*
%TO.P,Q2,2,B*%
%TO.N,Net-(Q2-B)*%
X29210000Y-51414000D03*
%TO.P,Q2,3,C*%
%TO.N,Net-(Q2-C)*%
X31750000Y-51414000D03*
%TD*%
%TO.P,C1,1*%
%TO.N,GND*%
X29250000Y-38100000D03*
%TO.P,C1,2*%
%TO.N,VCC*%
X34250000Y-38100000D03*
%TD*%
%TO.P,R2,1*%
%TO.N,VCC*%
X120142000Y-69596000D03*
%TO.P,R2,2*%
%TO.N,Net-(U2A-+)*%
X120142000Y-82296000D03*
%TD*%
%TO.P,R20,1*%
%TO.N,VCC*%
X110490000Y-69596000D03*
%TO.P,R20,2*%
%TO.N,INT*%
X110490000Y-84836000D03*
%TD*%
M02*
