%TF.GenerationSoftware,KiCad,Pcbnew,9.0.4*%
%TF.CreationDate,2025-11-19T10:52:48-08:00*%
%TF.ProjectId,20AL_Pendulum_Photogate,3230414c-5f50-4656-9e64-756c756d5f50,rev?*%
%TF.SameCoordinates,Original*%
%TF.FileFunction,Copper,L2,Bot*%
%TF.FilePolarity,Positive*%
%FSLAX46Y46*%
G04 Gerber Fmt 4.6, Leading zero omitted, Abs format (unit mm)*
G04 Created by KiCad (PCBNEW 9.0.4) date 2025-11-19 10:52:48*
%MOMM*%
%LPD*%
G01*
G04 APERTURE LIST*
G04 Aperture macros list*
%AMRoundRect*
0 Rectangle with rounded corners*
0 $1 Rounding radius*
0 $2 $3 $4 $5 $6 $7 $8 $9 X,Y pos of 4 corners*
0 Add a 4 corners polygon primitive as box body*
4,1,4,$2,$3,$4,$5,$6,$7,$8,$9,$2,$3,0*
0 Add four circle primitives for the rounded corners*
1,1,$1+$1,$2,$3*
1,1,$1+$1,$4,$5*
1,1,$1+$1,$6,$7*
1,1,$1+$1,$8,$9*
0 Add four rect primitives between the rounded corners*
20,1,$1+$1,$2,$3,$4,$5,0*
20,1,$1+$1,$4,$5,$6,$7,0*
20,1,$1+$1,$6,$7,$8,$9,0*
20,1,$1+$1,$8,$9,$2,$3,0*%
G04 Aperture macros list end*
%TA.AperFunction,ComponentPad*%
%ADD10O,2.032000X2.540000*%
%TD*%
%TA.AperFunction,ComponentPad*%
%ADD11O,1.905000X2.540000*%
%TD*%
%TA.AperFunction,ComponentPad*%
%ADD12RoundRect,0.250000X-0.664400X-1.020000X0.664400X-1.020000X0.664400X1.020000X-0.664400X1.020000X0*%
%TD*%
%TA.AperFunction,ComponentPad*%
%ADD13RoundRect,0.294118X-0.721882X-0.975882X0.721882X-0.975882X0.721882X0.975882X-0.721882X0.975882X0*%
%TD*%
%TA.AperFunction,ComponentPad*%
%ADD14C,1.727200*%
%TD*%
%TA.AperFunction,ComponentPad*%
%ADD15R,1.727200X1.727200*%
%TD*%
%TA.AperFunction,ComponentPad*%
%ADD16RoundRect,0.250000X1.020000X-0.613600X1.020000X0.613600X-1.020000X0.613600X-1.020000X-0.613600X0*%
%TD*%
%TA.AperFunction,ComponentPad*%
%ADD17O,2.540000X1.727200*%
%TD*%
%TA.AperFunction,ComponentPad*%
%ADD18RoundRect,0.250000X-1.020000X-0.613600X1.020000X-0.613600X1.020000X0.613600X-1.020000X0.613600X0*%
%TD*%
%TA.AperFunction,ComponentPad*%
%ADD19RoundRect,0.269875X0.593725X0.593725X-0.593725X0.593725X-0.593725X-0.593725X0.593725X-0.593725X0*%
%TD*%
%TA.AperFunction,Conductor*%
%ADD20C,0.508000*%
%TD*%
G04 APERTURE END LIST*
D10*
%TO.P,SW2,3,C*%
%TO.N,GND*%
X97996000Y-90678000D03*
D11*
%TO.P,SW2,2,B*%
%TO.N,Net-(SW2-B)*%
X94996000Y-90678000D03*
D12*
%TO.P,SW2,*%
%TO.N,*%
X101446000Y-90678000D03*
X88546000Y-90678000D03*
D13*
%TO.P,SW2,1,A*%
%TO.N,unconnected-(SW2-A-Pad1)*%
X91996000Y-90678000D03*
%TD*%
D14*
%TO.P,U1,1,RST*%
%TO.N,unconnected-(U1-RST-Pad1)*%
X52070000Y-88900000D03*
%TO.P,U1,2,3V*%
%TO.N,VCC*%
X54610000Y-88900000D03*
%TO.P,U1,3,AREF*%
%TO.N,unconnected-(U1-AREF-Pad3)*%
X57150000Y-88900000D03*
%TO.P,U1,4,VHI*%
%TO.N,unconnected-(U1-VHI-Pad4)*%
X59690000Y-88900000D03*
%TO.P,U1,5,A0*%
%TO.N,unconnected-(U1-A0-Pad5)*%
X62230000Y-88900000D03*
%TO.P,U1,6,A1*%
%TO.N,unconnected-(U1-A1-Pad6)*%
X64770000Y-88900000D03*
%TO.P,U1,7,A2*%
%TO.N,unconnected-(U1-A2-Pad7)*%
X67310000Y-88900000D03*
%TO.P,U1,8,A3*%
%TO.N,unconnected-(U1-A3-Pad8)*%
X69850000Y-88900000D03*
%TO.P,U1,9,A4*%
%TO.N,unconnected-(U1-A4-Pad9)*%
X72390000Y-88900000D03*
%TO.P,U1,10,A5*%
%TO.N,Net-(SW2-B)*%
X74930000Y-88900000D03*
%TO.P,U1,11,SCK*%
%TO.N,unconnected-(U1-SCK-Pad11)*%
X77470000Y-88900000D03*
%TO.P,U1,12,MOSI*%
%TO.N,unconnected-(U1-MOSI-Pad12)*%
X80010000Y-88900000D03*
%TO.P,U1,13,MISO*%
%TO.N,unconnected-(U1-MISO-Pad13)*%
X82550000Y-88900000D03*
%TO.P,U1,14,D2*%
%TO.N,unconnected-(U1-D2-Pad14)*%
X85090000Y-88900000D03*
%TO.P,U1,20,RX*%
%TO.N,unconnected-(U1-RX-Pad20)*%
X85090000Y-73660000D03*
%TO.P,U1,21,TX*%
%TO.N,unconnected-(U1-TX-Pad21)*%
X82550000Y-73660000D03*
%TO.P,U1,22,SDA*%
%TO.N,unconnected-(U1-SDA-Pad22)*%
X80010000Y-73660000D03*
%TO.P,U1,23,SCL*%
%TO.N,unconnected-(U1-SCL-Pad23)*%
X77470000Y-73660000D03*
%TO.P,U1,24,D5*%
%TO.N,unconnected-(U1-D5-Pad24)*%
X74930000Y-73660000D03*
%TO.P,U1,25,D7*%
%TO.N,unconnected-(U1-D7-Pad25)*%
X72390000Y-73660000D03*
%TO.P,U1,26,D9*%
%TO.N,unconnected-(U1-D9-Pad26)*%
X69850000Y-73660000D03*
%TO.P,U1,27,D10*%
%TO.N,INT*%
X67310000Y-73660000D03*
%TO.P,U1,28,D11*%
%TO.N,unconnected-(U1-D11-Pad28)*%
X64770000Y-73660000D03*
%TO.P,U1,29,D12*%
%TO.N,unconnected-(U1-D12-Pad29)*%
X62230000Y-73660000D03*
%TO.P,U1,30,D13*%
%TO.N,unconnected-(U1-D13-Pad30)*%
X59690000Y-73660000D03*
%TO.P,U1,31,VUSB*%
%TO.N,unconnected-(U1-VUSB-Pad31)*%
X57150000Y-73660000D03*
%TO.P,U1,32,GND*%
%TO.N,GND*%
X54610000Y-73660000D03*
%TO.P,U1,33,VBAT*%
%TO.N,unconnected-(U1-VBAT-Pad33)*%
X52070000Y-73660000D03*
%TD*%
%TO.P,R2,1*%
%TO.N,VCC*%
X117856000Y-69850000D03*
%TO.P,R2,2*%
%TO.N,Net-(U2A-+)*%
X117856000Y-80010000D03*
%TD*%
%TO.P,R4,1*%
%TO.N,Net-(U2A-+)*%
X121412000Y-78740000D03*
%TO.P,R4,2*%
%TO.N,Net-(C3-Pad1)*%
X121412000Y-73660000D03*
%TD*%
%TO.P,R17,1*%
%TO.N,Net-(U2B-+)*%
X141224000Y-84553000D03*
%TO.P,R17,2*%
%TO.N,GND*%
X141224000Y-89633000D03*
%TD*%
%TO.P,R1,1*%
%TO.N,Net-(Q2-E)*%
X32229000Y-58928000D03*
%TO.P,R1,2*%
%TO.N,GND*%
X34769000Y-58928000D03*
%TD*%
D15*
%TO.P,Q6,1,E*%
%TO.N,GND*%
X148590000Y-71882000D03*
D14*
%TO.P,Q6,2,B*%
%TO.N,Net-(Q6-B)*%
X146050000Y-71882000D03*
%TO.P,Q6,3,C*%
%TO.N,Net-(D2-A)*%
X143510000Y-71882000D03*
%TD*%
%TO.P,R26,1*%
%TO.N,VCC*%
X140970000Y-55118000D03*
%TO.P,R26,2*%
%TO.N,Net-(Q8-C)*%
X143510000Y-55118000D03*
%TD*%
%TO.P,R28,1*%
%TO.N,VCC*%
X140941000Y-63500000D03*
%TO.P,R28,2*%
%TO.N,Net-(Q6-B)*%
X143481000Y-63500000D03*
%TD*%
%TO.P,R11,1*%
%TO.N,VCC*%
X140970000Y-38100000D03*
%TO.P,R11,2*%
%TO.N,Net-(Q5-B)*%
X143510000Y-38100000D03*
%TD*%
%TO.P,R8,1*%
%TO.N,VCC*%
X36830000Y-46482000D03*
%TO.P,R8,2*%
%TO.N,Net-(Q2-C)*%
X26670000Y-46482000D03*
%TD*%
%TO.P,R30,1*%
%TO.N,Net-(C3-Pad2)*%
X103124000Y-73406000D03*
%TO.P,R30,2*%
%TO.N,Net-(R30-Pad2)*%
X92964000Y-73406000D03*
%TD*%
D16*
%TO.P,D1,1,K*%
%TO.N,Net-(D1-K)*%
X34885000Y-29215000D03*
D17*
%TO.P,D1,2,A*%
%TO.N,Net-(D1-A)*%
X34885000Y-26675000D03*
%TD*%
D14*
%TO.P,R23,1*%
%TO.N,GND*%
X151159000Y-50292000D03*
%TO.P,R23,2*%
%TO.N,Net-(Q5-E)*%
X148619000Y-50292000D03*
%TD*%
%TO.P,R25,1*%
%TO.N,GND*%
X151159000Y-55118000D03*
%TO.P,R25,2*%
%TO.N,Net-(Q8-B)*%
X148619000Y-55118000D03*
%TD*%
D15*
%TO.P,Q7,1,E*%
%TO.N,GND*%
X116840000Y-92710000D03*
D14*
%TO.P,Q7,2,B*%
%TO.N,Net-(Q7-B)*%
X116840000Y-90170000D03*
%TO.P,Q7,3,C*%
%TO.N,Net-(Q7-C)*%
X116840000Y-87630000D03*
%TD*%
D15*
%TO.P,Q5,1,E*%
%TO.N,Net-(Q5-E)*%
X148590000Y-45720000D03*
D14*
%TO.P,Q5,2,B*%
%TO.N,Net-(Q5-B)*%
X146050000Y-45720000D03*
%TO.P,Q5,3,C*%
%TO.N,Net-(Q5-C)*%
X143510000Y-45720000D03*
%TD*%
%TO.P,R14,1*%
%TO.N,VCC*%
X140941000Y-67564000D03*
%TO.P,R14,2*%
%TO.N,Net-(D2-A)*%
X143481000Y-67564000D03*
%TD*%
%TO.P,R13,1*%
%TO.N,VCC*%
X140970000Y-41910000D03*
%TO.P,R13,2*%
%TO.N,Net-(Q5-C)*%
X143510000Y-41910000D03*
%TD*%
%TO.P,R10,1*%
%TO.N,Net-(Q4-E)*%
X146050000Y-38100000D03*
%TO.P,R10,2*%
%TO.N,GND*%
X151130000Y-38100000D03*
%TD*%
D18*
%TO.P,U2,1*%
%TO.N,Net-(C3-Pad1)*%
X128524000Y-73660000D03*
D17*
%TO.P,U2,2,-*%
%TO.N,Net-(U2A--)*%
X128524000Y-76200000D03*
%TO.P,U2,3,+*%
%TO.N,Net-(U2A-+)*%
X128524000Y-78740000D03*
%TO.P,U2,4,V-*%
%TO.N,GND*%
X128524000Y-81280000D03*
%TO.P,U2,5,+*%
%TO.N,Net-(U2B-+)*%
X136144000Y-81280000D03*
%TO.P,U2,6,-*%
%TO.N,Net-(D2-K)*%
X136144000Y-78740000D03*
%TO.P,U2,7*%
%TO.N,Net-(Q7-B)*%
X136144000Y-76200000D03*
%TO.P,U2,8,V+*%
%TO.N,VCC*%
X136144000Y-73660000D03*
%TD*%
D14*
%TO.P,R21,1*%
%TO.N,VCC*%
X36830000Y-50292000D03*
%TO.P,R21,2*%
%TO.N,Net-(Q3-B)*%
X29210000Y-50292000D03*
%TD*%
%TO.P,R31,1*%
%TO.N,Net-(R30-Pad2)*%
X54610000Y-77470000D03*
%TO.P,R31,2*%
%TO.N,Net-(Q2-B)*%
X44450000Y-77470000D03*
%TD*%
%TO.P,C5,1*%
%TO.N,GND*%
X151090000Y-79756000D03*
%TO.P,C5,2*%
%TO.N,Net-(D2-K)*%
X146090000Y-79756000D03*
%TD*%
D15*
%TO.P,Q4,1,C*%
%TO.N,VCC*%
X142915000Y-26665000D03*
D14*
%TO.P,Q4,2,E*%
%TO.N,Net-(Q4-E)*%
X142915000Y-29205000D03*
%TD*%
%TO.P,R29,1*%
%TO.N,INT*%
X92964000Y-76454000D03*
%TO.P,R29,2*%
%TO.N,Net-(Q7-C)*%
X103124000Y-76454000D03*
%TD*%
%TO.P,C3,1*%
%TO.N,Net-(C3-Pad1)*%
X114300000Y-74970000D03*
%TO.P,C3,2*%
%TO.N,Net-(C3-Pad2)*%
X114300000Y-79970000D03*
%TD*%
%TO.P,R20,1*%
%TO.N,VCC*%
X106680000Y-69850000D03*
%TO.P,R20,2*%
%TO.N,Net-(Q7-C)*%
X106680000Y-80010000D03*
%TD*%
%TO.P,R6,1*%
%TO.N,VCC*%
X110490000Y-69850000D03*
%TO.P,R6,2*%
%TO.N,Net-(C3-Pad2)*%
X110490000Y-80010000D03*
%TD*%
%TO.P,R19,1*%
%TO.N,Net-(Q7-C)*%
X105410000Y-82550000D03*
%TO.P,R19,2*%
%TO.N,Net-(Q1-B)*%
X105410000Y-90170000D03*
%TD*%
%TO.P,R27,1*%
%TO.N,GND*%
X151159000Y-63500000D03*
%TO.P,R27,2*%
%TO.N,Net-(Q8-E)*%
X148619000Y-63500000D03*
%TD*%
%TO.P,R16,1*%
%TO.N,Net-(U2B-+)*%
X142748000Y-81309000D03*
%TO.P,R16,2*%
%TO.N,VCC*%
X142748000Y-76229000D03*
%TD*%
%TO.P,C6,1*%
%TO.N,Net-(Q5-C)*%
X146050000Y-50332000D03*
%TO.P,C6,2*%
%TO.N,Net-(Q8-B)*%
X146050000Y-55332000D03*
%TD*%
%TO.P,C7,1*%
%TO.N,Net-(Q8-C)*%
X146050000Y-63286000D03*
%TO.P,C7,2*%
%TO.N,Net-(Q6-B)*%
X146050000Y-68286000D03*
%TD*%
%TO.P,C1,1*%
%TO.N,Net-(Q2-C)*%
X26710000Y-42926000D03*
%TO.P,C1,2*%
%TO.N,Net-(Q3-B)*%
X31710000Y-42926000D03*
%TD*%
%TO.P,R9,1*%
%TO.N,VCC*%
X36322000Y-43434000D03*
%TO.P,R9,2*%
%TO.N,Net-(D1-A)*%
X36322000Y-33274000D03*
%TD*%
%TO.P,R24,1*%
%TO.N,VCC*%
X140941000Y-50292000D03*
%TO.P,R24,2*%
%TO.N,Net-(Q8-B)*%
X143481000Y-50292000D03*
%TD*%
%TO.P,R12,1*%
%TO.N,GND*%
X151159000Y-41910000D03*
%TO.P,R12,2*%
%TO.N,Net-(Q5-B)*%
X148619000Y-41910000D03*
%TD*%
D15*
%TO.P,D3,1,K*%
%TO.N,Net-(D3-K)*%
X99060000Y-82550000D03*
D14*
%TO.P,D3,2,A*%
%TO.N,VCC*%
X99060000Y-80010000D03*
%TD*%
%TO.P,C2,1*%
%TO.N,Net-(U2A--)*%
X129286000Y-87670000D03*
%TO.P,C2,2*%
%TO.N,GND*%
X129286000Y-92670000D03*
%TD*%
D15*
%TO.P,Q1,1,E*%
%TO.N,GND*%
X110490000Y-92710000D03*
D14*
%TO.P,Q1,2,B*%
%TO.N,Net-(Q1-B)*%
X110490000Y-90170000D03*
%TO.P,Q1,3,C*%
%TO.N,Net-(D3-K)*%
X110490000Y-87630000D03*
%TD*%
%TO.P,R7,1*%
%TO.N,GND*%
X121920000Y-92710000D03*
%TO.P,R7,2*%
%TO.N,Net-(C3-Pad2)*%
X121920000Y-82550000D03*
%TD*%
D15*
%TO.P,Q2,1,E*%
%TO.N,Net-(Q2-E)*%
X31750000Y-54356000D03*
D14*
%TO.P,Q2,2,B*%
%TO.N,Net-(Q2-B)*%
X29210000Y-54356000D03*
%TO.P,Q2,3,C*%
%TO.N,Net-(Q2-C)*%
X26670000Y-54356000D03*
%TD*%
D15*
%TO.P,Q3,1,E*%
%TO.N,GND*%
X33020000Y-37740000D03*
D14*
%TO.P,Q3,2,B*%
%TO.N,Net-(Q3-B)*%
X30480000Y-37740000D03*
%TO.P,Q3,3,C*%
%TO.N,Net-(D1-K)*%
X27940000Y-37740000D03*
%TD*%
%TO.P,R5,1*%
%TO.N,Net-(U2A--)*%
X124968000Y-76200000D03*
%TO.P,R5,2*%
%TO.N,Net-(C3-Pad1)*%
X124968000Y-73660000D03*
%TD*%
%TO.P,C4,1*%
%TO.N,Net-(Q4-E)*%
X146090000Y-34290000D03*
%TO.P,C4,2*%
%TO.N,Net-(Q5-B)*%
X151090000Y-34290000D03*
%TD*%
%TO.P,R3,1*%
%TO.N,Net-(U2A-+)*%
X125222000Y-82550000D03*
%TO.P,R3,2*%
%TO.N,GND*%
X125222000Y-92710000D03*
%TD*%
D15*
%TO.P,Q8,1,E*%
%TO.N,Net-(Q8-E)*%
X148590000Y-58928000D03*
D14*
%TO.P,Q8,2,B*%
%TO.N,Net-(Q8-B)*%
X146050000Y-58928000D03*
%TO.P,Q8,3,C*%
%TO.N,Net-(Q8-C)*%
X143510000Y-58928000D03*
%TD*%
D19*
%TO.P,D2,1,K*%
%TO.N,Net-(D2-K)*%
X148942315Y-76200000D03*
D14*
%TO.P,D2,2,A*%
%TO.N,Net-(D2-A)*%
X146402315Y-76200000D03*
%TD*%
%TO.P,R18,1*%
%TO.N,Net-(U2B-+)*%
X139446000Y-81309000D03*
%TO.P,R18,2*%
%TO.N,Net-(Q7-B)*%
X139446000Y-76229000D03*
%TD*%
%TO.P,R15,1*%
%TO.N,Net-(D2-K)*%
X146021000Y-82804000D03*
%TO.P,R15,2*%
%TO.N,GND*%
X151101000Y-82804000D03*
%TD*%
D20*
%TO.N,GND*%
X97996000Y-88344000D02*
X97996000Y-90678000D01*
X52678600Y-79348600D02*
X58547000Y-85217000D01*
X52678600Y-75782813D02*
X52678600Y-79348600D01*
X58547000Y-85217000D02*
X94869000Y-85217000D01*
X54610000Y-73851413D02*
X52678600Y-75782813D01*
X54610000Y-73660000D02*
X54610000Y-73851413D01*
X94869000Y-85217000D02*
X97996000Y-88344000D01*
%TO.N,Net-(SW2-B)*%
X75994686Y-86614000D02*
X74930000Y-87678686D01*
X74930000Y-87678686D02*
X74930000Y-88900000D01*
X92710000Y-86614000D02*
X75994686Y-86614000D01*
X94996000Y-88900000D02*
X92710000Y-86614000D01*
X94996000Y-90678000D02*
X94996000Y-88900000D01*
%TO.N,GND*%
X98044000Y-93091000D02*
X52451000Y-93091000D01*
X97996000Y-93043000D02*
X98044000Y-93091000D01*
X97996000Y-90678000D02*
X97996000Y-93043000D01*
X34290000Y-39010000D02*
X33020000Y-37740000D01*
X34290000Y-58195000D02*
X34290000Y-39010000D01*
X35023000Y-58928000D02*
X34290000Y-58195000D01*
X41910000Y-71882000D02*
X38262694Y-71882000D01*
X47498000Y-77470000D02*
X41910000Y-71882000D01*
X47498000Y-88138000D02*
X47498000Y-77470000D01*
X110109000Y-93091000D02*
X98044000Y-93091000D01*
X35023000Y-68642306D02*
X35023000Y-58928000D01*
X38262694Y-71882000D02*
X35023000Y-68642306D01*
X110490000Y-92710000D02*
X110109000Y-93091000D01*
X52451000Y-93091000D02*
X47498000Y-88138000D01*
X121920000Y-92710000D02*
X116840000Y-92710000D01*
X129286000Y-92670000D02*
X127254000Y-92670000D01*
X151130000Y-71882000D02*
X151090000Y-71922000D01*
X141253000Y-89633000D02*
X146050000Y-84836000D01*
X110490000Y-92710000D02*
X116840000Y-92710000D01*
X129286000Y-92670000D02*
X132831000Y-92670000D01*
X151090000Y-79756000D02*
X151090000Y-82793000D01*
X125222000Y-92710000D02*
X121920000Y-92710000D01*
X138205000Y-92652000D02*
X141224000Y-89633000D01*
X151159000Y-63529000D02*
X151130000Y-63558000D01*
X125262000Y-92670000D02*
X125222000Y-92710000D01*
X141224000Y-89633000D02*
X141253000Y-89633000D01*
X151159000Y-55118000D02*
X151159000Y-63500000D01*
X146050000Y-84836000D02*
X149606000Y-84836000D01*
X127254000Y-82550000D02*
X127254000Y-92670000D01*
X151159000Y-50292000D02*
X151159000Y-55118000D01*
X128524000Y-81280000D02*
X127254000Y-82550000D01*
X151159000Y-41910000D02*
X151159000Y-50292000D01*
X132831000Y-92670000D02*
X132842000Y-92681000D01*
X149606000Y-84836000D02*
X151101000Y-83341000D01*
X151130000Y-41881000D02*
X151159000Y-41910000D01*
X151090000Y-71922000D02*
X151090000Y-79756000D01*
X151159000Y-63500000D02*
X151159000Y-63529000D01*
X151090000Y-82793000D02*
X151101000Y-82804000D01*
X148590000Y-71882000D02*
X151130000Y-71882000D01*
X151101000Y-83341000D02*
X151101000Y-82804000D01*
X127254000Y-92670000D02*
X125262000Y-92670000D01*
X132842000Y-92681000D02*
X138205000Y-92681000D01*
X138205000Y-92681000D02*
X138205000Y-92652000D01*
X151130000Y-38100000D02*
X151130000Y-41881000D01*
X151130000Y-63558000D02*
X151130000Y-71882000D01*
%TO.N,Net-(U2A--)*%
X130861800Y-77939988D02*
X129121812Y-76200000D01*
X124968000Y-76200000D02*
X128524000Y-76200000D01*
X129286000Y-87670000D02*
X130861800Y-86094200D01*
X130861800Y-86094200D02*
X130861800Y-77939988D01*
X129121812Y-76200000D02*
X128524000Y-76200000D01*
%TO.N,Net-(Q2-B)*%
X29210000Y-58928000D02*
X29210000Y-54356000D01*
X33701200Y-69189814D02*
X33701200Y-62149200D01*
X44450000Y-77470000D02*
X41981386Y-77470000D01*
X32512000Y-60960000D02*
X31242000Y-60960000D01*
X31242000Y-60960000D02*
X29210000Y-58928000D01*
X33701200Y-62149200D02*
X32512000Y-60960000D01*
X41981386Y-77470000D02*
X33701200Y-69189814D01*
%TO.N,Net-(C3-Pad1)*%
X124968000Y-73660000D02*
X128524000Y-73660000D01*
X124968000Y-73660000D02*
X121412000Y-73660000D01*
X120102000Y-74970000D02*
X121412000Y-73660000D01*
X114300000Y-74970000D02*
X120102000Y-74970000D01*
%TO.N,Net-(Q5-B)*%
X146098686Y-45671314D02*
X146050000Y-45720000D01*
X146098686Y-41450686D02*
X146098686Y-41910000D01*
X146098686Y-41910000D02*
X148619000Y-41910000D01*
X151090000Y-34290000D02*
X148619000Y-36761000D01*
X148619000Y-36761000D02*
X148619000Y-41910000D01*
X146098686Y-41910000D02*
X146098686Y-45671314D01*
X143510000Y-38862000D02*
X146098686Y-41450686D01*
X143510000Y-38100000D02*
X143510000Y-38862000D01*
%TO.N,Net-(Q4-E)*%
X142915000Y-29205000D02*
X142915000Y-31115000D01*
X142915000Y-31115000D02*
X146090000Y-34290000D01*
X146090000Y-38060000D02*
X146050000Y-38100000D01*
X146090000Y-34290000D02*
X146090000Y-38060000D01*
%TO.N,Net-(D2-K)*%
X145074000Y-78740000D02*
X146090000Y-79756000D01*
X146812000Y-79756000D02*
X148942315Y-77625685D01*
X146090000Y-79756000D02*
X146090000Y-82735000D01*
X146090000Y-79756000D02*
X146812000Y-79756000D01*
X136144000Y-78740000D02*
X145074000Y-78740000D01*
X146090000Y-82735000D02*
X146021000Y-82804000D01*
X148942315Y-77625685D02*
X148942315Y-76200000D01*
%TO.N,Net-(D1-K)*%
X27940000Y-37740000D02*
X27940000Y-36518686D01*
X34885000Y-31409000D02*
X34885000Y-29215000D01*
X31496000Y-34798000D02*
X34885000Y-31409000D01*
X29660686Y-34798000D02*
X31496000Y-34798000D01*
X27940000Y-36518686D02*
X29660686Y-34798000D01*
%TO.N,Net-(D1-A)*%
X37222800Y-28048622D02*
X35849178Y-26675000D01*
X35849178Y-26675000D02*
X34885000Y-26675000D01*
X36322000Y-33274000D02*
X37222800Y-32373200D01*
X37222800Y-32373200D02*
X37222800Y-28048622D01*
%TO.N,Net-(D2-A)*%
X143481000Y-67564000D02*
X143481000Y-71853000D01*
X143481000Y-71853000D02*
X143510000Y-71882000D01*
X143862315Y-72234315D02*
X143510000Y-71882000D01*
X143510000Y-73307685D02*
X146402315Y-76200000D01*
X143510000Y-71882000D02*
X143510000Y-73307685D01*
%TO.N,Net-(D3-K)*%
X99060000Y-82550000D02*
X100076000Y-82550000D01*
X100076000Y-82550000D02*
X105156000Y-87630000D01*
X105156000Y-87630000D02*
X110490000Y-87630000D01*
%TO.N,Net-(Q2-C)*%
X26670000Y-46482000D02*
X26670000Y-54356000D01*
X26710000Y-46442000D02*
X26670000Y-46482000D01*
X26710000Y-42926000D02*
X26710000Y-46442000D01*
%TO.N,VCC*%
X140970000Y-28418587D02*
X142723587Y-26665000D01*
X140970000Y-41910000D02*
X140970000Y-50263000D01*
X54610000Y-88900000D02*
X54610000Y-87630000D01*
X140179000Y-73660000D02*
X142748000Y-76229000D01*
X118110000Y-69850000D02*
X110490000Y-69850000D01*
X140970000Y-55118000D02*
X140970000Y-63471000D01*
X140970000Y-63471000D02*
X140941000Y-63500000D01*
X140970000Y-41910000D02*
X140970000Y-38100000D01*
X136144000Y-69850000D02*
X139700000Y-69850000D01*
X139700000Y-69850000D02*
X140941000Y-68609000D01*
X36830000Y-50292000D02*
X36830000Y-68580000D01*
X99060000Y-80010000D02*
X99060000Y-69850000D01*
X49530000Y-69850000D02*
X99060000Y-69850000D01*
X36830000Y-46482000D02*
X36830000Y-50292000D01*
X106680000Y-69850000D02*
X110490000Y-69850000D01*
X36830000Y-46482000D02*
X36830000Y-43942000D01*
X140941000Y-68609000D02*
X140941000Y-67564000D01*
X38100000Y-69850000D02*
X49530000Y-69850000D01*
X36830000Y-68580000D02*
X38100000Y-69850000D01*
X140941000Y-63500000D02*
X140941000Y-67564000D01*
X142723587Y-26665000D02*
X142915000Y-26665000D01*
X140970000Y-50263000D02*
X140941000Y-50292000D01*
X140970000Y-38100000D02*
X140970000Y-28418587D01*
X136144000Y-73660000D02*
X140179000Y-73660000D01*
X140941000Y-50292000D02*
X140941000Y-55089000D01*
X36830000Y-43942000D02*
X36322000Y-43434000D01*
X54610000Y-87630000D02*
X49530000Y-82550000D01*
X136144000Y-73660000D02*
X136144000Y-69850000D01*
X49530000Y-82550000D02*
X49530000Y-69850000D01*
X118110000Y-69850000D02*
X136144000Y-69850000D01*
X99060000Y-69850000D02*
X106680000Y-69850000D01*
%TO.N,Net-(Q5-C)*%
X143510000Y-46941314D02*
X146050000Y-49481314D01*
X143510000Y-41910000D02*
X143510000Y-45720000D01*
X146050000Y-49481314D02*
X146050000Y-50332000D01*
X143510000Y-45720000D02*
X143510000Y-46941314D01*
%TO.N,INT*%
X93980000Y-71171800D02*
X68576886Y-71171800D01*
X96520000Y-74930000D02*
X96520000Y-73711800D01*
X96520000Y-73711800D02*
X93980000Y-71171800D01*
X67310000Y-72438686D02*
X67310000Y-73660000D01*
X92964000Y-76454000D02*
X94996000Y-76454000D01*
X94996000Y-76454000D02*
X96520000Y-74930000D01*
X68576886Y-71171800D02*
X67310000Y-72438686D01*
%TO.N,Net-(Q7-B)*%
X102310200Y-71171800D02*
X101092000Y-72390000D01*
X139417000Y-76200000D02*
X139446000Y-76229000D01*
X101092000Y-81534000D02*
X105256600Y-85698600D01*
X112177187Y-85698600D02*
X116648587Y-90170000D01*
X116648587Y-90170000D02*
X116840000Y-90170000D01*
X135546188Y-76200000D02*
X131074788Y-71728600D01*
X120611987Y-71728600D02*
X120204587Y-72136000D01*
X136144000Y-76200000D02*
X135546188Y-76200000D01*
X101092000Y-72390000D02*
X101092000Y-81534000D01*
X120204587Y-72136000D02*
X105283000Y-72136000D01*
X136144000Y-76200000D02*
X139417000Y-76200000D01*
X105256600Y-85698600D02*
X112177187Y-85698600D01*
X105283000Y-72136000D02*
X104318800Y-71171800D01*
X137189000Y-76229000D02*
X137160000Y-76200000D01*
X131074788Y-71728600D02*
X120611987Y-71728600D01*
X104318800Y-71171800D02*
X102310200Y-71171800D01*
%TO.N,Net-(U2A-+)*%
X125222000Y-78740000D02*
X128524000Y-78740000D01*
X125222000Y-82550000D02*
X125222000Y-78740000D01*
X117856000Y-80010000D02*
X120142000Y-80010000D01*
X120142000Y-80010000D02*
X121412000Y-78740000D01*
X121412000Y-78740000D02*
X125222000Y-78740000D01*
%TO.N,Net-(U2B-+)*%
X141224000Y-84553000D02*
X141224000Y-81309000D01*
X136144000Y-81280000D02*
X139417000Y-81280000D01*
X141224000Y-81309000D02*
X142748000Y-81309000D01*
X139417000Y-81280000D02*
X139446000Y-81309000D01*
X139446000Y-81309000D02*
X141224000Y-81309000D01*
X137189000Y-81309000D02*
X137160000Y-81280000D01*
%TO.N,Net-(Q1-B)*%
X105410000Y-90170000D02*
X110490000Y-90170000D01*
%TO.N,Net-(Q3-B)*%
X29210000Y-50800000D02*
X29210000Y-45426000D01*
X30480000Y-41696000D02*
X31710000Y-42926000D01*
X30480000Y-37740000D02*
X30480000Y-41696000D01*
X29210000Y-45426000D02*
X31710000Y-42926000D01*
%TO.N,Net-(Q8-B)*%
X143481000Y-51533000D02*
X146050000Y-54102000D01*
X146050000Y-55332000D02*
X146050000Y-58928000D01*
X148619000Y-55118000D02*
X146264000Y-55118000D01*
X146050000Y-54102000D02*
X146050000Y-55332000D01*
X146264000Y-55118000D02*
X146050000Y-55332000D01*
X143481000Y-50292000D02*
X143481000Y-51533000D01*
%TO.N,Net-(Q8-C)*%
X146050000Y-63286000D02*
X143510000Y-60746000D01*
X143510000Y-60746000D02*
X143510000Y-58928000D01*
X143510000Y-55118000D02*
X143510000Y-58928000D01*
%TO.N,Net-(Q6-B)*%
X146050000Y-66069000D02*
X143481000Y-63500000D01*
X146050000Y-68286000D02*
X146050000Y-71882000D01*
X146050000Y-68286000D02*
X146050000Y-66069000D01*
%TO.N,Net-(Q2-E)*%
X32483000Y-58928000D02*
X32483000Y-55089000D01*
X32483000Y-55089000D02*
X31750000Y-54356000D01*
%TO.N,Net-(Q5-E)*%
X148590000Y-50263000D02*
X148619000Y-50292000D01*
X148590000Y-45720000D02*
X148590000Y-50263000D01*
%TO.N,Net-(Q8-E)*%
X148619000Y-58957000D02*
X148590000Y-58928000D01*
X148619000Y-63500000D02*
X148619000Y-58957000D01*
%TO.N,Net-(Q7-C)*%
X106680000Y-80010000D02*
X109982000Y-83312000D01*
X103124000Y-76454000D02*
X106680000Y-80010000D01*
X114046000Y-83312000D02*
X116840000Y-86106000D01*
X116840000Y-86106000D02*
X116840000Y-87630000D01*
X109982000Y-83312000D02*
X114046000Y-83312000D01*
X105410000Y-82550000D02*
X105410000Y-81280000D01*
X105410000Y-81280000D02*
X106680000Y-80010000D01*
%TO.N,Net-(C3-Pad2)*%
X114260000Y-80010000D02*
X114300000Y-79970000D01*
X121920000Y-82550000D02*
X116880000Y-82550000D01*
X109728000Y-80010000D02*
X110490000Y-80010000D01*
X103124000Y-73406000D02*
X109728000Y-80010000D01*
X116880000Y-82550000D02*
X114300000Y-79970000D01*
X110490000Y-80010000D02*
X114260000Y-80010000D01*
%TO.N,Net-(R30-Pad2)*%
X88900000Y-77470000D02*
X92964000Y-73406000D01*
X54610000Y-77470000D02*
X88900000Y-77470000D01*
%TD*%
M02*
