%TF.GenerationSoftware,KiCad,Pcbnew,9.0.6*%
%TF.CreationDate,2026-03-13T15:36:19-07:00*%
%TF.ProjectId,20AL_Pendulum_Photogate,3230414c-5f50-4656-9e64-756c756d5f50,rev?*%
%TF.SameCoordinates,Original*%
%TF.FileFunction,Legend,Top*%
%TF.FilePolarity,Positive*%
%FSLAX46Y46*%
G04 Gerber Fmt 4.6, Leading zero omitted, Abs format (unit mm)*
G04 Created by KiCad (PCBNEW 9.0.6) date 2026-03-13 15:36:19*
%MOMM*%
%LPD*%
G01*
G04 APERTURE LIST*
%ADD10C,0.100000*%
%ADD11C,0.150000*%
%ADD12C,0.120000*%
G04 APERTURE END LIST*
D10*
X25400000Y-76200000D02*
X50292000Y-76200000D01*
X50292000Y-86357599D01*
X25400000Y-86357599D01*
X25400000Y-76200000D01*
D11*
X149541580Y-69970666D02*
X149589200Y-70018285D01*
X149589200Y-70018285D02*
X149636819Y-70161142D01*
X149636819Y-70161142D02*
X149636819Y-70256380D01*
X149636819Y-70256380D02*
X149589200Y-70399237D01*
X149589200Y-70399237D02*
X149493961Y-70494475D01*
X149493961Y-70494475D02*
X149398723Y-70542094D01*
X149398723Y-70542094D02*
X149208247Y-70589713D01*
X149208247Y-70589713D02*
X149065390Y-70589713D01*
X149065390Y-70589713D02*
X148874914Y-70542094D01*
X148874914Y-70542094D02*
X148779676Y-70494475D01*
X148779676Y-70494475D02*
X148684438Y-70399237D01*
X148684438Y-70399237D02*
X148636819Y-70256380D01*
X148636819Y-70256380D02*
X148636819Y-70161142D01*
X148636819Y-70161142D02*
X148684438Y-70018285D01*
X148684438Y-70018285D02*
X148732057Y-69970666D01*
X148636819Y-69065904D02*
X148636819Y-69542094D01*
X148636819Y-69542094D02*
X149113009Y-69589713D01*
X149113009Y-69589713D02*
X149065390Y-69542094D01*
X149065390Y-69542094D02*
X149017771Y-69446856D01*
X149017771Y-69446856D02*
X149017771Y-69208761D01*
X149017771Y-69208761D02*
X149065390Y-69113523D01*
X149065390Y-69113523D02*
X149113009Y-69065904D01*
X149113009Y-69065904D02*
X149208247Y-69018285D01*
X149208247Y-69018285D02*
X149446342Y-69018285D01*
X149446342Y-69018285D02*
X149541580Y-69065904D01*
X149541580Y-69065904D02*
X149589200Y-69113523D01*
X149589200Y-69113523D02*
X149636819Y-69208761D01*
X149636819Y-69208761D02*
X149636819Y-69446856D01*
X149636819Y-69446856D02*
X149589200Y-69542094D01*
X149589200Y-69542094D02*
X149541580Y-69589713D01*
X31583333Y-35252819D02*
X31250000Y-34776628D01*
X31011905Y-35252819D02*
X31011905Y-34252819D01*
X31011905Y-34252819D02*
X31392857Y-34252819D01*
X31392857Y-34252819D02*
X31488095Y-34300438D01*
X31488095Y-34300438D02*
X31535714Y-34348057D01*
X31535714Y-34348057D02*
X31583333Y-34443295D01*
X31583333Y-34443295D02*
X31583333Y-34586152D01*
X31583333Y-34586152D02*
X31535714Y-34681390D01*
X31535714Y-34681390D02*
X31488095Y-34729009D01*
X31488095Y-34729009D02*
X31392857Y-34776628D01*
X31392857Y-34776628D02*
X31011905Y-34776628D01*
X32059524Y-35252819D02*
X32250000Y-35252819D01*
X32250000Y-35252819D02*
X32345238Y-35205200D01*
X32345238Y-35205200D02*
X32392857Y-35157580D01*
X32392857Y-35157580D02*
X32488095Y-35014723D01*
X32488095Y-35014723D02*
X32535714Y-34824247D01*
X32535714Y-34824247D02*
X32535714Y-34443295D01*
X32535714Y-34443295D02*
X32488095Y-34348057D01*
X32488095Y-34348057D02*
X32440476Y-34300438D01*
X32440476Y-34300438D02*
X32345238Y-34252819D01*
X32345238Y-34252819D02*
X32154762Y-34252819D01*
X32154762Y-34252819D02*
X32059524Y-34300438D01*
X32059524Y-34300438D02*
X32011905Y-34348057D01*
X32011905Y-34348057D02*
X31964286Y-34443295D01*
X31964286Y-34443295D02*
X31964286Y-34681390D01*
X31964286Y-34681390D02*
X32011905Y-34776628D01*
X32011905Y-34776628D02*
X32059524Y-34824247D01*
X32059524Y-34824247D02*
X32154762Y-34871866D01*
X32154762Y-34871866D02*
X32345238Y-34871866D01*
X32345238Y-34871866D02*
X32440476Y-34824247D01*
X32440476Y-34824247D02*
X32488095Y-34776628D01*
X32488095Y-34776628D02*
X32535714Y-34681390D01*
D10*
X69038095Y-79467419D02*
X69038095Y-80276942D01*
X69038095Y-80276942D02*
X69085714Y-80372180D01*
X69085714Y-80372180D02*
X69133333Y-80419800D01*
X69133333Y-80419800D02*
X69228571Y-80467419D01*
X69228571Y-80467419D02*
X69419047Y-80467419D01*
X69419047Y-80467419D02*
X69514285Y-80419800D01*
X69514285Y-80419800D02*
X69561904Y-80372180D01*
X69561904Y-80372180D02*
X69609523Y-80276942D01*
X69609523Y-80276942D02*
X69609523Y-79467419D01*
X70609523Y-80467419D02*
X70038095Y-80467419D01*
X70323809Y-80467419D02*
X70323809Y-79467419D01*
X70323809Y-79467419D02*
X70228571Y-79610276D01*
X70228571Y-79610276D02*
X70133333Y-79705514D01*
X70133333Y-79705514D02*
X70038095Y-79753133D01*
D11*
X143456819Y-71604094D02*
X142456819Y-71604094D01*
X142456819Y-71604094D02*
X142456819Y-71365999D01*
X142456819Y-71365999D02*
X142504438Y-71223142D01*
X142504438Y-71223142D02*
X142599676Y-71127904D01*
X142599676Y-71127904D02*
X142694914Y-71080285D01*
X142694914Y-71080285D02*
X142885390Y-71032666D01*
X142885390Y-71032666D02*
X143028247Y-71032666D01*
X143028247Y-71032666D02*
X143218723Y-71080285D01*
X143218723Y-71080285D02*
X143313961Y-71127904D01*
X143313961Y-71127904D02*
X143409200Y-71223142D01*
X143409200Y-71223142D02*
X143456819Y-71365999D01*
X143456819Y-71365999D02*
X143456819Y-71604094D01*
X142552057Y-70651713D02*
X142504438Y-70604094D01*
X142504438Y-70604094D02*
X142456819Y-70508856D01*
X142456819Y-70508856D02*
X142456819Y-70270761D01*
X142456819Y-70270761D02*
X142504438Y-70175523D01*
X142504438Y-70175523D02*
X142552057Y-70127904D01*
X142552057Y-70127904D02*
X142647295Y-70080285D01*
X142647295Y-70080285D02*
X142742533Y-70080285D01*
X142742533Y-70080285D02*
X142885390Y-70127904D01*
X142885390Y-70127904D02*
X143456819Y-70699332D01*
X143456819Y-70699332D02*
X143456819Y-70080285D01*
X126071333Y-71931580D02*
X126023714Y-71979200D01*
X126023714Y-71979200D02*
X125880857Y-72026819D01*
X125880857Y-72026819D02*
X125785619Y-72026819D01*
X125785619Y-72026819D02*
X125642762Y-71979200D01*
X125642762Y-71979200D02*
X125547524Y-71883961D01*
X125547524Y-71883961D02*
X125499905Y-71788723D01*
X125499905Y-71788723D02*
X125452286Y-71598247D01*
X125452286Y-71598247D02*
X125452286Y-71455390D01*
X125452286Y-71455390D02*
X125499905Y-71264914D01*
X125499905Y-71264914D02*
X125547524Y-71169676D01*
X125547524Y-71169676D02*
X125642762Y-71074438D01*
X125642762Y-71074438D02*
X125785619Y-71026819D01*
X125785619Y-71026819D02*
X125880857Y-71026819D01*
X125880857Y-71026819D02*
X126023714Y-71074438D01*
X126023714Y-71074438D02*
X126071333Y-71122057D01*
X126547524Y-72026819D02*
X126738000Y-72026819D01*
X126738000Y-72026819D02*
X126833238Y-71979200D01*
X126833238Y-71979200D02*
X126880857Y-71931580D01*
X126880857Y-71931580D02*
X126976095Y-71788723D01*
X126976095Y-71788723D02*
X127023714Y-71598247D01*
X127023714Y-71598247D02*
X127023714Y-71217295D01*
X127023714Y-71217295D02*
X126976095Y-71122057D01*
X126976095Y-71122057D02*
X126928476Y-71074438D01*
X126928476Y-71074438D02*
X126833238Y-71026819D01*
X126833238Y-71026819D02*
X126642762Y-71026819D01*
X126642762Y-71026819D02*
X126547524Y-71074438D01*
X126547524Y-71074438D02*
X126499905Y-71122057D01*
X126499905Y-71122057D02*
X126452286Y-71217295D01*
X126452286Y-71217295D02*
X126452286Y-71455390D01*
X126452286Y-71455390D02*
X126499905Y-71550628D01*
X126499905Y-71550628D02*
X126547524Y-71598247D01*
X126547524Y-71598247D02*
X126642762Y-71645866D01*
X126642762Y-71645866D02*
X126833238Y-71645866D01*
X126833238Y-71645866D02*
X126928476Y-71598247D01*
X126928476Y-71598247D02*
X126976095Y-71550628D01*
X126976095Y-71550628D02*
X127023714Y-71455390D01*
X145883333Y-53007580D02*
X145835714Y-53055200D01*
X145835714Y-53055200D02*
X145692857Y-53102819D01*
X145692857Y-53102819D02*
X145597619Y-53102819D01*
X145597619Y-53102819D02*
X145454762Y-53055200D01*
X145454762Y-53055200D02*
X145359524Y-52959961D01*
X145359524Y-52959961D02*
X145311905Y-52864723D01*
X145311905Y-52864723D02*
X145264286Y-52674247D01*
X145264286Y-52674247D02*
X145264286Y-52531390D01*
X145264286Y-52531390D02*
X145311905Y-52340914D01*
X145311905Y-52340914D02*
X145359524Y-52245676D01*
X145359524Y-52245676D02*
X145454762Y-52150438D01*
X145454762Y-52150438D02*
X145597619Y-52102819D01*
X145597619Y-52102819D02*
X145692857Y-52102819D01*
X145692857Y-52102819D02*
X145835714Y-52150438D01*
X145835714Y-52150438D02*
X145883333Y-52198057D01*
X146740476Y-52102819D02*
X146550000Y-52102819D01*
X146550000Y-52102819D02*
X146454762Y-52150438D01*
X146454762Y-52150438D02*
X146407143Y-52198057D01*
X146407143Y-52198057D02*
X146311905Y-52340914D01*
X146311905Y-52340914D02*
X146264286Y-52531390D01*
X146264286Y-52531390D02*
X146264286Y-52912342D01*
X146264286Y-52912342D02*
X146311905Y-53007580D01*
X146311905Y-53007580D02*
X146359524Y-53055200D01*
X146359524Y-53055200D02*
X146454762Y-53102819D01*
X146454762Y-53102819D02*
X146645238Y-53102819D01*
X146645238Y-53102819D02*
X146740476Y-53055200D01*
X146740476Y-53055200D02*
X146788095Y-53007580D01*
X146788095Y-53007580D02*
X146835714Y-52912342D01*
X146835714Y-52912342D02*
X146835714Y-52674247D01*
X146835714Y-52674247D02*
X146788095Y-52579009D01*
X146788095Y-52579009D02*
X146740476Y-52531390D01*
X146740476Y-52531390D02*
X146645238Y-52483771D01*
X146645238Y-52483771D02*
X146454762Y-52483771D01*
X146454762Y-52483771D02*
X146359524Y-52531390D01*
X146359524Y-52531390D02*
X146311905Y-52579009D01*
X146311905Y-52579009D02*
X146264286Y-52674247D01*
X107642819Y-78620857D02*
X107166628Y-78954190D01*
X107642819Y-79192285D02*
X106642819Y-79192285D01*
X106642819Y-79192285D02*
X106642819Y-78811333D01*
X106642819Y-78811333D02*
X106690438Y-78716095D01*
X106690438Y-78716095D02*
X106738057Y-78668476D01*
X106738057Y-78668476D02*
X106833295Y-78620857D01*
X106833295Y-78620857D02*
X106976152Y-78620857D01*
X106976152Y-78620857D02*
X107071390Y-78668476D01*
X107071390Y-78668476D02*
X107119009Y-78716095D01*
X107119009Y-78716095D02*
X107166628Y-78811333D01*
X107166628Y-78811333D02*
X107166628Y-79192285D01*
X107642819Y-77668476D02*
X107642819Y-78239904D01*
X107642819Y-77954190D02*
X106642819Y-77954190D01*
X106642819Y-77954190D02*
X106785676Y-78049428D01*
X106785676Y-78049428D02*
X106880914Y-78144666D01*
X106880914Y-78144666D02*
X106928533Y-78239904D01*
X107642819Y-77192285D02*
X107642819Y-77001809D01*
X107642819Y-77001809D02*
X107595200Y-76906571D01*
X107595200Y-76906571D02*
X107547580Y-76858952D01*
X107547580Y-76858952D02*
X107404723Y-76763714D01*
X107404723Y-76763714D02*
X107214247Y-76716095D01*
X107214247Y-76716095D02*
X106833295Y-76716095D01*
X106833295Y-76716095D02*
X106738057Y-76763714D01*
X106738057Y-76763714D02*
X106690438Y-76811333D01*
X106690438Y-76811333D02*
X106642819Y-76906571D01*
X106642819Y-76906571D02*
X106642819Y-77097047D01*
X106642819Y-77097047D02*
X106690438Y-77192285D01*
X106690438Y-77192285D02*
X106738057Y-77239904D01*
X106738057Y-77239904D02*
X106833295Y-77287523D01*
X106833295Y-77287523D02*
X107071390Y-77287523D01*
X107071390Y-77287523D02*
X107166628Y-77239904D01*
X107166628Y-77239904D02*
X107214247Y-77192285D01*
X107214247Y-77192285D02*
X107261866Y-77097047D01*
X107261866Y-77097047D02*
X107261866Y-76906571D01*
X107261866Y-76906571D02*
X107214247Y-76811333D01*
X107214247Y-76811333D02*
X107166628Y-76763714D01*
X107166628Y-76763714D02*
X107071390Y-76716095D01*
X148494761Y-62112057D02*
X148399523Y-62064438D01*
X148399523Y-62064438D02*
X148304285Y-61969200D01*
X148304285Y-61969200D02*
X148161428Y-61826342D01*
X148161428Y-61826342D02*
X148066190Y-61778723D01*
X148066190Y-61778723D02*
X147970952Y-61778723D01*
X148018571Y-62016819D02*
X147923333Y-61969200D01*
X147923333Y-61969200D02*
X147828095Y-61873961D01*
X147828095Y-61873961D02*
X147780476Y-61683485D01*
X147780476Y-61683485D02*
X147780476Y-61350152D01*
X147780476Y-61350152D02*
X147828095Y-61159676D01*
X147828095Y-61159676D02*
X147923333Y-61064438D01*
X147923333Y-61064438D02*
X148018571Y-61016819D01*
X148018571Y-61016819D02*
X148209047Y-61016819D01*
X148209047Y-61016819D02*
X148304285Y-61064438D01*
X148304285Y-61064438D02*
X148399523Y-61159676D01*
X148399523Y-61159676D02*
X148447142Y-61350152D01*
X148447142Y-61350152D02*
X148447142Y-61683485D01*
X148447142Y-61683485D02*
X148399523Y-61873961D01*
X148399523Y-61873961D02*
X148304285Y-61969200D01*
X148304285Y-61969200D02*
X148209047Y-62016819D01*
X148209047Y-62016819D02*
X148018571Y-62016819D01*
X149018571Y-61445390D02*
X148923333Y-61397771D01*
X148923333Y-61397771D02*
X148875714Y-61350152D01*
X148875714Y-61350152D02*
X148828095Y-61254914D01*
X148828095Y-61254914D02*
X148828095Y-61207295D01*
X148828095Y-61207295D02*
X148875714Y-61112057D01*
X148875714Y-61112057D02*
X148923333Y-61064438D01*
X148923333Y-61064438D02*
X149018571Y-61016819D01*
X149018571Y-61016819D02*
X149209047Y-61016819D01*
X149209047Y-61016819D02*
X149304285Y-61064438D01*
X149304285Y-61064438D02*
X149351904Y-61112057D01*
X149351904Y-61112057D02*
X149399523Y-61207295D01*
X149399523Y-61207295D02*
X149399523Y-61254914D01*
X149399523Y-61254914D02*
X149351904Y-61350152D01*
X149351904Y-61350152D02*
X149304285Y-61397771D01*
X149304285Y-61397771D02*
X149209047Y-61445390D01*
X149209047Y-61445390D02*
X149018571Y-61445390D01*
X149018571Y-61445390D02*
X148923333Y-61493009D01*
X148923333Y-61493009D02*
X148875714Y-61540628D01*
X148875714Y-61540628D02*
X148828095Y-61635866D01*
X148828095Y-61635866D02*
X148828095Y-61826342D01*
X148828095Y-61826342D02*
X148875714Y-61921580D01*
X148875714Y-61921580D02*
X148923333Y-61969200D01*
X148923333Y-61969200D02*
X149018571Y-62016819D01*
X149018571Y-62016819D02*
X149209047Y-62016819D01*
X149209047Y-62016819D02*
X149304285Y-61969200D01*
X149304285Y-61969200D02*
X149351904Y-61921580D01*
X149351904Y-61921580D02*
X149399523Y-61826342D01*
X149399523Y-61826342D02*
X149399523Y-61635866D01*
X149399523Y-61635866D02*
X149351904Y-61540628D01*
X149351904Y-61540628D02*
X149304285Y-61493009D01*
X149304285Y-61493009D02*
X149209047Y-61445390D01*
X144007142Y-64674819D02*
X143673809Y-64198628D01*
X143435714Y-64674819D02*
X143435714Y-63674819D01*
X143435714Y-63674819D02*
X143816666Y-63674819D01*
X143816666Y-63674819D02*
X143911904Y-63722438D01*
X143911904Y-63722438D02*
X143959523Y-63770057D01*
X143959523Y-63770057D02*
X144007142Y-63865295D01*
X144007142Y-63865295D02*
X144007142Y-64008152D01*
X144007142Y-64008152D02*
X143959523Y-64103390D01*
X143959523Y-64103390D02*
X143911904Y-64151009D01*
X143911904Y-64151009D02*
X143816666Y-64198628D01*
X143816666Y-64198628D02*
X143435714Y-64198628D01*
X144388095Y-63770057D02*
X144435714Y-63722438D01*
X144435714Y-63722438D02*
X144530952Y-63674819D01*
X144530952Y-63674819D02*
X144769047Y-63674819D01*
X144769047Y-63674819D02*
X144864285Y-63722438D01*
X144864285Y-63722438D02*
X144911904Y-63770057D01*
X144911904Y-63770057D02*
X144959523Y-63865295D01*
X144959523Y-63865295D02*
X144959523Y-63960533D01*
X144959523Y-63960533D02*
X144911904Y-64103390D01*
X144911904Y-64103390D02*
X144340476Y-64674819D01*
X144340476Y-64674819D02*
X144959523Y-64674819D01*
X145816666Y-63674819D02*
X145626190Y-63674819D01*
X145626190Y-63674819D02*
X145530952Y-63722438D01*
X145530952Y-63722438D02*
X145483333Y-63770057D01*
X145483333Y-63770057D02*
X145388095Y-63912914D01*
X145388095Y-63912914D02*
X145340476Y-64103390D01*
X145340476Y-64103390D02*
X145340476Y-64484342D01*
X145340476Y-64484342D02*
X145388095Y-64579580D01*
X145388095Y-64579580D02*
X145435714Y-64627200D01*
X145435714Y-64627200D02*
X145530952Y-64674819D01*
X145530952Y-64674819D02*
X145721428Y-64674819D01*
X145721428Y-64674819D02*
X145816666Y-64627200D01*
X145816666Y-64627200D02*
X145864285Y-64579580D01*
X145864285Y-64579580D02*
X145911904Y-64484342D01*
X145911904Y-64484342D02*
X145911904Y-64246247D01*
X145911904Y-64246247D02*
X145864285Y-64151009D01*
X145864285Y-64151009D02*
X145816666Y-64103390D01*
X145816666Y-64103390D02*
X145721428Y-64055771D01*
X145721428Y-64055771D02*
X145530952Y-64055771D01*
X145530952Y-64055771D02*
X145435714Y-64103390D01*
X145435714Y-64103390D02*
X145388095Y-64151009D01*
X145388095Y-64151009D02*
X145340476Y-64246247D01*
X104340819Y-74842666D02*
X103864628Y-75175999D01*
X104340819Y-75414094D02*
X103340819Y-75414094D01*
X103340819Y-75414094D02*
X103340819Y-75033142D01*
X103340819Y-75033142D02*
X103388438Y-74937904D01*
X103388438Y-74937904D02*
X103436057Y-74890285D01*
X103436057Y-74890285D02*
X103531295Y-74842666D01*
X103531295Y-74842666D02*
X103674152Y-74842666D01*
X103674152Y-74842666D02*
X103769390Y-74890285D01*
X103769390Y-74890285D02*
X103817009Y-74937904D01*
X103817009Y-74937904D02*
X103864628Y-75033142D01*
X103864628Y-75033142D02*
X103864628Y-75414094D01*
X103340819Y-74509332D02*
X103340819Y-73842666D01*
X103340819Y-73842666D02*
X104340819Y-74271237D01*
X144109142Y-41306819D02*
X143775809Y-40830628D01*
X143537714Y-41306819D02*
X143537714Y-40306819D01*
X143537714Y-40306819D02*
X143918666Y-40306819D01*
X143918666Y-40306819D02*
X144013904Y-40354438D01*
X144013904Y-40354438D02*
X144061523Y-40402057D01*
X144061523Y-40402057D02*
X144109142Y-40497295D01*
X144109142Y-40497295D02*
X144109142Y-40640152D01*
X144109142Y-40640152D02*
X144061523Y-40735390D01*
X144061523Y-40735390D02*
X144013904Y-40783009D01*
X144013904Y-40783009D02*
X143918666Y-40830628D01*
X143918666Y-40830628D02*
X143537714Y-40830628D01*
X145061523Y-41306819D02*
X144490095Y-41306819D01*
X144775809Y-41306819D02*
X144775809Y-40306819D01*
X144775809Y-40306819D02*
X144680571Y-40449676D01*
X144680571Y-40449676D02*
X144585333Y-40544914D01*
X144585333Y-40544914D02*
X144490095Y-40592533D01*
X146013904Y-41306819D02*
X145442476Y-41306819D01*
X145728190Y-41306819D02*
X145728190Y-40306819D01*
X145728190Y-40306819D02*
X145632952Y-40449676D01*
X145632952Y-40449676D02*
X145537714Y-40544914D01*
X145537714Y-40544914D02*
X145442476Y-40592533D01*
X146378819Y-71762857D02*
X145902628Y-72096190D01*
X146378819Y-72334285D02*
X145378819Y-72334285D01*
X145378819Y-72334285D02*
X145378819Y-71953333D01*
X145378819Y-71953333D02*
X145426438Y-71858095D01*
X145426438Y-71858095D02*
X145474057Y-71810476D01*
X145474057Y-71810476D02*
X145569295Y-71762857D01*
X145569295Y-71762857D02*
X145712152Y-71762857D01*
X145712152Y-71762857D02*
X145807390Y-71810476D01*
X145807390Y-71810476D02*
X145855009Y-71858095D01*
X145855009Y-71858095D02*
X145902628Y-71953333D01*
X145902628Y-71953333D02*
X145902628Y-72334285D01*
X146378819Y-70810476D02*
X146378819Y-71381904D01*
X146378819Y-71096190D02*
X145378819Y-71096190D01*
X145378819Y-71096190D02*
X145521676Y-71191428D01*
X145521676Y-71191428D02*
X145616914Y-71286666D01*
X145616914Y-71286666D02*
X145664533Y-71381904D01*
X145378819Y-69905714D02*
X145378819Y-70381904D01*
X145378819Y-70381904D02*
X145855009Y-70429523D01*
X145855009Y-70429523D02*
X145807390Y-70381904D01*
X145807390Y-70381904D02*
X145759771Y-70286666D01*
X145759771Y-70286666D02*
X145759771Y-70048571D01*
X145759771Y-70048571D02*
X145807390Y-69953333D01*
X145807390Y-69953333D02*
X145855009Y-69905714D01*
X145855009Y-69905714D02*
X145950247Y-69858095D01*
X145950247Y-69858095D02*
X146188342Y-69858095D01*
X146188342Y-69858095D02*
X146283580Y-69905714D01*
X146283580Y-69905714D02*
X146331200Y-69953333D01*
X146331200Y-69953333D02*
X146378819Y-70048571D01*
X146378819Y-70048571D02*
X146378819Y-70286666D01*
X146378819Y-70286666D02*
X146331200Y-70381904D01*
X146331200Y-70381904D02*
X146283580Y-70429523D01*
X29114761Y-41554057D02*
X29019523Y-41506438D01*
X29019523Y-41506438D02*
X28924285Y-41411200D01*
X28924285Y-41411200D02*
X28781428Y-41268342D01*
X28781428Y-41268342D02*
X28686190Y-41220723D01*
X28686190Y-41220723D02*
X28590952Y-41220723D01*
X28638571Y-41458819D02*
X28543333Y-41411200D01*
X28543333Y-41411200D02*
X28448095Y-41315961D01*
X28448095Y-41315961D02*
X28400476Y-41125485D01*
X28400476Y-41125485D02*
X28400476Y-40792152D01*
X28400476Y-40792152D02*
X28448095Y-40601676D01*
X28448095Y-40601676D02*
X28543333Y-40506438D01*
X28543333Y-40506438D02*
X28638571Y-40458819D01*
X28638571Y-40458819D02*
X28829047Y-40458819D01*
X28829047Y-40458819D02*
X28924285Y-40506438D01*
X28924285Y-40506438D02*
X29019523Y-40601676D01*
X29019523Y-40601676D02*
X29067142Y-40792152D01*
X29067142Y-40792152D02*
X29067142Y-41125485D01*
X29067142Y-41125485D02*
X29019523Y-41315961D01*
X29019523Y-41315961D02*
X28924285Y-41411200D01*
X28924285Y-41411200D02*
X28829047Y-41458819D01*
X28829047Y-41458819D02*
X28638571Y-41458819D01*
X29400476Y-40458819D02*
X30019523Y-40458819D01*
X30019523Y-40458819D02*
X29686190Y-40839771D01*
X29686190Y-40839771D02*
X29829047Y-40839771D01*
X29829047Y-40839771D02*
X29924285Y-40887390D01*
X29924285Y-40887390D02*
X29971904Y-40935009D01*
X29971904Y-40935009D02*
X30019523Y-41030247D01*
X30019523Y-41030247D02*
X30019523Y-41268342D01*
X30019523Y-41268342D02*
X29971904Y-41363580D01*
X29971904Y-41363580D02*
X29924285Y-41411200D01*
X29924285Y-41411200D02*
X29829047Y-41458819D01*
X29829047Y-41458819D02*
X29543333Y-41458819D01*
X29543333Y-41458819D02*
X29448095Y-41411200D01*
X29448095Y-41411200D02*
X29400476Y-41363580D01*
X37939333Y-72099580D02*
X37891714Y-72147200D01*
X37891714Y-72147200D02*
X37748857Y-72194819D01*
X37748857Y-72194819D02*
X37653619Y-72194819D01*
X37653619Y-72194819D02*
X37510762Y-72147200D01*
X37510762Y-72147200D02*
X37415524Y-72051961D01*
X37415524Y-72051961D02*
X37367905Y-71956723D01*
X37367905Y-71956723D02*
X37320286Y-71766247D01*
X37320286Y-71766247D02*
X37320286Y-71623390D01*
X37320286Y-71623390D02*
X37367905Y-71432914D01*
X37367905Y-71432914D02*
X37415524Y-71337676D01*
X37415524Y-71337676D02*
X37510762Y-71242438D01*
X37510762Y-71242438D02*
X37653619Y-71194819D01*
X37653619Y-71194819D02*
X37748857Y-71194819D01*
X37748857Y-71194819D02*
X37891714Y-71242438D01*
X37891714Y-71242438D02*
X37939333Y-71290057D01*
X38272667Y-71194819D02*
X38891714Y-71194819D01*
X38891714Y-71194819D02*
X38558381Y-71575771D01*
X38558381Y-71575771D02*
X38701238Y-71575771D01*
X38701238Y-71575771D02*
X38796476Y-71623390D01*
X38796476Y-71623390D02*
X38844095Y-71671009D01*
X38844095Y-71671009D02*
X38891714Y-71766247D01*
X38891714Y-71766247D02*
X38891714Y-72004342D01*
X38891714Y-72004342D02*
X38844095Y-72099580D01*
X38844095Y-72099580D02*
X38796476Y-72147200D01*
X38796476Y-72147200D02*
X38701238Y-72194819D01*
X38701238Y-72194819D02*
X38415524Y-72194819D01*
X38415524Y-72194819D02*
X38320286Y-72147200D01*
X38320286Y-72147200D02*
X38272667Y-72099580D01*
X41094819Y-28678094D02*
X40094819Y-28678094D01*
X40094819Y-28678094D02*
X40094819Y-28439999D01*
X40094819Y-28439999D02*
X40142438Y-28297142D01*
X40142438Y-28297142D02*
X40237676Y-28201904D01*
X40237676Y-28201904D02*
X40332914Y-28154285D01*
X40332914Y-28154285D02*
X40523390Y-28106666D01*
X40523390Y-28106666D02*
X40666247Y-28106666D01*
X40666247Y-28106666D02*
X40856723Y-28154285D01*
X40856723Y-28154285D02*
X40951961Y-28201904D01*
X40951961Y-28201904D02*
X41047200Y-28297142D01*
X41047200Y-28297142D02*
X41094819Y-28439999D01*
X41094819Y-28439999D02*
X41094819Y-28678094D01*
X41094819Y-27154285D02*
X41094819Y-27725713D01*
X41094819Y-27439999D02*
X40094819Y-27439999D01*
X40094819Y-27439999D02*
X40237676Y-27535237D01*
X40237676Y-27535237D02*
X40332914Y-27630475D01*
X40332914Y-27630475D02*
X40380533Y-27725713D01*
X136006819Y-78366857D02*
X135530628Y-78700190D01*
X136006819Y-78938285D02*
X135006819Y-78938285D01*
X135006819Y-78938285D02*
X135006819Y-78557333D01*
X135006819Y-78557333D02*
X135054438Y-78462095D01*
X135054438Y-78462095D02*
X135102057Y-78414476D01*
X135102057Y-78414476D02*
X135197295Y-78366857D01*
X135197295Y-78366857D02*
X135340152Y-78366857D01*
X135340152Y-78366857D02*
X135435390Y-78414476D01*
X135435390Y-78414476D02*
X135483009Y-78462095D01*
X135483009Y-78462095D02*
X135530628Y-78557333D01*
X135530628Y-78557333D02*
X135530628Y-78938285D01*
X136006819Y-77414476D02*
X136006819Y-77985904D01*
X136006819Y-77700190D02*
X135006819Y-77700190D01*
X135006819Y-77700190D02*
X135149676Y-77795428D01*
X135149676Y-77795428D02*
X135244914Y-77890666D01*
X135244914Y-77890666D02*
X135292533Y-77985904D01*
X135435390Y-76843047D02*
X135387771Y-76938285D01*
X135387771Y-76938285D02*
X135340152Y-76985904D01*
X135340152Y-76985904D02*
X135244914Y-77033523D01*
X135244914Y-77033523D02*
X135197295Y-77033523D01*
X135197295Y-77033523D02*
X135102057Y-76985904D01*
X135102057Y-76985904D02*
X135054438Y-76938285D01*
X135054438Y-76938285D02*
X135006819Y-76843047D01*
X135006819Y-76843047D02*
X135006819Y-76652571D01*
X135006819Y-76652571D02*
X135054438Y-76557333D01*
X135054438Y-76557333D02*
X135102057Y-76509714D01*
X135102057Y-76509714D02*
X135197295Y-76462095D01*
X135197295Y-76462095D02*
X135244914Y-76462095D01*
X135244914Y-76462095D02*
X135340152Y-76509714D01*
X135340152Y-76509714D02*
X135387771Y-76557333D01*
X135387771Y-76557333D02*
X135435390Y-76652571D01*
X135435390Y-76652571D02*
X135435390Y-76843047D01*
X135435390Y-76843047D02*
X135483009Y-76938285D01*
X135483009Y-76938285D02*
X135530628Y-76985904D01*
X135530628Y-76985904D02*
X135625866Y-77033523D01*
X135625866Y-77033523D02*
X135816342Y-77033523D01*
X135816342Y-77033523D02*
X135911580Y-76985904D01*
X135911580Y-76985904D02*
X135959200Y-76938285D01*
X135959200Y-76938285D02*
X136006819Y-76843047D01*
X136006819Y-76843047D02*
X136006819Y-76652571D01*
X136006819Y-76652571D02*
X135959200Y-76557333D01*
X135959200Y-76557333D02*
X135911580Y-76509714D01*
X135911580Y-76509714D02*
X135816342Y-76462095D01*
X135816342Y-76462095D02*
X135625866Y-76462095D01*
X135625866Y-76462095D02*
X135530628Y-76509714D01*
X135530628Y-76509714D02*
X135483009Y-76557333D01*
X135483009Y-76557333D02*
X135435390Y-76652571D01*
X148494761Y-46976057D02*
X148399523Y-46928438D01*
X148399523Y-46928438D02*
X148304285Y-46833200D01*
X148304285Y-46833200D02*
X148161428Y-46690342D01*
X148161428Y-46690342D02*
X148066190Y-46642723D01*
X148066190Y-46642723D02*
X147970952Y-46642723D01*
X148018571Y-46880819D02*
X147923333Y-46833200D01*
X147923333Y-46833200D02*
X147828095Y-46737961D01*
X147828095Y-46737961D02*
X147780476Y-46547485D01*
X147780476Y-46547485D02*
X147780476Y-46214152D01*
X147780476Y-46214152D02*
X147828095Y-46023676D01*
X147828095Y-46023676D02*
X147923333Y-45928438D01*
X147923333Y-45928438D02*
X148018571Y-45880819D01*
X148018571Y-45880819D02*
X148209047Y-45880819D01*
X148209047Y-45880819D02*
X148304285Y-45928438D01*
X148304285Y-45928438D02*
X148399523Y-46023676D01*
X148399523Y-46023676D02*
X148447142Y-46214152D01*
X148447142Y-46214152D02*
X148447142Y-46547485D01*
X148447142Y-46547485D02*
X148399523Y-46737961D01*
X148399523Y-46737961D02*
X148304285Y-46833200D01*
X148304285Y-46833200D02*
X148209047Y-46880819D01*
X148209047Y-46880819D02*
X148018571Y-46880819D01*
X149351904Y-45880819D02*
X148875714Y-45880819D01*
X148875714Y-45880819D02*
X148828095Y-46357009D01*
X148828095Y-46357009D02*
X148875714Y-46309390D01*
X148875714Y-46309390D02*
X148970952Y-46261771D01*
X148970952Y-46261771D02*
X149209047Y-46261771D01*
X149209047Y-46261771D02*
X149304285Y-46309390D01*
X149304285Y-46309390D02*
X149351904Y-46357009D01*
X149351904Y-46357009D02*
X149399523Y-46452247D01*
X149399523Y-46452247D02*
X149399523Y-46690342D01*
X149399523Y-46690342D02*
X149351904Y-46785580D01*
X149351904Y-46785580D02*
X149304285Y-46833200D01*
X149304285Y-46833200D02*
X149209047Y-46880819D01*
X149209047Y-46880819D02*
X148970952Y-46880819D01*
X148970952Y-46880819D02*
X148875714Y-46833200D01*
X148875714Y-46833200D02*
X148828095Y-46785580D01*
X105098057Y-90457238D02*
X105050438Y-90552476D01*
X105050438Y-90552476D02*
X104955200Y-90647714D01*
X104955200Y-90647714D02*
X104812342Y-90790571D01*
X104812342Y-90790571D02*
X104764723Y-90885809D01*
X104764723Y-90885809D02*
X104764723Y-90981047D01*
X105002819Y-90933428D02*
X104955200Y-91028666D01*
X104955200Y-91028666D02*
X104859961Y-91123904D01*
X104859961Y-91123904D02*
X104669485Y-91171523D01*
X104669485Y-91171523D02*
X104336152Y-91171523D01*
X104336152Y-91171523D02*
X104145676Y-91123904D01*
X104145676Y-91123904D02*
X104050438Y-91028666D01*
X104050438Y-91028666D02*
X104002819Y-90933428D01*
X104002819Y-90933428D02*
X104002819Y-90742952D01*
X104002819Y-90742952D02*
X104050438Y-90647714D01*
X104050438Y-90647714D02*
X104145676Y-90552476D01*
X104145676Y-90552476D02*
X104336152Y-90504857D01*
X104336152Y-90504857D02*
X104669485Y-90504857D01*
X104669485Y-90504857D02*
X104859961Y-90552476D01*
X104859961Y-90552476D02*
X104955200Y-90647714D01*
X104955200Y-90647714D02*
X105002819Y-90742952D01*
X105002819Y-90742952D02*
X105002819Y-90933428D01*
X105002819Y-89552476D02*
X105002819Y-90123904D01*
X105002819Y-89838190D02*
X104002819Y-89838190D01*
X104002819Y-89838190D02*
X104145676Y-89933428D01*
X104145676Y-89933428D02*
X104240914Y-90028666D01*
X104240914Y-90028666D02*
X104288533Y-90123904D01*
X114386819Y-81700666D02*
X113910628Y-82033999D01*
X114386819Y-82272094D02*
X113386819Y-82272094D01*
X113386819Y-82272094D02*
X113386819Y-81891142D01*
X113386819Y-81891142D02*
X113434438Y-81795904D01*
X113434438Y-81795904D02*
X113482057Y-81748285D01*
X113482057Y-81748285D02*
X113577295Y-81700666D01*
X113577295Y-81700666D02*
X113720152Y-81700666D01*
X113720152Y-81700666D02*
X113815390Y-81748285D01*
X113815390Y-81748285D02*
X113863009Y-81795904D01*
X113863009Y-81795904D02*
X113910628Y-81891142D01*
X113910628Y-81891142D02*
X113910628Y-82272094D01*
X114386819Y-80748285D02*
X114386819Y-81319713D01*
X114386819Y-81033999D02*
X113386819Y-81033999D01*
X113386819Y-81033999D02*
X113529676Y-81129237D01*
X113529676Y-81129237D02*
X113624914Y-81224475D01*
X113624914Y-81224475D02*
X113672533Y-81319713D01*
X139641443Y-74048857D02*
X139165252Y-74382190D01*
X139641443Y-74620285D02*
X138641443Y-74620285D01*
X138641443Y-74620285D02*
X138641443Y-74239333D01*
X138641443Y-74239333D02*
X138689062Y-74144095D01*
X138689062Y-74144095D02*
X138736681Y-74096476D01*
X138736681Y-74096476D02*
X138831919Y-74048857D01*
X138831919Y-74048857D02*
X138974776Y-74048857D01*
X138974776Y-74048857D02*
X139070014Y-74096476D01*
X139070014Y-74096476D02*
X139117633Y-74144095D01*
X139117633Y-74144095D02*
X139165252Y-74239333D01*
X139165252Y-74239333D02*
X139165252Y-74620285D01*
X139641443Y-73096476D02*
X139641443Y-73667904D01*
X139641443Y-73382190D02*
X138641443Y-73382190D01*
X138641443Y-73382190D02*
X138784300Y-73477428D01*
X138784300Y-73477428D02*
X138879538Y-73572666D01*
X138879538Y-73572666D02*
X138927157Y-73667904D01*
X138641443Y-72239333D02*
X138641443Y-72429809D01*
X138641443Y-72429809D02*
X138689062Y-72525047D01*
X138689062Y-72525047D02*
X138736681Y-72572666D01*
X138736681Y-72572666D02*
X138879538Y-72667904D01*
X138879538Y-72667904D02*
X139070014Y-72715523D01*
X139070014Y-72715523D02*
X139450966Y-72715523D01*
X139450966Y-72715523D02*
X139546204Y-72667904D01*
X139546204Y-72667904D02*
X139593824Y-72620285D01*
X139593824Y-72620285D02*
X139641443Y-72525047D01*
X139641443Y-72525047D02*
X139641443Y-72334571D01*
X139641443Y-72334571D02*
X139593824Y-72239333D01*
X139593824Y-72239333D02*
X139546204Y-72191714D01*
X139546204Y-72191714D02*
X139450966Y-72144095D01*
X139450966Y-72144095D02*
X139212871Y-72144095D01*
X139212871Y-72144095D02*
X139117633Y-72191714D01*
X139117633Y-72191714D02*
X139070014Y-72239333D01*
X139070014Y-72239333D02*
X139022395Y-72334571D01*
X139022395Y-72334571D02*
X139022395Y-72525047D01*
X139022395Y-72525047D02*
X139070014Y-72620285D01*
X139070014Y-72620285D02*
X139117633Y-72667904D01*
X139117633Y-72667904D02*
X139212871Y-72715523D01*
X32881333Y-55910819D02*
X32548000Y-55434628D01*
X32309905Y-55910819D02*
X32309905Y-54910819D01*
X32309905Y-54910819D02*
X32690857Y-54910819D01*
X32690857Y-54910819D02*
X32786095Y-54958438D01*
X32786095Y-54958438D02*
X32833714Y-55006057D01*
X32833714Y-55006057D02*
X32881333Y-55101295D01*
X32881333Y-55101295D02*
X32881333Y-55244152D01*
X32881333Y-55244152D02*
X32833714Y-55339390D01*
X32833714Y-55339390D02*
X32786095Y-55387009D01*
X32786095Y-55387009D02*
X32690857Y-55434628D01*
X32690857Y-55434628D02*
X32309905Y-55434628D01*
X33738476Y-54910819D02*
X33548000Y-54910819D01*
X33548000Y-54910819D02*
X33452762Y-54958438D01*
X33452762Y-54958438D02*
X33405143Y-55006057D01*
X33405143Y-55006057D02*
X33309905Y-55148914D01*
X33309905Y-55148914D02*
X33262286Y-55339390D01*
X33262286Y-55339390D02*
X33262286Y-55720342D01*
X33262286Y-55720342D02*
X33309905Y-55815580D01*
X33309905Y-55815580D02*
X33357524Y-55863200D01*
X33357524Y-55863200D02*
X33452762Y-55910819D01*
X33452762Y-55910819D02*
X33643238Y-55910819D01*
X33643238Y-55910819D02*
X33738476Y-55863200D01*
X33738476Y-55863200D02*
X33786095Y-55815580D01*
X33786095Y-55815580D02*
X33833714Y-55720342D01*
X33833714Y-55720342D02*
X33833714Y-55482247D01*
X33833714Y-55482247D02*
X33786095Y-55387009D01*
X33786095Y-55387009D02*
X33738476Y-55339390D01*
X33738476Y-55339390D02*
X33643238Y-55291771D01*
X33643238Y-55291771D02*
X33452762Y-55291771D01*
X33452762Y-55291771D02*
X33357524Y-55339390D01*
X33357524Y-55339390D02*
X33309905Y-55387009D01*
X33309905Y-55387009D02*
X33262286Y-55482247D01*
X146649142Y-34942819D02*
X146315809Y-34466628D01*
X146077714Y-34942819D02*
X146077714Y-33942819D01*
X146077714Y-33942819D02*
X146458666Y-33942819D01*
X146458666Y-33942819D02*
X146553904Y-33990438D01*
X146553904Y-33990438D02*
X146601523Y-34038057D01*
X146601523Y-34038057D02*
X146649142Y-34133295D01*
X146649142Y-34133295D02*
X146649142Y-34276152D01*
X146649142Y-34276152D02*
X146601523Y-34371390D01*
X146601523Y-34371390D02*
X146553904Y-34419009D01*
X146553904Y-34419009D02*
X146458666Y-34466628D01*
X146458666Y-34466628D02*
X146077714Y-34466628D01*
X147601523Y-34942819D02*
X147030095Y-34942819D01*
X147315809Y-34942819D02*
X147315809Y-33942819D01*
X147315809Y-33942819D02*
X147220571Y-34085676D01*
X147220571Y-34085676D02*
X147125333Y-34180914D01*
X147125333Y-34180914D02*
X147030095Y-34228533D01*
X148220571Y-33942819D02*
X148315809Y-33942819D01*
X148315809Y-33942819D02*
X148411047Y-33990438D01*
X148411047Y-33990438D02*
X148458666Y-34038057D01*
X148458666Y-34038057D02*
X148506285Y-34133295D01*
X148506285Y-34133295D02*
X148553904Y-34323771D01*
X148553904Y-34323771D02*
X148553904Y-34561866D01*
X148553904Y-34561866D02*
X148506285Y-34752342D01*
X148506285Y-34752342D02*
X148458666Y-34847580D01*
X148458666Y-34847580D02*
X148411047Y-34895200D01*
X148411047Y-34895200D02*
X148315809Y-34942819D01*
X148315809Y-34942819D02*
X148220571Y-34942819D01*
X148220571Y-34942819D02*
X148125333Y-34895200D01*
X148125333Y-34895200D02*
X148077714Y-34847580D01*
X148077714Y-34847580D02*
X148030095Y-34752342D01*
X148030095Y-34752342D02*
X147982476Y-34561866D01*
X147982476Y-34561866D02*
X147982476Y-34323771D01*
X147982476Y-34323771D02*
X148030095Y-34133295D01*
X148030095Y-34133295D02*
X148077714Y-34038057D01*
X148077714Y-34038057D02*
X148125333Y-33990438D01*
X148125333Y-33990438D02*
X148220571Y-33942819D01*
X144007142Y-49590819D02*
X143673809Y-49114628D01*
X143435714Y-49590819D02*
X143435714Y-48590819D01*
X143435714Y-48590819D02*
X143816666Y-48590819D01*
X143816666Y-48590819D02*
X143911904Y-48638438D01*
X143911904Y-48638438D02*
X143959523Y-48686057D01*
X143959523Y-48686057D02*
X144007142Y-48781295D01*
X144007142Y-48781295D02*
X144007142Y-48924152D01*
X144007142Y-48924152D02*
X143959523Y-49019390D01*
X143959523Y-49019390D02*
X143911904Y-49067009D01*
X143911904Y-49067009D02*
X143816666Y-49114628D01*
X143816666Y-49114628D02*
X143435714Y-49114628D01*
X144959523Y-49590819D02*
X144388095Y-49590819D01*
X144673809Y-49590819D02*
X144673809Y-48590819D01*
X144673809Y-48590819D02*
X144578571Y-48733676D01*
X144578571Y-48733676D02*
X144483333Y-48828914D01*
X144483333Y-48828914D02*
X144388095Y-48876533D01*
X145292857Y-48590819D02*
X145911904Y-48590819D01*
X145911904Y-48590819D02*
X145578571Y-48971771D01*
X145578571Y-48971771D02*
X145721428Y-48971771D01*
X145721428Y-48971771D02*
X145816666Y-49019390D01*
X145816666Y-49019390D02*
X145864285Y-49067009D01*
X145864285Y-49067009D02*
X145911904Y-49162247D01*
X145911904Y-49162247D02*
X145911904Y-49400342D01*
X145911904Y-49400342D02*
X145864285Y-49495580D01*
X145864285Y-49495580D02*
X145816666Y-49543200D01*
X145816666Y-49543200D02*
X145721428Y-49590819D01*
X145721428Y-49590819D02*
X145435714Y-49590819D01*
X145435714Y-49590819D02*
X145340476Y-49543200D01*
X145340476Y-49543200D02*
X145292857Y-49495580D01*
X117406819Y-86498666D02*
X116930628Y-86831999D01*
X117406819Y-87070094D02*
X116406819Y-87070094D01*
X116406819Y-87070094D02*
X116406819Y-86689142D01*
X116406819Y-86689142D02*
X116454438Y-86593904D01*
X116454438Y-86593904D02*
X116502057Y-86546285D01*
X116502057Y-86546285D02*
X116597295Y-86498666D01*
X116597295Y-86498666D02*
X116740152Y-86498666D01*
X116740152Y-86498666D02*
X116835390Y-86546285D01*
X116835390Y-86546285D02*
X116883009Y-86593904D01*
X116883009Y-86593904D02*
X116930628Y-86689142D01*
X116930628Y-86689142D02*
X116930628Y-87070094D01*
X116740152Y-85641523D02*
X117406819Y-85641523D01*
X116359200Y-85879618D02*
X117073485Y-86117713D01*
X117073485Y-86117713D02*
X117073485Y-85498666D01*
X138472057Y-28030238D02*
X138424438Y-28125476D01*
X138424438Y-28125476D02*
X138329200Y-28220714D01*
X138329200Y-28220714D02*
X138186342Y-28363571D01*
X138186342Y-28363571D02*
X138138723Y-28458809D01*
X138138723Y-28458809D02*
X138138723Y-28554047D01*
X138376819Y-28506428D02*
X138329200Y-28601666D01*
X138329200Y-28601666D02*
X138233961Y-28696904D01*
X138233961Y-28696904D02*
X138043485Y-28744523D01*
X138043485Y-28744523D02*
X137710152Y-28744523D01*
X137710152Y-28744523D02*
X137519676Y-28696904D01*
X137519676Y-28696904D02*
X137424438Y-28601666D01*
X137424438Y-28601666D02*
X137376819Y-28506428D01*
X137376819Y-28506428D02*
X137376819Y-28315952D01*
X137376819Y-28315952D02*
X137424438Y-28220714D01*
X137424438Y-28220714D02*
X137519676Y-28125476D01*
X137519676Y-28125476D02*
X137710152Y-28077857D01*
X137710152Y-28077857D02*
X138043485Y-28077857D01*
X138043485Y-28077857D02*
X138233961Y-28125476D01*
X138233961Y-28125476D02*
X138329200Y-28220714D01*
X138329200Y-28220714D02*
X138376819Y-28315952D01*
X138376819Y-28315952D02*
X138376819Y-28506428D01*
X137710152Y-27220714D02*
X138376819Y-27220714D01*
X137329200Y-27458809D02*
X138043485Y-27696904D01*
X138043485Y-27696904D02*
X138043485Y-27077857D01*
X32853333Y-47260819D02*
X32520000Y-46784628D01*
X32281905Y-47260819D02*
X32281905Y-46260819D01*
X32281905Y-46260819D02*
X32662857Y-46260819D01*
X32662857Y-46260819D02*
X32758095Y-46308438D01*
X32758095Y-46308438D02*
X32805714Y-46356057D01*
X32805714Y-46356057D02*
X32853333Y-46451295D01*
X32853333Y-46451295D02*
X32853333Y-46594152D01*
X32853333Y-46594152D02*
X32805714Y-46689390D01*
X32805714Y-46689390D02*
X32758095Y-46737009D01*
X32758095Y-46737009D02*
X32662857Y-46784628D01*
X32662857Y-46784628D02*
X32281905Y-46784628D01*
X33424762Y-46689390D02*
X33329524Y-46641771D01*
X33329524Y-46641771D02*
X33281905Y-46594152D01*
X33281905Y-46594152D02*
X33234286Y-46498914D01*
X33234286Y-46498914D02*
X33234286Y-46451295D01*
X33234286Y-46451295D02*
X33281905Y-46356057D01*
X33281905Y-46356057D02*
X33329524Y-46308438D01*
X33329524Y-46308438D02*
X33424762Y-46260819D01*
X33424762Y-46260819D02*
X33615238Y-46260819D01*
X33615238Y-46260819D02*
X33710476Y-46308438D01*
X33710476Y-46308438D02*
X33758095Y-46356057D01*
X33758095Y-46356057D02*
X33805714Y-46451295D01*
X33805714Y-46451295D02*
X33805714Y-46498914D01*
X33805714Y-46498914D02*
X33758095Y-46594152D01*
X33758095Y-46594152D02*
X33710476Y-46641771D01*
X33710476Y-46641771D02*
X33615238Y-46689390D01*
X33615238Y-46689390D02*
X33424762Y-46689390D01*
X33424762Y-46689390D02*
X33329524Y-46737009D01*
X33329524Y-46737009D02*
X33281905Y-46784628D01*
X33281905Y-46784628D02*
X33234286Y-46879866D01*
X33234286Y-46879866D02*
X33234286Y-47070342D01*
X33234286Y-47070342D02*
X33281905Y-47165580D01*
X33281905Y-47165580D02*
X33329524Y-47213200D01*
X33329524Y-47213200D02*
X33424762Y-47260819D01*
X33424762Y-47260819D02*
X33615238Y-47260819D01*
X33615238Y-47260819D02*
X33710476Y-47213200D01*
X33710476Y-47213200D02*
X33758095Y-47165580D01*
X33758095Y-47165580D02*
X33805714Y-47070342D01*
X33805714Y-47070342D02*
X33805714Y-46879866D01*
X33805714Y-46879866D02*
X33758095Y-46784628D01*
X33758095Y-46784628D02*
X33710476Y-46737009D01*
X33710476Y-46737009D02*
X33615238Y-46689390D01*
X127341333Y-87420819D02*
X127008000Y-86944628D01*
X126769905Y-87420819D02*
X126769905Y-86420819D01*
X126769905Y-86420819D02*
X127150857Y-86420819D01*
X127150857Y-86420819D02*
X127246095Y-86468438D01*
X127246095Y-86468438D02*
X127293714Y-86516057D01*
X127293714Y-86516057D02*
X127341333Y-86611295D01*
X127341333Y-86611295D02*
X127341333Y-86754152D01*
X127341333Y-86754152D02*
X127293714Y-86849390D01*
X127293714Y-86849390D02*
X127246095Y-86897009D01*
X127246095Y-86897009D02*
X127150857Y-86944628D01*
X127150857Y-86944628D02*
X126769905Y-86944628D01*
X128246095Y-86420819D02*
X127769905Y-86420819D01*
X127769905Y-86420819D02*
X127722286Y-86897009D01*
X127722286Y-86897009D02*
X127769905Y-86849390D01*
X127769905Y-86849390D02*
X127865143Y-86801771D01*
X127865143Y-86801771D02*
X128103238Y-86801771D01*
X128103238Y-86801771D02*
X128198476Y-86849390D01*
X128198476Y-86849390D02*
X128246095Y-86897009D01*
X128246095Y-86897009D02*
X128293714Y-86992247D01*
X128293714Y-86992247D02*
X128293714Y-87230342D01*
X128293714Y-87230342D02*
X128246095Y-87325580D01*
X128246095Y-87325580D02*
X128198476Y-87373200D01*
X128198476Y-87373200D02*
X128103238Y-87420819D01*
X128103238Y-87420819D02*
X127865143Y-87420819D01*
X127865143Y-87420819D02*
X127769905Y-87373200D01*
X127769905Y-87373200D02*
X127722286Y-87325580D01*
X145877333Y-37853580D02*
X145829714Y-37901200D01*
X145829714Y-37901200D02*
X145686857Y-37948819D01*
X145686857Y-37948819D02*
X145591619Y-37948819D01*
X145591619Y-37948819D02*
X145448762Y-37901200D01*
X145448762Y-37901200D02*
X145353524Y-37805961D01*
X145353524Y-37805961D02*
X145305905Y-37710723D01*
X145305905Y-37710723D02*
X145258286Y-37520247D01*
X145258286Y-37520247D02*
X145258286Y-37377390D01*
X145258286Y-37377390D02*
X145305905Y-37186914D01*
X145305905Y-37186914D02*
X145353524Y-37091676D01*
X145353524Y-37091676D02*
X145448762Y-36996438D01*
X145448762Y-36996438D02*
X145591619Y-36948819D01*
X145591619Y-36948819D02*
X145686857Y-36948819D01*
X145686857Y-36948819D02*
X145829714Y-36996438D01*
X145829714Y-36996438D02*
X145877333Y-37044057D01*
X146734476Y-37282152D02*
X146734476Y-37948819D01*
X146496381Y-36901200D02*
X146258286Y-37615485D01*
X146258286Y-37615485D02*
X146877333Y-37615485D01*
X146677142Y-78334819D02*
X146343809Y-77858628D01*
X146105714Y-78334819D02*
X146105714Y-77334819D01*
X146105714Y-77334819D02*
X146486666Y-77334819D01*
X146486666Y-77334819D02*
X146581904Y-77382438D01*
X146581904Y-77382438D02*
X146629523Y-77430057D01*
X146629523Y-77430057D02*
X146677142Y-77525295D01*
X146677142Y-77525295D02*
X146677142Y-77668152D01*
X146677142Y-77668152D02*
X146629523Y-77763390D01*
X146629523Y-77763390D02*
X146581904Y-77811009D01*
X146581904Y-77811009D02*
X146486666Y-77858628D01*
X146486666Y-77858628D02*
X146105714Y-77858628D01*
X147629523Y-78334819D02*
X147058095Y-78334819D01*
X147343809Y-78334819D02*
X147343809Y-77334819D01*
X147343809Y-77334819D02*
X147248571Y-77477676D01*
X147248571Y-77477676D02*
X147153333Y-77572914D01*
X147153333Y-77572914D02*
X147058095Y-77620533D01*
X147962857Y-77334819D02*
X148629523Y-77334819D01*
X148629523Y-77334819D02*
X148200952Y-78334819D01*
X111148057Y-90457238D02*
X111100438Y-90552476D01*
X111100438Y-90552476D02*
X111005200Y-90647714D01*
X111005200Y-90647714D02*
X110862342Y-90790571D01*
X110862342Y-90790571D02*
X110814723Y-90885809D01*
X110814723Y-90885809D02*
X110814723Y-90981047D01*
X111052819Y-90933428D02*
X111005200Y-91028666D01*
X111005200Y-91028666D02*
X110909961Y-91123904D01*
X110909961Y-91123904D02*
X110719485Y-91171523D01*
X110719485Y-91171523D02*
X110386152Y-91171523D01*
X110386152Y-91171523D02*
X110195676Y-91123904D01*
X110195676Y-91123904D02*
X110100438Y-91028666D01*
X110100438Y-91028666D02*
X110052819Y-90933428D01*
X110052819Y-90933428D02*
X110052819Y-90742952D01*
X110052819Y-90742952D02*
X110100438Y-90647714D01*
X110100438Y-90647714D02*
X110195676Y-90552476D01*
X110195676Y-90552476D02*
X110386152Y-90504857D01*
X110386152Y-90504857D02*
X110719485Y-90504857D01*
X110719485Y-90504857D02*
X110909961Y-90552476D01*
X110909961Y-90552476D02*
X111005200Y-90647714D01*
X111005200Y-90647714D02*
X111052819Y-90742952D01*
X111052819Y-90742952D02*
X111052819Y-90933428D01*
X110052819Y-90171523D02*
X110052819Y-89504857D01*
X110052819Y-89504857D02*
X111052819Y-89933428D01*
X120722819Y-89292666D02*
X120246628Y-89625999D01*
X120722819Y-89864094D02*
X119722819Y-89864094D01*
X119722819Y-89864094D02*
X119722819Y-89483142D01*
X119722819Y-89483142D02*
X119770438Y-89387904D01*
X119770438Y-89387904D02*
X119818057Y-89340285D01*
X119818057Y-89340285D02*
X119913295Y-89292666D01*
X119913295Y-89292666D02*
X120056152Y-89292666D01*
X120056152Y-89292666D02*
X120151390Y-89340285D01*
X120151390Y-89340285D02*
X120199009Y-89387904D01*
X120199009Y-89387904D02*
X120246628Y-89483142D01*
X120246628Y-89483142D02*
X120246628Y-89864094D01*
X119722819Y-88959332D02*
X119722819Y-88340285D01*
X119722819Y-88340285D02*
X120103771Y-88673618D01*
X120103771Y-88673618D02*
X120103771Y-88530761D01*
X120103771Y-88530761D02*
X120151390Y-88435523D01*
X120151390Y-88435523D02*
X120199009Y-88387904D01*
X120199009Y-88387904D02*
X120294247Y-88340285D01*
X120294247Y-88340285D02*
X120532342Y-88340285D01*
X120532342Y-88340285D02*
X120627580Y-88387904D01*
X120627580Y-88387904D02*
X120675200Y-88435523D01*
X120675200Y-88435523D02*
X120722819Y-88530761D01*
X120722819Y-88530761D02*
X120722819Y-88816475D01*
X120722819Y-88816475D02*
X120675200Y-88911713D01*
X120675200Y-88911713D02*
X120627580Y-88959332D01*
X144137142Y-56278819D02*
X143803809Y-55802628D01*
X143565714Y-56278819D02*
X143565714Y-55278819D01*
X143565714Y-55278819D02*
X143946666Y-55278819D01*
X143946666Y-55278819D02*
X144041904Y-55326438D01*
X144041904Y-55326438D02*
X144089523Y-55374057D01*
X144089523Y-55374057D02*
X144137142Y-55469295D01*
X144137142Y-55469295D02*
X144137142Y-55612152D01*
X144137142Y-55612152D02*
X144089523Y-55707390D01*
X144089523Y-55707390D02*
X144041904Y-55755009D01*
X144041904Y-55755009D02*
X143946666Y-55802628D01*
X143946666Y-55802628D02*
X143565714Y-55802628D01*
X144518095Y-55374057D02*
X144565714Y-55326438D01*
X144565714Y-55326438D02*
X144660952Y-55278819D01*
X144660952Y-55278819D02*
X144899047Y-55278819D01*
X144899047Y-55278819D02*
X144994285Y-55326438D01*
X144994285Y-55326438D02*
X145041904Y-55374057D01*
X145041904Y-55374057D02*
X145089523Y-55469295D01*
X145089523Y-55469295D02*
X145089523Y-55564533D01*
X145089523Y-55564533D02*
X145041904Y-55707390D01*
X145041904Y-55707390D02*
X144470476Y-56278819D01*
X144470476Y-56278819D02*
X145089523Y-56278819D01*
X145946666Y-55612152D02*
X145946666Y-56278819D01*
X145708571Y-55231200D02*
X145470476Y-55945485D01*
X145470476Y-55945485D02*
X146089523Y-55945485D01*
X96974819Y-82018094D02*
X95974819Y-82018094D01*
X95974819Y-82018094D02*
X95974819Y-81779999D01*
X95974819Y-81779999D02*
X96022438Y-81637142D01*
X96022438Y-81637142D02*
X96117676Y-81541904D01*
X96117676Y-81541904D02*
X96212914Y-81494285D01*
X96212914Y-81494285D02*
X96403390Y-81446666D01*
X96403390Y-81446666D02*
X96546247Y-81446666D01*
X96546247Y-81446666D02*
X96736723Y-81494285D01*
X96736723Y-81494285D02*
X96831961Y-81541904D01*
X96831961Y-81541904D02*
X96927200Y-81637142D01*
X96927200Y-81637142D02*
X96974819Y-81779999D01*
X96974819Y-81779999D02*
X96974819Y-82018094D01*
X95974819Y-81113332D02*
X95974819Y-80494285D01*
X95974819Y-80494285D02*
X96355771Y-80827618D01*
X96355771Y-80827618D02*
X96355771Y-80684761D01*
X96355771Y-80684761D02*
X96403390Y-80589523D01*
X96403390Y-80589523D02*
X96451009Y-80541904D01*
X96451009Y-80541904D02*
X96546247Y-80494285D01*
X96546247Y-80494285D02*
X96784342Y-80494285D01*
X96784342Y-80494285D02*
X96879580Y-80541904D01*
X96879580Y-80541904D02*
X96927200Y-80589523D01*
X96927200Y-80589523D02*
X96974819Y-80684761D01*
X96974819Y-80684761D02*
X96974819Y-80970475D01*
X96974819Y-80970475D02*
X96927200Y-81065713D01*
X96927200Y-81065713D02*
X96879580Y-81113332D01*
X126962819Y-80517904D02*
X127772342Y-80517904D01*
X127772342Y-80517904D02*
X127867580Y-80470285D01*
X127867580Y-80470285D02*
X127915200Y-80422666D01*
X127915200Y-80422666D02*
X127962819Y-80327428D01*
X127962819Y-80327428D02*
X127962819Y-80136952D01*
X127962819Y-80136952D02*
X127915200Y-80041714D01*
X127915200Y-80041714D02*
X127867580Y-79994095D01*
X127867580Y-79994095D02*
X127772342Y-79946476D01*
X127772342Y-79946476D02*
X126962819Y-79946476D01*
X127058057Y-79517904D02*
X127010438Y-79470285D01*
X127010438Y-79470285D02*
X126962819Y-79375047D01*
X126962819Y-79375047D02*
X126962819Y-79136952D01*
X126962819Y-79136952D02*
X127010438Y-79041714D01*
X127010438Y-79041714D02*
X127058057Y-78994095D01*
X127058057Y-78994095D02*
X127153295Y-78946476D01*
X127153295Y-78946476D02*
X127248533Y-78946476D01*
X127248533Y-78946476D02*
X127391390Y-78994095D01*
X127391390Y-78994095D02*
X127962819Y-79565523D01*
X127962819Y-79565523D02*
X127962819Y-78946476D01*
X128657333Y-90655580D02*
X128609714Y-90703200D01*
X128609714Y-90703200D02*
X128466857Y-90750819D01*
X128466857Y-90750819D02*
X128371619Y-90750819D01*
X128371619Y-90750819D02*
X128228762Y-90703200D01*
X128228762Y-90703200D02*
X128133524Y-90607961D01*
X128133524Y-90607961D02*
X128085905Y-90512723D01*
X128085905Y-90512723D02*
X128038286Y-90322247D01*
X128038286Y-90322247D02*
X128038286Y-90179390D01*
X128038286Y-90179390D02*
X128085905Y-89988914D01*
X128085905Y-89988914D02*
X128133524Y-89893676D01*
X128133524Y-89893676D02*
X128228762Y-89798438D01*
X128228762Y-89798438D02*
X128371619Y-89750819D01*
X128371619Y-89750819D02*
X128466857Y-89750819D01*
X128466857Y-89750819D02*
X128609714Y-89798438D01*
X128609714Y-89798438D02*
X128657333Y-89846057D01*
X129038286Y-89846057D02*
X129085905Y-89798438D01*
X129085905Y-89798438D02*
X129181143Y-89750819D01*
X129181143Y-89750819D02*
X129419238Y-89750819D01*
X129419238Y-89750819D02*
X129514476Y-89798438D01*
X129514476Y-89798438D02*
X129562095Y-89846057D01*
X129562095Y-89846057D02*
X129609714Y-89941295D01*
X129609714Y-89941295D02*
X129609714Y-90036533D01*
X129609714Y-90036533D02*
X129562095Y-90179390D01*
X129562095Y-90179390D02*
X128990667Y-90750819D01*
X128990667Y-90750819D02*
X129609714Y-90750819D01*
X29114761Y-50138057D02*
X29019523Y-50090438D01*
X29019523Y-50090438D02*
X28924285Y-49995200D01*
X28924285Y-49995200D02*
X28781428Y-49852342D01*
X28781428Y-49852342D02*
X28686190Y-49804723D01*
X28686190Y-49804723D02*
X28590952Y-49804723D01*
X28638571Y-50042819D02*
X28543333Y-49995200D01*
X28543333Y-49995200D02*
X28448095Y-49899961D01*
X28448095Y-49899961D02*
X28400476Y-49709485D01*
X28400476Y-49709485D02*
X28400476Y-49376152D01*
X28400476Y-49376152D02*
X28448095Y-49185676D01*
X28448095Y-49185676D02*
X28543333Y-49090438D01*
X28543333Y-49090438D02*
X28638571Y-49042819D01*
X28638571Y-49042819D02*
X28829047Y-49042819D01*
X28829047Y-49042819D02*
X28924285Y-49090438D01*
X28924285Y-49090438D02*
X29019523Y-49185676D01*
X29019523Y-49185676D02*
X29067142Y-49376152D01*
X29067142Y-49376152D02*
X29067142Y-49709485D01*
X29067142Y-49709485D02*
X29019523Y-49899961D01*
X29019523Y-49899961D02*
X28924285Y-49995200D01*
X28924285Y-49995200D02*
X28829047Y-50042819D01*
X28829047Y-50042819D02*
X28638571Y-50042819D01*
X29448095Y-49138057D02*
X29495714Y-49090438D01*
X29495714Y-49090438D02*
X29590952Y-49042819D01*
X29590952Y-49042819D02*
X29829047Y-49042819D01*
X29829047Y-49042819D02*
X29924285Y-49090438D01*
X29924285Y-49090438D02*
X29971904Y-49138057D01*
X29971904Y-49138057D02*
X30019523Y-49233295D01*
X30019523Y-49233295D02*
X30019523Y-49328533D01*
X30019523Y-49328533D02*
X29971904Y-49471390D01*
X29971904Y-49471390D02*
X29400476Y-50042819D01*
X29400476Y-50042819D02*
X30019523Y-50042819D01*
X31577333Y-38319580D02*
X31529714Y-38367200D01*
X31529714Y-38367200D02*
X31386857Y-38414819D01*
X31386857Y-38414819D02*
X31291619Y-38414819D01*
X31291619Y-38414819D02*
X31148762Y-38367200D01*
X31148762Y-38367200D02*
X31053524Y-38271961D01*
X31053524Y-38271961D02*
X31005905Y-38176723D01*
X31005905Y-38176723D02*
X30958286Y-37986247D01*
X30958286Y-37986247D02*
X30958286Y-37843390D01*
X30958286Y-37843390D02*
X31005905Y-37652914D01*
X31005905Y-37652914D02*
X31053524Y-37557676D01*
X31053524Y-37557676D02*
X31148762Y-37462438D01*
X31148762Y-37462438D02*
X31291619Y-37414819D01*
X31291619Y-37414819D02*
X31386857Y-37414819D01*
X31386857Y-37414819D02*
X31529714Y-37462438D01*
X31529714Y-37462438D02*
X31577333Y-37510057D01*
X32529714Y-38414819D02*
X31958286Y-38414819D01*
X32244000Y-38414819D02*
X32244000Y-37414819D01*
X32244000Y-37414819D02*
X32148762Y-37557676D01*
X32148762Y-37557676D02*
X32053524Y-37652914D01*
X32053524Y-37652914D02*
X31958286Y-37700533D01*
X120596819Y-76112666D02*
X120120628Y-76445999D01*
X120596819Y-76684094D02*
X119596819Y-76684094D01*
X119596819Y-76684094D02*
X119596819Y-76303142D01*
X119596819Y-76303142D02*
X119644438Y-76207904D01*
X119644438Y-76207904D02*
X119692057Y-76160285D01*
X119692057Y-76160285D02*
X119787295Y-76112666D01*
X119787295Y-76112666D02*
X119930152Y-76112666D01*
X119930152Y-76112666D02*
X120025390Y-76160285D01*
X120025390Y-76160285D02*
X120073009Y-76207904D01*
X120073009Y-76207904D02*
X120120628Y-76303142D01*
X120120628Y-76303142D02*
X120120628Y-76684094D01*
X119692057Y-75731713D02*
X119644438Y-75684094D01*
X119644438Y-75684094D02*
X119596819Y-75588856D01*
X119596819Y-75588856D02*
X119596819Y-75350761D01*
X119596819Y-75350761D02*
X119644438Y-75255523D01*
X119644438Y-75255523D02*
X119692057Y-75207904D01*
X119692057Y-75207904D02*
X119787295Y-75160285D01*
X119787295Y-75160285D02*
X119882533Y-75160285D01*
X119882533Y-75160285D02*
X120025390Y-75207904D01*
X120025390Y-75207904D02*
X120596819Y-75779332D01*
X120596819Y-75779332D02*
X120596819Y-75160285D01*
X110944819Y-77858857D02*
X110468628Y-78192190D01*
X110944819Y-78430285D02*
X109944819Y-78430285D01*
X109944819Y-78430285D02*
X109944819Y-78049333D01*
X109944819Y-78049333D02*
X109992438Y-77954095D01*
X109992438Y-77954095D02*
X110040057Y-77906476D01*
X110040057Y-77906476D02*
X110135295Y-77858857D01*
X110135295Y-77858857D02*
X110278152Y-77858857D01*
X110278152Y-77858857D02*
X110373390Y-77906476D01*
X110373390Y-77906476D02*
X110421009Y-77954095D01*
X110421009Y-77954095D02*
X110468628Y-78049333D01*
X110468628Y-78049333D02*
X110468628Y-78430285D01*
X110040057Y-77477904D02*
X109992438Y-77430285D01*
X109992438Y-77430285D02*
X109944819Y-77335047D01*
X109944819Y-77335047D02*
X109944819Y-77096952D01*
X109944819Y-77096952D02*
X109992438Y-77001714D01*
X109992438Y-77001714D02*
X110040057Y-76954095D01*
X110040057Y-76954095D02*
X110135295Y-76906476D01*
X110135295Y-76906476D02*
X110230533Y-76906476D01*
X110230533Y-76906476D02*
X110373390Y-76954095D01*
X110373390Y-76954095D02*
X110944819Y-77525523D01*
X110944819Y-77525523D02*
X110944819Y-76906476D01*
X109944819Y-76287428D02*
X109944819Y-76192190D01*
X109944819Y-76192190D02*
X109992438Y-76096952D01*
X109992438Y-76096952D02*
X110040057Y-76049333D01*
X110040057Y-76049333D02*
X110135295Y-76001714D01*
X110135295Y-76001714D02*
X110325771Y-75954095D01*
X110325771Y-75954095D02*
X110563866Y-75954095D01*
X110563866Y-75954095D02*
X110754342Y-76001714D01*
X110754342Y-76001714D02*
X110849580Y-76049333D01*
X110849580Y-76049333D02*
X110897200Y-76096952D01*
X110897200Y-76096952D02*
X110944819Y-76192190D01*
X110944819Y-76192190D02*
X110944819Y-76287428D01*
X110944819Y-76287428D02*
X110897200Y-76382666D01*
X110897200Y-76382666D02*
X110849580Y-76430285D01*
X110849580Y-76430285D02*
X110754342Y-76477904D01*
X110754342Y-76477904D02*
X110563866Y-76525523D01*
X110563866Y-76525523D02*
X110325771Y-76525523D01*
X110325771Y-76525523D02*
X110135295Y-76477904D01*
X110135295Y-76477904D02*
X110040057Y-76430285D01*
X110040057Y-76430285D02*
X109992438Y-76382666D01*
X109992438Y-76382666D02*
X109944819Y-76287428D01*
D12*
%TO.C,C5*%
X147728000Y-66090000D02*
X150468000Y-66090000D01*
X147728000Y-73530000D02*
X147728000Y-66090000D01*
X150468000Y-66090000D02*
X150468000Y-73530000D01*
X150468000Y-73530000D02*
X147728000Y-73530000D01*
%TO.C,R9*%
X27710000Y-34798000D02*
X28480000Y-34798000D01*
X35790000Y-34798000D02*
X35020000Y-34798000D01*
X35020000Y-36168000D02*
X28480000Y-36168000D01*
X28480000Y-33428000D01*
X35020000Y-33428000D01*
X35020000Y-36168000D01*
D10*
%TO.C,U1*%
X50800800Y-73657599D02*
X50800800Y-78483599D01*
X50800800Y-78483599D02*
X51308800Y-78991599D01*
X50800800Y-83817599D02*
X50800800Y-88897599D01*
X51308800Y-78991599D02*
X51308800Y-83309599D01*
X51308800Y-83309599D02*
X50800800Y-83817599D01*
X52070800Y-90167599D02*
X85094423Y-90167599D01*
X85137966Y-72387599D02*
X52070800Y-72387599D01*
X86364418Y-88901228D02*
X86407961Y-73661228D01*
X50800800Y-73657599D02*
G75*
G02*
X52070800Y-72387599I1269999J1D01*
G01*
X52070800Y-90167599D02*
G75*
G02*
X50800800Y-88897599I-1J1269999D01*
G01*
X85137966Y-72387599D02*
G75*
G02*
X86407895Y-73661228I34J-1269900D01*
G01*
X86364418Y-88901228D02*
G75*
G02*
X85094423Y-90167622I-1270018J3629D01*
G01*
D12*
%TO.C,D2*%
X141882000Y-72400000D02*
X144122000Y-72400000D01*
X141882000Y-72520000D02*
X144122000Y-72520000D01*
X141882000Y-72640000D02*
X144122000Y-72640000D01*
X143002000Y-68350000D02*
X143002000Y-69000000D01*
X143002000Y-73890000D02*
X143002000Y-73240000D01*
X141882000Y-73240000D02*
X144122000Y-73240000D01*
X144122000Y-69000000D01*
X141882000Y-69000000D01*
X141882000Y-73240000D01*
%TO.C,C9*%
X122518000Y-70258000D02*
X129958000Y-70258000D01*
X122518000Y-72998000D02*
X122518000Y-70258000D01*
X129958000Y-70258000D02*
X129958000Y-72998000D01*
X129958000Y-72998000D02*
X122518000Y-72998000D01*
%TO.C,C6*%
X142330000Y-51208000D02*
X149770000Y-51208000D01*
X142330000Y-53948000D02*
X142330000Y-51208000D01*
X149770000Y-51208000D02*
X149770000Y-53948000D01*
X149770000Y-53948000D02*
X142330000Y-53948000D01*
%TO.C,R19*%
X107188000Y-73938000D02*
X107188000Y-74708000D01*
X107188000Y-82018000D02*
X107188000Y-81248000D01*
X108558000Y-74708000D02*
X105818000Y-74708000D01*
X105818000Y-81248000D01*
X108558000Y-81248000D01*
X108558000Y-74708000D01*
%TO.C,Q8*%
X150390000Y-57840000D02*
X146790000Y-57840000D01*
X146265816Y-58567205D02*
G75*
G02*
X146790000Y-57840000I2324184J-1122795D01*
G01*
X148590000Y-62290000D02*
G75*
G02*
X146233600Y-60788807I0J2600000D01*
G01*
X150390000Y-57840000D02*
G75*
G02*
X150914184Y-58567205I-1800000J-1850000D01*
G01*
X150946400Y-60788807D02*
G75*
G02*
X148590000Y-62290000I-2356400J1098807D01*
G01*
%TO.C,R26*%
X141510000Y-62892000D02*
X148050000Y-62892000D01*
X141510000Y-63222000D02*
X141510000Y-62892000D01*
X141510000Y-65302000D02*
X141510000Y-65632000D01*
X141510000Y-65632000D02*
X148050000Y-65632000D01*
X148050000Y-62892000D02*
X148050000Y-63222000D01*
X148050000Y-65632000D02*
X148050000Y-65302000D01*
%TO.C,R7*%
X103886000Y-70636000D02*
X103886000Y-71406000D01*
X103886000Y-78716000D02*
X103886000Y-77946000D01*
X102516000Y-77946000D02*
X105256000Y-77946000D01*
X105256000Y-71406000D01*
X102516000Y-71406000D01*
X102516000Y-77946000D01*
%TO.C,R11*%
X141510000Y-39524000D02*
X148050000Y-39524000D01*
X141510000Y-39854000D02*
X141510000Y-39524000D01*
X141510000Y-41934000D02*
X141510000Y-42264000D01*
X141510000Y-42264000D02*
X148050000Y-42264000D01*
X148050000Y-39524000D02*
X148050000Y-39854000D01*
X148050000Y-42264000D02*
X148050000Y-41934000D01*
%TO.C,R15*%
X144680000Y-67850000D02*
X145010000Y-67850000D01*
X144680000Y-74390000D02*
X144680000Y-67850000D01*
X145010000Y-74390000D02*
X144680000Y-74390000D01*
X147090000Y-74390000D02*
X147420000Y-74390000D01*
X147420000Y-67850000D02*
X147090000Y-67850000D01*
X147420000Y-74390000D02*
X147420000Y-67850000D01*
%TO.C,SW2*%
D10*
X88546000Y-87878000D02*
X101446000Y-87878000D01*
X101446000Y-93778000D01*
X88546000Y-93778000D01*
X88546000Y-87878000D01*
D12*
%TO.C,Q3*%
X27410000Y-44628000D02*
X31010000Y-44628000D01*
X26853600Y-41679193D02*
G75*
G02*
X29210000Y-40178000I2356400J-1098807D01*
G01*
X27410000Y-44628000D02*
G75*
G02*
X26885816Y-43900795I1800000J1850000D01*
G01*
X29210000Y-40178000D02*
G75*
G02*
X31566400Y-41679193I0J-2600000D01*
G01*
X31534184Y-43900795D02*
G75*
G02*
X31010000Y-44628000I-2324184J1122795D01*
G01*
%TO.C,C3*%
X34380000Y-70258000D02*
X41820000Y-70258000D01*
X34380000Y-72998000D02*
X34380000Y-70258000D01*
X41820000Y-70258000D02*
X41820000Y-72998000D01*
X41820000Y-72998000D02*
X34380000Y-72998000D01*
%TO.C,D1*%
X35965000Y-26675000D02*
X38635000Y-26675000D01*
X35965000Y-29215000D02*
X38635000Y-29215000D01*
X38635000Y-24985000D02*
X39755000Y-24985000D01*
X38635000Y-25385000D02*
X38635000Y-24985000D01*
X38635000Y-25385000D02*
X44795000Y-25385000D01*
X38635000Y-26675000D02*
X35965000Y-26675000D01*
X38635000Y-29215000D02*
X35965000Y-29215000D01*
X38635000Y-30505000D02*
X38635000Y-25385000D01*
X38635000Y-30505000D02*
X44795000Y-30505000D01*
X39755000Y-24985000D02*
X39755000Y-25385000D01*
X39755000Y-25385000D02*
X38635000Y-25385000D01*
X44795000Y-25385000D02*
G75*
G02*
X44795000Y-30505000I0J-2560000D01*
G01*
%TO.C,R18*%
X134266000Y-74454000D02*
X134596000Y-74454000D01*
X134266000Y-80994000D02*
X134266000Y-74454000D01*
X134596000Y-80994000D02*
X134266000Y-80994000D01*
X136676000Y-80994000D02*
X137006000Y-80994000D01*
X137006000Y-74454000D02*
X136676000Y-74454000D01*
X137006000Y-80994000D02*
X137006000Y-74454000D01*
%TO.C,Q5*%
X150390000Y-42854000D02*
X146790000Y-42854000D01*
X146265816Y-43581205D02*
G75*
G02*
X146790000Y-42854000I2324184J-1122795D01*
G01*
X148590000Y-47304000D02*
G75*
G02*
X146233600Y-45802807I0J2600000D01*
G01*
X150390000Y-42854000D02*
G75*
G02*
X150914184Y-43581205I-1800000J-1850000D01*
G01*
X150946400Y-45802807D02*
G75*
G02*
X148590000Y-47304000I-2356400J1098807D01*
G01*
%TO.C,Q1*%
X108022000Y-92224000D02*
X108022000Y-88624000D01*
X103572000Y-90424000D02*
G75*
G02*
X105073193Y-88067600I2600000J0D01*
G01*
X105073193Y-92780400D02*
G75*
G02*
X103572000Y-90424000I1098807J2356400D01*
G01*
X107294795Y-88099816D02*
G75*
G02*
X108022000Y-88624000I-1122795J-2324184D01*
G01*
X108022000Y-92224000D02*
G75*
G02*
X107294795Y-92748184I-1850000J1800000D01*
G01*
%TO.C,R1*%
X112422000Y-78264000D02*
X112422000Y-84804000D01*
X112422000Y-84804000D02*
X112752000Y-84804000D01*
X112752000Y-78264000D02*
X112422000Y-78264000D01*
X114832000Y-78264000D02*
X115162000Y-78264000D01*
X115162000Y-78264000D02*
X115162000Y-84804000D01*
X115162000Y-84804000D02*
X114832000Y-84804000D01*
%TO.C,R16*%
X137674624Y-70136000D02*
X138004624Y-70136000D01*
X137674624Y-76676000D02*
X137674624Y-70136000D01*
X138004624Y-76676000D02*
X137674624Y-76676000D01*
X140084624Y-76676000D02*
X140414624Y-76676000D01*
X140414624Y-70136000D02*
X140084624Y-70136000D01*
X140414624Y-76676000D02*
X140414624Y-70136000D01*
%TO.C,R6*%
X29750000Y-54002000D02*
X29750000Y-54332000D01*
X29750000Y-56742000D02*
X29750000Y-56412000D01*
X36290000Y-54002000D02*
X29750000Y-54002000D01*
X36290000Y-54332000D02*
X36290000Y-54002000D01*
X36290000Y-56412000D02*
X36290000Y-56742000D01*
X36290000Y-56742000D02*
X29750000Y-56742000D01*
%TO.C,R10*%
X144050000Y-33174000D02*
X150590000Y-33174000D01*
X144050000Y-33504000D02*
X144050000Y-33174000D01*
X144050000Y-35584000D02*
X144050000Y-35914000D01*
X144050000Y-35914000D02*
X150590000Y-35914000D01*
X150590000Y-33174000D02*
X150590000Y-33504000D01*
X150590000Y-35914000D02*
X150590000Y-35584000D01*
%TO.C,R13*%
X141510000Y-47906000D02*
X148050000Y-47906000D01*
X141510000Y-48236000D02*
X141510000Y-47906000D01*
X141510000Y-50316000D02*
X141510000Y-50646000D01*
X141510000Y-50646000D02*
X148050000Y-50646000D01*
X148050000Y-47906000D02*
X148050000Y-48236000D01*
X148050000Y-50646000D02*
X148050000Y-50316000D01*
%TO.C,R4*%
X115470000Y-82836000D02*
X115470000Y-89376000D01*
X115470000Y-89376000D02*
X115800000Y-89376000D01*
X115800000Y-82836000D02*
X115470000Y-82836000D01*
X117880000Y-82836000D02*
X118210000Y-82836000D01*
X118210000Y-82836000D02*
X118210000Y-89376000D01*
X118210000Y-89376000D02*
X117880000Y-89376000D01*
%TO.C,Q4*%
X138045000Y-29495000D02*
X139165000Y-29495000D01*
X138045000Y-29895000D02*
X138045000Y-29495000D01*
X139165000Y-26375000D02*
X135305000Y-26375000D01*
X139165000Y-26375000D02*
X139165000Y-29495000D01*
X139165000Y-26665000D02*
X141835000Y-26665000D01*
X139165000Y-29205000D02*
X141835000Y-29205000D01*
X139165000Y-29495000D02*
X135305000Y-29495000D01*
X139165000Y-29495000D02*
X139165000Y-29895000D01*
X139165000Y-29895000D02*
X138045000Y-29895000D01*
X141835000Y-26665000D02*
X139165000Y-26665000D01*
X141835000Y-29205000D02*
X139165000Y-29205000D01*
X135305000Y-29495000D02*
G75*
G02*
X135305000Y-26375000I0J1560000D01*
G01*
%TO.C,R8*%
X29750000Y-45366000D02*
X29750000Y-45696000D01*
X29750000Y-48106000D02*
X29750000Y-47776000D01*
X36290000Y-45366000D02*
X29750000Y-45366000D01*
X36290000Y-45696000D02*
X36290000Y-45366000D01*
X36290000Y-47776000D02*
X36290000Y-48106000D01*
X36290000Y-48106000D02*
X29750000Y-48106000D01*
%TO.C,R5*%
X124238000Y-85498000D02*
X124238000Y-85828000D01*
X124238000Y-88238000D02*
X124238000Y-87908000D01*
X130778000Y-85498000D02*
X124238000Y-85498000D01*
X130778000Y-85828000D02*
X130778000Y-85498000D01*
X130778000Y-87908000D02*
X130778000Y-88238000D01*
X130778000Y-88238000D02*
X124238000Y-88238000D01*
%TO.C,C4*%
X142330000Y-36222000D02*
X149770000Y-36222000D01*
X142330000Y-38962000D02*
X142330000Y-36222000D01*
X149770000Y-36222000D02*
X149770000Y-38962000D01*
X149770000Y-38962000D02*
X142330000Y-38962000D01*
%TO.C,R17*%
X144050000Y-76354000D02*
X150590000Y-76354000D01*
X144050000Y-76684000D02*
X144050000Y-76354000D01*
X144050000Y-78764000D02*
X144050000Y-79094000D01*
X144050000Y-79094000D02*
X150590000Y-79094000D01*
X150590000Y-76354000D02*
X150590000Y-76684000D01*
X150590000Y-79094000D02*
X150590000Y-78764000D01*
%TO.C,Q7*%
X114118000Y-92224000D02*
X114118000Y-88624000D01*
X109668000Y-90424000D02*
G75*
G02*
X111169193Y-88067600I2600000J0D01*
G01*
X111169193Y-92780400D02*
G75*
G02*
X109668000Y-90424000I1098807J2356400D01*
G01*
X113390795Y-88099816D02*
G75*
G02*
X114118000Y-88624000I-1122795J-2324184D01*
G01*
X114118000Y-92224000D02*
G75*
G02*
X113390795Y-92748184I-1850000J1800000D01*
G01*
%TO.C,R3*%
X118772000Y-85884000D02*
X118772000Y-92424000D01*
X118772000Y-92424000D02*
X119102000Y-92424000D01*
X119102000Y-85884000D02*
X118772000Y-85884000D01*
X121182000Y-85884000D02*
X121512000Y-85884000D01*
X121512000Y-85884000D02*
X121512000Y-92424000D01*
X121512000Y-92424000D02*
X121182000Y-92424000D01*
%TO.C,R24*%
X141510000Y-54510000D02*
X148050000Y-54510000D01*
X141510000Y-54840000D02*
X141510000Y-54510000D01*
X141510000Y-56920000D02*
X141510000Y-57250000D01*
X141510000Y-57250000D02*
X148050000Y-57250000D01*
X148050000Y-54510000D02*
X148050000Y-54840000D01*
X148050000Y-57250000D02*
X148050000Y-56920000D01*
%TO.C,D3*%
X97515000Y-83840000D02*
X100605000Y-83840000D01*
X97515170Y-83840000D02*
G75*
G02*
X99060000Y-78290000I1544830J2560000D01*
G01*
X99060000Y-78290000D02*
G75*
G02*
X100604830Y-83840000I0J-2990000D01*
G01*
X101560000Y-81280000D02*
G75*
G02*
X96560000Y-81280000I-2500000J0D01*
G01*
X96560000Y-81280000D02*
G75*
G02*
X101560000Y-81280000I2500000J0D01*
G01*
%TO.C,U2*%
X122368000Y-77506000D02*
X122368000Y-78756000D01*
X122368000Y-80756000D02*
X122368000Y-82006000D01*
X122368000Y-82006000D02*
X132648000Y-82006000D01*
X132648000Y-77506000D02*
X122368000Y-77506000D01*
X132648000Y-82006000D02*
X132648000Y-77506000D01*
X122308000Y-85006000D02*
X132708000Y-85006000D01*
X132708000Y-74506000D01*
X122308000Y-74506000D01*
X122308000Y-85006000D01*
X122368000Y-78756000D02*
G75*
G02*
X122368000Y-80756000I0J-1000000D01*
G01*
%TO.C,C2*%
X125098000Y-88800000D02*
X132538000Y-88800000D01*
X125098000Y-91540000D02*
X125098000Y-88800000D01*
X132538000Y-88800000D02*
X132538000Y-91540000D01*
X132538000Y-91540000D02*
X125098000Y-91540000D01*
%TO.C,Q2*%
X27410000Y-53264000D02*
X31010000Y-53264000D01*
X26853600Y-50315193D02*
G75*
G02*
X29210000Y-48814000I2356400J-1098807D01*
G01*
X27410000Y-53264000D02*
G75*
G02*
X26885816Y-52536795I1800000J1850000D01*
G01*
X29210000Y-48814000D02*
G75*
G02*
X31566400Y-50315193I0J-2600000D01*
G01*
X31534184Y-52536795D02*
G75*
G02*
X31010000Y-53264000I-2324184J1122795D01*
G01*
%TO.C,C1*%
X28030000Y-36730000D02*
X35470000Y-36730000D01*
X28030000Y-39470000D02*
X28030000Y-36730000D01*
X35470000Y-36730000D02*
X35470000Y-39470000D01*
X35470000Y-39470000D02*
X28030000Y-39470000D01*
%TO.C,R2*%
X120142000Y-71906000D02*
X120142000Y-72676000D01*
X120142000Y-79986000D02*
X120142000Y-79216000D01*
X121512000Y-72676000D02*
X118772000Y-72676000D01*
X118772000Y-79216000D01*
X121512000Y-79216000D01*
X121512000Y-72676000D01*
%TO.C,R20*%
X110490000Y-70636000D02*
X110490000Y-73946000D01*
X110490000Y-83796000D02*
X110490000Y-80486000D01*
X111860000Y-73946000D02*
X109120000Y-73946000D01*
X109120000Y-80486000D01*
X111860000Y-80486000D01*
X111860000Y-73946000D01*
%TD*%
M02*
